<svg width="60" height="73" viewBox="0 0 60 73" fill="none" xmlns="http://www.w3.org/2000/svg">
<rect width="1456" height="2417" transform="translate(-1289 -250)" fill="white"/>
<path d="M15.5459 10.0343C15.0969 10.2042 14.6527 10.2547 14.2132 10.1858C13.7776 10.1083 13.3794 9.91327 13.0188 9.60069C12.662 9.27952 12.3774 8.83836 12.165 8.2772C11.9503 7.70981 11.8808 7.18723 11.9566 6.70947C12.0301 6.22548 12.2137 5.80669 12.5076 5.45311C12.8015 5.09954 13.1635 4.84134 13.5937 4.67851C13.9242 4.55345 14.2303 4.50531 14.5121 4.53411C14.8001 4.56054 15.062 4.62178 15.298 4.71782L15.0801 5.4418C14.8872 5.36513 14.6912 5.31813 14.4922 5.30079C14.2994 5.28109 14.1032 5.30899 13.9037 5.3845C13.5982 5.50013 13.3545 5.68502 13.1727 5.93916C12.9909 6.1933 12.8868 6.49285 12.8606 6.83782C12.8343 7.18278 12.8955 7.55167 13.0442 7.94447C13.1905 8.33105 13.3846 8.64608 13.6264 8.88957C13.8745 9.13071 14.1445 9.28867 14.4366 9.36348C14.7349 9.43592 15.0399 9.41314 15.3517 9.29516C15.5886 9.20548 15.7891 9.07613 15.9532 8.90709C16.115 8.73182 16.2498 8.5418 16.3577 8.33704L16.9512 8.77532C16.796 9.06215 16.5994 9.31478 16.3613 9.5332C16.1232 9.75162 15.8514 9.91864 15.5459 10.0343ZM21.6948 8.04968C21.4722 8.09237 21.2834 8.08108 21.1283 8.01578C20.9732 7.95049 20.846 7.83574 20.7466 7.67152C20.646 7.50075 20.5718 7.29097 20.5241 7.04217L19.2281 0.285334L20.1316 0.112034L21.4389 6.9278C21.4653 7.06529 21.5071 7.15911 21.5642 7.20924C21.6279 7.25812 21.6924 7.27628 21.7579 7.26372C21.7841 7.2587 21.8103 7.25368 21.8365 7.24865C21.8614 7.23708 21.8962 7.22363 21.9407 7.20829L22.2003 7.87127C22.1386 7.90347 22.0697 7.93365 21.9936 7.96182C21.9188 7.99653 21.8192 8.02581 21.6948 8.04968ZM28.193 7.38056C27.753 7.38078 27.3396 7.27099 26.9528 7.05119C26.5661 6.82473 26.2559 6.50155 26.0223 6.08167C25.7955 5.65512 25.6819 5.14185 25.6815 4.54185C25.6812 3.93518 25.7943 3.42179 26.0208 3.00167C26.2539 2.57488 26.5637 2.24806 26.9503 2.02119C27.3368 1.79433 27.7501 1.68078 28.1901 1.68056C28.5234 1.68038 28.8401 1.74355 29.1402 1.87007C29.4469 1.99658 29.717 2.1831 29.9505 2.42965C30.1839 2.6762 30.3674 2.9761 30.5009 3.32937C30.6344 3.68263 30.7013 4.08593 30.7015 4.53926C30.7019 5.13926 30.5855 5.65266 30.3523 6.07944C30.1192 6.49956 29.8127 6.82306 29.4328 7.04992C29.053 7.27011 28.6397 7.38033 28.193 7.38056ZM28.1926 6.62056C28.506 6.62039 28.7792 6.53359 29.0125 6.36013C29.2524 6.18668 29.4389 5.94325 29.5721 5.62985C29.7053 5.31644 29.7718 4.95308 29.7715 4.53974C29.7713 4.11974 29.7045 3.75311 29.571 3.43985C29.4375 3.12658 29.2507 2.88334 29.0106 2.71013C28.7772 2.53692 28.5038 2.45039 28.1905 2.45056C27.8771 2.45072 27.6005 2.53753 27.3606 2.71098C27.1274 2.88444 26.9442 3.12786 26.811 3.44127C26.6845 3.75466 26.6213 4.12136 26.6215 4.54136C26.6218 4.9547 26.6853 5.318 26.8121 5.63127C26.9456 5.94453 27.1291 6.18777 27.3625 6.36098C27.6026 6.53419 27.8793 6.62072 28.1926 6.62056ZM36.0216 7.8615C35.6499 7.78248 35.3025 7.63706 34.9795 7.42525C34.6644 7.2083 34.4052 6.96915 34.2017 6.7078L34.759 6.20265C34.9535 6.44166 35.1622 6.64621 35.385 6.81627C35.6079 6.98633 35.8791 7.10533 36.1986 7.17327C36.5507 7.24814 36.8282 7.22535 37.031 7.10489C37.2417 6.97931 37.3721 6.79914 37.422 6.56438C37.4608 6.3818 37.4307 6.21865 37.3318 6.07493C37.2408 5.92607 37.1097 5.78916 36.9386 5.66418C36.7754 5.53406 36.6037 5.41234 36.4233 5.29902C36.1963 5.14852 35.9746 4.98893 35.7583 4.82026C35.5499 4.64645 35.3876 4.44835 35.2713 4.22597C35.1629 3.99845 35.1406 3.73471 35.2044 3.43475C35.2654 3.14783 35.3912 2.90877 35.5818 2.71756C35.7737 2.51983 36.0205 2.38487 36.3222 2.31269C36.6251 2.23398 36.969 2.23553 37.3537 2.31733C37.6798 2.38666 37.9705 2.50982 38.226 2.68681C38.4879 2.86519 38.702 3.06065 38.8681 3.27317L38.3191 3.7392C38.1643 3.56996 37.9988 3.4189 37.8225 3.28601C37.6528 3.15451 37.4506 3.0638 37.2159 3.01389C36.8768 2.94179 36.6091 2.96666 36.4128 3.0885C36.2244 3.20521 36.108 3.36789 36.0636 3.57656C36.029 3.73958 36.052 3.88762 36.1328 4.02065C36.2201 4.15508 36.3434 4.28014 36.5029 4.39582C36.6637 4.50499 36.8336 4.61949 37.0126 4.73934C37.1929 4.85266 37.3687 4.97181 37.5398 5.09679C37.7174 5.22316 37.8687 5.36097 37.9937 5.51024C38.1252 5.66089 38.2179 5.83395 38.2718 6.02943C38.3336 6.21977 38.3374 6.4421 38.2833 6.69641C38.2223 6.98333 38.0912 7.23148 37.8899 7.44087C37.6952 7.65164 37.4391 7.79825 37.1216 7.88071C36.8121 7.95803 36.4454 7.95163 36.0216 7.8615ZM43.713 10.0429C43.2615 9.86137 42.8955 9.59213 42.615 9.23514C42.3346 8.87814 42.1645 8.46129 42.1046 7.98457C42.0534 7.50415 42.1384 6.98868 42.3597 6.43814C42.5262 6.0237 42.736 5.6805 42.989 5.40856C43.2445 5.13044 43.5234 4.9192 43.8257 4.77486C44.1366 4.62681 44.4518 4.54871 44.7712 4.54057C45.0931 4.52624 45.3964 4.57626 45.6809 4.69062C46.1139 4.86465 46.4403 5.1072 46.6602 5.41829C46.88 5.72939 46.9952 6.09539 47.0056 6.51632C47.0248 6.93355 46.9374 7.38341 46.7434 7.8659C46.7062 7.95869 46.6683 8.04404 46.6297 8.12197C46.5912 8.1999 46.5521 8.2704 46.5124 8.33347L43.1164 6.96862C42.9908 7.33485 42.9457 7.67955 42.981 8.00272C43.0251 8.32219 43.1379 8.60463 43.3195 8.85004C43.5035 9.08927 43.7564 9.27353 44.078 9.4028C44.3255 9.50225 44.5618 9.55772 44.7871 9.56924C45.0211 9.57705 45.2588 9.55763 45.5003 9.51098L45.5697 10.1963C45.2961 10.2516 45.0032 10.274 44.6913 10.2636C44.3793 10.2532 44.0533 10.1796 43.713 10.0429ZM43.3495 6.36177L46.0496 7.44695C46.2535 6.93971 46.2975 6.50835 46.1817 6.15286C46.0746 5.79368 45.8231 5.53453 45.4272 5.37542C45.1922 5.28095 44.9446 5.25331 44.6846 5.2925C44.4307 5.33417 44.1867 5.44086 43.9524 5.61255C43.7243 5.78673 43.5234 6.03647 43.3495 6.36177Z" fill="#7A118B"/>
<circle cx="30" cy="43" r="29.5" fill="#7A118B" stroke="#7A118B"/>
<line x1="43.3536" y1="30.3536" x2="17.3536" y2="56.3536" stroke="#FFFBF8"/>
<line x1="41.9385" y1="56.9837" x2="17.3046" y2="29.6858" stroke="#FFFBF8"/>
</svg>
