<svg width="21" height="21" viewBox="0 0 21 21" fill="none" xmlns="http://www.w3.org/2000/svg">
<path d="M17.8703 6.80203C17.1298 3.06862 14.5215 0.65625 11.2252 0.65625C11.1202 0.65625 11.0143 0.658656 10.9082 0.663469C8.03217 0.794719 6.1507 1.65473 4.98783 3.36984C3.86236 5.02884 3.41512 7.45566 3.53751 11.2389C3.56048 11.9605 3.41742 12.8687 3.26583 13.8298C2.94033 15.8957 2.60301 18.0318 3.73931 19.3351C4.32305 20.0045 5.21292 20.3438 6.38498 20.3438C6.65503 20.3438 6.94608 20.326 7.25058 20.2906C8.81606 20.1082 9.41062 19.2934 9.98583 18.5056C10.6191 17.638 11.3374 16.6546 13.6602 15.7297C17.4684 14.2124 18.5125 10.0387 17.8703 6.80203ZM13.3704 15.0278C8.67694 16.8971 9.82308 19.2288 7.16034 19.5385C6.88078 19.5707 6.62244 19.5867 6.38531 19.5864C1.97104 19.5864 4.40409 14.2124 4.30762 11.2143C4.08187 4.24101 5.84489 1.65277 10.9443 1.4198C11.0383 1.41542 11.1319 1.41323 11.2248 1.41323C17.9035 1.41356 19.6944 12.5091 13.3704 15.0278Z" fill="#7A118B"/>
<path d="M15.1869 8.82689C15.0947 7.83057 14.8265 6.8585 14.3949 5.9558C13.9466 5.05444 13.3235 4.18819 12.4002 3.57722C11.9428 3.27173 11.4001 3.04533 10.8173 2.96592C10.2362 2.88159 9.63146 2.95017 9.08743 3.12998C8.58901 3.29733 8.09321 3.51717 7.63384 3.82889C7.17578 4.13897 6.75939 4.54847 6.45029 5.03738C6.15039 5.53088 5.96336 6.09098 5.91315 6.64388C5.8684 7.1806 5.92415 7.72097 6.07754 8.23725C6.29575 8.98144 6.65143 9.65967 7.1236 10.2355C6.74692 10.1371 6.3699 10.0879 5.99125 10.0718L5.95154 10.2021C6.35842 10.4475 6.76103 10.6815 7.10621 10.9436C7.27651 11.0749 7.43171 11.2156 7.54623 11.3538C7.66337 11.4936 7.71686 11.6347 7.72178 11.7292C7.7244 11.8246 7.6929 11.9047 7.62301 12.0251C7.55771 12.1439 7.44746 12.2817 7.31457 12.4166C7.04486 12.6873 6.70984 12.9609 6.36071 13.2431C6.01093 13.5394 5.64934 13.8045 5.2674 14.2531C5.17192 14.3752 5.06626 14.4998 4.96553 14.7417C4.89842 14.9066 4.87579 15.0863 4.8999 15.2627C4.92845 15.4898 5.0702 15.7031 5.19554 15.811C5.32712 15.9288 5.42818 15.9764 5.5404 16.0253C5.63228 16.063 5.70381 16.0821 5.77304 16.1027C5.91742 16.1419 6.06311 16.1713 6.21011 16.191C6.77925 16.2628 7.35719 16.1778 7.88157 15.9452C8.38164 15.7293 8.79212 15.3976 9.1465 15.0462C9.50021 14.6905 9.79192 14.2987 10.059 13.9007C10.3233 13.5028 10.5583 13.0862 10.7622 12.6541C10.9646 12.221 11.1556 11.7705 11.2757 11.2793C11.3948 10.795 11.4365 10.2585 11.3449 9.73842C11.1681 8.68186 10.3898 7.75195 9.44411 7.27847C8.70812 6.90113 7.86189 6.79317 7.09965 6.94313C7.18693 6.51066 7.351 6.11592 7.60792 5.78878C8.0604 5.18438 8.76981 4.73911 9.57536 4.39163C9.93268 4.23347 10.3084 4.15013 10.6893 4.16784C11.0696 4.1872 11.4535 4.30369 11.8138 4.50286C12.5337 4.90908 13.1326 5.60241 13.5772 6.37481C14.0293 7.14886 14.3424 8.01839 14.5002 8.91483C14.6613 9.80963 14.6695 10.7431 14.4385 11.6291C14.2118 12.5111 13.7179 13.3429 12.9596 13.9148L13.0384 14.0273C13.4611 13.7713 13.834 13.4409 14.1392 13.0522C14.4441 12.662 14.678 12.2181 14.847 11.7531C15.1847 10.8196 15.2709 9.81192 15.1869 8.82689ZM7.79528 7.59281C8.19461 7.74769 8.55882 7.94325 8.87776 8.18278C9.52646 8.65922 9.94384 9.3053 10.2247 10.0265C10.3 10.2076 10.3615 10.3973 10.4094 10.5955C10.438 10.6926 10.4544 10.7989 10.4747 10.8947C10.4921 11.0181 10.5043 11.0955 10.5131 11.2094C10.5446 11.6297 10.4964 12.0743 10.3478 12.4888C10.0554 13.3209 9.42442 14.0362 8.67137 14.4641C7.9869 14.8529 7.2414 15.0422 6.61895 14.954C6.83387 14.7669 7.0885 14.5579 7.33065 14.3433C7.6824 14.025 8.04596 13.6854 8.36293 13.2431C8.52011 13.0203 8.67203 12.7732 8.77637 12.4651C8.87907 12.1623 8.90368 11.7616 8.76686 11.4171C8.63462 11.0709 8.38721 10.8386 8.15556 10.6782C7.99209 10.5651 7.81601 10.4715 7.63089 10.3993C7.31293 9.62555 7.09932 8.83148 7.03632 8.06433C7.01882 7.82852 7.01948 7.59817 7.03829 7.3733C7.30178 7.43203 7.55378 7.50225 7.79528 7.59281Z" fill="#7A118B"/>
</svg>
