<svg width="223" height="80" viewBox="0 0 223 80" fill="none" xmlns="http://www.w3.org/2000/svg">
<g clip-path="url(#clip0_30_100)">
<path d="M107.826 49.0188C116.901 49.0188 124.258 42.8351 124.258 35.207C124.258 27.579 116.901 21.3953 107.826 21.3953C98.7505 21.3953 91.3936 27.579 91.3936 35.207C91.3936 42.8351 98.7505 49.0188 107.826 49.0188Z" fill="url(#paint0_radial_30_100)"/>
<path d="M118.413 23.8165C116.569 22.7106 114.459 21.8306 112.132 21.2847C115.951 19.8635 120.16 19.3459 124.42 19.8918C122.106 20.9365 120.09 22.2823 118.418 23.8165H118.413Z" fill="#52DD5F"/>
<path d="M67.741 10.6023C67.8943 10.6635 67.9361 10.7858 67.8804 10.9741C67.8014 11.2423 67.6992 11.4823 67.5784 11.6941C67.9222 11.5576 68.2706 11.4258 68.6144 11.2941C68.7492 11.2423 68.8885 11.247 69.0418 11.3082C69.1905 11.3694 69.2881 11.4635 69.3345 11.5858C69.4182 11.8117 69.5018 12.0423 69.5808 12.2682C69.6412 12.4329 69.5947 12.5458 69.4414 12.6023C69.2881 12.6588 69.1812 12.607 69.1208 12.4423C69.0465 12.2447 68.9768 12.0517 68.9025 11.8541C68.8653 11.7505 68.791 11.7223 68.6795 11.76C66.5703 12.56 64.475 13.4305 62.4029 14.3623C62.2914 14.4094 62.2636 14.4847 62.3054 14.5882C62.4076 14.8188 62.5098 15.0494 62.612 15.2847C62.6817 15.4447 62.6445 15.5623 62.4912 15.6282C62.3379 15.6988 62.231 15.6517 62.1567 15.4917C62.0406 15.2282 61.9244 14.9694 61.8083 14.7058C61.7525 14.5835 61.7572 14.4517 61.8222 14.3011C61.8873 14.1505 61.9848 14.047 62.1149 13.9858C62.4122 13.8541 62.7049 13.7223 63.0023 13.5905C62.8861 13.4964 62.7374 13.3976 62.5563 13.2847C62.4401 13.1435 62.4308 13.0258 62.5237 12.9364C62.6074 12.8282 62.7282 12.8 62.8815 12.8517C63.1695 12.9647 63.4064 13.1294 63.5969 13.3317C64.1823 13.0776 64.763 12.8282 65.3484 12.5882C65.1626 12.4517 64.9674 12.3153 64.7584 12.1882C64.6422 12.0941 64.6237 11.9953 64.7119 11.887C64.8141 11.7505 64.9396 11.7082 65.0929 11.7647C65.4134 11.92 65.6968 12.1129 65.9477 12.3435C66.2915 12.2023 66.6353 12.0658 66.9791 11.9294C67.0906 11.5529 67.2021 11.1764 67.3182 10.8047C67.3833 10.6353 67.5273 10.5694 67.7457 10.6023H67.741ZM64.9396 15.52C65.0789 15.5529 65.1347 15.6517 65.0975 15.8117C65.0882 15.8776 65.0743 15.9388 65.065 16.0047C66.2962 15.4729 67.5366 14.9647 68.7863 14.48C68.9814 14.4047 69.1162 14.4611 69.1859 14.6447C69.2463 14.8094 69.1719 15.0635 68.9536 15.407C68.6981 15.84 68.3635 16.2541 67.9594 16.6541C68.935 16.4988 69.8549 16.2917 70.7329 16.0329C70.8955 16.0188 70.9884 16.0658 71.0024 16.1788C71.0628 16.3435 70.9838 16.4658 70.7747 16.5458C70.4356 16.6729 70.0082 16.7905 69.4878 16.8988C68.856 17.0258 68.1684 17.1153 67.4204 17.1576C66.4866 18.0894 65.4042 18.7953 64.1498 19.2941C64.0058 19.36 63.9036 19.3317 63.8524 19.2141C63.7874 19.0729 63.8292 18.9694 63.9779 18.9035C65.1254 18.3811 66.036 17.8117 66.7189 17.167C65.9013 17.1764 65.2648 17.0917 64.8095 16.9082C64.5493 17.4776 64.2195 17.9153 63.8246 18.2164C63.6759 18.3341 63.5505 18.3388 63.4575 18.24C63.3507 18.1176 63.3739 18 63.5272 17.8823C64.1637 17.2564 64.5261 16.5458 64.619 15.7364C64.6515 15.5764 64.763 15.5058 64.9489 15.52H64.9396ZM68.0198 9.7882C68.0894 9.90584 68.0198 10.0235 67.806 10.1505C67.2439 10.4376 66.5424 10.767 65.7061 11.1529C64.3635 11.7694 63.0534 12.367 61.7711 12.9458C61.6178 13.0164 61.5109 12.9882 61.4598 12.8705C61.4087 12.7482 61.4598 12.6541 61.6132 12.5835C62.454 12.2023 63.0534 11.9341 63.4018 11.76C63.9965 11.4823 64.5865 11.1953 65.1765 10.9082C65.8641 10.6023 66.691 10.1882 67.6667 9.67525C67.8246 9.61408 67.9408 9.65172 68.0198 9.7882ZM63.4297 14.4141C63.5551 14.4047 63.6294 14.4941 63.6573 14.6729C63.7038 15.2047 63.6527 15.6517 63.4994 16.0047C63.4343 16.1553 63.3228 16.2164 63.1602 16.1929C63.0394 16.1505 62.9883 16.0658 63.0069 15.9341C63.1277 15.4447 63.1927 15.0305 63.202 14.6917C63.1742 14.5129 63.2531 14.4188 63.4297 14.4094V14.4141ZM64.9907 16.5458C65.7805 16.6823 66.5238 16.7294 67.2207 16.6776C67.7224 16.2588 68.1638 15.7223 68.5633 15.0682C67.3647 15.5388 66.1754 16.0329 64.9907 16.5458ZM64.2427 14.1317C64.173 13.9717 64.2148 13.8541 64.3681 13.7882C64.5214 13.7223 64.6329 13.7694 64.698 13.9341C64.8141 14.207 64.9256 14.4847 65.0418 14.7576C65.0836 14.8611 65.1579 14.8894 65.2694 14.8423C65.9431 14.5553 66.6167 14.2776 67.2904 14.0094C67.5319 13.9153 67.6063 13.7553 67.518 13.5247C67.4808 13.4305 67.4483 13.3411 67.4112 13.247C67.3461 13.0823 67.3926 12.9694 67.5459 12.9082C67.6992 12.847 67.8107 12.8988 67.8711 13.0635C67.9268 13.2094 67.9826 13.3505 68.0383 13.4964C68.1963 13.9105 68.0569 14.1976 67.6202 14.3717C66.8258 14.687 66.036 15.0164 65.2508 15.3505C64.9953 15.4117 64.8002 15.3411 64.6655 15.1341C64.5261 14.8 64.3821 14.4658 64.2427 14.1317ZM65.4227 13.3458C65.4971 13.2188 65.6086 13.1717 65.7526 13.2094C65.9942 13.2988 66.2636 13.4635 66.561 13.6988C66.6818 13.8164 66.6911 13.9294 66.5842 14.047C66.4773 14.16 66.3565 14.1741 66.2218 14.0894C65.9338 13.8776 65.7015 13.7223 65.5342 13.6235C65.4042 13.5576 65.367 13.4682 65.4227 13.3458ZM68.0802 12.4188C68.1359 12.3011 68.2381 12.2635 68.3775 12.3011C69.014 12.5788 69.4274 12.8894 69.6272 13.2376C69.6597 13.3929 69.6133 13.5011 69.4878 13.5717C69.4089 13.6235 69.302 13.6094 69.1673 13.5153C68.8839 13.2235 68.554 12.9505 68.1824 12.6917C68.0476 12.6023 68.0105 12.5082 68.0755 12.4141L68.0802 12.4188Z" fill="#B71C1C"/>
<path d="M72.3776 8.06114C72.5588 7.99996 72.6796 8.05173 72.7353 8.22114C72.7725 8.48937 72.7911 8.70114 72.7911 8.86584C73.6227 8.5882 74.4543 8.32467 75.2859 8.07055C75.4671 8.01408 75.5832 8.06114 75.625 8.20702C75.6669 8.3529 75.5972 8.45643 75.416 8.5129C74.9514 8.65408 74.4822 8.80467 74.0176 8.95055C74.1988 9.52937 74.38 10.1082 74.5611 10.687C75.0954 10.5129 75.6343 10.3482 76.1733 10.1835C76.3544 10.127 76.4659 10.1741 76.5077 10.3247C76.5496 10.4753 76.4845 10.5741 76.3033 10.6258C75.7691 10.7905 75.2301 10.9553 74.6959 11.1294C74.747 11.3694 74.7981 11.6047 74.8445 11.8447C75.704 12.2635 76.4195 12.687 77.0002 13.1105C77.1675 13.2658 77.2 13.4211 77.0978 13.5623C76.9537 13.7223 76.7911 13.727 76.6053 13.5764C76.0153 13.1153 75.4531 12.7388 74.9235 12.4423C74.8864 13.4023 74.5751 14.3058 73.9944 15.1529C73.855 15.3176 73.7295 15.36 73.6088 15.2847C73.488 15.2094 73.4694 15.087 73.5576 14.9176C74.3103 13.7976 74.5426 12.5882 74.2266 11.28C73.6924 11.4541 73.1628 11.6329 72.6285 11.8117C72.4519 11.8729 72.3404 11.8305 72.2893 11.6847C72.2382 11.5388 72.3033 11.4353 72.4845 11.3741C73.0187 11.1905 73.553 11.0117 74.0873 10.8376C73.9061 10.2588 73.7202 9.68467 73.5391 9.10584C73.2882 9.18584 73.042 9.27055 72.7911 9.35055C72.7911 9.81643 72.7353 10.2541 72.6192 10.6635C72.5402 10.8753 72.4148 10.9553 72.2475 10.8941C72.1546 10.8329 72.1221 10.7388 72.1546 10.6117C72.2986 9.76937 72.3079 9.03526 72.1778 8.40467C72.1453 8.23055 72.2104 8.1129 72.3683 8.06114H72.3776ZM78.6077 6.75761C78.905 6.67761 79.0955 6.77643 79.1652 7.04937C79.6437 8.88467 80.1269 10.7153 80.6054 12.5505C80.6797 12.8282 80.5729 13.0023 80.2895 13.0823C79.6483 13.2564 79.0072 13.44 78.3661 13.6282C78.0827 13.7129 77.9015 13.6141 77.8225 13.3411C77.2929 11.52 76.7679 9.69878 76.2383 7.88231C76.1593 7.60937 76.2662 7.42584 76.5681 7.33643C77.2464 7.13878 77.9247 6.94584 78.6077 6.75761ZM76.7772 7.92937C77.2604 9.62349 77.7435 11.3176 78.2267 13.0164C78.2592 13.1247 78.3243 13.1576 78.4358 13.1294C78.9468 12.9788 79.4625 12.8329 79.9735 12.6917C80.0804 12.6635 80.1222 12.5929 80.0943 12.4847C79.639 10.7811 79.1838 9.07761 78.7331 7.37408C78.7052 7.26584 78.6309 7.2282 78.5194 7.26114C77.9805 7.41173 77.4416 7.56231 76.9026 7.71761C76.7865 7.75055 76.7447 7.82114 76.7772 7.92467V7.92937Z" fill="#B71C1C"/>
<path d="M88.5312 4.11291C88.4986 3.9388 88.5683 3.83527 88.7309 3.80703C88.8935 3.7788 88.9911 3.84938 89.0236 4.0235C89.0422 4.14115 89.0654 4.2635 89.084 4.38115C90.2222 4.1835 91.3605 3.99997 92.5033 3.83527C92.4848 3.71291 92.4708 3.59527 92.4522 3.47291C92.429 3.2988 92.4987 3.19997 92.666 3.17644C92.8332 3.15291 92.9261 3.22821 92.9493 3.40233C92.9679 3.52468 92.9819 3.64233 93.0004 3.76468C93.544 3.68938 94.0829 3.6188 94.6265 3.54821C94.817 3.52468 94.9192 3.59056 94.9378 3.74115C94.9563 3.89644 94.8727 3.98115 94.6822 4.00468C94.1433 4.07056 93.6044 4.14115 93.0608 4.21644C93.0794 4.3388 93.0934 4.45644 93.1119 4.5788C93.1352 4.75291 93.0655 4.85174 92.9029 4.87527C92.7403 4.8988 92.6474 4.8235 92.6195 4.64938C92.6009 4.52703 92.587 4.40938 92.5684 4.28703C91.4302 4.45174 90.2966 4.63056 89.163 4.82821C89.1909 4.9788 89.2141 5.13409 89.242 5.28468C89.2698 5.4588 89.2048 5.55762 89.0422 5.59056C88.8796 5.6188 88.782 5.54821 88.7542 5.37409C88.7263 5.2235 88.7031 5.06821 88.6752 4.91762C88.1363 5.01174 87.602 5.11527 87.0677 5.2188C86.8819 5.25644 86.775 5.19997 86.7425 5.04468C86.7146 4.89409 86.7936 4.79997 86.9794 4.76233C87.5184 4.6588 88.0573 4.55527 88.5962 4.46115C88.5776 4.3435 88.5544 4.22115 88.5358 4.1035L88.5312 4.11291ZM87.4719 7.9435C87.4533 7.83527 87.5091 7.76938 87.6438 7.74115C87.7553 7.71762 87.9411 7.74115 88.1874 7.80703C88.3871 7.8588 88.6241 7.9388 88.8982 8.04703C89.098 8.12233 89.2095 8.22585 89.2327 8.35762C89.2652 8.53174 89.2002 8.63056 89.0422 8.6588C88.9307 8.67762 88.782 8.63997 88.6008 8.53644C88.3453 8.40468 88.0898 8.29644 87.8389 8.21174C87.6206 8.18821 87.4998 8.0988 87.4719 7.94821V7.9435ZM89.6276 9.19056C89.7391 9.17174 89.8041 9.21409 89.8227 9.32233C89.8366 9.41174 89.7995 9.5388 89.7158 9.71291C89.465 10.2729 89.1491 10.8 88.7588 11.2988C88.6612 11.3835 88.5683 11.4353 88.4801 11.4541C88.35 11.4776 88.2571 11.4164 88.2059 11.2706C88.1874 11.1623 88.2059 11.0682 88.2571 10.9929C88.4429 10.7764 88.6334 10.5411 88.8146 10.2823C89.0515 9.94821 89.2513 9.62821 89.4092 9.33174C89.465 9.25644 89.5393 9.20938 89.6276 9.19056ZM87.5741 6.40938C87.5509 6.27762 87.6066 6.20233 87.746 6.17409C87.8389 6.15527 88.0015 6.19291 88.2338 6.28703C88.4661 6.37644 88.7077 6.47997 88.9679 6.59291C89.1491 6.67291 89.2466 6.76703 89.2652 6.87527C89.2977 7.07291 89.2466 7.18115 89.1119 7.20468C88.9957 7.2235 88.8842 7.20468 88.782 7.12938C88.3871 6.90821 88.0619 6.74821 87.8018 6.63997C87.6717 6.57409 87.5973 6.4988 87.5788 6.41409L87.5741 6.40938ZM92.4708 5.61409C92.8889 5.55291 93.3071 5.49644 93.7252 5.43997C93.6973 5.39762 93.6137 5.31291 93.479 5.17174C93.4279 5.13409 93.3953 5.07291 93.3814 4.9835C93.3628 4.85174 93.4232 4.77644 93.5672 4.75762C93.6834 4.7435 93.7949 4.77174 93.8971 4.84703C94.0318 4.96468 94.1712 5.13409 94.3152 5.35997C94.4778 5.34115 94.6404 5.31762 94.803 5.2988C94.9889 5.27527 95.0911 5.34115 95.1097 5.49644C95.1282 5.65174 95.0446 5.73644 94.8588 5.75997C94.0829 5.8588 93.3117 5.96233 92.5359 6.07527C92.5637 6.28233 92.5963 6.48938 92.6241 6.69644C93.2002 6.61174 93.7717 6.53174 94.3477 6.45644C94.4871 6.43762 94.6172 6.47527 94.7473 6.57409C94.8774 6.66821 94.9471 6.78115 94.9656 6.91291C95.0864 7.88703 95.2026 8.86115 95.3234 9.83527C95.3512 10.0517 95.3141 10.2259 95.2165 10.3482C95.0957 10.4753 94.9145 10.5553 94.6729 10.5835C94.5196 10.6023 94.371 10.6117 94.2362 10.607C94.1201 10.6023 94.0086 10.5835 93.8925 10.5553C93.7995 10.5223 93.7438 10.4659 93.7345 10.3764C93.7159 10.2447 93.7763 10.1694 93.9064 10.1506C93.9714 10.1411 94.0504 10.1411 94.1433 10.1506C94.3477 10.1647 94.5057 10.1553 94.6172 10.1223C94.7705 10.08 94.8495 9.99056 94.8541 9.8588C94.817 9.57644 94.7845 9.28938 94.7473 9.00703C94.1619 9.08233 93.5812 9.16233 92.9958 9.24703C93.0469 9.59527 93.0934 9.9435 93.1445 10.2964C93.1677 10.4706 93.1027 10.5694 92.9493 10.5929C92.796 10.6164 92.7031 10.5411 92.6799 10.367C92.6288 10.0188 92.5777 9.67056 92.5266 9.31762C91.9784 9.40233 91.4302 9.48703 90.8819 9.57644C90.9516 9.99997 91.0213 10.4235 91.0864 10.8517C91.1142 11.0259 91.0492 11.1247 90.8959 11.1529C90.7426 11.1811 90.6497 11.1059 90.6218 10.9317C90.4406 9.83527 90.2548 8.73409 90.0736 7.63762C90.0503 7.50585 90.0875 7.3788 90.1851 7.25174C90.2826 7.12468 90.3988 7.04938 90.5382 7.02585C91.0771 6.93644 91.616 6.85174 92.1549 6.77174C92.1224 6.56468 92.0945 6.35762 92.062 6.15056C91.3233 6.2635 90.5846 6.38115 89.8506 6.50821C89.6647 6.54115 89.5625 6.47997 89.5347 6.32938C89.5068 6.1788 89.5858 6.08468 89.7716 6.05174C90.5103 5.92468 91.2536 5.80703 91.9923 5.69409C91.9737 5.56233 91.9551 5.43056 91.9366 5.3035C91.9087 5.12938 91.9784 5.03056 92.141 5.00703C92.3036 4.9835 92.3965 5.0588 92.4244 5.23291C92.443 5.36468 92.4615 5.49644 92.4801 5.62821L92.4708 5.61409ZM90.5474 7.59056C90.5753 7.76468 90.6032 7.9388 90.6311 8.11291C91.1886 8.0188 91.7414 7.93409 92.2989 7.84938C92.2664 7.6188 92.2292 7.39291 92.1967 7.16233C91.695 7.23762 91.1932 7.31762 90.6868 7.40233C90.5707 7.42115 90.5242 7.48703 90.5428 7.59527L90.5474 7.59056ZM90.8076 9.19056C91.3558 9.10115 91.9087 9.01174 92.4615 8.92703C92.429 8.69644 92.3918 8.47056 92.3593 8.23997C91.8065 8.32468 91.249 8.40938 90.6961 8.5035C90.7333 8.73409 90.7705 8.95997 90.8076 9.19056ZM92.7774 7.7788C93.3675 7.69409 93.9621 7.60938 94.5522 7.53409C94.5289 7.35997 94.5057 7.18585 94.4871 7.00703C94.4732 6.8988 94.4081 6.85174 94.2966 6.86585C93.7577 6.93644 93.2188 7.01174 92.6845 7.09174C92.7171 7.32233 92.7496 7.54821 92.7821 7.7788H92.7774ZM92.9308 8.85644C93.5161 8.77174 94.1015 8.69174 94.6869 8.61174C94.659 8.38115 94.6265 8.15056 94.5986 7.92468C94.0086 7.99997 93.4186 8.08468 92.8286 8.16938C92.8611 8.39997 92.8936 8.62585 92.9261 8.85644H92.9308Z" fill="#B71C1C"/>
<path d="M101.238 2.59286C101.544 2.57403 101.711 2.7058 101.725 2.99286C101.744 3.32227 101.767 3.65168 101.786 3.9858C101.916 3.97639 102.046 3.97168 102.171 3.96227C102.357 3.95286 102.459 4.02345 102.464 4.17874C102.473 4.33403 102.385 4.41403 102.195 4.42815C102.064 4.43756 101.939 4.44227 101.809 4.45168C101.828 4.78109 101.851 5.1105 101.869 5.44462C101.888 5.73168 101.744 5.88227 101.447 5.90109C100.926 5.93403 100.411 5.97168 99.8902 6.01403C99.8716 6.34815 99.7369 6.7105 99.4953 7.1105C100.178 7.05403 100.866 7.00227 101.553 6.95521C101.851 6.93639 102.009 7.06815 102.027 7.35521C102.069 8.01403 102.106 8.67756 102.148 9.33639C102.167 9.62345 102.027 9.77403 101.739 9.79286C100.982 9.84462 100.225 9.90109 99.4675 9.96698C99.1794 9.99051 99.0215 9.86345 98.9936 9.57639C98.9471 9.0258 98.896 8.47992 98.8496 7.92933C98.7474 8.05168 98.5755 8.18815 98.3385 8.34345C98.1806 8.38109 98.0784 8.35756 98.0226 8.27286C97.9669 8.16933 97.9808 8.0658 98.0598 7.97168C98.8263 7.38815 99.2584 6.75286 99.342 6.06109C98.9982 6.08933 98.6498 6.12227 98.306 6.15521C98.1202 6.17403 98.0226 6.10345 98.0087 5.95286C97.9947 5.79756 98.0784 5.71286 98.2642 5.69403C98.6451 5.65639 99.0261 5.62345 99.4071 5.5905C99.4396 5.43521 99.4396 5.1105 99.3978 4.6305C98.91 4.67286 98.4175 4.71521 97.9297 4.76227C97.7439 4.78109 97.6416 4.71521 97.6277 4.55992C97.6138 4.40462 97.6974 4.31992 97.8879 4.30109C98.3803 4.25403 98.8728 4.20697 99.3653 4.16933C99.3374 3.84933 99.3142 3.53403 99.2863 3.21403C98.8728 3.24697 98.4593 3.28462 98.0458 3.32227C97.8554 3.34109 97.7578 3.2705 97.7392 3.11992C97.7253 2.96462 97.8135 2.87992 98.004 2.86109C99.0819 2.75756 100.16 2.67286 101.242 2.60227L101.238 2.59286ZM99.3095 7.7505C99.356 8.27756 99.3978 8.80462 99.4442 9.33168C99.4535 9.43992 99.5139 9.49168 99.6254 9.48227C100.253 9.4305 100.88 9.38345 101.502 9.34109C101.614 9.33168 101.665 9.27521 101.66 9.16698C101.628 8.63992 101.591 8.10815 101.558 7.58109C101.549 7.47286 101.488 7.42109 101.377 7.4258C100.74 7.46815 100.104 7.51521 99.4675 7.57168C99.3513 7.58109 99.3002 7.64227 99.3095 7.7505ZM101.326 4.47521C100.847 4.50815 100.369 4.54109 99.8902 4.57874C99.9228 4.99756 99.9367 5.31756 99.9274 5.53874C100.355 5.5058 100.782 5.47286 101.214 5.44462C101.33 5.43521 101.386 5.37874 101.377 5.2658C101.358 5.00227 101.344 4.73874 101.326 4.47521ZM99.8531 4.11756C100.332 4.07992 100.815 4.04227 101.293 4.01403C101.275 3.7505 101.261 3.48697 101.242 3.22344C101.238 3.11521 101.172 3.06344 101.056 3.06815C100.629 3.09639 100.206 3.12933 99.7787 3.16227L99.8531 4.11756ZM104.908 2.40933C105.098 2.40462 105.242 2.44227 105.34 2.52697C105.461 2.58815 105.526 2.71992 105.53 2.91756C105.544 3.37874 105.303 4.09403 104.824 5.05874C104.759 5.14815 104.75 5.22815 104.796 5.28933C105.493 6.01403 105.842 6.71521 105.86 7.37403C105.883 8.32462 105.526 8.80462 104.787 8.83286C104.336 8.85168 103.965 8.77639 103.663 8.61639C103.677 8.89403 103.686 9.16698 103.7 9.44462C103.709 9.61874 103.635 9.71286 103.477 9.72227C103.319 9.73168 103.24 9.64698 103.231 9.46815C103.119 7.28933 103.012 5.1058 102.901 2.92697C102.887 2.63992 103.031 2.48933 103.342 2.47521C103.867 2.45168 104.387 2.42815 104.912 2.40933H104.908ZM103.402 3.09639C103.481 4.79521 103.56 6.48933 103.639 8.18815C103.96 8.3058 104.257 8.35756 104.527 8.34815C105.024 8.32933 105.261 8.02345 105.242 7.4305C105.219 6.70109 104.912 6.02815 104.308 5.41168C104.234 5.28462 104.22 5.19521 104.262 5.14815C104.689 4.2258 104.908 3.53403 104.889 3.07286C104.889 2.94109 104.754 2.87992 104.49 2.88933C104.183 2.89874 103.876 2.91286 103.565 2.92697C103.444 2.93168 103.389 2.99286 103.393 3.10109L103.402 3.09639Z" fill="#B71C1C"/>
<path d="M113.976 4.40463C114.409 4.90345 114.604 5.51522 114.566 6.23522C114.529 6.95522 114.288 7.51522 113.846 7.92463C113.349 8.34816 112.694 8.55992 111.872 8.57404C111.733 8.57404 111.663 8.49874 111.667 8.36227C111.667 8.2258 111.742 8.15992 111.886 8.15992C112.536 8.17874 113.089 7.99521 113.549 7.59992C113.865 7.25169 114.037 6.79992 114.065 6.23051C114.097 5.5811 113.93 5.04933 113.568 4.63522C113.131 4.20698 112.564 3.9858 111.867 3.9858C111.719 4.84227 111.556 5.54816 111.379 6.10816C111.166 6.84227 110.915 7.39286 110.627 7.76463C110.395 8.07051 110.111 8.2211 109.777 8.21639C109.479 8.21639 109.205 8.08463 108.959 7.8258C108.662 7.46345 108.508 7.04463 108.504 6.56463C108.504 5.68933 108.847 4.9411 109.563 4.32933C110.237 3.80227 111.022 3.54816 111.9 3.57169C112.778 3.59522 113.475 3.87286 113.981 4.39522L113.976 4.40463ZM109.693 4.7811C109.201 5.30816 108.959 5.91992 108.959 6.60698C108.959 6.93169 109.038 7.22345 109.196 7.48227C109.354 7.70816 109.549 7.81639 109.777 7.8211C109.972 7.8211 110.148 7.73169 110.311 7.54345C110.511 7.28933 110.692 6.88933 110.864 6.34345C111.11 5.52463 111.291 4.73875 111.398 3.9858C110.72 4.07522 110.153 4.33874 109.698 4.7811H109.693Z" fill="#B71C1C"/>
<path d="M118.636 2.76223C118.65 2.58811 118.743 2.50341 118.906 2.52223C119.073 2.53635 119.147 2.63047 119.133 2.80929C119.115 3.00694 119.101 3.20458 119.082 3.40223C119.542 3.44458 120.002 3.48694 120.462 3.534C120.648 3.55282 120.736 3.64223 120.722 3.79282C120.708 3.94811 120.606 4.014 120.416 3.99517C120.346 3.98576 120.276 3.98105 120.206 3.97164C120.039 4.48458 119.849 4.95517 119.649 5.3787C119.914 5.40223 120.183 5.43047 120.448 5.4587C120.634 5.47752 120.717 5.56694 120.704 5.71752C120.69 5.87282 120.587 5.9387 120.402 5.91988C119.895 5.86811 119.384 5.81635 118.878 5.774C118.85 6.094 118.822 6.40929 118.794 6.72929C119.254 6.77164 119.709 6.81399 120.169 6.86105C120.35 6.87988 120.434 6.96458 120.42 7.11988C120.406 7.27517 120.304 7.34105 120.123 7.32223C119.668 7.27517 119.212 7.23282 118.752 7.19046C118.748 7.26576 118.738 7.34576 118.734 7.42105C119.208 7.79752 119.602 8.21164 119.918 8.66341C120.035 8.87517 120.016 9.03988 119.867 9.15752C119.7 9.22811 119.547 9.17164 119.407 8.9787C119.194 8.60223 118.952 8.2587 118.683 7.94811C118.627 8.60694 118.566 9.26576 118.511 9.92458C118.497 10.0987 118.409 10.1834 118.255 10.1693C118.097 10.1552 118.028 10.0611 118.046 9.88694C118.097 9.27046 118.148 8.65399 118.199 8.04223C117.721 8.59752 117.303 9.00694 116.945 9.27047C116.755 9.38811 116.611 9.38811 116.504 9.27047C116.443 9.15752 116.476 9.03517 116.597 8.91282C117.294 8.27752 117.823 7.68929 118.167 7.14341C117.767 7.11047 117.368 7.07752 116.968 7.04929C116.787 7.03517 116.699 6.95047 116.708 6.79988C116.717 6.64458 116.815 6.57399 117.001 6.58811C117.438 6.62105 117.874 6.654 118.306 6.69164C118.334 6.37164 118.357 6.05635 118.385 5.73635C117.944 5.6987 117.507 5.66576 117.066 5.63282C116.88 5.6187 116.792 5.53399 116.806 5.38341C116.815 5.22811 116.913 5.15752 117.098 5.17164C117.317 5.18576 117.54 5.20458 117.758 5.22341C117.73 4.69164 117.637 4.19752 117.484 3.74105C117.414 3.73635 117.345 3.73164 117.27 3.72694C117.08 3.71282 116.992 3.62811 117.005 3.47752C117.015 3.32223 117.117 3.25164 117.303 3.26576C117.726 3.2987 118.153 3.33164 118.576 3.36929C118.594 3.17164 118.608 2.974 118.627 2.77635L118.636 2.76223ZM118.32 5.26105C118.585 5.28458 118.855 5.30811 119.119 5.33164C119.37 4.86576 119.547 4.39517 119.635 3.91988C119.073 3.86811 118.506 3.81635 117.944 3.76929C118.167 4.23047 118.292 4.72929 118.316 5.26105H118.32ZM124.341 3.46341C124.481 3.48223 124.606 3.55752 124.708 3.67988C124.81 3.80694 124.852 3.934 124.834 4.06576C124.657 5.34576 124.481 6.62105 124.304 7.90105C124.285 8.03282 124.211 8.14576 124.086 8.23988C123.956 8.33399 123.826 8.37164 123.691 8.35282C123.579 8.3387 123.463 8.31988 123.352 8.30576C123.287 8.8187 123.217 9.33164 123.152 9.84929C123.129 10.0234 123.208 10.1222 123.384 10.1458C123.431 10.1505 123.472 10.1599 123.519 10.1646C123.695 10.1881 123.798 10.1128 123.821 9.9387C123.853 9.68929 123.891 9.43517 123.923 9.18576C123.946 9.01164 124.035 8.93635 124.197 8.95517C124.355 8.9787 124.42 9.07752 124.397 9.25164C124.351 9.56694 124.309 9.88694 124.262 10.2022C124.244 10.334 124.169 10.4469 124.044 10.5411C123.918 10.6352 123.788 10.6728 123.654 10.654C123.477 10.6305 123.301 10.6069 123.124 10.5834C122.989 10.5646 122.878 10.494 122.78 10.3716C122.683 10.2493 122.641 10.1222 122.659 9.99046C122.734 9.41164 122.803 8.83282 122.878 8.24929C122.594 8.21164 122.311 8.1787 122.028 8.14105C122.009 8.28223 121.995 8.42811 121.977 8.56929C121.879 9.3787 121.294 9.92929 120.23 10.2352C119.979 10.2728 119.839 10.2163 119.812 10.0563C119.802 9.92458 119.877 9.83047 120.044 9.7787C120.95 9.51988 121.442 9.09164 121.512 8.47517C121.526 8.34341 121.54 8.21164 121.558 8.07988C121.512 8.07517 121.465 8.07046 121.424 8.06576C121.289 8.05164 121.168 7.98105 121.066 7.8587C120.964 7.73635 120.922 7.60929 120.936 7.47752C121.075 6.19282 121.21 4.91282 121.349 3.62811C121.363 3.49635 121.433 3.38341 121.568 3.28458C121.698 3.19047 121.832 3.14811 121.977 3.16223C122.771 3.25164 123.561 3.35517 124.351 3.46341H124.341ZM121.814 3.87752C121.786 4.11752 121.758 4.35752 121.735 4.60223C122.562 4.69635 123.393 4.79988 124.22 4.91282C124.253 4.67282 124.285 4.43282 124.318 4.19282C124.341 4.0187 124.258 3.91517 124.072 3.89164C123.426 3.80694 122.78 3.72223 122.13 3.64694C121.939 3.62341 121.837 3.70341 121.819 3.87752H121.814ZM121.568 6.07988C122.385 6.174 123.203 6.27752 124.021 6.39047C124.067 6.05164 124.114 5.71282 124.155 5.374C123.333 5.26105 122.506 5.15752 121.679 5.06341C121.642 5.40223 121.605 5.74105 121.563 6.08458L121.568 6.07988ZM121.428 7.33164C121.41 7.50576 121.489 7.60458 121.67 7.62811C122.297 7.70341 122.92 7.7787 123.547 7.86341C123.728 7.88694 123.83 7.81164 123.853 7.63752C123.891 7.37399 123.923 7.11517 123.96 6.85164C123.147 6.7387 122.334 6.63988 121.517 6.54576C121.489 6.80929 121.456 7.07282 121.428 7.33635V7.33164Z" fill="#B71C1C"/>
<path d="M130.056 5.83516C130.492 5.94339 130.627 6.24928 130.455 6.7528C129.907 8.23986 128.871 9.38339 127.375 10.221C127.101 10.3528 126.92 10.334 126.836 10.1646C126.79 10.0234 126.845 9.89633 126.999 9.7881C128.453 8.91751 129.405 7.84457 129.814 6.53163C129.833 6.42339 129.8 6.33869 129.716 6.27751C129.675 6.24928 129.596 6.22104 129.479 6.19751C128.973 6.10339 128.462 6.01398 127.956 5.92457C127.77 5.89163 127.691 5.80222 127.714 5.64692C127.737 5.49633 127.844 5.43516 128.03 5.4681C128.704 5.58575 129.377 5.7081 130.046 5.83516H130.056ZM132.086 4.52222C132.295 4.56457 132.378 4.69633 132.337 4.9128C132.253 5.32222 132.169 5.73163 132.086 6.14575C132.053 6.29633 132.183 6.73869 132.457 7.47751C133.391 7.2281 134.162 6.93163 134.752 6.56928C134.952 6.4328 135.133 6.44222 135.296 6.59751C135.417 6.80928 135.352 6.98339 135.101 7.12928C134.381 7.52457 133.545 7.81633 132.597 8.01869C133.052 9.13398 133.702 10.1928 134.534 11.214C134.655 11.4022 134.636 11.5669 134.488 11.7128C134.269 11.8399 134.056 11.7693 133.842 11.4916C132.885 10.2916 132.225 8.86575 131.877 7.19045C131.603 8.53163 131.328 9.8681 131.054 11.2093C130.961 11.661 130.632 11.8305 130.06 11.7128C129.642 11.6281 129.145 11.421 128.569 11.0869C128.406 10.9693 128.374 10.8375 128.467 10.6963C128.555 10.5787 128.685 10.5693 128.852 10.6681C129.27 10.9034 129.628 11.054 129.939 11.1152C130.269 11.181 130.464 11.0728 130.52 10.7952C130.915 8.79516 131.315 6.79516 131.709 4.79516C131.751 4.57869 131.881 4.49398 132.09 4.53633L132.086 4.52222Z" fill="#B71C1C"/>
<path d="M141.043 6.98821C141.215 7.08703 141.243 7.24233 141.131 7.4635C140.471 8.37174 139.552 9.06821 138.376 9.56703C138.162 9.64703 138.018 9.59527 137.944 9.41644C137.902 9.29409 137.953 9.19056 138.097 9.11527C139.05 8.62115 139.863 7.93409 140.536 7.04938C140.681 6.88468 140.852 6.86586 141.038 6.98821H141.043ZM141.535 9.51527C141.721 9.64233 141.758 9.79291 141.661 9.96703C141.136 10.7529 140.09 11.7082 138.585 12.8847C140.044 13.3223 141.614 13.6894 143.319 14C143.101 12.9741 142.85 12.1176 142.576 11.4306C142.553 11.2611 142.604 11.1482 142.715 11.0917C142.855 11.0447 142.976 11.0823 143.082 11.2094C143.807 12.88 144.17 14.127 144.235 14.9364C144.23 15.2376 144.118 15.3835 143.905 15.3835C143.691 15.3835 143.561 15.2659 143.514 15.04C143.482 14.88 143.454 14.7153 143.422 14.5553C141.726 14.3106 139.705 13.8211 137.317 13.1435C137.099 13.0823 137.015 12.96 137.066 12.767C137.117 12.5741 137.252 12.5082 137.47 12.5694C137.624 12.6117 137.777 12.6541 137.93 12.6964C139.059 11.8211 140.1 10.7953 141.034 9.59997C141.164 9.40703 141.331 9.3788 141.54 9.51056L141.535 9.51527ZM144.202 7.99527C144.383 7.98585 144.495 8.06586 144.541 8.24468C144.718 9.27527 145.089 10.2494 145.652 11.1623C145.768 11.4117 145.721 11.5811 145.517 11.6753C145.35 11.7317 145.192 11.68 145.052 11.5153C144.462 10.687 144.109 9.59527 143.979 8.23527C143.998 8.1035 144.072 8.0235 144.207 7.99527H144.202Z" fill="#B71C1C"/>
<path d="M156.188 12.4469C156.323 12.5081 156.421 12.6116 156.486 12.7622C156.551 12.9128 156.56 13.0493 156.504 13.1716C155.654 15.0822 154.799 16.9928 153.949 18.9034C153.893 19.0258 153.796 19.1105 153.647 19.1622C153.499 19.214 153.359 19.214 153.238 19.1575C151.32 18.2916 149.387 17.4869 147.436 16.7387C147.31 16.6916 147.213 16.5928 147.143 16.4516C147.073 16.3058 147.064 16.174 147.11 16.0516C147.831 14.0893 148.555 12.1222 149.275 10.1599C149.322 10.0375 149.419 9.9434 149.573 9.88223C149.726 9.82105 149.865 9.81634 150.005 9.86811C152.086 10.6634 154.149 11.5246 156.193 12.4469H156.188ZM149.712 10.4328C149.006 12.3293 148.295 14.2305 147.589 16.1269C147.552 16.2305 147.584 16.301 147.691 16.3434C149.587 17.0728 151.468 17.854 153.327 18.6916C153.433 18.7387 153.508 18.7105 153.55 18.6116C154.367 16.7575 155.18 14.9034 155.998 13.054C156.044 12.9552 156.007 12.8799 155.9 12.8281C153.931 11.9434 151.942 11.1105 149.935 10.3434C149.824 10.301 149.745 10.3293 149.708 10.4328H149.712ZM152.514 11.901C152.579 11.7363 152.69 11.6893 152.848 11.7552C153.006 11.821 153.048 11.934 152.983 12.0987C152.955 12.1693 152.922 12.2399 152.895 12.3105C153.536 12.5787 154.181 12.8563 154.818 13.1387C154.971 13.2046 155.022 13.3034 154.971 13.421C154.92 13.5434 154.813 13.5669 154.66 13.501C154.023 13.2187 153.382 12.9458 152.741 12.6775C152.667 12.861 152.593 13.0446 152.518 13.2281C153.266 13.5434 154.01 13.8634 154.753 14.1928C154.906 14.2587 154.957 14.3575 154.902 14.4752C154.85 14.5975 154.744 14.621 154.595 14.5552C152.95 13.8258 151.296 13.134 149.629 12.4846C149.475 12.4234 149.419 12.334 149.466 12.2069C149.512 12.0846 149.615 12.0516 149.768 12.1128C150.534 12.4093 151.296 12.7152 152.054 13.0305C152.128 12.8469 152.202 12.6634 152.277 12.4799C151.622 12.2116 150.967 11.9434 150.311 11.6893C150.154 11.6281 150.102 11.534 150.149 11.4116C150.195 11.2893 150.298 11.2563 150.456 11.3175C151.115 11.5763 151.77 11.8399 152.425 12.1128C152.453 12.0422 152.481 11.9716 152.514 11.8963V11.901ZM153.582 14.5787C153.866 14.701 153.949 14.894 153.838 15.1575C153.74 15.3881 153.638 15.6234 153.54 15.854C153.429 16.1175 153.229 16.1881 152.955 16.0658C152.504 15.8681 152.054 15.6752 151.603 15.4869C151.571 15.5669 151.538 15.6516 151.501 15.7316C151.747 15.9293 152.003 16.1599 152.272 16.4187C152.681 16.4046 153.118 16.3622 153.578 16.301C153.74 16.2775 153.838 16.3434 153.87 16.5034C153.879 16.654 153.805 16.7387 153.643 16.7622C153.28 16.7716 152.927 16.7716 152.579 16.7622C152.881 17.0634 153.131 17.3552 153.336 17.6375C153.406 17.7646 153.392 17.8822 153.299 17.981C153.183 18.0752 153.057 18.0658 152.932 17.9622C152.384 17.1905 151.849 16.5787 151.334 16.1222C151.199 16.4469 151.069 16.7763 150.934 17.101C150.869 17.2658 150.757 17.3128 150.613 17.2516C150.465 17.1905 150.423 17.0775 150.488 16.9128C150.637 16.5458 150.785 16.1787 150.934 15.8116C150.051 16.0187 149.206 16.0563 148.397 15.9293C148.239 15.8916 148.17 15.8163 148.188 15.7081C148.207 15.5952 148.263 15.5387 148.365 15.5293C149.438 15.614 150.335 15.5293 151.05 15.2516C150.627 15.0775 150.209 14.9081 149.786 14.7387C149.503 14.6258 149.415 14.4375 149.517 14.1693C149.61 13.934 149.698 13.6987 149.791 13.4587C149.893 13.1905 150.088 13.1152 150.372 13.2281C151.45 13.6563 152.518 14.1034 153.582 14.5693V14.5787ZM150.195 13.7787C150.135 13.934 150.075 14.0846 150.014 14.2399C149.972 14.3434 150.009 14.414 150.116 14.461C151.05 14.8375 151.979 15.2234 152.904 15.6234C153.011 15.6705 153.085 15.6422 153.131 15.5434C153.197 15.3928 153.262 15.2375 153.327 15.0869C153.368 14.9881 153.336 14.9128 153.229 14.8658C152.295 14.461 151.361 14.0705 150.418 13.694C150.307 13.6516 150.233 13.6799 150.195 13.7834V13.7787Z" fill="#B71C1C"/>
<path d="M113.972 75.9812C118.864 75.3224 123.667 73.84 128.169 71.5529C125.196 65.4071 122.227 59.2659 119.254 53.12C112.183 56.6259 103.913 56.6259 96.8424 53.12C93.8505 59.3035 90.8633 65.4871 87.8713 71.6659C96.0759 75.6376 105.149 77.1624 113.967 75.9765L113.972 75.9812Z" fill="url(#paint1_radial_30_100)"/>
<path d="M218.642 77.7694C203.413 78.1365 203.357 73.0635 188.124 73.0635C172.89 73.0635 172.89 77.7694 157.661 77.7694C142.432 77.7694 142.427 73.0635 127.198 73.0635C111.965 73.0635 111.965 77.7694 96.7355 77.7694C81.5065 77.7694 81.5018 73.0635 66.2682 73.0635C51.0345 73.0635 51.0345 77.7694 35.8008 77.7694C20.5671 77.7694 20.6229 73.4682 5.39381 73.0635C4.99427 73.0541 3.0105 75.0118 3.0105 74.6071C3.0105 74.2024 7.65633 74.2024 7.65633 73.7977C7.65633 73.3929 3.0105 73.3929 3.0105 72.9882C3.0105 72.5835 7.65633 72.5835 7.65633 72.1788C7.65633 71.7741 3.0105 71.7741 3.0105 71.3694C3.0105 70.9647 7.65633 70.9647 7.65633 70.56C7.65633 70.1553 4.87812 67.4071 5.27766 67.3976C20.5067 67.0306 20.5578 72.1412 35.7915 72.1835C51.0252 72.2259 51.0345 67.52 66.2682 67.5576C81.5018 67.5953 81.4879 72.3059 96.7169 72.3435C111.951 72.3859 111.96 67.68 127.194 67.7176C142.427 67.76 142.413 72.4659 157.647 72.5035C172.881 72.5459 172.895 67.84 188.124 67.8777C203.353 67.9153 203.297 72.2588 218.521 72.6635C218.879 72.6729 220.905 70.6729 220.905 71.0353C220.905 71.3976 216.259 71.3976 216.259 71.7647C216.259 72.1318 220.905 72.1271 220.905 72.4941C220.905 72.8612 216.259 72.8565 216.259 73.2188C216.259 73.5812 220.905 73.5812 220.905 73.9482C220.905 74.3153 216.236 74.5741 216.273 74.9365C216.445 76.4988 218.995 77.7506 218.638 77.76L218.642 77.7694Z" fill="#ACD1E2"/>
<path d="M97.6274 23.7317C99.3975 22.64 101.437 21.7694 103.686 21.2188C99.9596 19.8823 95.876 19.4258 91.7644 19.9953C94.0176 20.9788 95.9875 22.2635 97.6274 23.7364V23.7317Z" fill="#52DD5F"/>
<path d="M221.453 79.8587H1.94189V72.2305H6.33685H221.453V79.8587Z" fill="#ACD1E2"/>
<path d="M8.21842 67.3552H1.94189V73.9388H8.21842V67.3552Z" fill="#ACD1E2"/>
<path d="M221.453 74.9128H216.305L213.834 72.4328L221.453 70.3575V74.9128Z" fill="#ACD1E2"/>
<path d="M83.7737 9.87759C84.2099 9.87759 84.5635 9.51942 84.5635 9.07759C84.5635 8.63576 84.2099 8.27759 83.7737 8.27759C83.3375 8.27759 82.9839 8.63576 82.9839 9.07759C82.9839 9.51942 83.3375 9.87759 83.7737 9.87759Z" fill="#B71C1C"/>
<path d="M112.178 21.2329C109.363 20.6447 106.459 20.6447 103.644 21.2329C104.503 18.7576 105.804 16.3247 107.528 14.0518C107.579 14.0518 107.63 14.0518 107.676 14.0518C109.656 16.2823 111.161 18.7247 112.178 21.2329Z" fill="#52DD5F"/>
<path d="M29.2873 55.0918C29.0922 55.3271 28.8599 55.4494 28.5068 55.4494C28.2327 55.4494 28.0004 55.3694 27.8053 55.1718C22.4951 49.4777 18.4346 45.52 15.6192 43.3836C15.229 43.0683 14.7969 42.9083 14.3695 42.9083C13.9421 42.9083 13.589 43.0683 13.3149 43.3836C12.5716 44.2542 10.1139 47.2989 5.93268 52.5224C5.65857 52.8377 5.46345 52.88 5.23115 52.6024L2.88965 49.8353C2.61555 49.52 2.57838 49.2424 2.85249 49.0024C6.91295 45.44 9.84447 42.9883 11.6378 41.6847C12.5762 41.0118 13.5518 40.6541 14.5646 40.6541C15.308 40.6541 15.9723 40.8518 16.6367 41.2094C20.6182 43.3083 25.4219 46.5506 31.048 50.9412C31.2432 51.1389 31.3593 51.4165 31.3593 51.7741C31.3593 52.0518 31.2803 52.2871 31.127 52.5271L29.2919 55.0965L29.2873 55.0918ZM26.4766 39.8636C26.4766 40.7718 26.0491 41.2894 25.1897 41.3647C24.6043 41.4024 24.1722 41.0494 23.9399 40.3765C23.5868 39.4683 22.8063 38.8753 21.5984 38.6353C21.4405 38.5977 21.4405 38.5177 21.5984 38.4377C22.3418 37.9247 23.1223 37.6847 23.9817 37.6847C25.3104 37.6847 26.0909 38.16 26.365 39.1483C26.444 39.3836 26.4812 39.6236 26.4812 39.8589L26.4766 39.8636ZM29.8355 37.6847C29.8355 38.6353 29.4081 39.1483 28.5486 39.1859C27.9632 39.2236 27.5312 38.9506 27.2989 38.2777C26.9458 37.3271 26.1653 36.7341 24.9574 36.4989C24.7994 36.4612 24.7994 36.3812 24.9574 36.2636C25.7007 35.7883 26.4812 35.5106 27.3407 35.5106C28.6694 35.5106 29.4499 36.0236 29.724 37.0118C29.803 37.2094 29.8401 37.4447 29.8401 37.6847H29.8355Z" fill="black" stroke="white" stroke-width="0.25"/>
<path d="M48.5395 45.9153L50.1005 45.9529C50.4536 45.9906 50.6487 46.1882 50.6487 46.5459L50.6859 59.76C50.6859 60.5129 50.2956 60.8659 49.5523 60.8659H47.7172C46.9739 60.8659 46.5836 60.5082 46.5836 59.76L46.5464 47.8117C43.6196 50.3435 39.7914 52.56 35.0666 54.4565C34.7135 54.6165 34.4022 54.5365 34.2443 54.2212C34.0492 53.9059 34.1281 53.6659 34.4766 53.4682C39.1642 50.3812 42.7554 47.2988 45.2177 44.1741C46.7416 42.2353 48.4977 39.2282 50.4489 35.1529C50.5279 34.9176 50.6812 34.8753 50.9182 34.9553L54.1981 36.2212C54.5094 36.3388 54.5884 36.5788 54.4304 36.9317C52.8276 40.4941 50.8392 43.4964 48.5349 45.9106L48.5395 45.9153Z" fill="black" stroke="white" stroke-width="0.25"/>
<path d="M72.1637 50.8565C69.9384 53.5859 66.4633 55.92 61.6967 57.8588C61.3436 58.0188 61.1113 57.9388 60.9533 57.6988C60.8372 57.4635 60.9162 57.2659 61.1856 57.0259C64.4656 54.6541 66.8861 52.16 68.5679 49.5906C69.9755 47.3741 70.8722 44.8847 71.2996 42.0753C71.3368 41.8776 71.4576 41.76 71.6899 41.84L75.2068 42.4706C75.5598 42.5506 75.7132 42.7482 75.6342 43.1059C75.0488 46.2306 73.8781 48.8 72.1591 50.8612L72.1637 50.8565ZM89.7807 53.0729C88.3731 53.1906 87.5926 52.56 87.4392 51.1717C87.2813 49.2753 86.8539 47.8494 86.2685 46.8988C85.488 45.6329 83.9642 44.4847 81.776 43.5341C81.5019 43.4165 81.3857 43.2565 81.4229 43.0588C81.46 42.8612 81.776 42.7435 82.3195 42.7812C85.4415 42.7812 87.8667 43.5341 89.6228 45.0776C91.1466 46.4235 91.9271 48.0847 91.8899 50.0612C91.8899 51.92 91.1466 52.9506 89.7807 53.0682V53.0729ZM93.1768 41.0494C92.5915 41.6047 91.9271 41.92 91.1466 41.92C90.3661 41.92 89.6646 41.6047 89.1164 41.0494C88.5682 40.4941 88.2941 39.7835 88.2941 38.9929C88.2941 38.2023 88.5682 37.5294 89.1164 36.9741C89.6646 36.3812 90.3661 36.1035 91.1466 36.1035C91.9271 36.1035 92.5915 36.3812 93.1768 36.9741C93.725 37.5294 93.9992 38.2023 93.9992 38.9929C93.9992 39.7835 93.725 40.4941 93.1768 41.0494ZM92.2384 37.9247C91.9271 37.6094 91.574 37.4494 91.1466 37.4494C90.7192 37.4494 90.3661 37.6094 90.092 37.9247C89.7807 38.24 89.6228 38.5976 89.6228 38.9929C89.6228 39.4259 89.7807 39.8259 90.092 40.1412C90.3661 40.4188 90.7192 40.5741 91.1466 40.5741C91.574 40.5741 91.9271 40.4141 92.2384 40.1412C92.5496 39.8259 92.7076 39.4306 92.7076 38.9929C92.7076 38.5976 92.5496 38.24 92.2384 37.9247Z" fill="black" stroke="white" stroke-width="0.25"/>
<path d="M144.193 48.8424C142.827 51.8871 140.796 54.4612 138.139 56.6353C135.054 59.0871 130.878 61.2235 125.563 63.0824C125.135 63.2 124.861 63.12 124.74 62.8471C124.583 62.4894 124.662 62.2541 125.052 62.0565C130.636 59.0918 134.775 55.8071 137.47 52.2071C139.579 49.3977 141.103 45.8777 142 41.6471L135.714 41.6847C133.684 44.4518 131.026 46.9082 127.746 48.9647C127.472 49.1624 127.24 49.1624 127.003 48.8847C126.771 48.6494 126.771 48.3718 127.003 48.1318C130.947 43.4635 133.8 38.0847 135.514 32.0329C135.593 31.7977 135.709 31.7177 135.942 31.7977L139.575 32.7059C139.928 32.8235 140.044 33.0635 139.928 33.4165C138.989 35.9482 137.935 38.1224 136.806 39.9812H142.311C142.39 39.5482 142.469 39.1906 142.506 38.8753C142.543 38.6777 142.664 38.56 142.896 38.64L146.371 39.1529C146.762 39.2329 146.92 39.4682 146.841 39.8259C146.06 43.6612 145.201 46.7106 144.183 48.8471L144.193 48.8424Z" fill="black" stroke="white" stroke-width="0.25"/>
<path d="M179.069 60.8282L156.146 60.8659C155.988 60.8659 155.835 60.7859 155.719 60.6306L154.585 59.0494C154.506 58.8894 154.506 58.8141 154.702 58.8141H174.618C175.283 58.8141 175.789 58.7341 176.142 58.5365C177.703 57.7835 178.679 57.3882 179.069 57.3882C180.356 57.4259 181.02 57.9812 181.02 59.0494C181.02 60.2353 180.356 60.8282 179.069 60.8282ZM178.874 40.1788L157.006 40.2165C156.811 40.2165 156.653 40.1365 156.578 39.9812L155.445 38.4C155.329 38.24 155.366 38.1647 155.524 38.1647H174.423C175.008 38.1647 175.515 38.0471 175.947 37.8494L177.55 37.0588C178.019 36.8612 178.488 36.7435 178.916 36.7435C180.202 36.7435 180.83 37.2988 180.83 38.4047C180.83 39.5906 180.165 40.1835 178.878 40.1835L178.874 40.1788ZM175.594 49.9482H159.7C159.505 49.9482 159.347 49.8682 159.231 49.7129L158.098 48.1318C157.981 47.9718 158.019 47.8965 158.214 47.8965H171.138C171.803 47.8965 172.309 47.8165 172.662 47.6188C174.223 46.8659 175.199 46.4706 175.631 46.4706C176.918 46.4706 177.545 47.0259 177.545 48.1318C177.545 49.3176 176.881 49.9529 175.594 49.9529V49.9482Z" fill="black" stroke="white" stroke-width="0.25"/>
<path d="M189.332 38.9129C188.709 38.9129 188.277 38.5976 188.045 37.9247C187.576 36.6965 186.6 35.9059 185.118 35.5906C185.039 35.5906 184.96 35.5529 184.96 35.4729C184.997 35.4353 185.039 35.3929 185.118 35.3553C186.21 34.6824 187.264 34.3247 188.203 34.3247C190.154 34.3247 191.13 35.1953 191.13 36.8941C191.13 38.24 190.502 38.9129 189.332 38.9129ZM190.112 55.8024C190.033 56.08 190.149 56.5929 190.54 57.3035C190.814 57.8165 191.088 58.2918 191.362 58.7671C191.441 59.1624 191.478 59.5576 191.478 59.9953C191.478 60.9835 191.283 61.8541 190.814 62.6447C190.266 63.5529 189.527 63.9906 188.588 63.9106C187.613 63.8306 187.106 63.2753 187.106 62.1694C187.106 61.8118 187.185 61.4588 187.301 61.1012C187.613 60.1506 187.808 59.28 187.808 58.4894C187.808 57.5388 187.497 56.6306 186.869 55.76C186.247 54.8518 185.931 54.4565 185.931 54.5318C185.931 54.4941 185.931 54.4141 185.968 54.3718C185.968 54.3341 186.047 54.2918 186.2 54.3341C186.475 54.3718 186.823 54.4941 187.292 54.6918C187.603 54.8094 187.878 54.7294 188.036 54.4941C190.419 50.7765 192.644 47.0165 194.674 43.2988C194.832 43.0212 195.027 42.9035 195.26 43.0212C195.534 43.1012 195.613 43.2565 195.492 43.5765C194.047 46.7435 192.291 50.8141 190.103 55.8024H190.112ZM190.54 44.9271C189.917 44.9271 189.448 44.5694 189.211 43.8588C188.742 42.6306 187.766 41.8824 186.321 41.6047C186.089 41.5247 186.089 41.4447 186.321 41.3271C187.413 40.6541 188.43 40.3388 189.369 40.3388C190.191 40.3388 190.893 40.5365 191.441 40.9694C192.026 41.3647 192.3 42 192.3 42.8282C192.3 44.2118 191.715 44.9271 190.544 44.9271H190.54ZM206.317 53.9435H204.988C204.324 53.9435 204.013 53.6282 204.013 52.9553V52.6776H201.671V52.9929C201.671 53.6659 201.36 53.9812 200.695 53.9812H199.409C198.744 53.9812 198.391 53.6659 198.391 52.9929V46.7012C198.391 46.0282 198.744 45.6706 199.409 45.6706H206.322C206.986 45.6706 207.339 45.9859 207.339 46.6212V52.9506C207.339 53.6235 206.986 53.9388 206.322 53.9388L206.317 53.9435ZM218.735 38.8329C218.071 38.8706 216.784 38.8706 214.87 38.8706L214.833 57.7788C214.833 59.28 214.638 60.4706 214.21 61.3412C213.583 62.6871 212.333 63.44 210.498 63.6376C209.601 63.7553 209.016 63.44 208.742 62.6494C208.468 61.9388 207.845 61.6188 206.865 61.6988L203.975 61.8165C203.743 61.8165 203.622 61.7365 203.585 61.5388C203.548 61.3035 203.664 61.1435 203.859 61.1059C205.03 60.8282 207.102 60.3953 209.992 59.76C210.735 59.5624 211.125 59.0494 211.125 58.1788C211.204 55.8447 211.204 49.4353 211.125 38.8753H201.09C200.974 38.8753 200.858 38.8376 200.779 38.6776L199.762 37.3741C199.762 37.3365 199.724 37.2941 199.724 37.2565C199.724 37.2188 199.803 37.1765 199.882 37.1765H215.037C215.506 37.1765 215.934 37.0965 216.287 36.9788C217.694 36.3482 218.512 36.0282 218.786 36.0282C219.804 36.0282 220.347 36.5035 220.347 37.3741C220.347 38.3247 219.799 38.8 218.744 38.8376L218.735 38.8329ZM204.013 47.6941C204.013 47.3788 203.817 47.1812 203.506 47.1812H202.177C201.824 47.1812 201.671 47.3788 201.671 47.6941V51.1765H204.013V47.6941Z" fill="black" stroke="white" stroke-width="0.25"/>
<path d="M119.128 52.193C112.057 55.2895 104.039 55.2895 96.9724 52.193C97.5531 50.833 98.1339 49.473 98.7192 48.1083C104.675 50.72 111.43 50.72 117.386 48.1083C117.967 49.4683 118.548 50.8283 119.133 52.193H119.128Z" fill="black"/>
<path d="M119.128 52.193C112.057 55.2895 104.039 55.2895 96.9724 52.193C97.5531 50.833 98.1339 49.473 98.7192 48.1083C104.675 50.72 111.43 50.72 117.386 48.1083C117.967 49.4683 118.548 50.8283 119.133 52.193H119.128Z" stroke="white"/>
</g>
<defs>
<radialGradient id="paint0_radial_30_100" cx="0" cy="0" r="1" gradientUnits="userSpaceOnUse" gradientTransform="translate(112.792 31.2922) scale(18.7738 18.0656)">
<stop stop-color="#DEFF8F"/>
<stop offset="0.23" stop-color="#E6E372"/>
<stop offset="0.75" stop-color="#F8A935"/>
<stop offset="1" stop-color="#FF931E"/>
</radialGradient>
<radialGradient id="paint1_radial_30_100" cx="0" cy="0" r="1" gradientUnits="userSpaceOnUse" gradientTransform="translate(108.025 64.7482) scale(16.3951 16.6071)">
<stop stop-color="#FF9C39"/>
</radialGradient>
<clipPath id="clip0_30_100">
<rect width="223" height="80" fill="white"/>
</clipPath>
</defs>
</svg>
