<svg width="82" height="48" viewBox="0 0 82 48" fill="none" xmlns="http://www.w3.org/2000/svg">
<path d="M5.87019 30.2711C5.99766 30.1744 6.11261 30.1274 6.21503 30.13C6.33019 30.123 6.41678 30.1577 6.4748 30.2342C6.53282 30.3107 6.53655 30.4083 6.48599 30.527C6.44819 30.636 6.36071 30.7325 6.22357 30.8164C5.94928 30.9843 5.75477 31.1118 5.64004 31.1988C4.87519 31.779 4.64265 32.2666 4.94241 32.6618C4.97142 32.7001 5.03735 32.7605 5.1402 32.8431L14.5044 39.7474C14.6393 39.8459 14.7514 39.8612 14.8406 39.7936C14.9171 39.7355 14.9261 39.6283 14.8677 39.4718L11.3816 29.5547C11.3297 29.4333 11.2989 29.3663 11.2893 29.3536C11.2313 29.2771 11.1284 29.1944 10.9807 29.1056C10.8361 28.9944 10.7269 28.9166 10.653 28.8722C10.2676 28.6023 9.93724 28.4713 9.66208 28.4792C9.37725 28.4744 9.06911 28.5977 8.73768 28.8491C8.6357 28.9264 8.45416 29.0842 8.19305 29.3224L8.11657 29.3805C8.00184 29.4675 7.89327 29.5097 7.79085 29.507C7.68844 29.5044 7.60822 29.4648 7.5502 29.3884C7.50185 29.3246 7.49021 29.2431 7.51527 29.1437C7.55307 29.0347 7.63572 28.9319 7.76319 28.8352L13.0406 24.832C13.1681 24.7353 13.2831 24.6882 13.3855 24.6909C13.5006 24.6838 13.5872 24.7186 13.6453 24.7951C13.7033 24.8715 13.707 24.9691 13.6564 25.0878C13.6186 25.1968 13.5312 25.2933 13.394 25.3772C13.3079 25.4225 13.1883 25.5032 13.0353 25.6192C12.6274 25.9286 12.3349 26.271 12.1577 26.6464C11.9933 27.0121 12.0078 27.3224 12.2012 27.5774C12.2205 27.6029 12.2816 27.6569 12.3845 27.7396L21.4836 34.4533C21.6186 34.5517 21.7306 34.5671 21.8199 34.4994C21.8964 34.4414 21.9054 34.3342 21.8469 34.1777L18.1907 23.8775C18.0901 23.6124 17.9914 23.4161 17.8947 23.2887C17.682 23.0082 17.4156 22.8689 17.0956 22.8706C16.7756 22.8724 16.418 23.0231 16.0229 23.3229C15.9209 23.4002 15.7776 23.529 15.593 23.7092L15.5356 23.7527C15.4464 23.8204 15.3505 23.8529 15.2481 23.8503C15.1585 23.838 15.0846 23.7936 15.0266 23.7171C14.9782 23.6534 14.9666 23.5718 14.9917 23.4725C15.0167 23.3732 15.0802 23.2848 15.1822 23.2075L19.7331 19.7554C19.8478 19.6684 19.95 19.631 20.0397 19.6433C20.1421 19.646 20.2223 19.6855 20.2803 19.762C20.3383 19.8385 20.3548 19.9264 20.3298 20.0257C20.3047 20.1251 20.23 20.2119 20.1056 20.2862C20.0194 20.3314 19.8935 20.4169 19.7278 20.5426C19.3581 20.8231 19.0895 21.1573 18.922 21.5454C18.7545 21.9336 18.7488 22.3496 18.9048 22.7936L23.7318 36.5434C23.8263 36.8533 23.7525 37.1001 23.5103 37.2839C23.3828 37.3806 23.2375 37.4405 23.0745 37.4638C22.9017 37.4744 22.7575 37.4432 22.6419 37.3702L13.3417 30.7488C13.2068 30.6503 13.0947 30.6349 13.0054 30.7026C12.9162 30.7703 12.9008 30.8824 12.9593 31.0389L16.7526 41.8376C16.8471 42.1475 16.7732 42.3943 16.531 42.578C16.4036 42.6747 16.2583 42.7347 16.0952 42.758C15.9225 42.7685 15.7783 42.7373 15.6627 42.6643L3.67379 34.1664C3.29798 33.9092 2.92942 33.8072 2.56811 33.8604C2.20679 33.9135 1.82217 34.0948 1.41426 34.4043C1.28678 34.501 1.09249 34.6684 0.831386 34.9067L0.754901 34.9647C0.640174 35.0517 0.531602 35.0939 0.429186 35.0913C0.32677 35.0886 0.246553 35.0491 0.188536 34.9726C0.140188 34.9088 0.128543 34.8273 0.153602 34.728C0.191408 34.6189 0.274048 34.5161 0.401523 34.4194L5.87019 30.2711Z" fill="#7A118B"/>
<path d="M36.3012 28.7767C35.6163 29.1241 34.8839 29.3072 34.104 29.326C33.3242 29.3448 32.5789 29.1487 31.8681 28.7378C31.1717 28.3196 30.6027 27.6753 30.1612 26.8048C29.7125 25.9201 29.5323 25.0696 29.6206 24.2534C29.709 23.4372 29.9839 22.7236 30.4455 22.1127C30.9142 21.4804 31.491 20.9905 32.1759 20.6431C32.8609 20.2957 33.5969 20.1197 34.3839 20.1152C35.1638 20.0964 35.9091 20.2925 36.6199 20.7035C37.3306 21.1144 37.9103 21.7622 38.3591 22.647C38.8005 23.5174 38.9771 24.3607 38.8888 25.177C38.8004 25.9932 38.5183 26.7104 38.0424 27.3285C37.5666 27.9466 36.9862 28.4294 36.3012 28.7767ZM36.019 28.2202C36.761 27.8439 37.1903 27.2225 37.307 26.356C37.4237 25.4895 37.2142 24.5283 36.6787 23.4723C36.1503 22.4307 35.495 21.7045 34.7127 21.294C33.9374 20.862 33.1859 20.8305 32.4582 21.1996C31.7304 21.5687 31.3047 22.1973 31.181 23.0853C31.0643 23.9517 31.2701 24.9058 31.7985 25.9475C32.3268 26.9892 32.9786 27.726 33.7539 28.1581C34.5362 28.5686 35.2912 28.5893 36.019 28.2202ZM43.7856 16.5712C43.7635 16.5111 43.7789 16.4372 43.8319 16.3496C43.8944 16.2413 43.9952 16.1446 44.1343 16.0593C44.5556 15.768 44.945 15.3434 45.3024 14.7857C45.3515 14.7336 45.4345 14.6349 45.5515 14.4896C45.663 14.3292 45.7638 14.2325 45.8539 14.1993C46.0641 14.122 46.2024 14.1734 46.2687 14.3536C46.357 14.5939 46.4296 14.8144 46.4864 15.0151L46.503 15.0602C46.5361 15.1503 46.578 15.1945 46.6286 15.193C46.6791 15.1914 46.7281 15.1393 46.7756 15.0366C46.9789 14.5697 47.2529 14.1791 47.5976 13.8648C47.9518 13.5299 48.3091 13.2962 48.6695 13.1636C48.8647 13.0918 49.0306 13.0564 49.1673 13.0572C49.5719 13.0448 49.8322 13.1962 49.9482 13.5116C50.031 13.7368 50.0155 13.9727 49.9016 14.2192C49.7877 14.4657 49.6106 14.6331 49.3703 14.7215C49.2352 14.7712 49.1321 14.7921 49.061 14.7841C48.7069 14.795 48.4173 14.8419 48.1921 14.9247C47.8016 15.0683 47.5005 15.3155 47.2885 15.6662C47.0916 16.0114 47.0187 16.4389 47.0698 16.9486C47.323 17.776 47.5628 18.4976 47.7893 19.1133C48.1428 20.0743 48.464 20.8086 48.753 21.316C48.8919 21.5547 49.0436 21.712 49.2079 21.788C49.3722 21.8639 49.567 21.8605 49.7922 21.7776C49.8973 21.739 49.9847 21.6983 50.0542 21.6557L50.1811 21.5834C50.3012 21.5393 50.4024 21.5361 50.4845 21.5741C50.5817 21.6066 50.6469 21.6678 50.68 21.7579C50.7131 21.848 50.6957 21.9397 50.6277 22.0329C50.5747 22.1206 50.4731 22.192 50.323 22.2473L46.6515 23.5978C46.5013 23.653 46.3702 23.6672 46.258 23.6402C46.1608 23.6078 46.0956 23.5465 46.0625 23.4564C46.0238 23.3513 46.0385 23.2522 46.1065 23.1589C46.1745 23.0657 46.2966 23.0038 46.4728 22.973C46.7147 22.9352 46.8885 22.8287 46.9945 22.6533C47.11 22.4574 47.148 22.2132 47.1087 21.9208C47.0457 21.5178 46.865 20.9109 46.5668 20.1L45.6577 17.6981C45.5086 17.2927 45.3222 16.9947 45.0987 16.8042C44.8847 16.5931 44.635 16.54 44.3497 16.645C44.1995 16.7002 44.0711 16.7219 43.9645 16.7099C43.8728 16.6925 43.8132 16.6463 43.7856 16.5712ZM55.5004 4.0508C55.486 3.98843 55.5106 3.91709 55.5742 3.83677C55.6498 3.73727 55.762 3.65397 55.9107 3.58688C56.3413 3.3892 56.8044 3.01164 57.3 2.45421C57.3395 2.41226 57.4265 2.32655 57.5609 2.19709C57.7073 2.04845 57.835 1.96156 57.9442 1.93643C58.1625 1.88616 58.2932 1.95458 58.3362 2.14168L58.6665 3.7896C59.1534 6.40299 59.5944 8.56723 59.9893 10.2823L60.6087 12.9719C60.6518 13.159 60.7435 13.2364 60.8838 13.2041C60.9618 13.1862 61.0464 13.1256 61.1376 13.0225C61.938 11.9352 62.4924 11.1343 62.8008 10.62C63.1249 10.1021 63.2707 9.77294 63.2384 9.63262C63.2168 9.53907 63.1203 9.51204 62.9488 9.55154C62.8709 9.56949 62.7107 9.62278 62.4684 9.71142L62.3335 9.76712C62.2088 9.79585 62.1002 9.78801 62.0079 9.74359C61.9312 9.69559 61.882 9.62481 61.8605 9.53126C61.839 9.43771 61.86 9.35077 61.9236 9.27045C62.0028 9.18654 62.1203 9.12663 62.2762 9.09072L65.457 8.35822C65.6129 8.32231 65.737 8.32656 65.8293 8.37098C65.9337 8.39621 65.9966 8.4556 66.0181 8.54915C66.0397 8.6427 66.0031 8.73323 65.9083 8.82073C65.8291 8.90464 65.7038 8.96635 65.5322 9.00585C65.1892 9.08484 64.7933 9.39767 64.3446 9.94432C63.9114 10.4874 63.3276 11.3032 62.5931 12.3918C62.5296 12.4721 62.5103 12.5669 62.5355 12.676C62.557 12.7695 62.6061 12.8403 62.6829 12.8883C62.9778 13.0995 63.615 13.5849 64.5944 14.3445C65.5391 15.0956 66.28 15.6392 66.8171 15.9753C67.3542 16.3113 67.7865 16.4416 68.1139 16.3662C68.2854 16.3267 68.4269 16.3352 68.5384 16.3916C68.6619 16.4288 68.7345 16.4942 68.756 16.5878C68.774 16.6657 68.7433 16.7467 68.6641 16.8306C68.597 16.8953 68.4854 16.9456 68.3295 16.9815L64.4471 17.8756C64.2912 17.9115 64.1593 17.9091 64.0514 17.8682C63.959 17.8238 63.9021 17.7548 63.8806 17.6613C63.8554 17.5521 63.8825 17.4556 63.9616 17.3717C64.0408 17.2878 64.1698 17.2417 64.3485 17.2334C64.5739 17.2143 64.7256 17.1958 64.8036 17.1778C65.0531 17.1204 65.1581 17.0059 65.1186 16.8344C65.0719 16.6317 64.8004 16.3084 64.3041 15.8644C63.8234 15.4169 63.0394 14.7929 61.952 13.9925C61.8333 13.9049 61.7194 13.8737 61.6103 13.8988C61.5323 13.9168 61.4693 13.9641 61.4213 14.0408L61.1405 14.4257C61.0253 14.5671 60.9893 14.7314 61.0324 14.9185L61.2209 15.7371C61.3897 16.4699 61.5681 16.9953 61.7562 17.3131C61.9444 17.631 62.2178 17.7487 62.5764 17.6661C62.6699 17.6446 62.7461 17.6188 62.8049 17.5889L62.9398 17.5331C63.0645 17.5044 63.1653 17.5141 63.242 17.5621C63.3343 17.6065 63.3913 17.6755 63.4128 17.769C63.4343 17.8626 63.4055 17.9513 63.3263 18.0352C63.2627 18.1155 63.153 18.1736 62.9971 18.2096L59.1848 19.0875C59.0289 19.1234 58.897 19.1209 58.7891 19.0801C58.6968 19.0357 58.6398 18.9667 58.6183 18.8732C58.5932 18.764 58.6202 18.6675 58.6994 18.5836C58.7786 18.4997 58.9075 18.4535 59.0862 18.4452C59.6846 18.4059 59.9337 17.8478 59.8335 16.7708C59.7331 15.9073 59.5178 14.7583 59.1875 13.3239C58.5806 10.6888 58.0102 8.39023 57.4762 6.42801C57.3888 6.11976 57.302 5.77854 57.2159 5.40433C57.1189 4.98335 56.9716 4.66428 56.7738 4.44713C56.588 4.21079 56.347 4.12674 56.0507 4.19496C55.8948 4.23087 55.7647 4.23621 55.6604 4.21097C55.5716 4.18215 55.5183 4.12876 55.5004 4.0508ZM78.7077 15.0139C78.0256 15.1039 77.4748 15.0878 77.0552 14.9656C76.6515 14.8414 76.345 14.7205 76.1358 14.6028C75.9404 14.4672 75.8348 14.4005 75.8189 14.4025C75.7713 14.4088 75.7459 14.4606 75.7426 14.5579C75.7372 14.6393 75.7449 14.7593 75.7659 14.9179C75.7784 15.0131 75.7582 15.1045 75.7052 15.1922C75.6523 15.2799 75.5782 15.33 75.483 15.3426C75.2768 15.3698 75.158 15.2644 75.1266 15.0265L74.9382 13.5989L74.7843 12.433C74.7697 12.3219 74.7899 12.2305 74.845 12.1587C74.9 12.0869 74.9752 12.0447 75.0704 12.0321C75.1497 12.0216 75.2252 12.0439 75.2971 12.099C75.3689 12.1541 75.4121 12.2372 75.4268 12.3482C75.4707 12.6813 75.6527 13.0204 75.9726 13.3655C76.3062 13.6927 76.696 13.956 77.1419 14.1553C77.6037 14.3526 78.0408 14.424 78.4532 14.3696C78.9608 14.3026 79.3586 14.1372 79.6466 13.8732C79.9324 13.5934 80.0492 13.2552 79.9968 12.8587C79.9571 12.5573 79.7301 12.3048 79.3159 12.1013C78.9155 11.8797 78.2925 11.623 77.4471 11.3311L76.9667 11.1767C76.4098 10.9919 75.9601 10.8253 75.6177 10.6768C75.2912 10.5263 74.996 10.307 74.7321 10.0191C74.484 9.72902 74.3296 9.354 74.2689 8.89399C74.2124 8.4657 74.279 8.05344 74.4688 7.6572C74.6724 7.24301 74.9895 6.89453 75.4202 6.61175C75.8647 6.31101 76.3962 6.11982 77.0149 6.03819C77.5859 5.96283 78.0543 5.96558 78.42 6.04642C78.8016 6.12518 79.096 6.21545 79.3031 6.31723C79.5239 6.40105 79.6502 6.44087 79.6819 6.43669C79.7613 6.42622 79.7852 6.30202 79.7538 6.06408C79.7413 5.9689 79.7636 5.89334 79.8207 5.83738C79.8758 5.76555 79.943 5.72441 80.0223 5.71394C80.1175 5.70138 80.201 5.72264 80.2728 5.77772C80.3446 5.8328 80.3868 5.90792 80.3994 6.0031L80.5721 7.31175L80.7259 8.47764C80.7385 8.57282 80.7093 8.65736 80.6384 8.73128C80.5833 8.8031 80.5161 8.84425 80.4368 8.85471C80.3575 8.86518 80.2819 8.84287 80.2101 8.7878C80.1383 8.73272 80.0961 8.6576 80.0835 8.56242C80.0416 8.24517 79.8798 7.93569 79.5979 7.63398C79.3297 7.31431 78.9748 7.07065 78.5331 6.903C78.0893 6.71949 77.6135 6.66122 77.1059 6.72821C76.5825 6.79728 76.1937 6.96963 75.9396 7.24525C75.6992 7.50291 75.601 7.79829 75.645 8.1314C75.7266 8.75004 76.3154 9.2372 77.4113 9.59287C77.5625 9.63748 77.7057 9.68314 77.841 9.72984C77.9741 9.76068 78.0994 9.79257 78.2167 9.82551C78.853 9.99976 79.3682 10.1739 79.7623 10.3478C80.1702 10.5038 80.5241 10.7395 80.824 11.055C81.1376 11.3525 81.3268 11.7471 81.3917 12.2389C81.4838 12.9368 81.2657 13.5466 80.7374 14.0682C80.225 14.5877 79.5484 14.9029 78.7077 15.0139Z" fill="#2C343A"/>
</svg>
