<svg width="112" height="53" viewBox="0 0 112 53" fill="none" xmlns="http://www.w3.org/2000/svg">
<path d="M2.69103 37.1838C3.46159 36.6112 4.40285 36.5098 5.1734 35.9372C7.35021 34.3197 3.08227 32.3183 5.12423 30.801C5.50951 30.5147 6.28006 29.9421 6.65224 30.443C7.32502 31.3484 6.17041 33.0136 6.92908 34.0346L7.25001 34.1849L7.48506 34.2195L11.8387 30.9844C12.3588 30.5979 12.2227 29.8917 12.7429 29.5052C13.263 29.1187 14.1503 29.2667 14.6227 29.9024C14.909 30.2877 14.8936 30.5084 14.9102 31.0941L24.0715 43.4229C24.3578 43.8082 23.8569 44.1804 23.5872 44.3808C22.7011 45.0393 22.2919 43.1606 21.5213 43.7332L13.8158 49.459C13.0452 50.0316 14.7105 51.1862 13.6703 51.9592C13.5547 52.0451 13.1694 52.3314 12.969 52.0617L2.37626 37.8064C2.19017 37.556 2.57545 37.2697 2.69103 37.1838ZM18.2373 39.5954L10.6666 45.221C10.5317 45.3212 10.4674 45.7577 10.5676 45.8925L12.5716 48.5895C12.6575 48.705 13.1083 48.7886 13.2432 48.6884L20.8139 43.0629L20.9129 42.3913L18.9088 39.6943L18.2373 39.5954ZM17.8496 38.2688L15.9457 35.7067C15.8455 35.5719 15.409 35.5075 15.2742 35.6077L7.70348 41.2333C7.56863 41.3335 7.50429 41.7701 7.60449 41.9049L9.50832 44.467C9.60852 44.6018 10.1799 44.566 10.3147 44.4658L17.7506 38.9404L17.8496 38.2688ZM6.78027 40.514L7.1309 40.4628L14.7016 34.8372C14.8364 34.737 14.9008 34.3005 14.8006 34.1656L13.0828 31.854C12.9826 31.7191 12.5461 31.6548 12.4113 31.755L4.84058 37.3806C4.70573 37.4808 4.64139 37.9173 4.74159 38.0521L6.45933 40.3638L6.78027 40.514ZM31.2283 23.4624L31.3832 23.3974C31.516 23.3417 32.3984 23.3359 32.5312 23.2802L42.7119 19.0098C42.8668 18.9449 43.0245 18.5143 42.9688 18.3815L41.0472 13.8002L40.5738 13.4783L28.3349 18.612C28.18 18.677 27.9943 18.2344 27.9293 18.0795L40.1682 12.9457C40.5551 12.6273 40.8678 12.1317 41.4654 11.8811C41.908 11.6954 42.6355 11.7546 42.8769 12.33L42.9419 12.485C43.0069 12.6399 42.9384 13.3453 43.0034 13.5002L45.7234 19.9848C45.9091 20.4275 45.3337 20.6688 45.1787 20.7338C44.1385 21.1701 43.9685 19.5238 43.0832 19.8951L33.3452 23.9798C33.2124 24.0355 33.0232 24.4532 33.0882 24.6081L36.0589 31.6903C36.551 32.8633 39.4267 31.8392 40.0242 31.5886L46.9515 28.6829C50.05 27.3832 48.7258 22.5512 49.1685 22.3656L49.5212 22.3998L50.8209 25.4983C50.8766 25.631 51.5699 26.0429 51.6348 26.1979L51.6905 26.3306C52.4332 28.1012 48.1618 29.8929 47.2765 30.2642L39.4418 33.5506C38.0582 33.9748 35.3067 34.4263 34.564 32.6557L30.9156 23.9579C30.7856 23.6481 31.0733 23.5274 31.2283 23.4624ZM62.0799 15.229C61.2973 15.3506 60.5905 16.1163 59.8079 16.2379C59.1676 16.3374 58.7597 15.745 58.6602 15.1047C58.6381 14.9624 58.6123 14.7964 58.8948 14.5825C62.3072 13.5664 62.5053 10.621 63.9381 7.33801C64.0288 6.98388 64.3129 6.62398 64.7872 6.55027C65.2615 6.47655 65.926 6.68902 66.0255 7.32933L66.0513 7.49534L62.7522 12.2099C62.4681 12.5698 62.3774 12.924 62.4511 13.3983C62.4511 13.3983 62.499 13.7066 62.6413 13.6844L63.2816 13.5849C65.3449 13.2643 65.0758 11.533 65.2181 11.5109C65.598 11.7676 67.3158 13.4437 67.7901 13.37C70.3039 12.9793 71.5563 7.44127 71.2356 5.37804C71.2135 5.23575 70.948 4.62124 70.6397 4.66915L67.3196 5.18516C67.3196 5.18516 67.1277 5.04495 67.1056 4.90266L67.22 4.54485L75.5915 3.24376C76.0437 3.02776 76.4664 2.62203 77.1067 2.52251C77.5811 2.44879 78.2951 2.82358 78.3688 3.29789L78.4204 3.6299C78.0971 5.76894 79.29 11.4127 75.8275 11.9508C75.0212 12.0761 73.0023 11.5884 72.8549 10.6398L75.7007 10.1975C77.2897 9.95054 76.6335 6.8222 76.5081 6.01588L76.2649 4.45067C76.2391 4.28467 76.0489 3.99848 75.7169 4.05008L73.8196 4.34495C72.7287 4.51449 72.392 8.59866 72.0651 9.62099C71.2453 11.6914 68.8124 13.6969 67.2307 15.0842L67.0885 15.1063C66.2821 15.2317 66.061 13.8087 65.2784 13.9304C65.1124 13.9562 64.3519 14.2201 64.4256 14.6944L65.9515 24.5125C66.0252 24.9868 65.3849 25.0864 65.0766 25.1343L64.6023 25.208L64.4105 25.0678L62.9362 15.5817C62.8883 15.2734 62.2459 15.2032 62.0799 15.229ZM69.9564 14.8063L71.453 15.0595L76.8127 14.2265C76.8127 14.2265 77.1226 14.0326 77.2649 14.0105C77.2649 14.0105 77.8536 13.579 78.0196 13.5532L78.1619 13.5311C78.8022 13.4315 79.376 13.9981 79.4755 14.6385C79.5235 14.9468 79.4054 15.2809 79.3368 15.7773L80.2951 21.9432C80.3688 22.4176 79.7285 22.5171 79.5625 22.5429C78.6139 22.6903 78.5587 21.2416 77.9184 21.3411L72.7011 22.152C71.9185 22.2736 72.3314 23.8367 71.5251 23.962C71.2168 24.01 70.9085 24.0579 70.8606 23.7496L69.5337 15.2121L69.6502 15.024C69.8162 14.9982 69.9564 14.8063 69.9564 14.8063ZM72.3892 21.0832L72.7196 21.1776L77.6287 20.4146C77.771 20.3925 78.0551 20.0326 78.0293 19.8666L77.3659 15.5978C77.3437 15.4555 76.9601 15.1751 76.8178 15.1972L71.9088 15.9602C71.7428 15.986 71.4861 16.3659 71.5082 16.5082L72.1716 20.777L72.3892 21.0832ZM58.1762 8.865L58.4624 8.67479L59.1248 8.71757L59.5991 8.64385C61.3304 8.37479 59.8843 4.22767 61.6155 3.95861C62.0898 3.88489 62.7817 4.11739 62.8555 4.59169L62.9034 4.89999C62.3626 5.63982 60.5921 7.68802 60.8133 9.11093C60.9128 9.75124 61.4608 10.1518 61.5566 10.7684C61.6082 11.1004 61.6304 11.2427 61.2983 11.2943C60.3497 11.4418 58.3237 9.81361 58.1762 8.865ZM60.0129 23.8082C60.1996 22.9777 59.6949 17.5427 61.1178 17.3216C61.5921 17.2478 62.0922 17.3401 62.1881 17.9567C62.2876 18.597 60.8434 23.9949 60.2268 24.0907L60.0129 23.8082ZM65.7428 16.9185C65.7207 16.7762 65.8867 16.7504 66.029 16.7283C67.3096 16.5293 68.7742 19.702 68.9438 20.7929C68.9954 21.1249 69.0691 21.5992 68.5948 21.6729C67.6462 21.8203 65.8681 17.7248 65.7428 16.9185ZM89.7051 10.7466C91.9511 8.16987 94.8243 6.40673 97.0463 3.8301C97.8352 3.03503 98.4721 0.152543 99.9121 0.146963C102 0.138873 101.361 2.54137 102.494 3.66499C104.734 5.88832 108.413 7.48208 111.153 8.74347C111.297 8.74291 111.299 9.05491 111.299 9.22291C111.302 9.8709 110.198 10.0192 109.718 10.021C106.358 10.0341 102.809 4.62377 100.714 2.71188L100.57 2.71243C100.402 2.71308 100.234 2.71374 100.091 2.85829C99.4451 3.5088 96.0981 6.88179 95.3087 7.53286C94.1849 8.64122 91.7937 10.9065 90.1857 10.9127C90.0417 10.9133 89.7057 10.9146 89.7051 10.7466ZM102.56 20.7769L102.527 12.1369C102.522 10.8649 102.653 7.6484 102.653 7.6484L102.821 7.50375L103.301 7.50189C103.781 7.50003 104.573 7.49696 104.576 8.28895C104.576 8.45695 104.267 9.08216 104.267 9.25016L104.312 20.7701C104.313 21.0821 103.522 21.2531 103.354 21.2538C102.874 21.2556 102.561 21.0889 102.56 20.7769ZM90.394 21.304C90.3921 20.824 94.0541 18.2418 94.6972 16.9673C96.294 14.0811 96.2822 11.0331 96.4139 7.84058C96.58 7.35993 96.8926 7.52672 97.2286 7.52542C97.7086 7.52356 98.3332 7.66514 98.3357 8.31313L98.3364 8.48113C98.3369 8.62513 98.0268 9.10634 98.0274 9.27434C97.571 15.3482 96.9366 18.8786 90.7072 21.6148C90.3952 21.616 90.3946 21.472 90.394 21.304Z" fill="#0B0801"/>
</svg>
