<svg width="133" height="45" viewBox="0 0 133 45" fill="none" xmlns="http://www.w3.org/2000/svg">
<path d="M10.6341 43.6774C10.5073 43.7751 10.3863 43.8278 10.2712 43.8356C10.1688 43.8337 10.0883 43.7948 10.0297 43.7187C9.97117 43.6426 9.9604 43.55 9.99742 43.4407C10.0344 43.3314 10.1276 43.2294 10.2768 43.1347C10.7244 42.8506 10.9799 42.6842 11.0433 42.6354C11.6265 42.1864 11.8696 41.676 11.7728 41.1044C11.717 40.7435 11.1244 38.8068 9.99508 35.2945C8.87839 31.7723 8.18523 29.6001 7.9156 28.7779L7.06126 26.1341C6.94299 25.6395 6.99795 25.3044 7.22614 25.1287C7.35292 25.0311 7.48996 24.9861 7.63727 24.9939C7.78749 24.9792 7.97873 25.044 8.21097 25.1882C9.34583 25.8491 11.2672 27.0857 13.9752 28.8979C14.5012 29.2401 15.621 29.9732 17.3345 31.0972C19.051 32.1987 20.3508 32.9952 21.2339 33.4864C21.5852 33.6804 21.9237 33.7529 22.2495 33.704C22.5782 33.6326 22.9201 33.4603 23.2751 33.1869C23.4018 33.0893 23.5949 32.9205 23.8543 32.6804L23.9304 32.6218C24.0445 32.534 24.1527 32.491 24.2551 32.4929C24.3576 32.4948 24.4381 32.5338 24.4966 32.6098C24.5455 32.6732 24.5513 32.7596 24.5143 32.8688C24.49 32.9683 24.4144 33.0669 24.2877 33.1645L18.4687 37.645C18.3419 37.7426 18.221 37.7953 18.1059 37.8032C18.0035 37.8013 17.923 37.7623 17.8644 37.6862C17.8058 37.6101 17.795 37.5175 17.8321 37.4082C17.8818 37.2892 17.9749 37.1872 18.1114 37.1022C18.4606 36.8738 18.7175 36.6961 18.8823 36.5692C19.8078 35.8567 20.0338 35.2585 19.5605 34.7749C19.2686 34.4746 17.6107 33.3179 14.5865 31.3048C14.4089 31.179 14.2377 31.1796 14.0729 31.3065L10.7641 33.8542C10.612 33.9713 10.5628 34.1304 10.6165 34.3313C11.8719 38.1909 12.586 40.246 12.7588 40.4967C12.8925 40.6966 13.0759 40.7775 13.3091 40.7393C13.5451 40.6787 13.8597 40.4971 14.2527 40.1945C14.6964 39.8529 15.1586 39.4566 15.6393 39.0057L15.6964 38.9618C15.8105 38.8739 15.9187 38.8309 16.0212 38.8328C16.1363 38.825 16.2231 38.8591 16.2817 38.9352C16.3305 38.9985 16.3364 39.0849 16.2994 39.1941C16.275 39.2937 16.1995 39.3922 16.0727 39.4898L10.6341 43.6774ZM10.1271 32.8302C10.1437 32.878 10.1715 32.9272 10.2106 32.9779C10.3179 33.1174 10.454 33.1237 10.6188 32.9968L13.3001 30.9323C13.4015 30.8542 13.4469 30.7688 13.4361 30.6761C13.438 30.5737 13.3858 30.4927 13.2794 30.4333L8.83542 27.4941C8.69977 27.3966 8.59392 27.3772 8.51785 27.4357C8.42911 27.5041 8.41453 27.6163 8.47411 27.7723L10.1271 32.8302ZM33.9169 26.8073C33.4517 27.057 32.8965 27.2913 32.2514 27.5103C32.1592 27.5416 32.053 27.5805 31.9326 27.6269C31.8264 27.6657 31.7098 27.7192 31.5829 27.7873C31.3996 27.8856 31.2038 28.0452 30.9954 28.2659C30.9259 28.3395 30.8701 28.3877 30.8278 28.4103C30.7432 28.4557 30.6684 28.4686 30.6034 28.449C30.5308 28.4153 30.4794 28.3703 30.4492 28.3139C30.4265 28.2716 30.4168 28.186 30.4203 28.057C30.4162 27.914 30.4055 27.7926 30.3883 27.6929C30.3282 27.3438 30.1609 26.8798 29.8865 26.3007C29.6262 25.714 29.1292 24.7369 28.3954 23.3693C27.117 20.9866 25.9622 18.9189 24.931 17.1662C24.7656 16.8918 24.5921 16.5854 24.4106 16.247C24.2064 15.8663 23.9803 15.5973 23.7323 15.4398C23.491 15.2606 23.2363 15.2429 22.9684 15.3866C22.8275 15.4622 22.7033 15.5016 22.596 15.5047C22.5028 15.5002 22.4373 15.4627 22.3995 15.3923C22.3693 15.3359 22.3742 15.2606 22.4145 15.1663C22.4613 15.0505 22.5476 14.9406 22.6734 14.8367C23.0369 14.5328 23.3844 14.0467 23.7159 13.3786C23.7431 13.3277 23.8045 13.2222 23.9001 13.0619C24.0022 12.88 24.1026 12.7626 24.2013 12.7096C24.3987 12.6037 24.5428 12.6354 24.6335 12.8046L25.2721 14.0961C26.776 17.1023 27.8349 19.1942 28.4487 20.372C28.547 20.5553 28.6526 20.6167 28.7653 20.5562C28.8358 20.5183 28.8912 20.4523 28.9314 20.3581C29.111 19.8805 29.3386 19.4587 29.6144 19.0929C29.9043 18.7194 30.2325 18.4344 30.5991 18.2377C31.1349 17.9503 31.7397 17.8255 32.4137 17.8633C33.0801 17.8871 33.7419 18.1221 34.399 18.5685C35.0626 18.9932 35.6252 19.6355 36.0866 20.4956C36.5102 21.2851 36.6873 22.0889 36.6178 22.907C36.5483 23.725 36.273 24.481 35.7919 25.1749C35.3033 25.8547 34.6783 26.3989 33.9169 26.8073ZM33.8613 25.9929C34.538 25.6298 34.9507 25.0452 35.0993 24.2392C35.2403 23.4191 35.0158 22.4592 34.4257 21.3595C34.108 20.7673 33.7115 20.2991 33.2363 19.9549C32.7611 19.6107 32.2792 19.4062 31.7906 19.3416C31.3019 19.2769 30.8743 19.3429 30.5078 19.5396C30.2258 19.6909 29.9864 19.9555 29.7897 20.3334C29.5996 20.6896 29.5046 21.1219 29.505 21.6301C29.5194 22.1308 29.6703 22.649 29.9578 23.1847L30.6257 24.3788C30.9716 24.9559 31.2391 25.4206 31.4282 25.7731C31.6325 26.1537 31.9394 26.3704 32.3489 26.423C32.765 26.454 33.2691 26.3106 33.8613 25.9929ZM48.4479 19.7633C47.7294 20.0347 46.9815 20.1376 46.2042 20.072C45.4269 20.0064 44.7072 19.731 44.045 19.2457C43.3977 18.7547 42.9016 18.0527 42.5568 17.1397C42.2062 16.2117 42.119 15.3467 42.295 14.5448C42.4709 13.7429 42.8214 13.0632 43.3463 12.5058C43.8805 11.9277 44.5068 11.503 45.2253 11.2316C45.9437 10.9602 46.6944 10.8648 47.4774 10.9454C48.2547 11.0109 48.9745 11.2863 49.6367 11.7717C50.2989 12.257 50.8052 12.9636 51.1558 13.8916C51.5007 14.8047 51.5851 15.6621 51.4091 16.4641C51.2331 17.266 50.8752 17.9485 50.3353 18.5116C49.7955 19.0747 49.1663 19.4919 48.4479 19.7633ZM48.2274 19.1795C49.0057 18.8855 49.4997 18.3141 49.7093 17.4653C49.9188 16.6165 49.8144 15.6383 49.3961 14.5307C48.9833 13.438 48.4103 12.6454 47.6769 12.1527C46.9528 11.6395 46.2091 11.527 45.4457 11.8154C44.6824 12.1037 44.1913 12.6826 43.9724 13.552C43.7628 14.4009 43.8643 15.3716 44.2771 16.4642C44.6898 17.5569 45.2582 18.3598 45.9823 18.8731C46.7157 19.3657 47.464 19.4679 48.2274 19.1795ZM57.0978 8.4941C57.0833 8.43177 57.1078 8.36037 57.1712 8.27991C57.2466 8.18024 57.3568 8.08891 57.5018 8.00591C57.8192 7.81709 58.1952 7.49144 58.6298 7.02899C58.6812 6.96773 58.7543 6.89326 58.8488 6.80555C58.9398 6.70226 59.0128 6.62778 59.0679 6.58211C59.2056 6.46795 59.3135 6.4018 59.3914 6.38368C59.594 6.33656 59.717 6.40651 59.7605 6.59351L60.2373 8.74955C60.5831 10.3775 60.8557 11.6201 61.055 12.4772C61.1746 12.9915 61.4667 13.3999 61.9314 13.7026C62.408 13.986 62.9034 14.0679 63.4177 13.9482C64.0878 13.7924 64.6146 13.2674 64.998 12.3733C65.0516 12.1801 65.0561 12.023 65.0116 11.902C64.938 11.6563 64.8559 11.3386 64.7653 10.949L64.2341 8.5592C64.1362 8.13843 63.9882 7.81969 63.7899 7.60296C63.6036 7.36703 63.3625 7.2835 63.0664 7.35236C62.7391 7.42848 62.5573 7.38861 62.5211 7.23277C62.5066 7.17044 62.5311 7.09904 62.5945 7.01858C62.6699 6.91891 62.78 6.82758 62.925 6.74458C63.2425 6.55576 63.6185 6.23011 64.053 5.76765C64.1045 5.7064 64.1775 5.63192 64.2721 5.54422C64.3631 5.44092 64.4361 5.36645 64.4912 5.32078C64.6289 5.20661 64.7367 5.14047 64.8146 5.12235C65.0172 5.07523 65.1403 5.14517 65.1838 5.33218L65.4687 6.769C65.6745 7.93672 65.8699 8.91797 66.0548 9.71276C66.265 10.6166 66.4725 11.3322 66.6773 11.8595C66.8976 12.3832 67.1325 12.6161 67.3818 12.5581C67.4597 12.54 67.5652 12.499 67.6982 12.4352C67.8432 12.3522 67.9468 12.3035 68.0092 12.289C68.2118 12.2419 68.3312 12.2962 68.3674 12.4521C68.3855 12.53 68.3665 12.6248 68.3103 12.7364C68.2505 12.8324 68.1541 12.9124 68.0211 12.9761C67.7156 13.1458 67.409 13.3813 67.1013 13.6829C66.8607 13.9195 66.6858 14.0506 66.5767 14.0759C66.1248 14.1811 65.77 13.9268 65.5123 13.3132C65.4641 13.1766 65.401 13.1174 65.3231 13.1355C65.2763 13.1464 65.2231 13.1998 65.1633 13.2959C64.637 14.141 63.922 14.6687 63.0181 14.879C62.5818 14.9804 62.1159 14.9902 61.6204 14.9083C61.1406 14.8228 60.7128 14.6431 60.3369 14.3691C59.9575 14.0795 59.7115 13.6932 59.5992 13.2101L58.8109 9.82053C58.713 9.39976 58.5649 9.08102 58.3667 8.86429C58.1804 8.62836 57.9392 8.54483 57.6431 8.61369C57.3158 8.68981 57.1341 8.64994 57.0978 8.4941ZM77.8847 11.8523C77.3441 11.9136 76.948 11.7572 76.6962 11.3832C76.4427 10.9933 76.2834 10.5122 76.2185 9.93986L75.5476 4.02579C75.5296 3.86681 75.4411 3.79634 75.2821 3.81437C74.9959 3.84683 74.7663 3.88093 74.5932 3.91667C74.4343 3.9347 74.2991 3.95003 74.1878 3.96265C74.0607 3.97708 73.9528 3.94906 73.8643 3.87859C73.7917 3.80631 73.7491 3.71453 73.7365 3.60324C73.722 3.47606 73.75 3.36821 73.8205 3.2797C73.8892 3.1753 74.003 3.11408 74.162 3.09604C74.9251 3.00948 75.4095 2.73715 75.6152 2.27905C75.7717 1.95534 75.867 1.51781 75.901 0.966461C75.9304 0.657184 75.9696 0.435347 76.0188 0.300949C76.0661 0.150653 76.1614 0.0673898 76.3044 0.0511591C76.6065 0.0168944 76.781 0.206436 76.8279 0.619785L77.0497 2.57524C77.0677 2.73423 77.1562 2.8047 77.3152 2.78666C77.8716 2.72354 78.3318 2.6633 78.6956 2.60592C79.0595 2.54854 79.313 2.51174 79.456 2.49551C79.5991 2.47928 79.707 2.5073 79.7796 2.57958C79.8681 2.65005 79.9196 2.74888 79.934 2.87607C79.9466 2.98735 79.9186 3.0952 79.8499 3.1996C79.7812 3.30401 79.6824 3.35547 79.5534 3.354C79.1029 3.35681 78.3768 3.41501 77.3752 3.52863C77.2162 3.54666 77.1458 3.63517 77.1638 3.79415C77.3535 5.60833 77.571 7.59649 77.8162 9.75862C77.8469 10.0289 77.9623 10.2654 78.1624 10.4681C78.3625 10.6709 78.5977 10.7569 78.868 10.7262C79.2178 10.6866 79.5661 10.4216 79.9131 9.93138C80.0381 9.75617 80.1563 9.66225 80.2676 9.64963C80.3948 9.6352 80.4665 9.69953 80.4827 9.84261C80.4989 9.98569 80.4463 10.1607 80.3249 10.3677C80.0784 10.75 79.7452 11.0776 79.3253 11.3507C78.9054 11.6237 78.4252 11.7909 77.8847 11.8523Z" fill="#2C343A"/>
<path d="M100.409 2.95794C100.41 2.89394 100.451 2.83051 100.532 2.76763C100.629 2.68897 100.758 2.63476 100.918 2.60498C101.416 2.4839 101.931 2.22704 102.465 1.83443C102.529 1.80332 102.642 1.74088 102.804 1.64712C102.965 1.53736 103.094 1.48314 103.19 1.48448C103.414 1.48759 103.525 1.58514 103.522 1.77712C103.519 1.95311 103.509 2.11298 103.491 2.25674C103.49 2.36873 103.513 2.44106 103.56 2.47372C103.624 2.49061 103.696 2.46762 103.777 2.40474C104.442 1.80592 105.142 1.51163 105.878 1.52187C106.39 1.52899 106.883 1.68788 107.359 1.99852C107.835 2.29317 108.229 2.7227 108.541 3.28709C108.635 3.44841 108.731 3.45775 108.829 3.3151C109.091 2.9027 109.496 2.5163 110.045 2.15591C110.595 1.77951 111.149 1.59521 111.709 1.603C112.237 1.61034 112.747 1.77745 113.238 2.10432C113.746 2.43141 114.155 2.93315 114.465 3.60953C114.792 4.27015 114.949 5.0884 114.935 6.06431L114.881 8.22377C114.872 8.8637 114.922 9.34444 115.029 9.66596C115.137 9.97149 115.359 10.1266 115.695 10.1313C115.823 10.133 115.919 10.1264 115.983 10.1113L116.127 10.0893C116.255 10.0911 116.351 10.1244 116.414 10.1893C116.493 10.2544 116.532 10.3349 116.531 10.4309C116.529 10.5269 116.48 10.6062 116.383 10.6689C116.303 10.7318 116.182 10.7621 116.022 10.7599L112.039 10.7045C111.879 10.7022 111.751 10.6685 111.656 10.6031C111.577 10.538 111.538 10.4575 111.539 10.3615C111.541 10.2495 111.59 10.1622 111.687 10.0995C111.784 10.0369 111.92 10.0227 112.096 10.0572C112.558 10.1436 112.857 9.97177 112.991 9.5416C113.141 9.09564 113.223 8.40871 113.235 7.4808L113.254 6.18492C113.263 5.51299 113.159 4.91149 112.943 4.38043C112.742 3.84958 112.468 3.43773 112.12 3.14486C111.788 2.85221 111.446 2.70344 111.094 2.69854C110.454 2.68964 109.961 3.02682 109.616 3.71008C109.286 4.37756 109.116 5.13526 109.104 5.98318L109.05 8.14264C109.041 8.78258 109.09 9.26331 109.198 9.58484C109.306 9.89037 109.527 10.0455 109.863 10.0501C109.991 10.0519 110.087 10.0453 110.152 10.0301L110.296 10.0082C110.424 10.0099 110.52 10.0433 110.583 10.1082C110.662 10.1733 110.701 10.2538 110.699 10.3498C110.698 10.4458 110.649 10.5251 110.552 10.5878C110.471 10.6507 110.351 10.681 110.191 10.6788L106.207 10.6233C106.047 10.6211 105.92 10.5873 105.824 10.522C105.745 10.4569 105.706 10.3763 105.708 10.2804C105.709 10.1684 105.759 10.081 105.855 10.0184C105.952 9.95573 106.089 9.94162 106.264 9.97606C106.727 10.0625 107.025 9.89065 107.159 9.46047C107.31 9.01451 107.391 8.32758 107.404 7.39967L107.422 6.1038C107.431 5.43186 107.328 4.83036 107.111 4.2993C106.911 3.76846 106.636 3.3566 106.288 3.06373C105.956 2.77108 105.614 2.62231 105.262 2.61742C104.91 2.61252 104.58 2.75194 104.272 3.03569C103.981 3.30365 103.744 3.63639 103.562 4.03391C103.397 4.43164 103.312 4.7825 103.308 5.08647C103.286 5.48621 103.271 6.03004 103.261 6.71798C103.247 7.70988 103.276 8.52636 103.347 9.16741C103.391 9.44005 103.476 9.64125 103.603 9.77102C103.729 9.90079 103.912 9.96734 104.152 9.97068C104.264 9.97224 104.36 9.96558 104.44 9.95069L104.585 9.9287C104.713 9.93048 104.808 9.96381 104.871 10.0287C104.95 10.0938 104.989 10.1743 104.988 10.2703C104.987 10.3663 104.937 10.4457 104.841 10.5083C104.76 10.5712 104.639 10.6015 104.479 10.5993L100.568 10.5449C100.408 10.5427 100.28 10.5089 100.185 10.4435C100.106 10.3784 100.067 10.2979 100.068 10.2019C100.07 10.0899 100.119 10.0026 100.216 9.93993C100.313 9.87727 100.449 9.86316 100.625 9.89761C101.103 10.0003 101.427 9.74875 101.595 9.14304C101.696 8.79241 101.752 8.24913 101.762 7.5132C101.769 6.98525 101.767 6.57718 101.755 6.28898L101.753 4.6808C101.759 4.24885 101.692 3.90388 101.552 3.6459C101.427 3.37214 101.213 3.23315 100.909 3.22892C100.749 3.2267 100.622 3.20092 100.526 3.15159C100.447 3.10248 100.408 3.03793 100.409 2.95794ZM123.484 6.41565C123.588 5.44524 123.892 4.64111 124.395 4.00326C124.9 3.3495 125.504 2.89151 126.208 2.6293C126.914 2.35119 127.609 2.24892 128.293 2.3225C129.295 2.43029 130.11 2.78347 130.738 3.38202C131.367 3.96466 131.634 4.70141 131.538 5.59227C131.502 5.92634 131.402 6.18113 131.238 6.35663C131.091 6.53384 130.921 6.61218 130.73 6.59165L125.65 6.02109C125.412 5.99542 125.28 6.09395 125.256 6.31666C125.14 7.39842 125.302 8.35729 125.744 9.19326C126.186 10.0133 126.861 10.4721 127.768 10.5696C128.436 10.6415 129.033 10.5528 129.559 10.3036C130.084 10.0544 130.48 9.74293 130.745 9.36918C130.877 9.19026 131.015 9.1085 131.158 9.1239C131.317 9.14101 131.386 9.25297 131.363 9.45978C131.346 9.61886 131.284 9.74895 131.176 9.85004C130.661 10.4544 130.116 10.8865 129.54 11.1465C128.965 11.4065 128.264 11.492 127.437 11.403C126.673 11.3209 125.967 11.076 125.319 10.6684C124.687 10.2624 124.193 9.69432 123.837 8.96406C123.497 8.23552 123.379 7.38605 123.484 6.41565ZM125.588 5.02477C125.569 5.05487 125.557 5.09379 125.552 5.14151C125.531 5.33241 125.632 5.43984 125.855 5.46379L129.127 5.79156C129.413 5.82236 129.603 5.7784 129.696 5.65969C129.791 5.52507 129.85 5.35436 129.872 5.14755C129.935 4.55895 129.812 4.06288 129.501 3.65935C129.208 3.24162 128.783 3.00281 128.226 2.94292C127.685 2.88474 127.179 3.03141 126.706 3.38291C126.25 3.73613 125.877 4.28341 125.588 5.02477Z" fill="#7A118B"/>
</svg>
