<svg width="84" height="53" viewBox="0 0 84 53" fill="none" xmlns="http://www.w3.org/2000/svg">
<path d="M9.48428 43.2469L9.41994 43.6834L13.1417 48.692C13.3421 48.9617 12.8925 49.6845 12.6228 49.8849C12.5072 49.9708 12.2375 50.1712 12.0514 49.9208L7.37059 43.6215C7.18451 43.3711 7.4542 43.1707 7.56978 43.0848C8.34034 42.5122 9.1814 42.276 9.8171 41.8036C10.0675 41.6175 10.8227 41.2657 10.4362 40.7455L9.39125 39.3393L8.61949 39.1054L4.8823 41.8824L4.66652 41.8335L4.58063 41.7179L4.49581 41.3623L8.23299 38.5853L8.33198 37.9137L7.18682 36.3726C7.10093 36.2571 6.63084 36.1878 6.51525 36.2737L4.58887 37.7051C3.9339 38.1918 4.39211 39.8546 4.29313 40.5262C4.15828 40.6264 3.97219 40.376 3.87199 40.2411L3.77179 40.1063C3.58448 39.0494 1.35851 35.5307 2.51434 34.6718C2.89961 34.3856 3.74067 34.1493 4.02696 34.5346C4.31325 34.9198 3.99353 35.576 4.36571 36.0769C4.46591 36.2117 4.652 36.4622 4.78684 36.362L5.42255 35.8896C5.5574 35.7894 6.54374 35.2658 6.15724 34.7456L4.53971 32.5688L4.62331 32.118L5.00859 31.8317C5.25902 31.6456 5.89473 31.1732 6.18101 31.5585C6.55319 32.0594 6.58905 32.6307 6.97554 33.1509C7.44792 33.7866 7.73421 34.1719 8.50476 33.5993C9.27532 33.0267 9.32306 32.0045 9.95877 31.5321C10.4789 31.1456 11.266 31.1587 11.6525 31.6788C11.7384 31.7944 11.5882 32.1154 11.5882 32.1154L8.50598 34.4057L8.50719 35.2121L9.73824 36.8688C9.83844 37.0036 10.275 37.068 10.4098 36.9678L11.9509 35.8226C12.471 35.4361 12.2837 34.3793 12.7846 34.0071C13.1699 33.7208 14.0765 33.8544 14.3628 34.2397C14.463 34.3746 14.6491 34.625 14.3986 34.8111L10.6615 37.5881L10.6973 38.1595L11.8425 39.7006C12.0286 39.951 12.3792 39.8998 12.514 39.7996L13.2846 39.227C13.9203 38.7546 14.2543 38.1177 14.7745 37.7312C15.2753 37.359 15.9815 37.2229 16.368 37.7431L16.4539 37.8587C16.5541 37.9935 16.6902 38.6997 16.7761 38.8153L19.639 42.6681C20.0254 43.1882 19.1213 44.6674 18.8708 44.8535C18.4856 45.1398 16.9432 45.4785 16.6569 45.0932L16.5567 44.9584L16.5864 44.7569C16.7213 44.6567 18.1275 43.6118 17.6409 42.9568L15.0642 39.4893L14.6277 39.425L12.9518 40.6703C12.8362 40.7562 12.9876 41.2417 12.9876 41.2417C13.6604 42.1471 16.3885 46.1 17.0469 46.9862C17.3332 47.3715 18.1062 48.4117 17.4705 48.8841C17.2201 49.0702 16.9504 49.2706 16.75 49.0009L11.697 42.2007C11.5968 42.0659 11.0254 42.1018 10.9098 42.1876L9.48428 43.2469ZM23.2114 42.4055L23.1255 42.29L23.1601 42.0549L25.0865 40.6235C25.3369 40.4374 25.7056 39.5654 25.5195 39.315L14.8266 24.9249C14.6405 24.6745 15.1414 24.3023 15.2762 24.2021C15.6615 23.9158 16.2675 23.6449 16.5538 24.0302C16.8401 24.4154 16.9056 24.7853 16.9569 25.136L27.3635 39.1408C27.8359 39.7765 27.1371 41.4918 26.6169 41.8783L26.3665 42.0644C26.2317 42.1646 23.4976 42.7908 23.2114 42.4055ZM12.6676 27.9345C12.918 27.7484 13.573 27.2617 13.8593 27.647L13.9452 27.7626C14.0454 27.8974 14.1325 28.8194 14.2327 28.9543L21.3899 38.5862C21.576 38.8366 21.1561 39.358 21.0212 39.4582C20.7708 39.6443 20.5204 39.8304 20.3343 39.5799L12.218 28.6573C11.9317 28.2721 12.5327 28.0347 12.6676 27.9345ZM40.1146 16.3607C38.0564 17.224 39.4641 23.0619 37.6936 23.8046C37.3837 23.9346 37.3187 23.7797 37.2538 23.6247C36.8267 22.6067 37.8951 18.5149 37.8057 16.6265C37.7529 16.1281 37.4934 12.5934 37.4626 12.0857C37.4069 11.9529 37.4747 11.7423 37.5647 11.5224L38.1622 11.2718C38.4499 11.1511 39.6879 10.814 39.8058 11.4672C40.0779 12.5503 39.2205 13.7948 39.7126 14.9678C39.8332 15.2555 39.8982 15.4104 40.1859 15.2897L45.9402 12.876C46.6706 12.5697 46.6769 11.3438 47.4294 11.0282C48.0048 10.7868 49.0729 11.2237 49.3143 11.7991C49.3793 11.954 49.1344 12.2389 49.1344 12.2389L42.8047 14.894L42.6805 15.4666L43.9152 18.4101C43.9802 18.565 44.4107 18.7228 44.5435 18.6671L47.0666 17.6088C47.7969 17.3024 47.8682 16.2315 48.7535 15.8601C49.1961 15.6744 49.9793 15.8664 50.23 16.464C50.2857 16.5968 50.0408 16.8817 50.0408 16.8817L44.8841 19.0447C44.8841 19.0447 44.8499 19.3974 44.7171 19.4531C44.6272 19.673 44.5372 19.8929 44.5929 20.0257L45.8926 23.1242L46.5209 23.3811L47.1185 23.1305C48.4464 22.5735 49.248 21.1962 50.4431 20.6949C50.8858 20.5092 51.901 20.4477 52.2074 21.1781C52.2724 21.333 52.0182 21.5958 52.0182 21.5958L46.8615 23.7588C46.8615 23.7588 46.8365 24.1336 46.7038 24.1893L46.6045 24.3871C46.6695 24.542 46.5796 24.7619 46.5796 24.7619L48.6776 29.7637C48.8076 30.0736 47.978 30.5777 47.6903 30.6984C47.5354 30.7634 47.2477 30.8841 47.127 30.5963L41.1856 16.432C40.9999 15.9893 40.2696 16.2957 40.1146 16.3607ZM33.5119 22.9561C32.3389 23.4481 33.5736 26.3916 32.2457 26.9487C32.0907 27.0136 31.8151 26.7909 31.8151 26.7909C31.4438 25.9056 32.3389 23.4481 32.3759 22.7299C32.5493 21.0956 31.7205 14.156 32.7606 13.7197C33.2033 13.534 34.1535 13.3176 34.3949 13.893C34.5806 14.3357 33.989 17.8891 34.0077 18.7401C34.0727 18.8951 34.0384 19.2478 34.0384 19.2478C34.1034 19.4027 34.7967 19.8146 34.8524 19.9474L34.9824 20.2572C35.103 20.5449 35.168 20.6998 35.1338 21.0525L40.2675 33.2914C40.3975 33.6013 39.7229 34.0404 39.4351 34.1611C39.2802 34.2261 38.9925 34.3468 38.8718 34.0591L34.2301 22.9932C34.2301 22.9932 33.7996 22.8354 33.6668 22.8911L33.5119 22.9561ZM75.1652 20.0555C75.1101 19.7484 75.2755 19.7188 75.5826 19.6637C76.3621 19.5239 77.0551 19.7166 77.8346 19.5768C81.3072 18.9539 79.6462 10.6446 79.2775 8.58943L78.8538 6.22713C78.657 5.94545 78.4917 5.97511 78.3263 6.00477C77.3814 6.17425 76.3602 20.3289 71.3049 21.2356L71.2498 20.9285C73.7925 16.8881 76.8095 11.9581 75.9324 7.0681C75.8222 6.4539 75.6272 6.31819 74.9894 6.43259C74.6823 6.48768 74.3752 6.54276 74.2946 7.04488C74.0722 7.57242 73.2754 10.4706 73.053 10.9982C72.5573 12.7207 71.4024 16.3415 69.3708 16.7059C69.087 15.1231 73.0276 10.8564 72.4344 7.5492C72.32 6.91138 72.0129 6.96646 71.5404 7.0512C69.4852 7.41983 70.3559 10.5066 68.466 10.8456C68.2118 9.42819 69.5955 7.08307 69.8392 5.72268C69.9258 5.39016 69.9746 2.94312 70.0849 2.60636C70.1655 2.10424 70.3582 1.41133 70.996 1.29693C71.4685 1.21219 72.5848 1.18265 72.695 1.79685C72.8941 2.90713 71.3391 4.16136 71.5637 5.41338C71.5637 5.41338 71.5127 6.08086 71.8434 6.02154L78.2925 4.86483C78.4282 4.66981 79.1527 4.22289 79.3181 4.19323L79.4598 4.1678C79.9323 4.08306 80.8202 4.41147 80.9346 5.04929L80.96 5.19103C80.4981 8.05353 83.8431 20.4497 78.646 21.3819C78.0318 21.492 75.305 20.8351 75.1652 20.0555ZM64.8941 16.2165C63.9746 16.5277 63.731 17.8881 62.786 18.0576C62.3136 18.1424 61.6716 17.2822 61.6123 16.9515C61.303 15.227 65.2818 15.6593 64.998 14.0766L64.1209 9.18662C64.0362 8.71416 63.3983 8.82856 63.0912 8.88364C61.036 9.25226 62.3518 12.9175 61.0761 13.1463C60.769 13.2014 60.714 12.8943 60.6843 12.729C60.4047 11.1698 60.0826 4.88804 61.5 4.63381C61.9724 4.54907 62.801 4.54675 62.9154 5.18457C63.0553 5.96413 62.3665 6.74601 62.5063 7.52557C62.5656 7.8563 62.9218 7.93872 63.2289 7.88363C63.3942 7.85397 63.983 7.60207 63.9237 7.27135L63.161 3.01921L63.4366 2.65279L63.9091 2.56805C64.2162 2.51297 64.9958 2.37314 65.0805 2.8456L65.1102 3.01097C65.1356 3.1527 64.9429 3.84561 64.9725 4.01097L65.5064 6.98747C65.5361 7.15283 65.8432 7.09775 66.0085 7.06809C66.481 6.98335 66.7034 6.45581 67.1758 6.37107C67.8136 6.25667 68.5362 6.61473 68.6506 7.25255C68.676 7.39429 68.375 7.61897 68.375 7.61897L66.178 8.01301C66.178 8.01301 66.0677 8.34977 65.9557 8.54055L65.8454 8.87731L66.553 12.8224L66.748 12.9581L67.0805 13.0447C67.6929 12.7886 68.2224 12.206 68.8602 12.0916C69.0255 12.0619 69.1927 12.1782 69.2224 12.3436C69.4215 13.4539 66.7521 13.9326 66.947 15.0193L68.4173 23.2165C68.4469 23.3819 67.7224 23.8288 67.5571 23.8584C67.3917 23.8881 67.3917 23.8881 67.055 23.7778L66.8642 23.6657L65.5634 16.4135L65.2266 16.3032C65.0613 16.3328 64.8941 16.2165 64.8941 16.2165Z" fill="#0B0801"/>
</svg>
