<svg width="23" height="23" viewBox="0 0 23 23" fill="none" xmlns="http://www.w3.org/2000/svg">
<circle cx="11.5003" cy="11.4996" r="11.0294" fill="#FF931E"/>
<path d="M11.5 0C17.8588 0 23 5.14118 23 11.5001C23 17.8589 17.8588 23.0001 11.5 23.0001C5.14118 23.0001 0 17.8589 0 11.5001C0 5.14118 5.14118 0 11.5 0ZM11.5 21.6471C17.1147 21.6471 21.6471 17.1148 21.6471 11.5001C21.6471 5.8853 17.1147 1.35294 11.5 1.35294C5.8853 1.35294 1.35294 5.8853 1.35294 11.5001C1.35294 17.1148 5.8853 21.6471 11.5 21.6471Z" fill="#FF931E"/>
<path d="M11.2976 4.93799L17.8594 11.4997L11.2976 18.0615L10.3505 17.1145L15.9652 11.4997L10.3505 5.88505L11.2976 4.93799Z" fill="#FCFFF7"/>
<path d="M16.9125 12.1762H5.41241V10.8232H16.9125V12.1762Z" fill="#FCFFF7"/>
</svg>
