<svg width="28" height="28" viewBox="0 0 28 28" fill="none" xmlns="http://www.w3.org/2000/svg">
<path d="M24.5 9.33333V18.6667C24.5 20.2138 23.8854 21.6975 22.7915 22.7915C21.6975 23.8854 20.2138 24.5 18.6667 24.5H9.33333C7.78624 24.5 6.30251 23.8854 5.20854 22.7915C4.11458 21.6975 3.5 20.2138 3.5 18.6667V9.33333C3.5 7.78624 4.11458 6.30251 5.20854 5.20854C6.30251 4.11458 7.78624 3.5 9.33333 3.5H18.6667C20.2138 3.5 21.6975 4.11458 22.7915 5.20854C23.8854 6.30251 24.5 7.78624 24.5 9.33333Z" stroke="black" stroke-width="1.5" stroke-linecap="round" stroke-linejoin="round"/>
<path d="M12.8333 24.5V14C12.8333 11.4485 13.4167 9.33337 17.5 9.33337M10.5 15.1667H17.5" stroke="black" stroke-width="1.5" stroke-linecap="round" stroke-linejoin="round"/>
</svg>
