<svg width="48" height="48" viewBox="0 0 48 48" fill="none" xmlns="http://www.w3.org/2000/svg">
<path d="M24 47.9998C37.2548 47.9998 48 39.5905 48 29.2172C48 18.8438 37.2548 10.4346 24 10.4346C10.7452 10.4346 0 18.8438 0 29.2172C0 39.5905 10.7452 47.9998 24 47.9998Z" fill="url(#paint0_radial_640_11)"/>
<path d="M39.8592 13.5651C37.3597 11.8917 34.5012 10.5601 31.3469 9.73412C36.5223 7.58366 42.2265 6.80039 48 7.62639C44.8646 9.20719 42.1321 11.2437 39.8655 13.5651H39.8592Z" fill="#52DD5F"/>
<path d="M8.19024 13.5577C10.6629 11.8408 13.512 10.4718 16.6531 9.60602C11.4482 7.5044 5.74356 6.78659 0 7.682C3.1476 9.22862 5.89931 11.2488 8.19024 13.5651V13.5577Z" fill="#52DD5F"/>
<path d="M31.347 10.0174C29.5055 9.70566 27.6421 9.51236 25.7734 9.43748C24.5919 9.39013 23.4082 9.39013 22.2266 9.43748C20.3579 9.51236 18.4945 9.70566 16.6531 10.0174C18.1329 6.56448 20.3725 3.17064 23.3401 0C23.4281 0 23.5161 0 23.5961 0C27.0036 3.11156 29.5952 6.51852 31.347 10.0174Z" fill="#59ED67"/>
<path d="M35.412 20.22C35.484 20.4 35.52 20.616 35.52 20.832C35.52 21.696 35.124 22.164 34.332 22.2C33.792 22.236 33.396 21.984 33.18 21.372C32.856 20.508 32.136 19.968 31.02 19.752C30.876 19.716 30.876 19.644 31.02 19.536C31.704 19.104 32.424 18.852 33.216 18.852C34.44 18.852 35.16 19.32 35.412 20.22ZM32.316 22.164C32.388 22.38 32.424 22.596 32.424 22.812C32.424 23.64 32.028 24.108 31.236 24.18C30.696 24.216 30.3 23.892 30.084 23.28C29.76 22.452 29.04 21.912 27.924 21.696C27.78 21.66 27.78 21.588 27.924 21.516C28.608 21.048 29.328 20.832 30.12 20.832C31.344 20.832 32.064 21.264 32.316 22.164ZM36.708 34.332L35.016 36.672C34.836 36.888 34.62 36.996 34.296 36.996C34.044 36.996 33.828 36.924 33.648 36.744C28.752 31.56 25.008 27.96 22.416 26.016C22.056 25.728 21.66 25.584 21.264 25.584C20.868 25.584 20.544 25.728 20.292 26.016C19.608 26.808 17.34 29.58 13.488 34.332C13.236 34.62 13.056 34.656 12.84 34.404L10.68 31.884C10.428 31.596 10.392 31.344 10.644 31.128C14.388 27.888 17.088 25.656 18.744 24.468C19.608 23.856 20.508 23.532 21.444 23.532C22.128 23.532 22.74 23.712 23.352 24.036C27.024 25.944 31.452 28.896 36.636 32.892C36.816 33.072 36.924 33.324 36.924 33.648C36.924 33.9 36.852 34.116 36.708 34.332Z" fill="black"/>
<defs>
<radialGradient id="paint0_radial_640_11" cx="0" cy="0" r="1" gradientUnits="userSpaceOnUse" gradientTransform="translate(31.2536 23.8934) scale(27.4198 24.5675)">
<stop stop-color="#DEFF8F"/>
<stop offset="0.23" stop-color="#E6E372"/>
<stop offset="0.75" stop-color="#F8A935"/>
<stop offset="1" stop-color="#FF931E"/>
</radialGradient>
</defs>
</svg>
