<svg width="24" height="24" viewBox="0 0 24 24" fill="none" xmlns="http://www.w3.org/2000/svg">
<path d="M12 8H20.5C20.8978 8 21.2794 8.15804 21.5607 8.43934C21.842 8.72064 22 9.10218 22 9.5C22 9.89782 21.842 10.2794 21.5607 10.5607C21.2794 10.842 20.8978 11 20.5 11H13M13.5 11H15.5C15.8978 11 16.2794 11.158 16.5607 11.4393C16.842 11.7206 17 12.1022 17 12.5C17 12.8978 16.842 13.2794 16.5607 13.5607C16.2794 13.842 15.8978 14 15.5 14H13M14.5 14C14.8978 14 15.2794 14.158 15.5607 14.4393C15.842 14.7206 16 15.1022 16 15.5C16 15.8978 15.842 16.2794 15.5607 16.5607C15.2794 16.842 14.8978 17 14.5 17H13" stroke="#FF9C39" stroke-width="2" stroke-linecap="round" stroke-linejoin="round"/>
<path d="M13.5 16.9999C13.8978 16.9999 14.2794 17.158 14.5607 17.4393C14.842 17.7206 15 18.1021 15 18.4999C15 18.8978 14.842 19.2793 14.5607 19.5606C14.2794 19.8419 13.8978 19.9999 13.5 19.9999H9C7.4087 19.9999 5.88258 19.3678 4.75736 18.2426C3.63214 17.1174 3 15.5912 3 13.9999V11.9999V12.2079C2.99983 11.2143 3.24645 10.2361 3.71771 9.36132C4.18898 8.48652 4.87013 7.74245 5.7 7.19594L6 6.99994C6.47867 6.68794 8.388 5.59261 11.728 3.71394C12.0685 3.52239 12.4702 3.47122 12.8478 3.57132C13.2255 3.67142 13.5491 3.91489 13.75 4.24994C14.19 4.98394 14.075 5.92394 13.47 6.52994L12 7.99994" stroke="#FF9C39" stroke-width="2" stroke-linecap="round" stroke-linejoin="round"/>
</svg>
