<svg width="29" height="28" viewBox="0 0 29 28" fill="none" xmlns="http://www.w3.org/2000/svg">
<path d="M25.1746 9.33333V18.6667C25.1746 20.2138 24.56 21.6975 23.466 22.7915C22.3721 23.8854 20.8883 24.5 19.3412 24.5H10.0079C8.4608 24.5 6.97707 23.8854 5.8831 22.7915C4.78914 21.6975 4.17456 20.2138 4.17456 18.6667V9.33333C4.17456 7.78624 4.78914 6.30251 5.8831 5.20854C6.97707 4.11458 8.4608 3.5 10.0079 3.5H19.3412C20.8883 3.5 22.3721 4.11458 23.466 5.20854C24.56 6.30251 25.1746 7.78624 25.1746 9.33333Z" stroke="#EFFFEF" stroke-width="1.5" stroke-linecap="round" stroke-linejoin="round"/>
<path d="M13.5079 24.5V14C13.5079 11.4485 14.0912 9.33337 18.1746 9.33337M11.1746 15.1667H18.1746" stroke="#EFFFEF" stroke-width="1.5" stroke-linecap="round" stroke-linejoin="round"/>
</svg>
