<svg width="233" height="82" viewBox="0 0 233 82" fill="none" xmlns="http://www.w3.org/2000/svg">
<path d="M116.5 0.5C52.1588 0.5 0 17.0004 0 82H233C233 17.0004 180.841 0.5 116.5 0.5Z" fill="#EFFFFE"/>
<rect x="230" y="73" width="3" height="9" fill="#ACD1E2"/>
<g clip-path="url(#clip0_601_9)">
<path d="M112.579 53.1911C121.718 53.1911 129.126 47.4422 129.126 40.3505C129.126 33.2589 121.718 27.51 112.579 27.51C103.44 27.51 96.032 33.2589 96.032 40.3505C96.032 47.4422 103.44 53.1911 112.579 53.1911Z" fill="url(#paint0_radial_601_9)"/>
<path d="M123.24 29.7609C121.383 28.7327 119.259 27.9146 116.915 27.4071C120.761 26.0859 124.999 25.6046 129.289 26.1121C126.959 27.0834 124.929 28.3346 123.245 29.7609H123.24Z" fill="#52DD5F"/>
<path d="M72.214 17.476C72.3684 17.5329 72.4105 17.6467 72.3543 17.8217C72.2748 18.071 72.1719 18.2942 72.0502 18.491C72.3964 18.3642 72.7473 18.2417 73.0935 18.1192C73.2292 18.071 73.3695 18.0754 73.5239 18.1323C73.6736 18.1892 73.7718 18.2767 73.8186 18.3904C73.9028 18.6004 73.987 18.8148 74.0666 19.0248C74.1274 19.1779 74.0806 19.2829 73.9262 19.3354C73.7718 19.3879 73.6642 19.3398 73.6034 19.1867C73.5286 19.0029 73.4584 18.8235 73.3835 18.6398C73.3461 18.5435 73.2713 18.5173 73.159 18.5523C71.035 19.296 68.9251 20.1054 66.8386 20.9716C66.7263 21.0154 66.6983 21.0854 66.7404 21.1816C66.8433 21.396 66.9462 21.6104 67.0491 21.8291C67.1193 21.9779 67.0819 22.0873 66.9275 22.1485C66.7731 22.2141 66.6655 22.1704 66.5907 22.0216C66.4737 21.7766 66.3568 21.536 66.2398 21.291C66.1837 21.1773 66.1883 21.0548 66.2538 20.9148C66.3193 20.7748 66.4176 20.6785 66.5486 20.6216C66.848 20.4991 67.1427 20.3766 67.4421 20.2541C67.3252 20.1666 67.1755 20.0748 66.993 19.9698C66.876 19.8385 66.8667 19.7292 66.9603 19.646C67.0445 19.5454 67.1661 19.5192 67.3205 19.5673C67.6105 19.6723 67.8491 19.8254 68.0409 20.0135C68.6304 19.7773 69.2152 19.5454 69.8047 19.3223C69.6175 19.1954 69.421 19.0685 69.2105 18.9504C69.0936 18.8629 69.0748 18.771 69.1637 18.6704C69.2667 18.5435 69.393 18.5042 69.5474 18.5567C69.8702 18.701 70.1555 18.8804 70.4082 19.0948C70.7543 18.9635 71.1005 18.8367 71.4467 18.7098C71.559 18.3598 71.6713 18.0098 71.7882 17.6642C71.8537 17.5067 71.9988 17.4454 72.2187 17.476H72.214ZM69.393 22.0479C69.5333 22.0785 69.5895 22.1704 69.552 22.3191C69.5427 22.3804 69.5286 22.4373 69.5193 22.4985C70.759 22.0041 72.0081 21.5316 73.2666 21.081C73.4631 21.011 73.5987 21.0635 73.6689 21.2341C73.7297 21.3873 73.6549 21.6235 73.435 21.9429C73.1777 22.3454 72.8409 22.7304 72.4339 23.1022C73.4163 22.9579 74.3426 22.7654 75.2268 22.5248C75.3905 22.5116 75.4841 22.5554 75.4981 22.6604C75.559 22.8135 75.4794 22.9273 75.2689 23.0016C74.9274 23.1197 74.497 23.2291 73.973 23.3297C73.3368 23.4479 72.6444 23.531 71.8912 23.5704C70.9508 24.4366 69.8608 25.0929 68.5977 25.5566C68.4526 25.6179 68.3497 25.5916 68.2982 25.4822C68.2328 25.351 68.2749 25.2547 68.4246 25.1935C69.5801 24.7079 70.497 24.1785 71.1848 23.5791C70.3614 23.5879 69.7204 23.5091 69.262 23.3385C69 23.8679 68.6678 24.2747 68.2702 24.5547C68.1205 24.6641 67.9942 24.6685 67.9006 24.5766C67.793 24.4629 67.8164 24.3535 67.9708 24.2441C68.6117 23.6622 68.9766 23.0016 69.0702 22.2491C69.1029 22.1004 69.2152 22.0348 69.4023 22.0479H69.393ZM72.4947 16.7192C72.5648 16.8285 72.4947 16.9379 72.2795 17.056C71.7134 17.3229 71.007 17.6292 70.1649 17.9879C68.8129 18.561 67.4936 19.1167 66.2024 19.6548C66.048 19.7204 65.9404 19.6942 65.8889 19.5848C65.8375 19.471 65.8889 19.3835 66.0433 19.3179C66.8901 18.9635 67.4936 18.7142 67.8445 18.5523C68.4433 18.2942 69.0374 18.0273 69.6316 17.7604C70.3239 17.476 71.1567 17.091 72.1391 16.6142C72.2982 16.5573 72.4151 16.5923 72.4947 16.7192ZM67.8725 21.0198C67.9988 21.011 68.0737 21.0941 68.1018 21.2604C68.1485 21.7548 68.0971 22.1704 67.9427 22.4985C67.8772 22.6385 67.7649 22.6954 67.6012 22.6735C67.4795 22.6341 67.4281 22.5554 67.4468 22.4329C67.5684 21.9779 67.6339 21.5929 67.6433 21.2779C67.6152 21.1116 67.6947 21.0241 67.8725 21.0154V21.0198ZM69.4444 23.0016C70.2397 23.1285 70.9883 23.1722 71.69 23.1241C72.1953 22.7348 72.6397 22.236 73.042 21.6279C71.835 22.0654 70.6374 22.5248 69.4444 23.0016ZM68.6912 20.7573C68.621 20.6085 68.6632 20.4991 68.8175 20.4379C68.9719 20.3766 69.0842 20.4204 69.1497 20.5735C69.2667 20.8273 69.3789 21.0854 69.4959 21.3391C69.538 21.4354 69.6128 21.4616 69.7251 21.4179C70.4035 21.151 71.0818 20.8929 71.7602 20.6435C72.0035 20.556 72.0783 20.4073 71.9894 20.1929C71.952 20.1054 71.9192 20.0223 71.8818 19.9348C71.8163 19.7817 71.8631 19.6767 72.0175 19.6198C72.1719 19.5629 72.2841 19.611 72.345 19.7642C72.4011 19.8998 72.4572 20.031 72.5134 20.1666C72.6724 20.5516 72.5321 20.8185 72.0923 20.9804C71.2924 21.2735 70.497 21.5798 69.7064 21.8904C69.4491 21.9473 69.2526 21.8816 69.1169 21.6891C68.9766 21.3785 68.8316 21.0679 68.6912 20.7573ZM69.8795 20.0266C69.9544 19.9085 70.0666 19.8648 70.2117 19.8998C70.4549 19.9829 70.7263 20.136 71.0257 20.3548C71.1473 20.4641 71.1567 20.5691 71.0491 20.6785C70.9415 20.7835 70.8198 20.7966 70.6842 20.7179C70.3941 20.521 70.1602 20.3766 69.9918 20.2848C69.8608 20.2235 69.8234 20.1404 69.8795 20.0266ZM72.5555 19.1648C72.6116 19.0554 72.7145 19.0204 72.8549 19.0554C73.4958 19.3135 73.9122 19.6023 74.1134 19.926C74.1461 20.0704 74.0993 20.171 73.973 20.2366C73.8935 20.2848 73.7859 20.2716 73.6502 20.1841C73.3648 19.9129 73.0327 19.6592 72.6584 19.4185C72.5227 19.3354 72.4853 19.2479 72.5508 19.1604L72.5555 19.1648Z" fill="#B71C1C"/>
<path d="M76.8829 15.1136C77.0654 15.0567 77.187 15.1048 77.2431 15.2623C77.2806 15.5117 77.2993 15.7086 77.2993 15.8617C78.1367 15.6036 78.9741 15.3586 79.8115 15.1223C79.994 15.0698 80.1109 15.1136 80.153 15.2492C80.1951 15.3848 80.125 15.4811 79.9425 15.5336C79.4747 15.6648 79.0022 15.8048 78.5343 15.9404C78.7168 16.4786 78.8993 17.0167 79.0817 17.5548C79.6197 17.3929 80.1624 17.2398 80.7051 17.0867C80.8875 17.0342 80.9998 17.0779 81.0419 17.2179C81.084 17.3579 81.0185 17.4498 80.8361 17.4979C80.2981 17.6511 79.7554 17.8042 79.2174 17.9661C79.2688 18.1892 79.3203 18.4079 79.3671 18.6311C80.2326 19.0204 80.953 19.4142 81.5378 19.8079C81.7062 19.9523 81.739 20.0967 81.636 20.2279C81.491 20.3767 81.3273 20.381 81.1402 20.241C80.546 19.8123 79.9799 19.4623 79.4466 19.1867C79.4092 20.0792 79.0957 20.9192 78.511 21.7067C78.3706 21.8598 78.2443 21.8992 78.1227 21.8292C78.001 21.7592 77.9823 21.6454 78.0712 21.4879C78.8291 20.4467 79.063 19.3223 78.7449 18.1061C78.2069 18.2679 77.6735 18.4342 77.1355 18.6004C76.9578 18.6573 76.8455 18.6179 76.794 18.4823C76.7426 18.3467 76.8081 18.2504 76.9905 18.1936C77.5285 18.0229 78.0665 17.8567 78.6045 17.6948C78.4221 17.1567 78.2349 16.6229 78.0525 16.0848C77.7999 16.1592 77.5519 16.2379 77.2993 16.3123C77.2993 16.7454 77.2431 17.1523 77.1262 17.5329C77.0466 17.7298 76.9203 17.8042 76.7519 17.7473C76.6583 17.6904 76.6256 17.6029 76.6584 17.4848C76.8034 16.7017 76.8127 16.0192 76.6817 15.433C76.649 15.2711 76.7145 15.1617 76.8736 15.1136H76.8829ZM83.1565 13.9017C83.4559 13.8273 83.6477 13.9192 83.7179 14.173C84.1997 15.8792 84.6863 17.5811 85.1682 19.2873C85.243 19.5454 85.1354 19.7073 84.85 19.7817C84.2044 19.9435 83.5588 20.1142 82.9132 20.2892C82.6278 20.3679 82.4454 20.276 82.3659 20.0223C81.8325 18.3292 81.3039 16.6361 80.7706 14.9473C80.691 14.6936 80.7986 14.523 81.1027 14.4398C81.7858 14.2561 82.4688 14.0767 83.1565 13.9017ZM81.3132 14.9911C81.7998 16.5661 82.2863 18.1411 82.7729 19.7204C82.8056 19.821 82.8711 19.8517 82.9834 19.8254C83.498 19.6854 84.0173 19.5498 84.5319 19.4185C84.6395 19.3923 84.6816 19.3267 84.6535 19.226C84.1951 17.6423 83.7366 16.0586 83.2828 14.4748C83.2547 14.3742 83.1799 14.3392 83.0676 14.3698C82.5249 14.5098 81.9822 14.6498 81.4396 14.7942C81.3226 14.8248 81.2805 14.8905 81.3132 14.9867V14.9911Z" fill="#B71C1C"/>
<path d="M93.1494 11.443C93.1167 11.2811 93.1868 11.1849 93.3506 11.1586C93.5143 11.1324 93.6126 11.198 93.6453 11.3599C93.664 11.4693 93.6874 11.583 93.7061 11.6924C94.8523 11.5086 95.9985 11.338 97.1493 11.1849C97.1306 11.0711 97.1166 10.9618 97.0979 10.848C97.0745 10.6861 97.1447 10.5943 97.3131 10.5724C97.4815 10.5505 97.5751 10.6205 97.5985 10.7824C97.6172 10.8961 97.6312 11.0055 97.6499 11.1193C98.1973 11.0493 98.74 10.9836 99.2873 10.918C99.4791 10.8961 99.5821 10.9574 99.6008 11.0974C99.6195 11.2418 99.5353 11.3205 99.3435 11.3424C98.8008 11.4036 98.2581 11.4693 97.7107 11.5393C97.7294 11.653 97.7435 11.7624 97.7622 11.8761C97.7856 12.038 97.7154 12.1299 97.5517 12.1518C97.3879 12.1736 97.2944 12.1036 97.2663 11.9418C97.2476 11.828 97.2335 11.7186 97.2148 11.6049C96.0687 11.758 94.9272 11.9243 93.7856 12.108C93.8137 12.248 93.8371 12.3924 93.8652 12.5324C93.8932 12.6942 93.8278 12.7861 93.664 12.8167C93.5003 12.843 93.402 12.7774 93.374 12.6155C93.3459 12.4755 93.3225 12.3311 93.2944 12.1911C92.7517 12.2786 92.2137 12.3749 91.6757 12.4711C91.4886 12.5061 91.381 12.4536 91.3483 12.3092C91.3202 12.1693 91.3997 12.0818 91.5869 12.0468C92.1295 11.9505 92.6722 11.8543 93.2149 11.7668C93.1962 11.6574 93.1728 11.5436 93.1541 11.4343L93.1494 11.443ZM92.0828 15.0042C92.064 14.9036 92.1202 14.8424 92.2558 14.8161C92.3681 14.7942 92.5553 14.8161 92.8032 14.8774C93.0044 14.9255 93.243 14.9999 93.519 15.1005C93.7202 15.1705 93.8324 15.2667 93.8558 15.3892C93.8886 15.5511 93.8231 15.643 93.664 15.6692C93.5517 15.6867 93.402 15.6517 93.2196 15.5555C92.9623 15.433 92.705 15.3324 92.4523 15.2536C92.2325 15.2317 92.1108 15.1486 92.0828 15.0086V15.0042ZM94.2535 16.1636C94.3658 16.1461 94.4313 16.1855 94.45 16.2861C94.464 16.3692 94.4266 16.4873 94.3424 16.6492C94.0897 17.1698 93.7716 17.6598 93.3786 18.1236C93.2804 18.2023 93.1868 18.2505 93.0979 18.268C92.9669 18.2898 92.8734 18.233 92.8219 18.0973C92.8032 17.9967 92.8219 17.9092 92.8734 17.8392C93.0605 17.638 93.2523 17.4192 93.4348 17.1786C93.6734 16.868 93.8745 16.5705 94.0336 16.2948C94.0897 16.2248 94.1646 16.1811 94.2535 16.1636ZM92.1857 13.578C92.1623 13.4555 92.2184 13.3855 92.3588 13.3592C92.4523 13.3417 92.6161 13.3767 92.85 13.4642C93.0839 13.5474 93.3272 13.6436 93.5892 13.7486C93.7716 13.823 93.8699 13.9105 93.8886 14.0111C93.9213 14.1949 93.8699 14.2955 93.7342 14.3174C93.6172 14.3349 93.505 14.3174 93.402 14.2474C93.0044 14.0417 92.6769 13.893 92.4149 13.7924C92.2839 13.7311 92.2091 13.6611 92.1904 13.5824L92.1857 13.578ZM97.1166 12.8386C97.5376 12.7817 97.9587 12.7292 98.3797 12.6767C98.3517 12.6374 98.2675 12.5586 98.1318 12.4274C98.0803 12.3924 98.0476 12.3355 98.0335 12.2524C98.0148 12.1299 98.0756 12.0599 98.2207 12.0424C98.3376 12.0293 98.4499 12.0555 98.5528 12.1255C98.6885 12.2349 98.8288 12.3924 98.9739 12.6024C99.1376 12.5849 99.3013 12.563 99.4651 12.5455C99.6522 12.5236 99.7551 12.5849 99.7739 12.7292C99.7926 12.8736 99.7084 12.9524 99.5212 12.9742C98.74 13.0661 97.9634 13.1624 97.1821 13.2674C97.2102 13.4599 97.2429 13.6524 97.271 13.8449C97.8511 13.7661 98.4265 13.6917 99.0066 13.6217C99.147 13.6042 99.278 13.6392 99.409 13.7311C99.5399 13.8186 99.6101 13.9236 99.6288 14.0461C99.7505 14.9517 99.8674 15.8573 99.9891 16.763C100.017 16.9642 99.9797 17.1261 99.8815 17.2398C99.7598 17.358 99.5774 17.4323 99.3341 17.4586C99.1797 17.4761 99.03 17.4848 98.8943 17.4805C98.7774 17.4761 98.6651 17.4586 98.5481 17.4323C98.4546 17.4017 98.3984 17.3492 98.3891 17.2661C98.3704 17.1436 98.4312 17.0736 98.5622 17.0561C98.6277 17.0473 98.7072 17.0473 98.8008 17.0561C99.0066 17.0692 99.1657 17.0605 99.278 17.0298C99.4323 16.9905 99.5119 16.9073 99.5166 16.7848C99.4791 16.5223 99.4464 16.2555 99.409 15.993C98.8195 16.063 98.2347 16.1373 97.6452 16.2161C97.6967 16.5398 97.7435 16.8636 97.7949 17.1917C97.8183 17.3536 97.7528 17.4455 97.5985 17.4673C97.4441 17.4892 97.3505 17.4192 97.3271 17.2573C97.2757 16.9336 97.2242 16.6098 97.1727 16.2817C96.6207 16.3605 96.0687 16.4392 95.5166 16.5223C95.5868 16.9161 95.657 17.3098 95.7225 17.708C95.7505 17.8698 95.685 17.9617 95.5306 17.988C95.3763 18.0142 95.2827 17.9442 95.2546 17.7823C95.0722 16.763 94.885 15.7392 94.7026 14.7199C94.6792 14.5974 94.7166 14.4792 94.8149 14.3611C94.9131 14.243 95.0301 14.173 95.1704 14.1511C95.7131 14.068 96.2558 13.9892 96.7985 13.9149C96.7657 13.7224 96.7377 13.5299 96.7049 13.3374C95.9611 13.4424 95.2172 13.5517 94.478 13.6699C94.2909 13.7005 94.188 13.6436 94.1599 13.5036C94.1318 13.3636 94.2114 13.2761 94.3985 13.2455C95.1424 13.1274 95.8909 13.018 96.6347 12.913C96.616 12.7905 96.5973 12.668 96.5786 12.5499C96.5505 12.388 96.6207 12.2961 96.7844 12.2742C96.9482 12.2524 97.0417 12.3224 97.0698 12.4842C97.0885 12.6067 97.1072 12.7292 97.1259 12.8517L97.1166 12.8386ZM95.1798 14.6761C95.2078 14.838 95.2359 14.9999 95.264 15.1617C95.8254 15.0742 96.3821 14.9955 96.9435 14.9167C96.9107 14.7024 96.8733 14.4924 96.8406 14.278C96.3353 14.348 95.8301 14.4224 95.3201 14.5011C95.2032 14.5186 95.1564 14.5799 95.1751 14.6805L95.1798 14.6761ZM95.4418 16.1636C95.9938 16.0805 96.5505 15.9973 97.1072 15.9186C97.0745 15.7042 97.0371 15.4942 97.0043 15.2799C96.4476 15.3586 95.8862 15.4373 95.3295 15.5248C95.3669 15.7392 95.4043 15.9492 95.4418 16.1636ZM97.4254 14.8511C98.0195 14.7724 98.6183 14.6936 99.2125 14.6236C99.1891 14.4617 99.1657 14.2999 99.147 14.1336C99.1329 14.033 99.0674 13.9892 98.9552 14.0024C98.4125 14.068 97.8698 14.138 97.3318 14.2124C97.3645 14.4267 97.3973 14.6367 97.43 14.8511H97.4254ZM97.5797 15.853C98.1692 15.7742 98.7587 15.6998 99.3481 15.6255C99.3201 15.4111 99.2873 15.1967 99.2592 14.9867C98.6651 15.0567 98.071 15.1355 97.4768 15.2142C97.5096 15.4286 97.5423 15.6386 97.5751 15.853H97.5797Z" fill="#B71C1C"/>
<path d="M105.945 10.0299C106.253 10.0124 106.422 10.1349 106.436 10.4017C106.455 10.708 106.478 11.0142 106.497 11.3249C106.628 11.3161 106.759 11.3117 106.885 11.303C107.072 11.2942 107.175 11.3599 107.18 11.5042C107.189 11.6486 107.1 11.723 106.908 11.7361C106.777 11.7449 106.651 11.7492 106.52 11.758C106.539 12.0642 106.562 12.3705 106.581 12.6811C106.6 12.948 106.455 13.088 106.155 13.1055C105.631 13.1361 105.112 13.1711 104.588 13.2105C104.569 13.5211 104.434 13.858 104.19 14.2298C104.878 14.1773 105.57 14.1292 106.263 14.0855C106.562 14.068 106.721 14.1905 106.74 14.4573C106.782 15.0698 106.819 15.6867 106.862 16.2992C106.88 16.5661 106.74 16.7061 106.45 16.7236C105.687 16.7717 104.925 16.8242 104.162 16.8854C103.872 16.9073 103.713 16.7892 103.685 16.5223C103.638 16.0105 103.587 15.503 103.54 14.9911C103.437 15.1048 103.264 15.2317 103.025 15.3761C102.866 15.4111 102.763 15.3892 102.707 15.3105C102.651 15.2142 102.665 15.118 102.745 15.0305C103.517 14.488 103.952 13.8973 104.036 13.2542C103.69 13.2805 103.339 13.3111 102.993 13.3417C102.806 13.3592 102.707 13.2936 102.693 13.1536C102.679 13.0092 102.763 12.9305 102.951 12.913C103.334 12.878 103.718 12.8474 104.101 12.8167C104.134 12.6724 104.134 12.3705 104.092 11.9242C103.601 11.9636 103.105 12.003 102.614 12.0467C102.427 12.0642 102.324 12.003 102.31 11.8586C102.296 11.7142 102.38 11.6355 102.572 11.618C103.067 11.5742 103.563 11.5305 104.059 11.4955C104.031 11.198 104.008 10.9049 103.98 10.6074C103.563 10.638 103.147 10.673 102.731 10.708C102.539 10.7255 102.441 10.6599 102.422 10.5199C102.408 10.3755 102.497 10.2967 102.689 10.2792C103.774 10.183 104.859 10.1042 105.949 10.0386L105.945 10.0299ZM104.003 14.8248C104.05 15.3148 104.092 15.8048 104.139 16.2948C104.148 16.3955 104.209 16.4436 104.321 16.4348C104.953 16.3867 105.584 16.343 106.211 16.3036C106.324 16.2948 106.375 16.2423 106.37 16.1417C106.338 15.6517 106.3 15.1573 106.267 14.6673C106.258 14.5667 106.197 14.5186 106.085 14.523C105.444 14.5623 104.803 14.6061 104.162 14.6586C104.045 14.6673 103.994 14.7242 104.003 14.8248ZM106.034 11.7799C105.552 11.8105 105.07 11.8411 104.588 11.8761C104.621 12.2655 104.635 12.563 104.625 12.7686C105.056 12.738 105.486 12.7074 105.921 12.6811C106.038 12.6724 106.094 12.6199 106.085 12.5149C106.066 12.2699 106.052 12.0249 106.034 11.7799ZM104.551 11.4474C105.032 11.4124 105.519 11.3774 106.001 11.3511C105.982 11.1061 105.968 10.8611 105.949 10.6161C105.945 10.5155 105.879 10.4674 105.762 10.4717C105.332 10.498 104.906 10.5286 104.476 10.5592L104.551 11.4474ZM109.64 9.85925C109.832 9.85488 109.977 9.88988 110.076 9.96862C110.197 10.0255 110.263 10.148 110.267 10.3317C110.281 10.7605 110.038 11.4255 109.556 12.3224C109.491 12.4055 109.481 12.4799 109.528 12.5367C110.23 13.2105 110.581 13.8623 110.6 14.4748C110.623 15.3586 110.263 15.8048 109.519 15.8311C109.065 15.8486 108.691 15.7786 108.387 15.6298C108.401 15.888 108.41 16.1417 108.424 16.3998C108.433 16.5617 108.359 16.6492 108.2 16.6579C108.041 16.6667 107.961 16.5879 107.952 16.4217C107.839 14.3961 107.732 12.3661 107.619 10.3405C107.605 10.0736 107.75 9.93363 108.064 9.9205C108.593 9.89863 109.117 9.87675 109.645 9.85925H109.64ZM108.125 10.498C108.204 12.0774 108.284 13.6523 108.363 15.2317C108.686 15.3411 108.986 15.3892 109.257 15.3805C109.757 15.363 109.996 15.0786 109.977 14.5273C109.954 13.8492 109.645 13.2236 109.037 12.6505C108.962 12.5324 108.948 12.4492 108.99 12.4055C109.421 11.548 109.64 10.9049 109.622 10.4761C109.622 10.3536 109.486 10.2967 109.219 10.3055C108.911 10.3142 108.602 10.3274 108.288 10.3405C108.167 10.3449 108.111 10.4017 108.115 10.5024L108.125 10.498Z" fill="#B71C1C"/>
<path d="M118.772 11.7142C119.207 12.178 119.404 12.7467 119.366 13.4161C119.329 14.0855 119.086 14.6061 118.641 14.9867C118.141 15.3805 117.481 15.5773 116.653 15.5905C116.513 15.5905 116.442 15.5205 116.447 15.3936C116.447 15.2667 116.522 15.2055 116.667 15.2055C117.322 15.223 117.879 15.0523 118.342 14.6848C118.66 14.3611 118.833 13.9411 118.861 13.4117C118.894 12.808 118.725 12.3136 118.361 11.9286C117.921 11.5305 117.35 11.3249 116.648 11.3249C116.499 12.1211 116.335 12.7774 116.157 13.298C115.942 13.9805 115.689 14.4923 115.399 14.838C115.165 15.1223 114.88 15.2623 114.543 15.258C114.244 15.258 113.968 15.1355 113.72 14.8948C113.42 14.558 113.266 14.1686 113.261 13.7223C113.261 12.9086 113.607 12.213 114.328 11.6442C115.006 11.1542 115.797 10.918 116.681 10.9399C117.565 10.9617 118.267 11.2199 118.777 11.7055L118.772 11.7142ZM114.459 12.0642C113.963 12.5542 113.72 13.123 113.72 13.7617C113.72 14.0636 113.799 14.3348 113.958 14.5755C114.117 14.7855 114.314 14.8861 114.543 14.8905C114.74 14.8905 114.917 14.8073 115.081 14.6323C115.282 14.3961 115.465 14.0242 115.638 13.5167C115.886 12.7555 116.068 12.0249 116.176 11.3249C115.493 11.408 114.922 11.653 114.464 12.0642H114.459Z" fill="#B71C1C"/>
<path d="M123.464 10.1874C123.479 10.0256 123.572 9.94681 123.736 9.96431C123.904 9.97744 123.979 10.0649 123.965 10.2312C123.946 10.4149 123.932 10.5987 123.914 10.7824C124.377 10.8218 124.84 10.8612 125.303 10.9049C125.49 10.9224 125.579 11.0056 125.565 11.1456C125.551 11.2899 125.448 11.3512 125.256 11.3337C125.186 11.3249 125.116 11.3205 125.046 11.3118C124.877 11.7887 124.686 12.2262 124.484 12.6199C124.751 12.6418 125.022 12.668 125.289 12.6943C125.476 12.7118 125.56 12.7949 125.546 12.9349C125.532 13.0793 125.429 13.1405 125.242 13.123C124.732 13.0749 124.218 13.0268 123.708 12.9874C123.68 13.2849 123.652 13.578 123.624 13.8755C124.087 13.9149 124.545 13.9543 125.008 13.998C125.191 14.0155 125.275 14.0943 125.261 14.2387C125.247 14.383 125.144 14.4443 124.962 14.4268C124.503 14.383 124.045 14.3437 123.581 14.3043C123.577 14.3743 123.567 14.4486 123.563 14.5186C124.04 14.8686 124.438 15.2536 124.756 15.6736C124.873 15.8705 124.854 16.0236 124.704 16.133C124.536 16.1986 124.381 16.1461 124.241 15.9668C124.026 15.6168 123.783 15.2974 123.511 15.0086C123.455 15.6211 123.394 16.2336 123.338 16.8461C123.324 17.008 123.235 17.0868 123.081 17.0736C122.922 17.0605 122.852 16.973 122.87 16.8111C122.922 16.238 122.973 15.6649 123.025 15.0961C122.543 15.6124 122.122 15.993 121.762 16.238C121.57 16.3474 121.425 16.3474 121.317 16.238C121.256 16.133 121.289 16.0193 121.411 15.9055C122.112 15.3149 122.646 14.768 122.992 14.2605C122.59 14.2299 122.187 14.1993 121.785 14.173C121.603 14.1599 121.514 14.0812 121.523 13.9412C121.532 13.7968 121.631 13.7312 121.818 13.7443C122.257 13.7749 122.697 13.8055 123.132 13.8405C123.16 13.543 123.184 13.2499 123.212 12.9524C122.767 12.9174 122.328 12.8868 121.883 12.8562C121.696 12.843 121.607 12.7643 121.621 12.6243C121.631 12.4799 121.729 12.4143 121.916 12.4274C122.136 12.4405 122.36 12.458 122.58 12.4755C122.552 11.9812 122.459 11.5218 122.304 11.0974C122.234 11.0931 122.164 11.0887 122.089 11.0843C121.897 11.0712 121.808 10.9924 121.822 10.8524C121.832 10.7081 121.935 10.6424 122.122 10.6556C122.548 10.6862 122.978 10.7168 123.404 10.7518C123.422 10.5681 123.436 10.3843 123.455 10.2006L123.464 10.1874ZM123.146 12.5105C123.413 12.5324 123.684 12.5543 123.951 12.5762C124.204 12.143 124.381 11.7055 124.47 11.2637C123.904 11.2156 123.334 11.1674 122.767 11.1237C122.992 11.5524 123.118 12.0162 123.142 12.5105H123.146ZM129.209 10.8393C129.35 10.8568 129.476 10.9268 129.579 11.0406C129.682 11.1587 129.724 11.2768 129.705 11.3993C129.528 12.5893 129.35 13.7749 129.172 14.9649C129.153 15.0874 129.078 15.1924 128.952 15.2799C128.821 15.3674 128.69 15.4024 128.554 15.3849C128.442 15.3718 128.325 15.3543 128.213 15.3411C128.147 15.818 128.077 16.2949 128.012 16.7761C127.988 16.938 128.068 17.0299 128.246 17.0518C128.292 17.0561 128.335 17.0649 128.381 17.0693C128.559 17.0911 128.662 17.0211 128.685 16.8593C128.718 16.6274 128.756 16.3911 128.788 16.1593C128.812 15.9974 128.901 15.9274 129.064 15.9449C129.223 15.9668 129.289 16.0586 129.266 16.2205C129.219 16.5136 129.177 16.8111 129.13 17.1043C129.111 17.2268 129.036 17.3318 128.91 17.4193C128.784 17.5068 128.653 17.5417 128.517 17.5243C128.339 17.5024 128.161 17.4805 127.984 17.4586C127.848 17.4411 127.736 17.3755 127.638 17.2618C127.539 17.148 127.497 17.0299 127.516 16.9074C127.591 16.3693 127.661 15.8311 127.736 15.2886C127.45 15.2536 127.165 15.223 126.88 15.188C126.861 15.3193 126.847 15.4549 126.828 15.5861C126.73 16.3386 126.14 16.8505 125.069 17.1349C124.817 17.1699 124.676 17.1174 124.648 16.9686C124.639 16.8461 124.714 16.7586 124.882 16.7105C125.794 16.4699 126.29 16.0718 126.36 15.4986C126.374 15.3761 126.388 15.2536 126.407 15.1311C126.36 15.1268 126.314 15.1224 126.271 15.118C126.136 15.1049 126.014 15.0393 125.911 14.9255C125.808 14.8118 125.766 14.6936 125.78 14.5711C125.921 13.3768 126.056 12.1868 126.197 10.9924C126.211 10.8699 126.281 10.7649 126.417 10.6731C126.547 10.5856 126.683 10.5462 126.828 10.5593C127.628 10.6424 128.423 10.7387 129.219 10.8393H129.209ZM126.664 11.2243C126.636 11.4474 126.608 11.6705 126.585 11.898C127.418 11.9855 128.255 12.0818 129.088 12.1868C129.121 11.9637 129.153 11.7405 129.186 11.5174C129.209 11.3555 129.125 11.2593 128.938 11.2374C128.288 11.1587 127.638 11.0799 126.983 11.0099C126.791 10.9881 126.688 11.0624 126.669 11.2243H126.664ZM126.417 13.2718C127.24 13.3593 128.063 13.4555 128.887 13.5605C128.933 13.2455 128.98 12.9305 129.022 12.6155C128.194 12.5105 127.362 12.4143 126.529 12.3268C126.491 12.6418 126.454 12.9568 126.412 13.2762L126.417 13.2718ZM126.276 14.4355C126.257 14.5974 126.337 14.6893 126.519 14.7111C127.151 14.7811 127.778 14.8511 128.409 14.9299C128.592 14.9518 128.695 14.8818 128.718 14.7199C128.756 14.4749 128.788 14.2343 128.826 13.9893C128.007 13.8843 127.188 13.7924 126.365 13.7049C126.337 13.9499 126.304 14.1949 126.276 14.4399V14.4355Z" fill="#B71C1C"/>
<path d="M134.964 13.0442C135.404 13.1448 135.54 13.4292 135.366 13.8973C134.814 15.2798 133.771 16.3429 132.265 17.1217C131.989 17.2442 131.806 17.2267 131.722 17.0692C131.675 16.9379 131.731 16.8198 131.886 16.7192C133.35 15.9098 134.309 14.9123 134.721 13.6917C134.74 13.5911 134.707 13.5123 134.623 13.4555C134.58 13.4292 134.501 13.403 134.384 13.3811C133.874 13.2936 133.359 13.2105 132.85 13.1273C132.662 13.0967 132.583 13.0136 132.606 12.8692C132.63 12.7292 132.737 12.6724 132.924 12.703C133.603 12.8124 134.281 12.9261 134.955 13.0442H134.964ZM137.009 11.8236C137.219 11.863 137.303 11.9855 137.261 12.1867C137.177 12.5674 137.093 12.948 137.009 13.333C136.976 13.473 137.107 13.8842 137.383 14.5711C138.323 14.3392 139.1 14.0636 139.694 13.7267C139.895 13.5998 140.077 13.6086 140.241 13.753C140.363 13.9498 140.297 14.1117 140.045 14.2473C139.32 14.6148 138.478 14.8861 137.523 15.0742C137.982 16.1111 138.637 17.0954 139.474 18.0448C139.596 18.2198 139.577 18.3729 139.427 18.5086C139.207 18.6267 138.992 18.5611 138.777 18.3029C137.813 17.1873 137.149 15.8617 136.798 14.3042C136.522 15.5511 136.246 16.7936 135.97 18.0404C135.876 18.4604 135.544 18.6179 134.969 18.5086C134.548 18.4298 134.047 18.2373 133.467 17.9267C133.303 17.8173 133.271 17.6948 133.364 17.5636C133.453 17.4542 133.584 17.4454 133.752 17.5373C134.173 17.7561 134.534 17.8961 134.847 17.9529C135.179 18.0142 135.376 17.9136 135.432 17.6554C135.83 15.7961 136.232 13.9367 136.63 12.0774C136.672 11.8761 136.803 11.7974 137.013 11.8367L137.009 11.8236Z" fill="#B71C1C"/>
<path d="M146.028 14.1161C146.201 14.2079 146.229 14.3523 146.117 14.5579C145.453 15.4023 144.527 16.0498 143.343 16.5135C143.128 16.5879 142.983 16.5398 142.908 16.3735C142.866 16.2598 142.917 16.1635 143.062 16.0935C144.021 15.6342 144.84 14.9954 145.518 14.1729C145.663 14.0198 145.836 14.0023 146.024 14.1161H146.028ZM146.524 16.4654C146.711 16.5835 146.749 16.7235 146.651 16.8854C146.122 17.616 145.069 18.5042 143.553 19.5979C145.022 20.0048 146.604 20.346 148.321 20.6348C148.101 19.681 147.848 18.8848 147.572 18.246C147.549 18.0885 147.6 17.9835 147.712 17.931C147.853 17.8873 147.974 17.9223 148.082 18.0404C148.812 19.5935 149.177 20.7529 149.242 21.5054C149.238 21.7854 149.125 21.921 148.91 21.921C148.695 21.921 148.564 21.8116 148.517 21.6016C148.484 21.4529 148.456 21.2998 148.424 21.151C146.716 20.9235 144.681 20.4685 142.276 19.8385C142.056 19.7816 141.972 19.6679 142.024 19.4885C142.075 19.3091 142.211 19.2479 142.431 19.3048C142.585 19.3441 142.739 19.3835 142.894 19.4229C144.031 18.6092 145.079 17.6554 146.019 16.5442C146.15 16.3648 146.318 16.3385 146.529 16.461L146.524 16.4654ZM149.21 15.0523C149.392 15.0436 149.504 15.1179 149.551 15.2842C149.729 16.2423 150.103 17.1479 150.669 17.9967C150.786 18.2285 150.739 18.386 150.533 18.4735C150.365 18.526 150.206 18.4779 150.066 18.3248C149.472 17.5548 149.116 16.5398 148.985 15.2754C149.004 15.1529 149.079 15.0786 149.214 15.0523H149.21Z" fill="#B71C1C"/>
<path d="M161.279 19.1911C161.415 19.2479 161.513 19.3442 161.579 19.4842C161.644 19.6242 161.653 19.7511 161.597 19.8648C160.741 21.641 159.88 23.4173 159.024 25.1935C158.968 25.3073 158.87 25.386 158.72 25.4341C158.57 25.4823 158.43 25.4823 158.308 25.4298C156.376 24.6248 154.43 23.8767 152.465 23.181C152.339 23.1373 152.241 23.0454 152.171 22.9142C152.1 22.7785 152.091 22.656 152.138 22.5423C152.863 20.7179 153.593 18.8892 154.318 17.0648C154.365 16.9511 154.463 16.8636 154.617 16.8067C154.772 16.7498 154.912 16.7455 155.052 16.7936C157.148 17.533 159.225 18.3336 161.284 19.1911H161.279ZM154.758 17.3186C154.047 19.0817 153.331 20.8492 152.62 22.6123C152.582 22.7085 152.615 22.7742 152.723 22.8135C154.631 23.4917 156.526 24.2179 158.397 24.9966C158.505 25.0404 158.58 25.0141 158.622 24.9223C159.445 23.1985 160.264 21.4748 161.087 19.7554C161.134 19.6636 161.097 19.5936 160.989 19.5454C159.006 18.7229 157.003 17.9486 154.982 17.2355C154.87 17.1961 154.79 17.2223 154.753 17.3186H154.758ZM157.579 18.6836C157.644 18.5304 157.756 18.4867 157.915 18.5479C158.075 18.6092 158.117 18.7142 158.051 18.8673C158.023 18.9329 157.99 18.9986 157.962 19.0642C158.608 19.3136 159.258 19.5717 159.899 19.8342C160.053 19.8954 160.105 19.9873 160.053 20.0967C160.002 20.2104 159.894 20.2323 159.74 20.1711C159.099 19.9086 158.453 19.6548 157.808 19.4054C157.733 19.5761 157.658 19.7467 157.583 19.9173C158.337 20.2104 159.085 20.5079 159.834 20.8142C159.988 20.8754 160.039 20.9673 159.983 21.0767C159.932 21.1904 159.824 21.2123 159.675 21.151C158.018 20.4729 156.353 19.8298 154.673 19.2261C154.519 19.1692 154.463 19.0861 154.51 18.9679C154.556 18.8542 154.659 18.8236 154.814 18.8804C155.586 19.1561 156.353 19.4404 157.115 19.7336C157.19 19.5629 157.265 19.3923 157.34 19.2217C156.68 18.9723 156.021 18.7229 155.361 18.4867C155.202 18.4298 155.151 18.3423 155.197 18.2286C155.244 18.1148 155.347 18.0842 155.506 18.1411C156.17 18.3817 156.83 18.6267 157.49 18.8804C157.518 18.8148 157.546 18.7492 157.579 18.6792V18.6836ZM158.655 21.1729C158.94 21.2867 159.024 21.466 158.912 21.711C158.814 21.9254 158.711 22.1442 158.613 22.3585C158.5 22.6035 158.299 22.6692 158.023 22.5554C157.569 22.3717 157.115 22.1923 156.662 22.0173C156.629 22.0917 156.596 22.1704 156.559 22.2448C156.807 22.4285 157.064 22.6429 157.335 22.8835C157.747 22.8704 158.187 22.831 158.65 22.7742C158.814 22.7523 158.912 22.8135 158.945 22.9623C158.954 23.1023 158.879 23.181 158.715 23.2029C158.351 23.2117 157.995 23.2117 157.644 23.2029C157.948 23.4829 158.201 23.7542 158.407 24.0167C158.477 24.1348 158.463 24.2441 158.369 24.336C158.252 24.4235 158.126 24.4148 158 24.3185C157.448 23.601 156.91 23.0323 156.39 22.6079C156.255 22.9098 156.124 23.216 155.988 23.5179C155.923 23.671 155.81 23.7148 155.665 23.6579C155.516 23.601 155.473 23.496 155.539 23.3429C155.689 23.0017 155.838 22.6604 155.988 22.3192C155.099 22.5117 154.248 22.5467 153.434 22.4285C153.275 22.3935 153.204 22.3235 153.223 22.2229C153.242 22.1179 153.298 22.0654 153.401 22.0567C154.482 22.1354 155.385 22.0567 156.105 21.7985C155.679 21.6367 155.258 21.4792 154.832 21.3217C154.547 21.2167 154.458 21.0417 154.561 20.7923C154.655 20.5736 154.744 20.3548 154.837 20.1317C154.94 19.8823 155.137 19.8123 155.422 19.9173C156.507 20.3154 157.583 20.7311 158.655 21.1642V21.1729ZM155.244 20.4292C155.183 20.5736 155.123 20.7136 155.062 20.8579C155.02 20.9542 155.057 21.0198 155.165 21.0635C156.105 21.4135 157.041 21.7723 157.972 22.1442C158.079 22.1879 158.154 22.1617 158.201 22.0698C158.266 21.9298 158.332 21.7854 158.397 21.6454C158.439 21.5535 158.407 21.4835 158.299 21.4398C157.359 21.0635 156.418 20.7004 155.469 20.3504C155.356 20.3111 155.282 20.3373 155.244 20.4336V20.4292Z" fill="#B71C1C"/>
<path d="M118.768 78.2574C123.694 77.6449 128.531 76.2668 133.065 74.1405C130.07 68.4268 127.081 62.7175 124.087 57.0038C116.967 60.2631 108.639 60.2631 101.519 57.0038C98.5061 62.7525 95.4979 68.5012 92.4851 74.2455C100.747 77.938 109.884 79.3555 118.763 78.253L118.768 78.2574Z" fill="url(#paint1_radial_601_9)"/>
<path d="M224.169 79.9198C208.834 80.2611 208.778 75.5449 193.438 75.5449C178.098 75.5449 178.098 79.9198 162.762 79.9198C147.427 79.9198 147.422 75.5449 132.087 75.5449C116.747 75.5449 116.747 79.9198 101.411 79.9198C86.0758 79.9198 86.0712 75.5449 70.731 75.5449C55.3909 75.5449 55.3909 79.9198 40.0508 79.9198C24.7107 79.9198 24.7669 75.9211 9.43146 75.5449C9.02912 75.5361 7.03149 77.3561 7.03149 76.9799C7.03149 76.6036 11.7098 76.6036 11.7098 76.2274C11.7098 75.8511 7.03149 75.8511 7.03149 75.4749C7.03149 75.0986 11.7098 75.0986 11.7098 74.7224C11.7098 74.3461 7.03149 74.3461 7.03149 73.9699C7.03149 73.5937 11.7098 73.5937 11.7098 73.2174C11.7098 72.8412 8.91217 70.2862 9.3145 70.2774C24.6499 69.9362 24.7014 74.6874 40.0415 74.7268C55.3816 74.7661 55.3909 70.3912 70.731 70.4262C86.0712 70.4612 86.0571 74.8405 101.393 74.8755C116.733 74.9149 116.742 70.5399 132.082 70.5749C147.422 70.6143 147.408 74.9893 162.748 75.0243C178.088 75.0636 178.102 70.6887 193.438 70.7237C208.773 70.7587 208.717 74.7968 224.048 75.173C224.408 75.1818 226.448 73.3224 226.448 73.6593C226.448 73.9961 221.77 73.9961 221.77 74.3374C221.77 74.6786 226.448 74.6743 226.448 75.0155C226.448 75.3568 221.77 75.3524 221.77 75.6893C221.77 76.0261 226.448 76.0261 226.448 76.3674C226.448 76.7086 221.746 76.9493 221.784 77.2861C221.957 78.7386 224.525 79.9024 224.165 79.9111L224.169 79.9198Z" fill="#ACD1E2"/>
<path d="M102.31 29.6822C104.092 28.6672 106.146 27.8578 108.41 27.346C104.658 26.1035 100.546 25.6791 96.4055 26.2085C98.6745 27.1228 100.658 28.3172 102.31 29.6866V29.6822Z" fill="#52DD5F"/>
<path d="M232.263 81.8623H3.69214V74.6252H8.20842H232.263V81.8623Z" fill="#ACD1E2"/>
<path d="M232 77H223.217L219 74.8223L232 73V77Z" fill="#ACD1E2"/>
<path d="M88.359 16.8023C88.7983 16.8023 89.1543 16.4693 89.1543 16.0586C89.1543 15.6478 88.7983 15.3148 88.359 15.3148C87.9198 15.3148 87.5637 15.6478 87.5637 16.0586C87.5637 16.4693 87.9198 16.8023 88.359 16.8023Z" fill="#B71C1C"/>
<path d="M116.997 26.8361C114.29 26.292 111.498 26.292 108.791 26.8361C109.617 24.5465 110.868 22.296 112.525 20.1935C112.574 20.1935 112.623 20.1935 112.668 20.1935C114.571 22.2568 116.018 24.516 116.997 26.8361Z" fill="#52DD5F"/>
<path d="M37.2979 58.1558C37.1103 58.3735 36.887 58.4867 36.5475 58.4867C36.2839 58.4867 36.0606 58.4127 35.873 58.2298C30.7673 52.9627 26.8632 49.3019 24.1562 47.3256C23.781 47.034 23.3656 46.886 22.9546 46.886C22.5437 46.886 22.2042 47.034 21.9406 47.3256C21.2259 48.1309 18.8629 50.9473 14.8427 55.7791C14.5792 56.0708 14.3915 56.1099 14.1682 55.8531L11.9169 53.2936C11.6533 53.0019 11.6176 52.7451 11.8811 52.5231C15.7852 49.2279 18.6039 46.96 20.3281 45.7542C21.2304 45.1317 22.1685 44.8009 23.1422 44.8009C23.8569 44.8009 24.4957 44.9837 25.1345 45.3145C28.9626 47.256 33.5814 50.2552 38.9909 54.3165C39.1785 54.4993 39.2902 54.7562 39.2902 55.087C39.2902 55.3438 39.2142 55.5615 39.0668 55.7835L37.3024 58.1602L37.2979 58.1558ZM34.5954 44.0696C34.5954 44.9097 34.1845 45.3886 33.3581 45.4582C32.7953 45.493 32.3798 45.1665 32.1565 44.5441C31.817 43.7039 31.0666 43.1555 29.9052 42.9335C29.7533 42.8986 29.7533 42.8246 29.9052 42.7506C30.6199 42.2762 31.3703 42.0542 32.1967 42.0542C33.4742 42.0542 34.2247 42.4938 34.4882 43.4079C34.5642 43.6256 34.5999 43.8476 34.5999 44.0652L34.5954 44.0696ZM37.825 42.0542C37.825 42.9335 37.414 43.4079 36.5877 43.4428C36.0248 43.4776 35.6094 43.2251 35.3861 42.6026C35.0466 41.7233 34.2961 41.1749 33.1347 40.9572C32.9829 40.9224 32.9829 40.8484 33.1347 40.7396C33.8494 40.2999 34.5999 40.0431 35.4263 40.0431C36.7038 40.0431 37.4542 40.5176 37.7178 41.4317C37.7937 41.6145 37.8295 41.8322 37.8295 42.0542H37.825Z" fill="#173A59" stroke="white" stroke-width="0.25"/>
<path d="M55.8089 49.6675L57.3098 49.7023C57.6493 49.7371 57.8369 49.92 57.8369 50.2508L57.8727 62.474C57.8727 63.1704 57.4974 63.4969 56.7827 63.4969H55.0183C54.3036 63.4969 53.9284 63.1661 53.9284 62.474L53.8926 51.4217C51.0785 53.7636 47.3977 55.8139 42.8549 57.5681C42.5154 57.7161 42.2161 57.6421 42.0642 57.3505C41.8766 57.0588 41.9526 56.8368 42.2876 56.654C46.7947 53.7985 50.2476 50.9473 52.6151 48.0569C54.0802 46.2635 55.7687 43.4819 57.6448 39.7122C57.7208 39.4946 57.8682 39.4554 58.096 39.5294L61.2497 40.7003C61.5489 40.8092 61.6249 41.0312 61.473 41.3577C59.9319 44.6529 58.0201 47.4301 55.8045 49.6631L55.8089 49.6675Z" fill="#173A59" stroke="white" stroke-width="0.25"/>
<path d="M78.5232 54.2381C76.3836 56.7629 73.0423 58.9219 68.4593 60.7154C68.1198 60.8634 67.8964 60.7894 67.7446 60.5674C67.6329 60.3497 67.7088 60.1669 67.9679 59.9449C71.1215 57.751 73.4488 55.4439 75.0658 53.0672C76.4193 51.0169 77.2814 48.7142 77.6924 46.1155C77.7281 45.9327 77.8443 45.8238 78.0676 45.8978L81.4491 46.4811C81.7885 46.5551 81.936 46.738 81.86 47.0688C81.2972 49.9592 80.1715 52.3359 78.5188 54.2425L78.5232 54.2381ZM95.4618 56.2884C94.1083 56.3972 93.3579 55.8139 93.2105 54.5298C93.0586 52.7755 92.6476 51.4566 92.0848 50.5773C91.3344 49.4063 89.8692 48.3442 87.7653 47.4649C87.5017 47.3561 87.3901 47.2081 87.4258 47.0253C87.4615 46.8424 87.7653 46.7336 88.2879 46.7684C91.2897 46.7684 93.6214 47.4649 95.3099 48.8927C96.7751 50.1376 97.5255 51.6742 97.4898 53.5025C97.4898 55.2219 96.7751 56.1752 95.4618 56.284V56.2884ZM98.7271 45.1665C98.1643 45.6802 97.5255 45.9718 96.7751 45.9718C96.0246 45.9718 95.3501 45.6802 94.823 45.1665C94.2959 44.6529 94.0324 43.9956 94.0324 43.2643C94.0324 42.533 94.2959 41.9105 94.823 41.3969C95.3501 40.8484 96.0246 40.5916 96.7751 40.5916C97.5255 40.5916 98.1643 40.8484 98.7271 41.3969C99.2542 41.9105 99.5177 42.533 99.5177 43.2643C99.5177 43.9956 99.2542 44.6529 98.7271 45.1665ZM97.8248 42.2762C97.5255 41.9845 97.186 41.8365 96.7751 41.8365C96.3641 41.8365 96.0246 41.9845 95.7611 42.2762C95.4618 42.5678 95.3099 42.8986 95.3099 43.2643C95.3099 43.6648 95.4618 44.0348 95.7611 44.3264C96.0246 44.5832 96.3641 44.7269 96.7751 44.7269C97.186 44.7269 97.5255 44.5789 97.8248 44.3264C98.1241 44.0348 98.2759 43.6691 98.2759 43.2643C98.2759 42.8986 98.1241 42.5678 97.8248 42.2762Z" fill="#173A59" stroke="white" stroke-width="0.25"/>
<path d="M147.778 52.375C146.465 55.1914 144.513 57.5725 141.958 59.5835C138.992 61.8514 134.976 63.8277 129.866 65.5471C129.455 65.6559 129.191 65.5819 129.075 65.3295C128.923 64.9986 128.999 64.781 129.374 64.5982C134.744 61.8558 138.724 58.8174 141.315 55.4874C143.343 52.8887 144.808 49.6326 145.67 45.7193L139.626 45.7541C137.674 48.3137 135.119 50.5859 131.965 52.4882C131.702 52.671 131.478 52.671 131.251 52.4142C131.027 52.1965 131.027 51.9397 131.251 51.7177C135.043 47.3995 137.786 42.4241 139.434 36.8262C139.51 36.6085 139.622 36.5345 139.845 36.6085L143.338 37.4486C143.678 37.5575 143.789 37.7795 143.678 38.1059C142.775 40.4478 141.761 42.4589 140.676 44.1783H145.969C146.045 43.7779 146.121 43.447 146.157 43.1554C146.192 42.9726 146.309 42.8637 146.532 42.9377L149.873 43.4122C150.248 43.4862 150.4 43.7039 150.324 44.0347C149.574 47.5824 148.748 50.4031 147.769 52.3794L147.778 52.375Z" fill="#173A59" stroke="white" stroke-width="0.25"/>
<path d="M181.311 63.4621L159.272 63.497C159.12 63.497 158.972 63.423 158.861 63.2793L157.771 61.8167C157.695 61.6687 157.695 61.5991 157.882 61.5991H177.032C177.671 61.5991 178.158 61.5251 178.497 61.3422C179.998 60.6458 180.936 60.2801 181.311 60.2801C182.549 60.3149 183.187 60.8286 183.187 61.8167C183.187 62.9137 182.549 63.4621 181.311 63.4621ZM181.124 44.3613L160.098 44.3961C159.91 44.3961 159.758 44.3221 159.687 44.1784L158.597 42.7158C158.485 42.5678 158.521 42.4982 158.673 42.4982H176.844C177.407 42.4982 177.894 42.3894 178.31 42.2065L179.851 41.4752C180.302 41.2924 180.753 41.1836 181.164 41.1836C182.401 41.1836 183.004 41.6972 183.004 42.7202C183.004 43.8171 182.366 44.3656 181.128 44.3656L181.124 44.3613ZM177.97 53.3981H162.689C162.501 53.3981 162.349 53.3241 162.238 53.1804L161.148 51.7178C161.036 51.5698 161.072 51.5002 161.259 51.5002H173.686C174.325 51.5002 174.812 51.4262 175.151 51.2433C176.652 50.5469 177.59 50.1812 178.006 50.1812C179.243 50.1812 179.846 50.6949 179.846 51.7178C179.846 52.8148 179.207 53.4024 177.97 53.4024V53.3981Z" fill="#173A59" stroke="white" stroke-width="0.25"/>
<path d="M191.179 43.1902C190.58 43.1902 190.165 42.8985 189.942 42.2761C189.49 41.1399 188.552 40.4086 187.127 40.117C187.052 40.117 186.976 40.0822 186.976 40.0082C187.011 39.9733 187.052 39.9342 187.127 39.8993C188.177 39.2769 189.191 38.946 190.094 38.946C191.97 38.946 192.908 39.7513 192.908 41.3228C192.908 42.5677 192.305 43.1902 191.179 43.1902ZM191.929 58.813C191.853 59.0699 191.965 59.5443 192.34 60.2016C192.604 60.6761 192.867 61.1158 193.131 61.5554C193.207 61.9211 193.243 62.2867 193.243 62.6915C193.243 63.6057 193.055 64.411 192.604 65.1423C192.077 65.9824 191.367 66.3872 190.464 66.3132C189.526 66.2392 189.039 65.7256 189.039 64.7026C189.039 64.3718 189.115 64.0453 189.227 63.7145C189.526 62.8352 189.714 62.0299 189.714 61.2986C189.714 60.4193 189.415 59.5792 188.811 58.7739C188.213 57.9337 187.909 57.5681 187.909 57.6377C187.909 57.6029 187.909 57.5289 187.945 57.4897C187.945 57.4549 188.021 57.4157 188.168 57.4549C188.432 57.4897 188.767 57.6029 189.218 57.7857C189.517 57.8946 189.781 57.8206 189.933 57.6029C192.224 54.1641 194.364 50.686 196.316 47.2472C196.468 46.9903 196.655 46.8815 196.879 46.9903C197.142 47.0643 197.218 47.208 197.102 47.504C195.713 50.4336 194.024 54.1989 191.92 58.813H191.929ZM192.34 48.7533C191.742 48.7533 191.291 48.4225 191.063 47.7652C190.612 46.6291 189.674 45.9369 188.284 45.6801C188.061 45.6061 188.061 45.5321 188.284 45.4233C189.334 44.8008 190.312 44.5092 191.215 44.5092C192.005 44.5092 192.68 44.692 193.207 45.0924C193.77 45.4581 194.033 46.0458 194.033 46.8119C194.033 48.0917 193.47 48.7533 192.345 48.7533H192.34ZM207.51 57.0936H206.232C205.594 57.0936 205.294 56.802 205.294 56.1795V55.9227H203.043V56.2143C203.043 56.8368 202.744 57.1284 202.105 57.1284H200.868C200.229 57.1284 199.889 56.8368 199.889 56.2143V50.3944C199.889 49.7719 200.229 49.4411 200.868 49.4411H207.514C208.153 49.4411 208.493 49.7327 208.493 50.3204V56.1751C208.493 56.7976 208.153 57.0893 207.514 57.0893L207.51 57.0936ZM219.45 43.1162C218.811 43.151 217.574 43.151 215.734 43.151L215.698 60.6413C215.698 62.0299 215.51 63.1312 215.099 63.9365C214.496 65.1815 213.295 65.8779 211.53 66.0607C210.668 66.1696 210.105 65.8779 209.842 65.1466C209.578 64.4893 208.98 64.1933 208.037 64.2673L205.259 64.3761C205.035 64.3761 204.919 64.3021 204.883 64.1193C204.848 63.9017 204.959 63.7537 205.147 63.7189C206.273 63.462 208.265 63.0615 211.043 62.4739C211.758 62.2911 212.133 61.8166 212.133 61.0113C212.209 58.8522 212.209 52.9235 212.133 43.1554H202.485C202.373 43.1554 202.261 43.1206 202.185 42.9726L201.207 41.7668C201.207 41.7319 201.171 41.6928 201.171 41.6579C201.171 41.6231 201.247 41.5839 201.323 41.5839H215.894C216.346 41.5839 216.757 41.5099 217.096 41.4011C218.449 40.8178 219.236 40.5218 219.499 40.5218C220.477 40.5218 221 40.9615 221 41.7668C221 42.6461 220.473 43.0857 219.459 43.1206L219.45 43.1162ZM205.294 51.3129C205.294 51.0212 205.107 50.8384 204.808 50.8384H203.53C203.191 50.8384 203.043 51.0212 203.043 51.3129V54.5341H205.294V51.3129Z" fill="#173A59" stroke="white" stroke-width="0.25"/>
<path d="M122.73 56.423C115.932 59.2873 108.222 59.2873 101.428 56.423C101.986 55.165 102.544 53.907 103.107 52.6447C108.834 55.0606 115.329 55.0606 121.055 52.6447C121.614 53.9027 122.172 55.1607 122.735 56.423H122.73Z" fill="black"/>
<path d="M122.73 56.423C115.932 59.2873 108.222 59.2873 101.428 56.423C101.986 55.165 102.544 53.907 103.107 52.6447C108.834 55.0606 115.329 55.0606 121.055 52.6447C121.614 53.9027 122.172 55.1607 122.735 56.423H122.73Z" stroke="white"/>
</g>
<path d="M12 70H1V82H12V70Z" fill="#ACD1E2"/>
<defs>
<radialGradient id="paint0_radial_601_9" cx="0" cy="0" r="1" gradientUnits="userSpaceOnUse" gradientTransform="translate(117.58 36.711) scale(18.905 16.7953)">
<stop stop-color="#DEFF8F"/>
<stop offset="0.23" stop-color="#E6E372"/>
<stop offset="0.75" stop-color="#F8A935"/>
<stop offset="1" stop-color="#FF931E"/>
</radialGradient>
<radialGradient id="paint1_radial_601_9" cx="0" cy="0" r="1" gradientUnits="userSpaceOnUse" gradientTransform="translate(112.78 67.8143) scale(16.5097 15.4393)">
<stop stop-color="#FF9C39"/>
</radialGradient>
<clipPath id="clip0_601_9">
<rect width="226" height="78" fill="white" transform="translate(4 4)"/>
</clipPath>
</defs>
</svg>
