<svg width="29" height="28" viewBox="0 0 29 28" fill="none" xmlns="http://www.w3.org/2000/svg">
<path d="M14.6745 18.6667C15.9122 18.6667 17.0991 18.175 17.9743 17.2999C18.8495 16.4247 19.3411 15.2377 19.3411 14C19.3411 12.7624 18.8495 11.5754 17.9743 10.7002C17.0991 9.82504 15.9122 9.33337 14.6745 9.33337C13.4368 9.33337 12.2498 9.82504 11.3746 10.7002C10.4995 11.5754 10.0078 12.7624 10.0078 14C10.0078 15.2377 10.4995 16.4247 11.3746 17.2999C12.2498 18.175 13.4368 18.6667 14.6745 18.6667Z" stroke="#EFFFEF" stroke-width="1.5" stroke-linecap="round" stroke-linejoin="round"/>
<path d="M4.17456 18.6667V9.33333C4.17456 7.78624 4.78914 6.30251 5.8831 5.20854C6.97707 4.11458 8.4608 3.5 10.0079 3.5H19.3412C20.8883 3.5 22.3721 4.11458 23.466 5.20854C24.56 6.30251 25.1746 7.78624 25.1746 9.33333V18.6667C25.1746 20.2138 24.56 21.6975 23.466 22.7915C22.3721 23.8854 20.8883 24.5 19.3412 24.5H10.0079C8.4608 24.5 6.97707 23.8854 5.8831 22.7915C4.78914 21.6975 4.17456 20.2138 4.17456 18.6667Z" stroke="#EFFFEF" stroke-width="1.5"/>
<path d="M21.0913 7.59499L21.103 7.58215" stroke="#EFFFEF" stroke-width="1.5" stroke-linecap="round" stroke-linejoin="round"/>
</svg>
