<svg width="1541" height="341" viewBox="0 0 1541 341" fill="none" xmlns="http://www.w3.org/2000/svg">
<path d="M128.366 12.1395C85.9106 -2.71316 43.4553 -2.71316 1 12.1395V340H1539.82L1529.39 12.1395C1486.94 26.9921 1444.48 26.9921 1402.02 12.1395C1359.57 -2.71316 1317.11 -2.71316 1274.66 12.1395C1232.2 26.9921 1189.75 26.9921 1147.29 12.1395C1104.84 -2.71316 1062.38 -2.71316 1019.93 12.1395C977.472 26.9921 935.016 26.9921 892.561 12.1395C850.106 -2.71316 807.651 -2.71316 765.195 12.1395C722.74 26.9921 680.285 26.9921 637.829 12.1395C595.374 -2.71316 552.919 -2.71316 510.463 12.1395C468.008 26.9921 425.553 26.9921 383.098 12.1395C340.642 -2.71316 298.187 -2.71316 255.732 12.1395C213.276 26.9921 170.821 26.9921 128.366 12.1395Z" fill="url(#paint0_linear_118_154)" stroke="white"/>
<defs>
<linearGradient id="paint0_linear_118_154" x1="765.195" y1="300.652" x2="765.195" y2="1" gradientUnits="userSpaceOnUse">
<stop offset="0.0865385" stop-color="#6EB9C0"/>
<stop offset="1" stop-color="#F3FBFF"/>
</linearGradient>
</defs>
</svg>
