<svg width="20" height="20" viewBox="0 0 20 20" fill="none" xmlns="http://www.w3.org/2000/svg">
<g clip-path="url(#clip0_118_3)">
<path d="M13.6742 3.64458L14.5616 5.8202C14.2877 6.11955 14.1044 6.49051 14.033 6.88994C13.9616 7.28937 14.0051 7.70087 14.1583 8.07658C14.3116 8.45229 14.5683 8.77677 14.8987 9.01231C15.2291 9.24785 15.6196 9.38475 16.0248 9.40711L16.9122 11.5827L5.57197 16.2084L4.68453 14.0328C4.95845 13.7334 5.14177 13.3625 5.21317 12.9631C5.28457 12.5636 5.24111 12.1521 5.08786 11.7764C4.93461 11.4007 4.67785 11.0762 4.34745 10.8407C4.01705 10.6052 3.62657 10.4682 3.22142 10.4459L2.33398 8.27026L13.6742 3.64458Z" stroke="#FF931E" stroke-width="2.01442"/>
<path d="M7.45923 9.48608L10.8613 8.09838M8.38437 11.7541L11.7864 10.3664" stroke="#FF931E" stroke-width="2.01442" stroke-linecap="square"/>
</g>
<defs>
<clipPath id="clip0_118_3">
<rect width="14.6968" height="14.6968" fill="white" transform="translate(0.043457 5.89722) rotate(-22.1906)"/>
</clipPath>
</defs>
</svg>
