<svg width="25" height="25" viewBox="0 0 25 25" fill="none" xmlns="http://www.w3.org/2000/svg">
<path d="M16.3748 24.125L8.62476 21.4125L2.61851 23.7375C2.18795 23.9097 1.78969 23.8615 1.42371 23.5928C1.05774 23.3242 0.874756 22.9634 0.874756 22.5104V4.42708C0.874756 4.14722 0.9557 3.89965 1.11759 3.68438C1.27948 3.4691 1.49992 3.30764 1.77892 3.2L8.62476 0.875L16.3748 3.5875L22.381 1.2625C22.8116 1.09028 23.2098 1.13893 23.5758 1.40846C23.9418 1.67799 24.1248 2.03836 24.1248 2.48958V20.5729C24.1248 20.8528 24.0442 21.1003 23.8832 21.3156C23.7222 21.5309 23.5013 21.6924 23.2206 21.8L16.3748 24.125ZM15.0831 20.9604V5.84792L9.91642 4.03958V19.1521L15.0831 20.9604Z" fill="#FCFFF7"/>
</svg>
