<svg width="20" height="20" viewBox="0 0 20 20" fill="none" xmlns="http://www.w3.org/2000/svg">
<path d="M4.16667 9.1665L5.41667 5.4165H14.5833L15.8333 9.1665M14.5833 13.3332C14.2518 13.3332 13.9339 13.2015 13.6995 12.9671C13.465 12.7326 13.3333 12.4147 13.3333 12.0832C13.3333 11.7516 13.465 11.4337 13.6995 11.1993C13.9339 10.9649 14.2518 10.8332 14.5833 10.8332C14.9149 10.8332 15.2328 10.9649 15.4672 11.1993C15.7016 11.4337 15.8333 11.7516 15.8333 12.0832C15.8333 12.4147 15.7016 12.7326 15.4672 12.9671C15.2328 13.2015 14.9149 13.3332 14.5833 13.3332ZM5.41667 13.3332C5.08515 13.3332 4.7672 13.2015 4.53278 12.9671C4.29836 12.7326 4.16667 12.4147 4.16667 12.0832C4.16667 11.7516 4.29836 11.4337 4.53278 11.1993C4.7672 10.9649 5.08515 10.8332 5.41667 10.8332C5.74819 10.8332 6.06613 10.9649 6.30055 11.1993C6.53497 11.4337 6.66667 11.7516 6.66667 12.0832C6.66667 12.4147 6.53497 12.7326 6.30055 12.9671C6.06613 13.2015 5.74819 13.3332 5.41667 13.3332ZM15.7667 4.99984C15.6 4.5165 15.1333 4.1665 14.5833 4.1665H5.41667C4.86667 4.1665 4.4 4.5165 4.23333 4.99984L2.5 9.99984V16.6665C2.5 16.8875 2.5878 17.0995 2.74408 17.2558C2.90036 17.412 3.11232 17.4998 3.33333 17.4998H4.16667C4.38768 17.4998 4.59964 17.412 4.75592 17.2558C4.9122 17.0995 5 16.8875 5 16.6665V15.8332H15V16.6665C15 16.8875 15.0878 17.0995 15.2441 17.2558C15.4004 17.412 15.6123 17.4998 15.8333 17.4998H16.6667C16.8877 17.4998 17.0996 17.412 17.2559 17.2558C17.4122 17.0995 17.5 16.8875 17.5 16.6665V9.99984L15.7667 4.99984Z" fill="#42477B"/>
</svg>
