<svg width="18" height="18" viewBox="0 0 18 18" fill="none" xmlns="http://www.w3.org/2000/svg">
<path d="M8.54329 2.21606C4.63754 2.21606 1.45996 5.39365 1.45996 9.2994C1.45996 13.2051 4.63754 16.3827 8.54329 16.3827C12.449 16.3827 15.6266 13.2051 15.6266 9.2994C15.6266 5.39365 12.449 2.21606 8.54329 2.21606ZM8.54329 14.9661C5.41883 14.9661 2.87663 12.4239 2.87663 9.2994C2.87663 6.17494 5.41883 3.63273 8.54329 3.63273C11.6677 3.63273 14.21 6.17494 14.21 9.2994C14.21 12.4239 11.6677 14.9661 8.54329 14.9661Z" fill="#FF931E"/>
<path d="M9.25212 5.75806H7.83545V10.0081H12.0854V8.59139H9.25212V5.75806Z" fill="#FF931E"/>
</svg>
