<svg width="23" height="23" viewBox="0 0 23 23" fill="none" xmlns="http://www.w3.org/2000/svg">
<path d="M4.79175 14.4862V5.75C4.79175 5.12453 4.9716 4.62172 5.33129 4.24158C5.69098 3.86144 6.17782 3.57011 6.79179 3.36758C7.40576 3.16506 8.11972 3.03281 8.93366 2.97083C9.74761 2.90886 10.6031 2.87692 11.5001 2.875C12.4316 2.875 13.303 2.90662 14.1144 2.96987C14.9258 3.03312 15.6359 3.16506 16.2448 3.36567C16.8537 3.56628 17.3331 3.85729 17.6832 4.23871C18.0334 4.62013 18.2084 5.12389 18.2084 5.75V14.4862C18.2084 15.256 17.9401 15.9093 17.4034 16.446C16.8674 16.982 16.2144 17.25 15.4446 17.25L16.5869 18.3923C16.7358 18.5412 16.7709 18.7073 16.6923 18.8907C16.6137 19.074 16.47 19.166 16.2611 19.1667C16.2004 19.1667 16.1426 19.1558 16.0876 19.1341C16.0327 19.113 15.9841 19.0811 15.942 19.0383L14.1537 17.25H8.84646L7.05916 19.0383C7.01444 19.0811 6.96365 19.113 6.90679 19.1341C6.84929 19.1558 6.78987 19.1667 6.72854 19.1667C6.52601 19.1667 6.38546 19.075 6.30687 18.8916C6.22957 18.7076 6.26503 18.5415 6.41325 18.3933L7.55654 17.25C6.78604 17.25 6.13278 16.9817 5.59675 16.445C5.06008 15.9096 4.79175 15.2567 4.79175 14.4862ZM5.75008 10.5417H11.0209V6.26654H5.75008V10.5417ZM11.9792 10.5417H17.2501V6.26654H11.9792V10.5417ZM8.14208 14.9653C8.44939 14.9653 8.70494 14.8647 8.90875 14.6635C9.11255 14.4622 9.21478 14.2079 9.21542 13.9006C9.21605 13.5933 9.11543 13.3374 8.91354 13.133C8.71165 12.9286 8.45737 12.8263 8.15071 12.8263C7.84404 12.8263 7.58816 12.927 7.38308 13.1282C7.178 13.3295 7.07578 13.5837 7.07641 13.891C7.07705 14.1983 7.17768 14.4542 7.37829 14.6587C7.5789 14.8631 7.8335 14.9653 8.14208 14.9653ZM14.8504 14.9653C15.1577 14.9653 15.4133 14.8647 15.6171 14.6635C15.8209 14.4622 15.9231 14.2079 15.9237 13.9006C15.9244 13.5933 15.8238 13.3374 15.6219 13.133C15.42 12.9286 15.1657 12.8263 14.859 12.8263C14.5524 12.8263 14.2965 12.927 14.0914 13.1282C13.887 13.3295 13.7847 13.5837 13.7847 13.891C13.7847 14.1983 13.8854 14.4542 14.0866 14.6587C14.2879 14.8631 14.5422 14.9653 14.8495 14.9653" fill="#42477B"/>
</svg>
