<svg width="24" height="24" viewBox="0 0 24 24" fill="none" xmlns="http://www.w3.org/2000/svg">
<path d="M11.9999 16.6667C13.2376 16.6667 14.4246 16.175 15.2998 15.2999C16.1749 14.4247 16.6666 13.2377 16.6666 12C16.6666 10.7624 16.1749 9.57538 15.2998 8.70021C14.4246 7.82504 13.2376 7.33337 11.9999 7.33337C10.7622 7.33337 9.57526 7.82504 8.70009 8.70021C7.82492 9.57538 7.33325 10.7624 7.33325 12C7.33325 13.2377 7.82492 14.4247 8.70009 15.2999C9.57526 16.175 10.7622 16.6667 11.9999 16.6667Z" stroke="black" stroke-width="1.5" stroke-linecap="round" stroke-linejoin="round"/>
<path d="M1.5 16.6667V7.33333C1.5 5.78624 2.11458 4.30251 3.20854 3.20854C4.30251 2.11458 5.78624 1.5 7.33333 1.5H16.6667C18.2138 1.5 19.6975 2.11458 20.7915 3.20854C21.8854 4.30251 22.5 5.78624 22.5 7.33333V16.6667C22.5 18.2138 21.8854 19.6975 20.7915 20.7915C19.6975 21.8854 18.2138 22.5 16.6667 22.5H7.33333C5.78624 22.5 4.30251 21.8854 3.20854 20.7915C2.11458 19.6975 1.5 18.2138 1.5 16.6667Z" stroke="black" stroke-width="1.5"/>
<path d="M18.4167 5.59499L18.4284 5.58215" stroke="black" stroke-width="1.5" stroke-linecap="round" stroke-linejoin="round"/>
</svg>
