<svg width="88" height="108" viewBox="0 0 88 108" fill="none" xmlns="http://www.w3.org/2000/svg">
<path d="M71.9334 46.7838C67.0666 44.2815 61.5011 42.2903 55.3594 41.0551C65.4362 37.8393 76.5427 36.668 87.7841 37.9032C81.6791 40.2671 76.3588 43.3125 71.9456 46.7838H71.9334Z" fill="#52DD5F"/>
<path d="M16.3488 46.7728C21.0458 44.2054 26.4578 42.1582 32.4246 40.8635C22.5375 37.7208 11.7011 36.6474 0.790771 37.9863C6.76989 40.2991 11.997 43.3202 16.3488 46.7838V46.7728Z" fill="#52DD5F"/>
<path d="M43.8919 108C68.1328 108 87.7839 92.8452 87.7839 74.1511C87.7839 55.4569 68.1328 40.3022 43.8919 40.3022C19.6511 40.3022 0 55.4569 0 74.1511C0 92.8452 19.6511 108 43.8919 108Z" fill="url(#paint0_radial_572_244)"/>
<path d="M55.3591 41.0228C52.4849 40.4849 49.5765 40.1514 46.6598 40.0222C44.8156 39.9405 42.9681 39.9405 41.1239 40.0222C38.2072 40.1514 35.2988 40.4849 32.4246 41.0228C34.7342 35.0649 38.23 29.2091 42.8618 23.7383C42.9992 23.7383 43.1365 23.7383 43.2614 23.7383C48.5799 29.1071 52.6249 34.9857 55.3591 41.0228Z" fill="#59ED67"/>
<path d="M51.8005 23.3778C49.0663 19.1518 48.58 18.1337 43.2615 14.3755C43.1367 14.3755 42.9993 14.3755 42.862 14.3755C38.2302 18.205 36.7115 19.2074 34.4019 23.3778" stroke="#59ED67" stroke-width="3"/>
<path d="M51.8005 11.1347C49.0663 6.90869 48.58 5.89051 43.2615 2.13232C43.1367 2.13232 42.9993 2.13232 42.862 2.13232C38.2302 5.96187 36.7115 6.96419 34.4019 11.1347" stroke="#59ED67" stroke-width="3"/>
<path d="M28.6781 66.896C28.6241 69.83 27.2561 71.288 24.5741 71.27C23.7281 71.27 23.0441 70.982 22.5041 70.406V73.79C22.5041 74.132 22.3241 74.312 21.9821 74.312H21.1361C20.7941 74.312 20.6141 74.132 20.6141 73.79V62.234C20.6141 62.126 20.6681 62.072 20.7581 62.09L22.2341 62.126C22.4141 62.126 22.5041 62.216 22.5041 62.378V63.026C23.0801 62.396 23.8181 62.09 24.7361 62.072C26.1761 62.054 27.2201 62.522 27.8861 63.458C28.4261 64.25 28.6961 65.402 28.6781 66.896ZM26.7161 66.824C26.7161 65.636 26.6441 64.808 26.4641 64.322C26.1941 63.44 25.6001 62.99 24.6821 62.954C23.6561 62.918 22.9361 63.422 22.5041 64.502V69.218C22.9721 69.956 23.6561 70.334 24.5561 70.334C25.4381 70.334 26.0501 69.938 26.3921 69.146C26.6081 68.642 26.7161 67.868 26.7161 66.824ZM41.5154 65.51V70.73C41.5154 71.09 41.3354 71.27 40.9934 71.27H40.1474C39.8234 71.27 39.6434 71.09 39.6434 70.748V69.974C39.1754 70.586 38.4374 70.928 37.4474 70.982C35.2154 71.108 34.0814 70.262 34.0454 68.444C34.0094 67.166 34.6574 66.284 36.0074 65.762C36.7994 65.456 38.0054 65.276 39.6254 65.204C39.6074 64.502 39.5174 64.016 39.3734 63.764C39.1934 63.422 38.8334 63.242 38.2754 63.206C37.2854 63.17 36.2054 63.656 34.9994 64.682C34.9634 64.736 34.9274 64.754 34.8554 64.754C34.6574 64.754 34.5674 64.646 34.5674 64.448V62.936C34.5674 62.774 34.6394 62.666 34.8194 62.63C36.1514 62.324 37.2314 62.18 38.0414 62.18C39.3194 62.18 40.2194 62.414 40.7414 62.918C41.2454 63.404 41.5154 64.268 41.5154 65.51ZM39.6434 68.3L39.6254 66.032C38.5454 66.068 37.7354 66.212 37.2134 66.428C36.3854 66.788 35.9714 67.4 35.9714 68.3C35.9714 68.804 36.0974 69.2 36.3674 69.506C36.6374 69.812 37.0334 69.956 37.5194 69.938C38.7074 69.92 39.4274 69.38 39.6434 68.3ZM55.3184 62.054L54.8684 62.666C54.8324 62.72 54.7784 62.738 54.7244 62.738H53.5904C53.9504 63.188 54.1304 63.746 54.1304 64.448C54.1304 66.23 53.0684 67.13 50.9624 67.148C50.4944 67.148 50.0624 67.13 49.6664 67.058C49.3064 67.31 49.1264 67.562 49.1444 67.832C49.1624 68.156 49.7204 68.372 50.8004 68.426C52.0784 68.516 53.0144 68.696 53.5724 69.002C54.4364 69.434 54.8864 70.19 54.9044 71.288C54.9584 73.322 53.7344 74.384 51.2504 74.456C50.1524 74.492 49.2704 74.366 48.6404 74.042C47.7584 73.628 47.3444 72.908 47.3444 71.918C47.3624 71 48.0104 70.298 49.2704 69.812C48.4784 69.56 48.0644 69.092 48.0644 68.39C48.0644 67.778 48.3524 67.274 48.9284 66.878C47.9744 66.5 47.5064 65.726 47.5064 64.556C47.5244 62.774 48.6224 61.856 50.8004 61.748C51.3764 61.73 51.9344 61.802 52.4384 61.982H55.2824C55.3184 61.982 55.3364 61.982 55.3544 62C55.3364 62.018 55.3184 62.036 55.3184 62.054ZM52.5104 64.484C52.5104 63.908 52.3844 63.458 52.1144 63.116C51.8264 62.774 51.4124 62.63 50.8364 62.63C50.2784 62.648 49.8644 62.828 49.5584 63.152C49.2524 63.494 49.1084 63.944 49.1264 64.52C49.1624 65.726 49.7384 66.338 50.8724 66.338C51.9164 66.338 52.4744 65.726 52.5104 64.484ZM53.8784 71.54C53.8604 70.964 53.5004 70.55 52.7804 70.334C52.4744 70.244 51.8804 70.154 50.9984 70.082C50.7644 70.082 50.4764 70.046 50.1344 70.01C49.8284 69.974 49.5764 69.902 49.3424 69.812L49.3604 69.848C49.4324 69.92 49.4144 69.992 49.3424 70.046C48.8384 70.442 48.6044 70.928 48.6044 71.504C48.6044 72.44 49.3964 72.908 50.9984 72.89C52.9244 72.872 53.8784 72.422 53.8784 71.54ZM68.7037 68.318C68.0557 70.262 66.6877 71.234 64.6177 71.216C61.9177 71.18 60.5317 69.902 60.4417 67.346C60.3157 64.358 61.7197 62.864 64.6177 62.864C65.9137 62.864 66.9037 63.224 67.5877 63.944C68.2537 64.664 68.5777 65.672 68.5597 66.986H62.3137C62.3137 67.22 62.3137 67.346 62.3137 67.346C62.3497 68.102 62.5477 68.714 62.9077 69.146C63.3217 69.65 63.8977 69.884 64.6357 69.884C66.2377 69.902 67.4437 69.272 68.2537 67.994C68.3437 67.85 68.4697 67.814 68.6137 67.922C68.7217 68.012 68.7577 68.138 68.7037 68.318ZM66.6877 66.23C66.7057 65.528 66.5437 64.934 66.1837 64.466C65.8057 63.926 65.2837 63.638 64.5997 63.638C63.8797 63.62 63.3217 63.872 62.9077 64.412C62.5477 64.88 62.3677 65.492 62.3677 66.23H66.6877ZM35.6654 79.282C35.6654 79.714 35.4134 79.93 34.8734 79.966C34.8734 79.966 33.8114 79.966 31.6874 79.966V90.55C31.6874 90.874 31.5254 91.054 31.1834 91.054H30.3194C29.9774 91.054 29.8154 90.874 29.8154 90.55V79.966H26.6654C26.5934 79.966 26.5394 79.93 26.5034 79.876L26.0714 79.282C26.0534 79.246 26.0354 79.228 26.0354 79.228C26.0534 79.21 26.0714 79.21 26.1074 79.21H33.2174C33.4334 79.21 33.6314 79.156 33.8294 79.084C34.4414 78.796 34.8194 78.652 34.9454 78.652C35.4314 78.652 35.6654 78.868 35.6654 79.282ZM49.0605 86.968C49.0605 89.74 47.6565 91.144 44.8665 91.18C43.5165 91.18 42.4905 90.838 41.7885 90.118C41.0865 89.398 40.7265 88.354 40.7265 86.986C40.7085 85.672 41.0685 84.664 41.8065 83.926C42.5445 83.206 43.5885 82.846 44.9025 82.846C46.2345 82.864 47.2425 83.224 47.9805 83.926C48.7005 84.628 49.0605 85.654 49.0605 86.968ZM47.0985 87.004C47.0985 84.736 46.3605 83.602 44.9025 83.602C43.3185 83.602 42.5265 84.736 42.5445 86.986C42.5625 88.03 42.6885 88.822 42.9405 89.326C43.3005 90.082 43.9305 90.442 44.8485 90.442C46.3605 90.424 47.0985 89.29 47.0985 87.004ZM62.7094 86.896C62.6554 89.83 61.2874 91.288 58.6054 91.27C57.7594 91.27 57.0754 90.982 56.5354 90.406V93.79C56.5354 94.132 56.3554 94.312 56.0134 94.312H55.1674C54.8254 94.312 54.6454 94.132 54.6454 93.79V82.234C54.6454 82.126 54.6994 82.072 54.7894 82.09L56.2654 82.126C56.4454 82.126 56.5354 82.216 56.5354 82.378V83.026C57.1114 82.396 57.8494 82.09 58.7674 82.072C60.2074 82.054 61.2514 82.522 61.9174 83.458C62.4574 84.25 62.7274 85.402 62.7094 86.896ZM60.7474 86.824C60.7474 85.636 60.6754 84.808 60.4954 84.322C60.2254 83.44 59.6314 82.99 58.7134 82.954C57.6874 82.918 56.9674 83.422 56.5354 84.502V89.218C57.0034 89.956 57.6874 90.334 58.5874 90.334C59.4694 90.334 60.0814 89.938 60.4234 89.146C60.6394 88.642 60.7474 87.868 60.7474 86.824Z" fill="#FDFFFF"/>
<defs>
<radialGradient id="paint0_radial_572_244" cx="0" cy="0" r="1" gradientUnits="userSpaceOnUse" gradientTransform="translate(57.1576 64.5569) scale(50.1463 44.2739)">
<stop stop-color="#DEFF8F"/>
<stop offset="0.23" stop-color="#E6E372"/>
<stop offset="0.75" stop-color="#F8A935"/>
<stop offset="1" stop-color="#FF931E"/>
</radialGradient>
</defs>
</svg>
