<svg width="23" height="23" viewBox="0 0 23 23" fill="none" xmlns="http://www.w3.org/2000/svg">
<path d="M11.4998 3.68007C15.8238 3.68007 19.3198 7.17607 19.3198 11.5001C19.3198 15.8241 15.8238 19.3201 11.4998 19.3201C7.17582 19.3201 3.67982 15.8241 3.67982 11.5001C3.67982 7.17607 7.17582 3.68007 11.4998 3.68007ZM11.4998 18.4001C15.3178 18.4001 18.3998 15.3181 18.3998 11.5001C18.3998 7.68207 15.3178 4.60007 11.4998 4.60007C7.68182 4.60007 4.59982 7.68207 4.59982 11.5001C4.59982 15.3181 7.68182 18.4001 11.4998 18.4001Z" fill="#FF931E"/>
<path d="M11.3622 7.03791L15.8242 11.4999L11.3622 15.9619L10.7182 15.3179L14.5362 11.4999L10.7182 7.68191L11.3622 7.03791Z" fill="#FF931E"/>
<path d="M15.1802 11.96L7.36018 11.96V11.04L15.1802 11.04V11.96Z" fill="#FF931E"/>
</svg>
