<svg width="27" height="27" viewBox="0 0 27 27" fill="none" xmlns="http://www.w3.org/2000/svg">
<path d="M13.5009 4.32017C18.5769 4.32017 22.6809 8.42417 22.6809 13.5002C22.6809 18.5762 18.5769 22.6802 13.5009 22.6802C8.42491 22.6802 4.32091 18.5762 4.32091 13.5002C4.32091 8.42417 8.42491 4.32017 13.5009 4.32017ZM13.5009 21.6002C17.9829 21.6002 21.6009 17.9822 21.6009 13.5002C21.6009 9.01817 17.9829 5.40017 13.5009 5.40017C9.01891 5.40017 5.40091 9.01817 5.40091 13.5002C5.40091 17.9822 9.01891 21.6002 13.5009 21.6002Z" fill="#FF931E"/>
<path d="M13.3387 8.26228L18.5767 13.5003L13.3387 18.7383L12.5827 17.9823L17.0647 13.5003L12.5827 9.01828L13.3387 8.26228Z" fill="#FF931E"/>
<path d="M17.8203 14.04L8.64031 14.04V12.96L17.8203 12.96V14.04Z" fill="#FF931E"/>
</svg>
