<?xml version="1.0" encoding="utf-8"?>
<!-- Generator: Adobe Illustrator 16.0.3, SVG Export Plug-In . SVG Version: 6.00 Build 0)  -->
<!DOCTYPE svg PUBLIC "-//W3C//DTD SVG 1.1//EN" "http://www.w3.org/Graphics/SVG/1.1/DTD/svg11.dtd">
<svg version="1.1" id="レイヤー_1" xmlns="http://www.w3.org/2000/svg" xmlns:xlink="http://www.w3.org/1999/xlink" x="0px"
	 y="0px" width="207px" height="40px" viewBox="0 0 207 40" enable-background="new 0 0 207 40" xml:space="preserve">
<g>
	<g>
		<path fill="#FFFFFF" d="M205.865,22.726c-0.969-2.388-2.684-4.198-4.459-5.983c-2.873-2.885-6.562-4.882-8.855-8.46
			c-1.186,2.136-3.025,3.552-4.787,5.038c-2.527,2.131-5.105,4.209-7.021,6.971c-1.358,1.955-2.18,4.081-2.104,6.509
			c0.104,3.276,1.986,5.86,4.989,6.835c2.767,0.9,5.663-0.162,7.608-2.783c0.118-0.161,0.256-0.311,0.386-0.463
			c-0.079,3.352-1.632,5.703-4.841,7.113h11.184c-0.939-0.832-2.143-1.687-3.074-2.779c-0.961-1.131-1.492-2.543-1.375-4.326
			c0.376,0.445,0.598,0.713,0.824,0.977c3.527,4.115,9.766,3.11,11.718-1.921C206.93,27.209,206.763,24.943,205.865,22.726z
			 M180.715,25.864l-0.833,0.292l-0.303-0.676l0.646-0.711l0.702,0.238L180.715,25.864z M181.826,30.004l-0.79,0.521l0.261-0.91
			l-0.521-0.79l0.909,0.261l0.791-0.521l-0.262,0.91l0.521,0.789L181.826,30.004z M187.436,32.82l-0.688-0.929l0.671-0.942
			l1.104,0.348l0.01,1.157L187.436,32.82z M190.687,27.274l1.313-3.108c-0.698-0.182-1.213-0.754-1.213-1.438
			c0-0.83,0.751-1.503,1.679-1.503c0.926,0,1.679,0.673,1.679,1.503c0,0.693-0.527,1.271-1.239,1.445l1.309,3.102H190.687z
			 M198.686,31.848l-1.072,0.202l-0.523-0.959l0.75-0.794l0.986,0.467L198.686,31.848z M204.44,23.994l0.788,0.021l0.061,0.931
			l-0.75,0.554l-0.524-0.588L204.44,23.994z M204.393,28.795l-0.477,0.854l-0.194-0.959l-0.854-0.478l0.959-0.193l0.478-0.854
			l0.193,0.958l0.854,0.478L204.393,28.795z"/>
	</g>
	<g>
		<g>
			<path d="M185.396,20.516c0.233-0.069,0.302-0.139,1.145-1.48c0.498-0.787,0.694-1.104,0.781-1.252
				c-0.11-0.09-0.234-0.151-0.376-0.203v-0.009h0.764c0.024,0.086,0.08,0.191,0.885,1.464c0.85,1.342,0.898,1.394,1.145,1.48v0.009
				h-1.113v-0.009c0.117-0.039,0.191-0.069,0.191-0.178c0-0.156-0.148-0.456-0.548-1.107c-0.216-0.005-0.449-0.005-0.714-0.005
				c-0.301,0-0.56,0-0.787,0.005c-0.381,0.625-0.517,0.93-0.517,1.09c0,0.121,0.079,0.161,0.19,0.195v0.009h-1.046V20.516z
				 M187.555,19.025c0.209,0,0.406,0,0.584,0c-0.006-0.008-0.012-0.017-0.012-0.025c-0.283-0.439-0.431-0.721-0.609-0.999
				c-0.129,0.234-0.313,0.534-0.608,0.999c-0.007,0.009-0.013,0.018-0.019,0.021C187.087,19.025,187.309,19.025,187.555,19.025z"/>
		</g>
		<g>
			<path d="M191.131,18.78c0.289-0.085,0.321-0.178,0.321-1.369c0-1.19-0.032-1.292-0.321-1.378v-0.008
				c0.131,0.005,0.256,0.008,0.535,0.008c0.24,0,0.765-0.02,1.037-0.02c1.209,0,1.842,0.455,1.842,1.215
				c0,0.971-0.803,1.568-1.847,1.568c-0.36,0-0.78-0.017-1.017-0.017c-0.283,0-0.415,0.005-0.551,0.009V18.78z M192.672,18.573
				c0.813,0,1.437-0.479,1.437-1.288c0-0.679-0.53-1.049-1.476-1.049c-0.246,0-0.465,0.018-0.743,0.033
				c-0.049,0.211-0.054,0.549-0.054,1.15c0,0.572,0.01,0.917,0.049,1.121C192.104,18.557,192.414,18.573,192.672,18.573z"/>
		</g>
		<g>
			<path d="M195.527,20.499c0.234-0.069,0.302-0.139,1.145-1.476c0.498-0.783,0.695-1.099,0.781-1.246
				c-0.111-0.09-0.234-0.151-0.375-0.203v-0.009h0.762c0.025,0.087,0.08,0.19,0.887,1.458c0.849,1.337,0.898,1.389,1.144,1.476
				v0.008h-1.113v-0.008c0.116-0.04,0.19-0.069,0.19-0.178c0-0.155-0.146-0.454-0.547-1.103c-0.216-0.005-0.449-0.005-0.713-0.005
				c-0.303,0-0.561,0-0.788,0.005c-0.382,0.622-0.517,0.925-0.517,1.085c0,0.121,0.08,0.16,0.19,0.195v0.008h-1.046V20.499z
				 M197.688,19.015c0.209,0,0.405,0,0.584,0c-0.007-0.009-0.013-0.017-0.013-0.025c-0.282-0.438-0.431-0.718-0.608-0.996
				c-0.13,0.234-0.314,0.533-0.609,0.996c-0.007,0.009-0.013,0.017-0.019,0.021C197.219,19.015,197.441,19.015,197.688,19.015z"/>
		</g>
	</g>
	<path fill="#FFFFFF" d="M105.791,24.514c0.285,0,0.471-0.404,0.855-0.404c0,0,0.186,0,0.186,0.104v3.68
		c0,0.104-0.186,0.299-0.285,0.299h-1.141c-0.1,0-0.1,0.104-0.1,0.21c0,0.492,1.141,0.896,1.426,0.896s1.24-0.404,1.24-0.807v-0.016
		c1.57-0.154,3.21-2.871,4.042-2.871c0.1,0,0.285,0,0.285,0.104v3.486c0,0.193,0.286,0.193,0.385,0.193
		c0.101,0,0.57-0.09,0.57-0.193v-3.994c0-0.09,0.101-0.09,0.186-0.09c0.77,0,1.526,3.081,3.138,3.081
		c0.285,0,0.855-0.091,0.855-0.493c0-0.793-3.894-1.899-3.894-3.485c0-0.208,0.1-0.599,0.285-0.599h3.237
		c0,0,0.186-0.104,0.186-0.208c0-0.495-0.571-0.898-0.956-0.898c-0.371,0-0.655,0.704-1.04,0.704h-1.812l-0.186-0.195v-0.299
		c0-0.403,0.101-0.704,0.101-1.107c0-0.299-0.286-0.389-0.57-0.389c-0.101,0-0.485,0-0.485,0.194v1.601
		c-0.086,0-0.186,0.09-0.186,0.09l-0.186,0.105h-3.237c-0.1,0-0.1,0.194-0.1,0.299c0,0.104,0,0.193,0.199,0.193h2.652l0.101,0.21
		c0,0.091,0.1,0.194,0.1,0.194c0,1.502-3.001,2.85-3.671,3.971v-4.568c0,0,0.1-0.104,0.1-0.195c0.756-1.001,2.566-2.004,3.423-2.602
		c1.142-0.897,1.326-3.381,1.996-3.381c0.075,0,0.459,0.151,0.552,0.259c0.001-0.01,0.015-0.017,0.02-0.024v2.493
		c0,0.808,1.61,0.808,1.996,0.808c0.371,0,1.611,0.09,1.611-0.703c0-0.493-0.186-1.092-0.285-1.6h-0.101
		c-0.57,0-0.185,1.406-0.854,1.406l-1.87,0.113c-0.185,0,0.357-0.413,0.357-0.622l-0.785-1.969c0.302-0.175,1.285-0.161,1.441-0.161
		c0.2,0,0.485,0,0.485,0.299c0,0.301-0.201,0.599-0.201,0.898c0,0.09,0,0.299,0.102,0.299c0.471-0.209,1.811-0.808,1.811-1.496
		c0-0.508-0.385-0.807-0.855-0.807c-0.386,0-0.484,0.104-0.855,0.299h-4.663c-0.1-0.09-0.386-0.299-0.471-0.299h-0.101
		c-0.57,0-1.141,1.898-1.525,2.197h-0.855l-0.285,0.105l-0.186-0.209v-0.794c0-0.493,0.1-0.897,0.1-1.39
		c0-0.404-0.285-0.404-0.57-0.404c-0.1,0-0.484,0-0.484,0.194v2.692l-0.285,0.209h-1.141l-0.086,0.194v0.104l0.086,0.09h0.955
		l0.285,0.404v2.797c0,0.494-1.326,0.598-1.326,0.598c-0.285,0.091-0.285,0.195-0.285,0.389
		C105.221,24.006,105.406,24.514,105.791,24.514z M107.973,19.922c0-0.104,2.281-0.793,2.666-1.391
		c0.186-0.3,0.371-1.197,0.941-1.197c0.387,0,0.387,0.299,0.387,0.6c0,1.689-1.241,2.482-2.383,3.379
		c-0.47,0.404-0.655,1.107-1.326,1.107c-0.1,0-0.285,0-0.285-0.21V19.922z M116.099,16.148c0-0.012-0.009-0.027-0.021-0.043
		c-0.001,0.006-0.007,0.013-0.007,0.02l0.028,0.069V16.148z M124.264,26.697c0.283,0,0.654-0.494,0.855-0.6h3.793
		c0,0,0.484,0.509,0.77,0.509c0.085,0,0.471-0.208,0.471-0.298v-5.982c0.1-0.3,0.185-0.509,0.185-0.703
		c0-0.404-0.284-0.703-0.655-0.703c-0.285,0-0.385,0-0.67,0.209h-1.427L127.4,18.92v-0.299c0-0.195-0.1-0.898,0.285-0.898h3.422
		c0,0,0.186-0.09,0.186-0.193c0-0.404-0.471-0.793-0.756-0.793c-0.385,0-0.67,0.598-1.055,0.598h-1.897
		c-0.185,0-0.185-0.209-0.185-0.299V16.93c0-0.104,0.185-0.492,0.185-0.598v-0.104c0-0.3-0.385-0.389-0.67-0.389
		c-0.085,0-0.47,0-0.47,0.194v2.887c0,0.209-0.672,0.209-0.758,0.209c-0.483,0-0.854-0.209-1.34-0.209c-0.084,0-0.37,0-0.37,0.209
		v7.373C123.978,26.697,124.162,26.697,124.264,26.697z M128.826,25.5h-3.707l-0.201-0.194v-1.092c0-0.104,0.201-0.299,0.286-0.299
		h3.622c0.37,0,0.285,0.599,0.285,0.793S129.196,25.5,128.826,25.5z M124.918,23.107v-1.093l0.201-0.193h3.793l0.199,0.193v1.093
		c0,0.105-0.285,0.3-0.386,0.3h-3.422C125.204,23.407,124.918,23.213,124.918,23.107z M125.204,19.727h3.622
		c0.37,0,0.285,0.6,0.285,0.689c0,0.209,0.085,0.807-0.285,0.807h-3.622c-0.371,0-0.286-0.598-0.286-0.807
		C124.918,20.326,124.833,19.727,125.204,19.727z M128.057,26.697c-0.087,0-0.186,0-0.186,0.209c0,0.299,2.281,2.184,3.037,2.184
		c0.285,0,0.285-0.09,0.285-0.299C131.193,27.594,129.012,26.697,128.057,26.697z M121.263,21.611l0.186,0.21v7.374l0.1,0.104
		l0.185,0.09h0.1c0.045,0,0.201-0.055,0.34-0.135c0.004,0.074,0.016,0.135,0.094,0.135c0.656-0.09,4.278-1.287,4.278-2.094
		c0-0.389-0.284-0.598-0.669-0.598c-0.756,0-1.611,1.196-2.283,1.6c-0.144,0.082-0.811,0.459-1.188,0.666v-8.039
		c0.085-0.209,0.085-0.299,0.085-0.508c0-0.301-0.186-0.39-0.186-0.793v-0.195c0.101-0.209,0.57-1.405,0.671-1.601
		c0-0.104,0.656-1.091,0.656-1.39s-0.571-0.404-0.757-0.404c-0.955,0-0.854,1.6-1.041,2.198c-0.384,1.196-0.855,1.989-1.426,3.186
		c-0.285,0.703-0.855,1.197-0.855,1.99C120.406,23.407,120.406,21.611,121.263,21.611z M133.541,24.708h4.986
		c0.271,0,0.271,0.598,0.271,0.703c0,0.194,0,0.687-0.271,0.687h-3.438c0,0.105,0,0.404,0.082,0.404h3.355
		c0.177,0,0.177,0.599,0.177,0.599c0,0.404-0.177,1.092-0.624,1.092h-1.359l-0.096,0.104v0.105c0,0.492,1.455,0.986,1.808,0.986
		c1.454,0,1.183-2.691,1.631-2.691h2.445c0.272,0,0.366,0.508,0.734,0.508c0.081,0,0.448-0.104,0.448-0.299v-1.795
		c0,0,0.096-0.104,0.096-0.209c0.271-0.389,1.086-0.3,1.357-0.3c0.178-0.089,0.178-0.194,0.178-0.298
		c0-0.299-0.272-0.494-0.449-0.494c-0.367,0-0.543,0.299-0.91,0.299c-0.176,0-0.271-0.104-0.271-0.299
		c0-0.299,0.177-0.494,0.177-0.703c0-0.389-0.272-0.792-0.625-0.792h-0.097c-0.095,0-0.543,0.193-0.638,0.299h-2.445
		c-0.177,0-0.272-0.494-0.272-0.6c0-0.104,0.096-0.598,0.272-0.598h2.093c0.271,0,0.447,0.404,0.719,0.404
		c0.177,0,0.368-0.104,0.449-0.3c0-0.598,0.271-1.301,0.271-1.898c0-0.404-0.176-0.793-0.625-0.793
		c-0.271,0-0.543,0.299-0.814,0.299h-2.093c-0.272,0-0.272-0.299-0.272-0.508c0-0.195,0-0.688,0.272-0.688h4.986
		c0,0,0.177-0.106,0.177-0.211c0-0.389-0.449-0.896-0.816-0.896c-0.447,0-0.623,0.703-1.086,0.703h-3.261
		c-0.177,0-0.272-0.195-0.272-0.404c0-0.299,0.191-0.493,0.191-0.793c0-0.404-0.463-0.404-0.64-0.404c-0.095,0-0.448,0-0.448,0.211
		v1.092l-0.367,0.299h-4.891l-0.096,0.193v0.104l0.096,0.106h4.891c0.271,0,0.271,0.492,0.271,0.688c0,0.209,0,0.508-0.271,0.508
		h-2.174c-0.095,0-0.544-0.209-0.639-0.209h-0.082c-0.094,0-0.271,0-0.271,0.209v2.692c0,0,0.082,0.193,0.178,0.193
		c0.366,0,0.543-0.598,0.91-0.598h2.078c0.177,0,0.271,0.494,0.271,0.598c0,0.105-0.095,0.6-0.271,0.6h-3.261l-0.095,0.194v0.104
		l0.095,0.105h3.261c0.271,0,0.271,0.494,0.271,0.598c0,0.195,0,0.599-0.271,0.599h-4.986c-0.082,0-0.082,0.194-0.082,0.3
		C133.459,24.603,133.459,24.708,133.541,24.708z M140.063,19.623h1.997c0.096,0,0.367,0.194,0.367,0.299v0.703l-0.19,0.195h-2.174
		c-0.272,0-0.272-0.404-0.272-0.6C139.791,20.026,139.791,19.623,140.063,19.623z M140.063,23.213h2.364
		c0.271,0,0.271,0.299,0.271,0.492c0,0.21,0,0.509-0.271,0.509h-2.364c-0.272,0-0.272-0.299-0.272-0.509
		C139.791,23.512,139.791,23.213,140.063,23.213z M140.063,24.813h2.364c0.271,0,0.271,0.493,0.271,0.599
		c0,0.194,0,0.687-0.271,0.687h-2.364c-0.272,0-0.272-0.492-0.272-0.687C139.791,25.306,139.791,24.813,140.063,24.813z
		 M138.527,20.82h-2.078c-0.272,0-0.272-0.404-0.272-0.6c0-0.194,0.082-0.598,0.354-0.598h1.902c0.271,0,0.366,0.403,0.366,0.598
		C138.799,20.416,138.799,20.82,138.527,20.82z M149.971,24.27c0.1,0,0.186,0,0.186,0.088v3.098c0,1.091-0.756,1-1.611,1
		l-0.099,0.091v0.104c0,0.299,1.14,0.897,1.426,0.897c0.385,0,1.24-0.703,1.24-1.093v-4.784c0-0.405,2.281-1.495,2.281-2.198
		c0-0.3-0.47-0.599-0.755-0.599c-0.286,0-0.386,0-0.671,0.194h-4.378l-0.086,0.21v0.089l0.086,0.105h2.097
		c0.186,0,0.284,0.403,0.284,0.492c0,1.9-2.566,3.889-2.566,4.892C148.646,26.856,149.215,24.27,149.971,24.27z M151.112,21.965
		c0-0.298,0.284-0.298,0.386-0.298c0.284,0,0.284,0.104,0.284,0.298c0,0.404-0.284,0.897-0.67,0.897V21.965z M156.58,28.352h-1.611
		l-0.1,0.104v0.091c0,0.403,1.14,1.002,1.524,1.002c1.612,0,2.468-3.29,2.468-4.591c0-0.389-0.471-0.688-0.756-0.688
		c-0.471,0-0.955,0.299-1.525,0.299c-0.187,0-0.656,0.09-0.656-0.299c0-0.51,0.285-0.809,0.285-1.197c0-0.3-0.386-0.508-0.67-0.508
		c-0.955,0-0.186,2.004-1.041,2.004h-2.195l-0.087,0.193c0,0.104,0.087,0.195,0.087,0.195h1.909c0.186,0,0.286,0.404,0.286,0.508
		c0,1.885-3.522,3.68-3.522,4.083c0,0.194,0.101,0.194,0.185,0.194c2.197,0,3.809-2.781,4.563-4.487l0.386-0.193h1.141
		c0.1,0,0.385,0.403,0.385,0.493C157.635,26.153,157.435,28.352,156.58,28.352z M152.502,20.275l0.186-0.104
		c0.185-0.091,0.855-0.794,1.04-0.988h0.2c0.47,0,1.041,1.391,1.041,1.885c0,1.195-2.952,1.496-2.952,2.197
		c0,0.105,0,0.195,0.1,0.195c1.041,0,2.753-1.197,3.322-1.496c0.2-0.089,0.285-0.089,0.57-0.089c1.056,0,1.712,1.286,2.853,1.286
		c0.285,0,0.77-0.194,0.77-0.598c0-0.688-2.951-0.6-2.951-1.586c0-0.598,0.67-1.496,0.855-1.795
		c0.285-0.509,1.711-1.002,1.711-1.196c0-0.299-0.385-0.509-0.67-0.509s-0.471,0.21-0.855,0.404h-2.752c-0.1,0-0.1-0.194-0.1-0.3
		v-0.104c0.1-0.09,0.569-0.492,0.569-0.793c0-0.299-0.569-0.492-0.854-0.492c-0.187,0-2.183,3.888-2.183,4.082H152.502z
		 M154.684,18.481h1.71l0.187,0.104v0.193c0,0.494-0.285,1.496-0.856,1.496c-0.569,0-1.14-0.897-1.14-1.391
		C154.584,18.779,154.498,18.481,154.684,18.481z M148.16,17.389h2.952c0.1,0,0.1,0.389,0.1,0.389c0,0.508-0.386,1.107-0.955,1.107
		c-0.286,0-0.57-0.21-0.856-0.21c-0.1,0-0.284,0-0.284,0.104c0,0.299,1.141,1.899,1.611,1.899c0.285,0,0.385-0.104,0.385-0.298
		c0-0.3-0.186-0.6-0.186-0.898c0-1.106,1.997-1.106,1.997-2.094c0-0.299-0.387-0.703-0.671-0.703h-0.101
		c-0.085,0-0.469,0.194-0.57,0.194h-3.508c-0.1,0-0.1,0.21-0.1,0.3C147.975,17.284,147.975,17.389,148.16,17.389z M166.832,17.777
		c0.186,0,0.186-0.194,0.186-0.299c0-0.299-0.471-0.688-0.756-0.688c-0.385,0-0.67,0.598-1.055,0.598h-3.51l-0.099,0.194v0.105
		l0.099,0.089H166.832z M164.498,29.443c2.383,0,3.523-5.772,3.623-7.567c0.086-0.104,0.186-0.403,0.371-0.403h1.241
		c0.099,0,0.185,0.104,0.284,0.194c0,0.104,0.186,0.209,0.186,0.209v7.672c0,0.194,0.285,0.194,0.385,0.194s0.67-0.089,0.67-0.299
		v-7.672c0,0,0.086-0.104,0.086-0.195l0.1-0.104c0.471-0.194,1.526-0.194,1.711-0.194c0.1,0,0.1-0.21,0.1-0.3v-0.104
		c-0.199-0.195-0.484-0.599-0.77-0.599c-0.471,0-0.855,0.703-1.326,0.703h-2.752l-0.285-0.3v-2.093c0-0.599,3.793-1.003,4.277-1.003
		c0.186-0.104,0.186-0.104,0.186-0.299c0-0.404-0.47-0.793-0.756-0.793h-0.199c-1.511,0.793-2.652,1.197-4.363,1.092l-0.2,0.194
		v6.088c0,1.898-1.426,3.992-2.567,5.384V29.443z M161.027,29.653c1.427,0,1.813-6.088,2.383-6.088h1.711
		c0.371,0,0.285,0.792,0.756,0.792c0.1,0,0.57-0.193,0.57-0.298v-3.291c0-0.09,0.186-0.493,0.186-0.597v-0.091
		c0-0.3-0.285-0.599-0.656-0.599c-0.2,0-0.385,0.09-0.671,0.194h-2.096c-0.085,0-0.756-0.299-0.856-0.299h-0.084
		c-0.101,0-0.2,0.194-0.2,0.194v5.683c0,1.496-1.227,2.797-1.227,4.188C160.843,29.548,160.928,29.653,161.027,29.653z
		 M163.125,20.47l0.185-0.194h1.812l0.185,0.194v2.303l-0.185,0.195h-1.812l-0.185-0.195V20.47z M100.223,36.008
		c-0.174-0.129-0.368-0.229-0.581-0.303c-0.212-0.074-0.431-0.127-0.654-0.158S98.553,35.5,98.355,35.5h-2.286v0.201l0.492,0.138
		c0.035,0.009,0.063,0.022,0.085,0.037c0.022,0.016,0.033,0.04,0.033,0.072v2.442c0,0.035-0.011,0.061-0.033,0.078
		c-0.022,0.017-0.05,0.03-0.085,0.039l-0.492,0.139v0.2h2.248c0.462,0,0.88-0.061,1.255-0.181c0.375-0.119,0.671-0.302,0.893-0.549
		c0.22-0.246,0.331-0.559,0.331-0.938c0-0.269-0.053-0.501-0.156-0.692S100.398,36.135,100.223,36.008z M99.351,38.139
		c-0.206,0.213-0.534,0.318-0.983,0.318h-0.632v-2.57h0.466c0.298,0,0.556,0.057,0.775,0.166c0.217,0.109,0.386,0.265,0.506,0.467
		c0.119,0.203,0.179,0.444,0.179,0.727C99.662,37.628,99.558,37.927,99.351,38.139z M103.731,36.408
		c-0.213-0.092-0.471-0.139-0.774-0.139c-0.328,0-0.615,0.06-0.863,0.178c-0.248,0.119-0.442,0.278-0.581,0.48
		c-0.14,0.201-0.209,0.428-0.209,0.677c0,0.28,0.072,0.518,0.217,0.711c0.145,0.191,0.342,0.339,0.591,0.437
		c0.249,0.099,0.528,0.148,0.836,0.148c0.292,0,0.563-0.042,0.817-0.126c0.253-0.085,0.46-0.173,0.62-0.269v-0.268h-0.089
		c-0.072,0.039-0.165,0.085-0.277,0.133c-0.114,0.049-0.242,0.09-0.384,0.124c-0.142,0.035-0.295,0.054-0.459,0.054
		c-0.298,0-0.535-0.047-0.712-0.14c-0.176-0.093-0.304-0.218-0.381-0.377c-0.075-0.153-0.112-0.325-0.115-0.517h2.399
		c0.009-0.021,0.015-0.047,0.017-0.078c0.004-0.031,0.007-0.063,0.009-0.095c0.002-0.031,0.003-0.058,0.003-0.077
		c0-0.178-0.057-0.343-0.171-0.494C104.11,36.621,103.946,36.5,103.731,36.408z M101.995,37.273
		c0.006-0.038,0.004-0.074,0.015-0.113c0.03-0.114,0.081-0.22,0.152-0.315c0.071-0.097,0.168-0.175,0.292-0.232
		c0.124-0.058,0.278-0.087,0.466-0.087c0.194,0,0.349,0.029,0.465,0.092c0.116,0.061,0.199,0.148,0.252,0.26
		c0.052,0.112,0.078,0.245,0.078,0.396H101.995z M106.929,38.514c-0.101,0.018-0.188,0.027-0.263,0.027
		c-0.069,0-0.156-0.01-0.256-0.03c-0.102-0.021-0.191-0.053-0.267-0.097c-0.077-0.045-0.116-0.104-0.116-0.176v-1.632h1.191
		l0.022-0.266h-1.214v-0.743l-0.539,0.075l-0.032,0.344c-0.008,0.106-0.038,0.185-0.092,0.233c-0.054,0.047-0.124,0.08-0.214,0.097
		s-0.195,0.031-0.316,0.046v0.214h0.555v1.784c0,0.104,0.044,0.195,0.129,0.269c0.084,0.073,0.197,0.131,0.338,0.169
		c0.141,0.041,0.293,0.06,0.457,0.06c0.129,0,0.259-0.015,0.388-0.048c0.129-0.03,0.243-0.065,0.343-0.103s0.17-0.065,0.207-0.084
		v-0.191h-0.107C107.1,38.478,107.028,38.494,106.929,38.514z M110.061,36.408c-0.214-0.092-0.473-0.139-0.774-0.139
		c-0.327,0-0.616,0.06-0.864,0.178c-0.248,0.119-0.441,0.278-0.58,0.48c-0.14,0.201-0.209,0.428-0.209,0.677
		c0,0.28,0.072,0.518,0.216,0.711c0.146,0.191,0.343,0.339,0.591,0.437c0.25,0.099,0.527,0.148,0.837,0.148
		c0.292,0,0.563-0.042,0.817-0.126c0.254-0.085,0.459-0.173,0.619-0.269v-0.268h-0.09c-0.072,0.039-0.164,0.085-0.277,0.133
		c-0.113,0.049-0.24,0.09-0.383,0.124c-0.143,0.035-0.297,0.054-0.461,0.054c-0.297,0-0.535-0.047-0.711-0.14
		c-0.177-0.093-0.304-0.218-0.382-0.377c-0.075-0.153-0.112-0.325-0.114-0.517h2.398c0.009-0.021,0.016-0.047,0.018-0.078
		c0.004-0.031,0.006-0.063,0.008-0.095c0.002-0.031,0.004-0.058,0.004-0.077c0-0.178-0.057-0.343-0.171-0.494
		C110.438,36.621,110.273,36.5,110.061,36.408z M108.322,37.273c0.008-0.038,0.006-0.074,0.016-0.113
		c0.029-0.114,0.08-0.22,0.151-0.315c0.071-0.097,0.169-0.175,0.293-0.232c0.122-0.058,0.277-0.087,0.466-0.087
		c0.193,0,0.348,0.029,0.465,0.092c0.115,0.061,0.199,0.148,0.252,0.26c0.051,0.112,0.078,0.245,0.078,0.396H108.322z
		 M113.879,38.36c-0.104,0.05-0.218,0.094-0.344,0.13c-0.127,0.037-0.263,0.056-0.407,0.056c-0.366,0-0.646-0.089-0.836-0.269
		c-0.192-0.177-0.287-0.426-0.287-0.744c0-0.16,0.015-0.291,0.046-0.392c0.03-0.103,0.069-0.183,0.116-0.242s0.094-0.109,0.14-0.147
		c0.059-0.047,0.139-0.086,0.24-0.113c0.103-0.029,0.191-0.045,0.269-0.045c0.173,0,0.323,0.02,0.451,0.057
		c0.13,0.036,0.248,0.08,0.358,0.133c0.109,0.053,0.221,0.104,0.334,0.152h0.143l0.022-0.471c-0.053-0.02-0.124-0.043-0.212-0.074
		c-0.089-0.03-0.195-0.058-0.322-0.08c-0.124-0.023-0.271-0.035-0.439-0.035c-0.236,0-0.463,0.033-0.682,0.099
		s-0.414,0.16-0.586,0.28c-0.172,0.123-0.309,0.266-0.41,0.431s-0.151,0.347-0.151,0.543c0,0.247,0.064,0.465,0.193,0.656
		c0.128,0.192,0.311,0.343,0.547,0.452c0.237,0.108,0.518,0.164,0.843,0.164c0.292,0,0.549-0.045,0.77-0.135
		c0.222-0.089,0.41-0.182,0.565-0.276v-0.266h-0.097C114.068,38.264,113.98,38.31,113.879,38.36z M116.625,38.514
		c-0.1,0.018-0.188,0.027-0.262,0.027c-0.07,0-0.156-0.01-0.258-0.03c-0.101-0.021-0.189-0.053-0.266-0.097
		c-0.076-0.045-0.115-0.104-0.115-0.176v-1.632h1.191l0.022-0.266h-1.214v-0.743l-0.539,0.075l-0.033,0.344
		c-0.008,0.106-0.038,0.185-0.092,0.233c-0.053,0.047-0.125,0.08-0.214,0.097s-0.194,0.031-0.315,0.046v0.214h0.555v1.784
		c0,0.104,0.043,0.195,0.128,0.269s0.198,0.131,0.338,0.169c0.141,0.041,0.294,0.06,0.457,0.06c0.13,0,0.259-0.015,0.388-0.048
		c0.129-0.03,0.243-0.065,0.344-0.103c0.1-0.037,0.169-0.065,0.207-0.084v-0.191h-0.108
		C116.797,38.478,116.725,38.494,116.625,38.514z M118.169,35.844c0.091,0,0.173-0.013,0.245-0.038
		c0.072-0.026,0.13-0.063,0.172-0.11c0.041-0.049,0.062-0.107,0.062-0.174c0-0.095-0.044-0.168-0.133-0.217
		c-0.088-0.051-0.203-0.074-0.346-0.074c-0.124,0-0.231,0.025-0.323,0.08c-0.092,0.053-0.137,0.13-0.137,0.229
		c0,0.062,0.021,0.116,0.063,0.162c0.042,0.047,0.1,0.081,0.17,0.104C118.012,35.831,118.088,35.844,118.169,35.844z
		 M118.582,38.546c-0.024-0.02-0.037-0.044-0.037-0.077v-2.156l-1.245,0.126v0.168l0.466,0.114c0.043,0.012,0.077,0.025,0.104,0.043
		c0.025,0.019,0.037,0.045,0.037,0.079v1.626c0,0.033-0.012,0.058-0.036,0.076c-0.024,0.018-0.056,0.029-0.094,0.038l-0.482,0.094
		v0.17h1.854v-0.17l-0.479-0.094C118.636,38.576,118.606,38.564,118.582,38.546z M121.819,36.504l0.443,0.184l-0.864,1.602h-0.052
		l-0.144-0.355l-0.772-1.316l0.476-0.113v-0.168h-1.522v0.168l0.258,0.084c0.034,0.01,0.065,0.025,0.095,0.043
		c0.027,0.018,0.052,0.042,0.068,0.072l1.255,2.167h0.354l0.348-0.521l0.897-1.586c0.015-0.027,0.038-0.05,0.069-0.068
		c0.032-0.019,0.065-0.035,0.1-0.051l0.271-0.141v-0.168h-1.28V36.504z M125.861,36.408c-0.214-0.092-0.473-0.139-0.775-0.139
		c-0.326,0-0.614,0.06-0.863,0.178c-0.247,0.119-0.441,0.278-0.58,0.48c-0.14,0.201-0.209,0.428-0.209,0.677
		c0,0.28,0.072,0.518,0.217,0.711c0.145,0.191,0.342,0.339,0.591,0.437c0.249,0.099,0.527,0.148,0.837,0.148
		c0.291,0,0.563-0.042,0.816-0.126c0.254-0.085,0.46-0.173,0.619-0.269v-0.268h-0.089c-0.073,0.039-0.165,0.085-0.277,0.133
		c-0.113,0.049-0.241,0.09-0.384,0.124c-0.143,0.035-0.296,0.054-0.46,0.054c-0.298,0-0.535-0.047-0.711-0.14
		c-0.177-0.093-0.305-0.218-0.383-0.377c-0.075-0.153-0.111-0.325-0.114-0.517h2.398c0.01-0.021,0.016-0.047,0.019-0.078
		s0.005-0.063,0.008-0.095c0.002-0.031,0.003-0.058,0.003-0.077c0-0.178-0.057-0.343-0.17-0.494
		C126.239,36.621,126.075,36.5,125.861,36.408z M124.124,37.273c0.007-0.038,0.005-0.074,0.015-0.113
		c0.029-0.114,0.08-0.22,0.151-0.315c0.072-0.097,0.169-0.175,0.293-0.232c0.123-0.058,0.278-0.087,0.466-0.087
		c0.193,0,0.348,0.029,0.465,0.092c0.115,0.061,0.199,0.148,0.252,0.26c0.053,0.112,0.078,0.245,0.078,0.396H124.124z
		 M133.262,38.492c-0.026-0.023-0.048-0.051-0.063-0.076l-1.564-2.967h-0.746l-0.388,0.559l-1.299,2.397
		c-0.036,0.061-0.091,0.104-0.165,0.129l-0.33,0.112v0.2h1.604v-0.2l-0.543-0.154l0.375-0.714h1.621l0.392,0.728l-0.536,0.141v0.2
		h2.075v-0.2l-0.342-0.105C133.318,38.531,133.288,38.516,133.262,38.492z M130.342,37.4l0.594-1.132h0.055l0.128,0.314l0.44,0.817
		H130.342z M135.819,36.289c-0.122-0.013-0.258-0.02-0.409-0.02c-0.279,0-0.521,0.038-0.726,0.112
		c-0.206,0.075-0.364,0.178-0.476,0.31c-0.113,0.129-0.168,0.279-0.168,0.447c0,0.121,0.029,0.226,0.088,0.313
		c0.061,0.087,0.135,0.158,0.222,0.216s0.171,0.103,0.249,0.138v0.023c-0.09,0.015-0.18,0.042-0.271,0.083
		c-0.092,0.04-0.168,0.095-0.23,0.162c-0.061,0.067-0.092,0.15-0.092,0.249c0,0.083,0.027,0.155,0.081,0.215
		c0.055,0.059,0.12,0.106,0.2,0.144c0.078,0.038,0.154,0.064,0.229,0.083v0.028c-0.187,0.036-0.352,0.1-0.492,0.194
		c-0.143,0.094-0.212,0.22-0.212,0.378c0,0.136,0.065,0.251,0.198,0.347c0.135,0.094,0.315,0.166,0.547,0.215
		c0.23,0.049,0.49,0.074,0.78,0.074c0.339,0,0.646-0.042,0.919-0.122c0.275-0.081,0.493-0.193,0.655-0.336
		c0.161-0.144,0.243-0.307,0.243-0.491c0-0.103-0.037-0.201-0.11-0.299c-0.074-0.097-0.196-0.178-0.368-0.242
		c-0.171-0.064-0.402-0.097-0.697-0.097h-1.193c-0.066-0.015-0.126-0.046-0.178-0.097c-0.053-0.049-0.078-0.104-0.078-0.163
		c0-0.067,0.024-0.125,0.073-0.17c0.05-0.046,0.1-0.073,0.153-0.087c0.055,0.018,0.141,0.035,0.259,0.052
		c0.116,0.017,0.239,0.026,0.368,0.026c0.436,0,0.773-0.079,1.014-0.237s0.361-0.355,0.361-0.592c0-0.124-0.027-0.225-0.08-0.301
		c-0.054-0.077-0.123-0.153-0.211-0.231v-0.02l0.817,0.037l0.02-0.295h-1.13C136.059,36.317,135.941,36.303,135.819,36.289z
		 M134.569,38.936c0.085-0.07,0.172-0.113,0.257-0.131h1.104c0.24,0,0.413,0.042,0.519,0.127s0.158,0.172,0.158,0.258
		c0,0.133-0.057,0.238-0.168,0.318s-0.253,0.138-0.424,0.173c-0.172,0.035-0.35,0.053-0.531,0.053c-0.095,0-0.201-0.008-0.32-0.022
		c-0.119-0.016-0.234-0.043-0.344-0.079c-0.111-0.036-0.202-0.087-0.273-0.153c-0.071-0.064-0.107-0.146-0.107-0.244
		C134.439,39.105,134.483,39.005,134.569,38.936z M136.021,37.471c-0.057,0.096-0.137,0.168-0.244,0.217
		c-0.106,0.048-0.236,0.072-0.39,0.072c-0.2,0-0.362-0.053-0.486-0.16s-0.188-0.27-0.188-0.486c0-0.15,0.032-0.271,0.095-0.36
		c0.063-0.092,0.145-0.159,0.247-0.2c0.103-0.042,0.214-0.063,0.335-0.063c0.215,0,0.389,0.051,0.52,0.154
		c0.131,0.102,0.195,0.258,0.195,0.466C136.105,37.255,136.078,37.375,136.021,37.471z M140.167,36.408
		c-0.213-0.092-0.472-0.139-0.774-0.139c-0.326,0-0.615,0.06-0.863,0.178c-0.247,0.119-0.441,0.278-0.58,0.48
		c-0.14,0.201-0.209,0.428-0.209,0.677c0,0.28,0.072,0.518,0.216,0.711c0.146,0.191,0.342,0.339,0.591,0.437
		c0.249,0.099,0.527,0.148,0.837,0.148c0.292,0,0.563-0.042,0.817-0.126c0.254-0.085,0.459-0.173,0.619-0.269v-0.268h-0.089
		c-0.073,0.039-0.165,0.085-0.278,0.133c-0.113,0.049-0.24,0.09-0.384,0.124c-0.142,0.035-0.296,0.054-0.459,0.054
		c-0.298,0-0.536-0.047-0.712-0.14s-0.304-0.218-0.382-0.377c-0.075-0.153-0.112-0.325-0.114-0.517h2.398
		c0.009-0.021,0.015-0.047,0.018-0.078c0.004-0.031,0.006-0.063,0.008-0.095c0.003-0.031,0.004-0.058,0.004-0.077
		c0-0.178-0.058-0.343-0.171-0.494C140.545,36.621,140.381,36.5,140.167,36.408z M138.431,37.273
		c0.006-0.038,0.005-0.074,0.015-0.113c0.029-0.114,0.08-0.22,0.151-0.315c0.071-0.097,0.169-0.175,0.292-0.232
		s0.279-0.087,0.467-0.087c0.193,0,0.348,0.029,0.464,0.092c0.116,0.061,0.2,0.148,0.253,0.26c0.052,0.112,0.077,0.245,0.077,0.396
		H138.431z M144.785,38.543c-0.023-0.018-0.037-0.047-0.037-0.084v-1.342c0-0.198-0.049-0.36-0.148-0.485
		c-0.099-0.124-0.231-0.215-0.396-0.274c-0.166-0.058-0.351-0.088-0.553-0.088c-0.121,0-0.243,0.011-0.367,0.03
		c-0.123,0.019-0.248,0.06-0.373,0.118c-0.126,0.059-0.253,0.149-0.381,0.27h-0.041v-0.398l-1.092,0.129v0.165l0.373,0.114
		c0.043,0.013,0.077,0.028,0.103,0.045c0.026,0.018,0.038,0.045,0.038,0.078v1.648c0,0.033-0.012,0.058-0.035,0.076
		c-0.022,0.018-0.055,0.029-0.092,0.038l-0.391,0.094v0.17h1.581v-0.17l-0.297-0.094c-0.034-0.009-0.064-0.021-0.091-0.038
		c-0.027-0.019-0.04-0.043-0.04-0.076v-1.603c0.102-0.095,0.23-0.157,0.385-0.19s0.3-0.051,0.438-0.051
		c0.211,0,0.369,0.027,0.476,0.082s0.178,0.133,0.214,0.236c0.037,0.104,0.055,0.229,0.055,0.375v1.141
		c0,0.037-0.013,0.064-0.038,0.082c-0.026,0.018-0.058,0.031-0.096,0.042l-0.326,0.094v0.17h1.567v-0.17l-0.344-0.094
		C144.84,38.574,144.811,38.563,144.785,38.543z M148.26,38.36c-0.104,0.05-0.219,0.094-0.344,0.13
		c-0.127,0.037-0.263,0.056-0.408,0.056c-0.365,0-0.645-0.089-0.836-0.269c-0.191-0.177-0.287-0.426-0.287-0.744
		c0-0.16,0.016-0.291,0.047-0.392c0.03-0.103,0.068-0.183,0.116-0.242c0.046-0.06,0.094-0.109,0.14-0.147
		c0.059-0.047,0.138-0.086,0.24-0.113c0.103-0.029,0.191-0.045,0.268-0.045c0.173,0,0.323,0.02,0.452,0.057
		c0.129,0.036,0.247,0.08,0.358,0.133c0.109,0.053,0.221,0.104,0.334,0.152h0.143l0.022-0.471c-0.054-0.02-0.124-0.043-0.213-0.074
		c-0.088-0.03-0.195-0.058-0.321-0.08c-0.125-0.023-0.271-0.035-0.439-0.035c-0.236,0-0.464,0.033-0.682,0.099
		c-0.219,0.065-0.414,0.16-0.587,0.28c-0.172,0.123-0.309,0.266-0.409,0.431c-0.102,0.165-0.151,0.347-0.151,0.543
		c0,0.247,0.064,0.465,0.192,0.656c0.129,0.192,0.312,0.343,0.547,0.452c0.237,0.108,0.518,0.164,0.844,0.164
		c0.291,0,0.549-0.045,0.77-0.135c0.222-0.089,0.409-0.182,0.564-0.276v-0.266h-0.096C148.449,38.264,148.361,38.31,148.26,38.36z
		 M151.265,36.504l0.434,0.184l-0.792,1.531h-0.055l-0.152-0.291l-0.795-1.311l0.473-0.113v-0.168h-1.521v0.168l0.25,0.084
		c0.038,0.013,0.071,0.025,0.101,0.041c0.027,0.015,0.051,0.036,0.068,0.066l1.088,1.811l0.225,0.275
		c-0.072,0.143-0.135,0.262-0.187,0.353c-0.053,0.091-0.103,0.165-0.147,0.219c-0.046,0.056-0.096,0.098-0.151,0.129
		c-0.054,0.029-0.112,0.05-0.178,0.061c-0.064,0.011-0.147,0.017-0.245,0.017c-0.022,0-0.056-0.004-0.098-0.009
		c-0.043-0.007-0.09-0.016-0.139-0.026c-0.051-0.012-0.098-0.023-0.143-0.035s-0.081-0.023-0.108-0.035h-0.15l-0.022,0.481
		c0.039,0.011,0.093,0.021,0.162,0.03c0.071,0.011,0.142,0.019,0.211,0.025c0.07,0.006,0.126,0.01,0.167,0.01
		c0.163,0,0.319-0.021,0.466-0.062c0.146-0.04,0.285-0.114,0.414-0.222c0.128-0.107,0.244-0.262,0.35-0.462l1.305-2.499
		c0.014-0.026,0.037-0.049,0.07-0.063c0.035-0.017,0.066-0.032,0.096-0.048l0.285-0.141v-0.168h-1.28V36.504z M48.539,15.814
		c0-3.885,0.074-12.362,0.296-13.49c-3.923,0.836-7.772,1.671-10.437,2.172l0.074,0.084c2.591,0.208,3.479,0.291,4.22,0.752
		c1.036,0.584,1.11,1.545,1.11,10.482c0,6.934-0.081,10.869-0.542,13.18c-1.62-2.101-3.997-5.596-8.036-11.621
		C26.442,4.289,25.839,3.218,25.571,2.324h-8.312v0.09c1.542,0.535,2.882,1.161,4.089,2.098C20.41,6.03,18.264,9.29,12.835,17.373
		C3.653,31.171,2.916,31.885,0.369,32.6v0.09h11.394V32.6c-1.206-0.357-2.078-0.759-2.078-2.01c0-1.652,1.475-4.777,5.63-11.207
		c2.48-0.046,5.295-0.046,8.58-0.046c2.882,0,5.429,0,7.775,0.046c4.357,6.697,5.965,9.779,5.965,11.387
		c0,1.115-0.804,1.428-2.077,1.83v0.09h17.199v-0.084C48.909,31.771,48.539,30.684,48.539,15.814z M23.895,17.283
		c-2.681,0-5.094,0-7.239-0.045c0.067-0.044,0.134-0.134,0.201-0.223c3.217-4.777,5.228-7.859,6.636-10.271
		c1.944,2.858,3.552,5.761,6.636,10.271c0,0.089,0.067,0.179,0.134,0.268H23.895z M59.345,4.94c2.294,0,3.997-0.855,3.997-2.423
		c0-1.52-1.628-2.518-3.774-2.518c-2.294,0-3.923,0.902-3.923,2.518C55.644,4.085,57.125,4.94,59.345,4.94z M62.306,20.098v-1.711
		c0-3.848,0.074-9.502,0.296-11.069c-2.813,0.854-7.772,1.805-10.215,2.327v0.095c2.591,0.285,3.479,0.429,4.145,0.997
		c0.962,0.714,1.037,1.759,1.037,8.886c0,10.739-0.37,12.068-4.071,12.972v0.096h12.879v-0.096
		C62.75,31.738,62.306,30.787,62.306,20.098z M76.648,30.762c-4.553,0-6.31-2.875-6.31-7.758c0-6.104,2.482-8.388,6.771-8.388
		c2.177,0,3.101,0.354,4.75,1.063h0.132l-1.254-3.229c-0.924-0.158-1.914-0.237-3.233-0.237c-6.927,0-12.535,3.978-12.535,11.419
		c0,6.065,3.893,9.531,10.556,9.531c2.837,0,5.212-0.551,6.333-0.984l0.264-3.662h-0.131C80.342,30.171,78.759,30.762,76.648,30.762
		z M174.964,31.127h-82.34c-3.759-1.072-5.42-2.154-5.42-7.621c0-1.05,0.065-2.009,0.194-2.922l15.223,0.092
		c0.064-0.822,0.129-1.736,0.129-2.42c0-3.881-2.967-6.256-7.87-6.256c-7.353,0-12.062,4.611-12.062,12.328
		c0,7.24,2.979,9.253,9.432,9.799l0.001-0.016c0.055,0.006,0.108,0.016,0.164,0.016h62.464v3.375h1.5v-3.375h5.625v2.25h1.5v-2.25
		h6.376v1.875h-1.501v1.5h3v-3.375h3.585c0.92,0,1.666-0.672,1.666-1.5S175.884,31.127,174.964,31.127z M94.235,14.146
		c3.032,0,4.644,1.506,4.837,4.338l-11.159,0.09C89.01,15.699,91.138,14.146,94.235,14.146z"/>
</g>
</svg>
