<?xml version="1.0" encoding="utf-8"?>
<!-- Generator: Adobe Illustrator 16.0.3, SVG Export Plug-In . SVG Version: 6.00 Build 0)  -->
<!DOCTYPE svg PUBLIC "-//W3C//DTD SVG 1.1//EN" "http://www.w3.org/Graphics/SVG/1.1/DTD/svg11.dtd">
<svg version="1.1" id="レイヤー_1" xmlns="http://www.w3.org/2000/svg" xmlns:xlink="http://www.w3.org/1999/xlink" x="0px"
	 y="0px" width="313px" height="61px" viewBox="0 0 313 61" enable-background="new 0 0 313 61" xml:space="preserve">
<g>
	<g>
		<path d="M311.836,34.637c-1.47-3.625-4.072-6.372-6.767-9.079c-4.358-4.378-9.956-7.409-13.438-12.838
			c-1.8,3.239-4.591,5.389-7.264,7.644c-3.835,3.234-7.748,6.387-10.656,10.578c-2.061,2.966-3.307,6.193-3.19,9.876
			c0.156,4.974,3.014,8.893,7.57,10.374c4.198,1.364,8.593-0.247,11.545-4.226c0.18-0.244,0.389-0.471,0.586-0.703
			c-0.119,5.086-2.476,8.654-7.345,10.795h16.971c-1.426-1.262-3.252-2.559-4.667-4.217c-1.457-1.717-2.263-3.859-2.086-6.564
			c0.571,0.676,0.908,1.082,1.251,1.481c5.354,6.245,14.82,4.721,17.782-2.914C313.452,41.439,313.198,38.002,311.836,34.637z
			 M273.672,39.399l-1.265,0.442l-0.459-1.025l0.979-1.078l1.065,0.361L273.672,39.399z M275.357,45.68l-1.199,0.791l0.396-1.381
			l-0.79-1.199l1.38,0.396l1.2-0.791l-0.396,1.381l0.791,1.198L275.357,45.68z M283.87,49.955l-1.045-1.41l1.019-1.429l1.674,0.526
			l0.016,1.756L283.87,49.955z M288.803,41.54l1.992-4.718c-1.061-0.275-1.841-1.143-1.841-2.183c0-1.261,1.14-2.282,2.547-2.282
			c1.406,0,2.548,1.021,2.548,2.282c0,1.053-0.8,1.929-1.881,2.193l1.987,4.707H288.803z M300.942,48.479l-1.628,0.307l-0.795-1.455
			l1.138-1.205l1.497,0.709L300.942,48.479z M309.675,36.561l1.196,0.033l0.092,1.412l-1.14,0.841l-0.795-0.894L309.675,36.561z
			 M309.602,43.846l-0.724,1.295l-0.294-1.455l-1.297-0.725l1.456-0.293l0.724-1.295l0.294,1.454l1.295,0.724L309.602,43.846z"/>
	</g>
	<g>
		<g>
			<path fill="#FFFFFF" d="M280.774,31.283c0.354-0.105,0.458-0.211,1.736-2.248c0.757-1.193,1.055-1.674,1.186-1.898
				c-0.168-0.138-0.354-0.23-0.569-0.309v-0.013h1.157c0.038,0.131,0.122,0.29,1.345,2.221c1.287,2.037,1.363,2.116,1.736,2.248
				v0.014h-1.689v-0.014c0.177-0.059,0.289-0.105,0.289-0.27c0-0.238-0.225-0.692-0.831-1.681c-0.327-0.007-0.681-0.007-1.083-0.007
				c-0.457,0-0.85,0-1.194,0.007c-0.579,0.949-0.784,1.41-0.784,1.654c0,0.185,0.121,0.244,0.289,0.297v0.014h-1.587V31.283z
				 M284.051,29.022c0.318,0,0.616,0,0.887,0c-0.01-0.013-0.018-0.026-0.018-0.039c-0.43-0.666-0.654-1.095-0.925-1.516
				c-0.196,0.355-0.477,0.81-0.925,1.516c-0.009,0.013-0.019,0.026-0.027,0.032C283.342,29.022,283.678,29.022,284.051,29.022z"/>
		</g>
		<g>
			<path fill="#FFFFFF" d="M289.477,28.65c0.439-0.129,0.488-0.271,0.488-2.078c0-1.807-0.049-1.96-0.488-2.09V24.47
				c0.199,0.006,0.39,0.012,0.813,0.012c0.365,0,1.16-0.031,1.575-0.031c1.833,0,2.795,0.691,2.795,1.843
				c0,1.474-1.22,2.38-2.804,2.38c-0.547,0-1.185-0.024-1.541-0.024c-0.432,0-0.631,0.006-0.838,0.012V28.65z M291.814,28.335
				c1.236,0,2.182-0.728,2.182-1.954c0-1.03-0.805-1.591-2.239-1.591c-0.373,0-0.705,0.025-1.128,0.05
				c-0.074,0.32-0.082,0.833-0.082,1.745c0,0.869,0.016,1.393,0.074,1.702C290.953,28.311,291.425,28.335,291.814,28.335z"/>
		</g>
		<g>
			<path fill="#FFFFFF" d="M296.149,31.258c0.354-0.105,0.458-0.211,1.736-2.239c0.757-1.188,1.055-1.668,1.185-1.891
				c-0.167-0.138-0.354-0.23-0.568-0.309v-0.013h1.156c0.039,0.131,0.123,0.289,1.346,2.213c1.287,2.028,1.363,2.107,1.735,2.239
				v0.013h-1.689v-0.013c0.177-0.06,0.29-0.105,0.29-0.27c0-0.236-0.225-0.689-0.831-1.674c-0.327-0.007-0.682-0.007-1.083-0.007
				c-0.457,0-0.85,0-1.194,0.007c-0.579,0.945-0.784,1.404-0.784,1.648c0,0.183,0.121,0.243,0.289,0.296v0.013h-1.587V31.258z
				 M299.426,29.005c0.317,0,0.616,0,0.887,0c-0.01-0.013-0.019-0.026-0.019-0.039c-0.429-0.663-0.653-1.09-0.924-1.51
				c-0.196,0.354-0.477,0.808-0.925,1.51c-0.01,0.013-0.019,0.026-0.027,0.033C298.717,29.005,299.053,29.005,299.426,29.005z"/>
		</g>
	</g>
	<path d="M159.977,37.35c0.433,0,0.714-0.613,1.298-0.613c0,0,0.281,0,0.281,0.158v5.584c0,0.158-0.281,0.453-0.433,0.453h-1.731
		c-0.151,0-0.151,0.158-0.151,0.318c0,0.748,1.731,1.361,2.164,1.361s1.883-0.613,1.883-1.225v-0.023
		c2.383-0.234,4.871-4.357,6.133-4.357c0.151,0,0.433,0,0.433,0.158v5.289c0,0.295,0.434,0.295,0.584,0.295
		c0.152,0,0.866-0.137,0.866-0.295v-6.061c0-0.136,0.151-0.136,0.281-0.136c1.168,0,2.315,4.675,4.761,4.675
		c0.433,0,1.298-0.136,1.298-0.748c0-1.203-5.907-2.883-5.907-5.289c0-0.316,0.15-0.907,0.433-0.907h4.912
		c0,0,0.281-0.159,0.281-0.317c0-0.75-0.866-1.362-1.45-1.362c-0.563,0-0.994,1.067-1.579,1.067h-2.748l-0.281-0.295v-0.455
		c0-0.611,0.151-1.066,0.151-1.679c0-0.454-0.433-0.591-0.865-0.591c-0.152,0-0.736,0-0.736,0.295v2.43
		c-0.13,0-0.281,0.135-0.281,0.135l-0.281,0.16h-4.912c-0.152,0-0.152,0.295-0.152,0.453c0,0.159,0,0.295,0.304,0.295h4.024
		l0.152,0.318c0,0.137,0.151,0.295,0.151,0.295c0,2.279-4.555,4.324-5.57,6.026v-6.935c0,0,0.151-0.158,0.151-0.295
		c1.146-1.52,3.895-3.041,5.193-3.949c1.731-1.361,2.013-5.128,3.028-5.128c0.115,0,0.697,0.228,0.837,0.392
		c0.003-0.015,0.023-0.024,0.03-0.037v3.783c0,1.226,2.444,1.226,3.029,1.226c0.563,0,2.444,0.136,2.444-1.066
		c0-0.749-0.281-1.657-0.433-2.428h-0.151c-0.866,0-0.28,2.134-1.298,2.134l-2.838,0.173c-0.28,0,0.543-0.628,0.543-0.945
		l-1.191-2.987c0.459-0.266,1.95-0.244,2.188-0.244c0.303,0,0.736,0,0.736,0.454c0,0.454-0.305,0.908-0.305,1.362
		c0,0.137,0,0.454,0.152,0.454c0.715-0.317,2.749-1.225,2.749-2.269c0-0.771-0.585-1.226-1.299-1.226
		c-0.585,0-0.735,0.159-1.298,0.455h-7.076c-0.151-0.137-0.584-0.455-0.714-0.455h-0.152c-0.865,0-1.73,2.882-2.314,3.336h-1.299
		l-0.433,0.159l-0.281-0.317v-1.204c0-0.748,0.151-1.361,0.151-2.109c0-0.613-0.433-0.613-0.865-0.613c-0.151,0-0.736,0-0.736,0.295
		v4.085l-0.433,0.318h-1.731l-0.129,0.294v0.159l0.129,0.137h1.45l0.433,0.613v4.243c0,0.75-2.012,0.908-2.012,0.908
		c-0.434,0.137-0.434,0.295-0.434,0.59C159.11,36.578,159.392,37.35,159.977,37.35z M163.287,30.382
		c0-0.159,3.462-1.203,4.046-2.111c0.281-0.454,0.563-1.815,1.429-1.815c0.585,0,0.585,0.454,0.585,0.908
		c0,2.565-1.883,3.768-3.614,5.129c-0.714,0.613-0.995,1.68-2.013,1.68c-0.151,0-0.433,0-0.433-0.318V30.382z M175.617,24.657
		c0-0.02-0.013-0.042-0.032-0.066c-0.002,0.01-0.01,0.019-0.01,0.03l0.042,0.104V24.657z M188.007,40.662
		c0.432,0,0.994-0.748,1.299-0.907h5.756c0,0,0.734,0.771,1.168,0.771c0.129,0,0.714-0.316,0.714-0.453v-9.078
		c0.151-0.454,0.281-0.772,0.281-1.066c0-0.613-0.433-1.067-0.995-1.067c-0.434,0-0.584,0-1.018,0.318h-2.164l-0.28-0.318v-0.454
		c0-0.295-0.151-1.362,0.433-1.362h5.193c0,0,0.281-0.136,0.281-0.295c0-0.613-0.716-1.203-1.147-1.203
		c-0.584,0-1.017,0.908-1.601,0.908h-2.879c-0.28,0-0.28-0.318-0.28-0.455v-0.158c0-0.158,0.28-0.749,0.28-0.908v-0.158
		c0-0.455-0.584-0.59-1.017-0.59c-0.13,0-0.714,0-0.714,0.295v4.38c0,0.318-1.018,0.318-1.147,0.318
		c-0.735,0-1.298-0.318-2.034-0.318c-0.129,0-0.563,0-0.563,0.318v11.188C187.573,40.662,187.854,40.662,188.007,40.662z
		 M194.931,38.847h-5.625l-0.305-0.295v-1.657c0-0.158,0.305-0.453,0.434-0.453h5.496c0.563,0,0.434,0.908,0.434,1.203
		S195.493,38.847,194.931,38.847z M189.001,35.215v-1.656l0.305-0.295h5.756l0.303,0.295v1.656c0,0.16-0.434,0.455-0.585,0.455
		h-5.193C189.435,35.67,189.001,35.375,189.001,35.215z M189.435,30.086h5.496c0.563,0,0.434,0.908,0.434,1.044
		c0,0.318,0.129,1.225-0.434,1.225h-5.496c-0.563,0-0.434-0.906-0.434-1.225C189.001,30.995,188.872,30.086,189.435,30.086z
		 M193.763,40.662c-0.131,0-0.281,0-0.281,0.318c0,0.453,3.462,3.313,4.609,3.313c0.433,0,0.433-0.135,0.433-0.453
		C198.523,42.023,195.212,40.662,193.763,40.662z M183.454,32.946l0.281,0.317v11.189l0.151,0.158l0.28,0.137h0.151
		c0.068,0,0.305-0.084,0.516-0.205c0.005,0.113,0.023,0.205,0.143,0.205c0.995-0.137,6.492-1.952,6.492-3.178
		c0-0.59-0.433-0.908-1.017-0.908c-1.146,0-2.445,1.816-3.463,2.428c-0.219,0.125-1.231,0.698-1.805,1.012V31.902
		c0.129-0.318,0.129-0.453,0.129-0.771c0-0.454-0.281-0.59-0.281-1.203v-0.296c0.152-0.317,0.866-2.133,1.018-2.429
		c0-0.158,0.996-1.656,0.996-2.109c0-0.454-0.866-0.613-1.147-0.613c-1.45,0-1.298,2.428-1.58,3.336
		c-0.583,1.815-1.298,3.018-2.163,4.833c-0.434,1.067-1.299,1.816-1.299,3.02C182.155,35.67,182.155,32.946,183.454,32.946z
		 M202.086,37.645h7.567c0.412,0,0.412,0.907,0.412,1.066c0,0.295,0,1.044-0.412,1.044h-5.217c0,0.159,0,0.612,0.124,0.612h5.093
		c0.268,0,0.268,0.908,0.268,0.908c0,0.613-0.268,1.656-0.947,1.656h-2.063l-0.145,0.158v0.16c0,0.748,2.207,1.498,2.742,1.498
		c2.206,0,1.794-4.086,2.475-4.086h3.711c0.413,0,0.557,0.771,1.114,0.771c0.124,0,0.681-0.158,0.681-0.453v-2.724
		c0,0,0.145-0.159,0.145-0.317c0.411-0.59,1.648-0.454,2.062-0.454c0.268-0.136,0.268-0.296,0.268-0.454
		c0-0.453-0.412-0.748-0.681-0.748c-0.558,0-0.824,0.453-1.382,0.453c-0.267,0-0.411-0.158-0.411-0.453
		c0-0.455,0.268-0.75,0.268-1.068c0-0.59-0.412-1.201-0.948-1.201h-0.146c-0.145,0-0.824,0.294-0.969,0.453h-3.711
		c-0.269,0-0.412-0.749-0.412-0.908c0-0.158,0.144-0.908,0.412-0.908h3.176c0.412,0,0.68,0.613,1.092,0.613
		c0.268,0,0.558-0.158,0.682-0.453c0-0.908,0.412-1.975,0.412-2.882c0-0.613-0.268-1.204-0.949-1.204
		c-0.412,0-0.824,0.455-1.236,0.455h-3.176c-0.412,0-0.412-0.455-0.412-0.771c0-0.295,0-1.044,0.412-1.044h7.567
		c0,0,0.268-0.16,0.268-0.318c0-0.59-0.681-1.361-1.238-1.361c-0.68,0-0.946,1.066-1.647,1.066h-4.949
		c-0.269,0-0.412-0.295-0.412-0.613c0-0.453,0.288-0.749,0.288-1.203c0-0.613-0.701-0.613-0.969-0.613c-0.145,0-0.681,0-0.681,0.318
		v1.657l-0.557,0.454h-7.423l-0.145,0.295v0.158l0.145,0.16h7.423c0.412,0,0.412,0.749,0.412,1.044c0,0.317,0,0.771-0.412,0.771
		h-3.3c-0.144,0-0.824-0.318-0.968-0.318h-0.125c-0.144,0-0.412,0-0.412,0.318v4.084c0,0,0.124,0.295,0.269,0.295
		c0.557,0,0.824-0.908,1.381-0.908h3.155c0.268,0,0.412,0.75,0.412,0.908c0,0.159-0.145,0.908-0.412,0.908h-4.948l-0.145,0.295
		v0.158l0.145,0.16h4.948c0.412,0,0.412,0.748,0.412,0.907c0,0.296,0,0.907-0.412,0.907h-7.567c-0.125,0-0.125,0.295-0.125,0.455
		C201.961,37.485,201.961,37.645,202.086,37.645z M211.983,29.928h3.031c0.145,0,0.557,0.294,0.557,0.454v1.067l-0.289,0.295h-3.299
		c-0.412,0-0.412-0.613-0.412-0.909C211.571,30.541,211.571,29.928,211.983,29.928z M211.983,35.375h3.588
		c0.412,0,0.412,0.453,0.412,0.748c0,0.318,0,0.771-0.412,0.771h-3.588c-0.412,0-0.412-0.453-0.412-0.771
		C211.571,35.828,211.571,35.375,211.983,35.375z M211.983,37.803h3.588c0.412,0,0.412,0.749,0.412,0.908
		c0,0.295,0,1.044-0.412,1.044h-3.588c-0.412,0-0.412-0.749-0.412-1.044C211.571,38.552,211.571,37.803,211.983,37.803z
		 M209.653,31.744h-3.155c-0.412,0-0.412-0.613-0.412-0.909c0-0.295,0.124-0.907,0.536-0.907h2.887c0.412,0,0.557,0.612,0.557,0.907
		C210.065,31.131,210.065,31.744,209.653,31.744z M227.018,36.979c0.152,0,0.281,0,0.281,0.135v4.699c0,1.656-1.146,1.52-2.445,1.52
		l-0.149,0.137v0.158c0,0.454,1.73,1.362,2.164,1.362c0.584,0,1.882-1.067,1.882-1.657V36.07c0-0.613,3.462-2.27,3.462-3.336
		c0-0.454-0.714-0.908-1.146-0.908c-0.434,0-0.585,0-1.018,0.295h-6.643l-0.13,0.318v0.135l0.13,0.16h3.182
		c0.281,0,0.431,0.613,0.431,0.748c0,2.883-3.894,5.9-3.894,7.422C225.007,40.904,225.871,36.979,227.018,36.979z M228.75,33.482
		c0-0.453,0.432-0.453,0.584-0.453c0.433,0,0.433,0.158,0.433,0.453c0,0.613-0.433,1.361-1.017,1.361V33.482z M237.047,43.174
		h-2.445l-0.151,0.158v0.137c0,0.612,1.729,1.521,2.314,1.521c2.445,0,3.744-4.993,3.744-6.968c0-0.59-0.714-1.043-1.147-1.043
		c-0.714,0-1.449,0.453-2.314,0.453c-0.282,0-0.996,0.137-0.996-0.453c0-0.772,0.433-1.227,0.433-1.816
		c0-0.454-0.585-0.771-1.016-0.771c-1.45,0-0.282,3.041-1.581,3.041h-3.331l-0.132,0.295c0,0.158,0.132,0.295,0.132,0.295h2.897
		c0.281,0,0.434,0.613,0.434,0.771c0,2.859-5.344,5.584-5.344,6.196c0,0.296,0.151,0.296,0.281,0.296
		c3.332,0,5.777-4.223,6.924-6.81l0.584-0.294h1.731c0.151,0,0.584,0.611,0.584,0.748C238.647,39.838,238.344,43.174,237.047,43.174
		z M230.858,30.918l0.281-0.159c0.281-0.137,1.299-1.204,1.579-1.499h0.303c0.713,0,1.58,2.111,1.58,2.86
		c0,1.814-4.479,2.27-4.479,3.336c0,0.159,0,0.295,0.151,0.295c1.58,0,4.177-1.816,5.041-2.27c0.304-0.135,0.434-0.135,0.865-0.135
		c1.603,0,2.598,1.951,4.329,1.951c0.433,0,1.169-0.295,1.169-0.908c0-1.043-4.48-0.908-4.48-2.406c0-0.906,1.018-2.269,1.299-2.723
		c0.433-0.771,2.597-1.521,2.597-1.815c0-0.454-0.584-0.771-1.017-0.771c-0.434,0-0.715,0.318-1.299,0.612h-4.176
		c-0.151,0-0.151-0.294-0.151-0.454v-0.158c0.151-0.137,0.864-0.749,0.864-1.204c0-0.454-0.864-0.748-1.297-0.748
		c-0.283,0-3.312,5.9-3.312,6.195H230.858z M234.169,28.195h2.596l0.282,0.158v0.295c0,0.749-0.433,2.27-1.299,2.27
		c-0.865,0-1.73-1.362-1.73-2.111C234.018,28.649,233.887,28.195,234.169,28.195z M224.271,26.538h4.479c0.15,0,0.15,0.59,0.15,0.59
		c0,0.771-0.584,1.679-1.448,1.679c-0.435,0-0.865-0.318-1.299-0.318c-0.151,0-0.433,0-0.433,0.159c0,0.453,1.731,2.882,2.445,2.882
		c0.433,0,0.584-0.159,0.584-0.453c0-0.455-0.281-0.909-0.281-1.362c0-1.68,3.029-1.68,3.029-3.178c0-0.454-0.585-1.067-1.018-1.067
		h-0.152c-0.129,0-0.712,0.295-0.865,0.295h-5.322c-0.151,0-0.151,0.318-0.151,0.454C223.989,26.379,223.989,26.538,224.271,26.538z
		 M252.604,27.128c0.281,0,0.281-0.295,0.281-0.454c0-0.454-0.714-1.044-1.146-1.044c-0.584,0-1.018,0.908-1.602,0.908h-5.324
		l-0.151,0.295v0.16l0.151,0.136H252.604z M249.063,44.83c3.614,0,5.346-8.76,5.498-11.482c0.129-0.16,0.28-0.613,0.562-0.613h1.884
		c0.15,0,0.28,0.158,0.432,0.295c0,0.158,0.281,0.318,0.281,0.318v11.642c0,0.296,0.434,0.296,0.584,0.296
		c0.152,0,1.018-0.137,1.018-0.455V33.188c0,0,0.13-0.158,0.13-0.295l0.151-0.158c0.715-0.295,2.315-0.295,2.597-0.295
		c0.151,0,0.151-0.318,0.151-0.455v-0.158c-0.303-0.295-0.735-0.908-1.168-0.908c-0.714,0-1.299,1.066-2.013,1.066h-4.177
		l-0.432-0.453v-3.178c0-0.907,5.756-1.521,6.489-1.521c0.282-0.158,0.282-0.158,0.282-0.454c0-0.612-0.713-1.203-1.146-1.203
		h-0.303c-2.293,1.203-4.024,1.816-6.621,1.657l-0.304,0.295v9.237c0,2.882-2.164,6.059-3.896,8.17V44.83z M243.797,45.148
		c2.164,0,2.749-9.237,3.614-9.237h2.597c0.563,0,0.433,1.202,1.147,1.202c0.15,0,0.865-0.295,0.865-0.453v-4.993
		c0-0.136,0.281-0.749,0.281-0.907v-0.137c0-0.454-0.433-0.907-0.996-0.907c-0.303,0-0.584,0.136-1.017,0.294h-3.182
		c-0.129,0-1.146-0.454-1.299-0.454h-0.129c-0.151,0-0.303,0.295-0.303,0.295v8.624c0,2.27-1.861,4.243-1.861,6.354
		C243.516,44.989,243.645,45.148,243.797,45.148z M246.979,31.213l0.28-0.294h2.749l0.281,0.294v3.495l-0.281,0.296h-2.749
		l-0.28-0.296V31.213z M151.527,54.791c-0.264-0.194-0.559-0.348-0.881-0.459c-0.323-0.111-0.654-0.191-0.993-0.239
		c-0.338-0.048-0.659-0.071-0.96-0.071h-3.469v0.305l0.746,0.209c0.053,0.014,0.096,0.033,0.129,0.057
		c0.034,0.023,0.051,0.061,0.051,0.109v3.708c0,0.052-0.017,0.091-0.051,0.116c-0.033,0.026-0.076,0.047-0.129,0.061l-0.746,0.209
		V59.1h3.411c0.701,0,1.335-0.091,1.904-0.272c0.569-0.182,1.02-0.46,1.354-0.833c0.334-0.375,0.501-0.85,0.501-1.426
		c0-0.408-0.08-0.759-0.236-1.051C152.003,55.227,151.792,54.984,151.527,54.791z M150.205,58.025
		c-0.313,0.322-0.81,0.482-1.492,0.482h-0.958v-3.898h0.707c0.453,0,0.844,0.084,1.176,0.25c0.33,0.166,0.586,0.402,0.768,0.71
		c0.181,0.308,0.271,0.674,0.271,1.101C150.675,57.251,150.518,57.703,150.205,58.025z M156.852,55.398
		c-0.324-0.139-0.715-0.208-1.174-0.208c-0.498,0-0.934,0.09-1.31,0.269c-0.377,0.18-0.671,0.422-0.882,0.729
		c-0.212,0.305-0.317,0.648-0.317,1.027c0,0.426,0.109,0.785,0.329,1.078c0.22,0.292,0.519,0.514,0.896,0.663
		s0.801,0.226,1.27,0.226c0.442,0,0.855-0.064,1.239-0.191c0.385-0.128,0.697-0.264,0.94-0.408v-0.406h-0.136
		c-0.109,0.061-0.25,0.129-0.421,0.201c-0.172,0.074-0.366,0.137-0.582,0.189c-0.216,0.053-0.448,0.08-0.697,0.08
		c-0.452,0-0.813-0.07-1.082-0.211c-0.267-0.141-0.46-0.33-0.578-0.572c-0.114-0.232-0.17-0.494-0.174-0.782h3.641
		c0.012-0.032,0.021-0.073,0.025-0.12c0.006-0.047,0.01-0.096,0.013-0.143c0.003-0.049,0.005-0.088,0.005-0.119
		c0-0.27-0.086-0.519-0.26-0.748C157.426,55.723,157.177,55.539,156.852,55.398z M154.216,56.713
		c0.009-0.058,0.007-0.113,0.022-0.172c0.045-0.174,0.123-0.334,0.231-0.479c0.108-0.147,0.255-0.266,0.443-0.354
		c0.188-0.088,0.423-0.133,0.707-0.133c0.294,0,0.529,0.047,0.705,0.141c0.176,0.093,0.302,0.225,0.383,0.395
		c0.079,0.17,0.118,0.371,0.118,0.602H154.216z M161.702,58.594c-0.153,0.027-0.286,0.043-0.397,0.043
		c-0.106,0-0.238-0.016-0.39-0.047c-0.154-0.031-0.289-0.08-0.404-0.146c-0.117-0.068-0.176-0.157-0.176-0.268v-2.475h1.808
		l0.034-0.404h-1.842V54.17l-0.818,0.113l-0.049,0.521c-0.012,0.162-0.059,0.281-0.14,0.354c-0.081,0.073-0.188,0.123-0.325,0.148
		c-0.135,0.023-0.295,0.047-0.479,0.068v0.326h0.841v2.708c0,0.158,0.066,0.294,0.195,0.405c0.129,0.112,0.3,0.199,0.514,0.258
		c0.213,0.061,0.444,0.091,0.692,0.091c0.197,0,0.394-0.024,0.589-0.072s0.368-0.101,0.52-0.157c0.152-0.057,0.259-0.1,0.315-0.127
		v-0.291h-0.164C161.962,58.539,161.854,58.564,161.702,58.594z M166.454,55.398c-0.324-0.139-0.717-0.208-1.175-0.208
		c-0.497,0-0.936,0.09-1.311,0.269c-0.376,0.18-0.67,0.422-0.882,0.729c-0.211,0.305-0.316,0.648-0.316,1.027
		c0,0.426,0.109,0.785,0.327,1.078c0.221,0.292,0.521,0.514,0.896,0.663c0.38,0.149,0.801,0.226,1.271,0.226
		c0.442,0,0.855-0.064,1.239-0.191c0.386-0.128,0.698-0.264,0.941-0.408v-0.406h-0.137c-0.109,0.061-0.25,0.129-0.421,0.201
		c-0.172,0.074-0.365,0.137-0.582,0.189c-0.216,0.053-0.448,0.08-0.698,0.08c-0.451,0-0.813-0.07-1.079-0.211
		c-0.269-0.141-0.461-0.33-0.579-0.572c-0.114-0.232-0.17-0.494-0.174-0.782h3.64c0.014-0.032,0.023-0.073,0.026-0.12
		c0.006-0.047,0.01-0.096,0.012-0.143c0.004-0.049,0.007-0.088,0.007-0.119c0-0.27-0.087-0.519-0.26-0.748
		C167.028,55.723,166.777,55.539,166.454,55.398z M163.818,56.713c0.01-0.058,0.008-0.113,0.022-0.172
		c0.045-0.174,0.121-0.334,0.229-0.479c0.108-0.147,0.257-0.266,0.444-0.354c0.187-0.088,0.421-0.133,0.706-0.133
		c0.294,0,0.529,0.047,0.706,0.141c0.175,0.093,0.303,0.225,0.383,0.395c0.078,0.17,0.118,0.371,0.118,0.602H163.818z
		 M172.249,58.361c-0.156,0.076-0.33,0.143-0.521,0.198c-0.192,0.056-0.398,0.083-0.618,0.083c-0.555,0-0.979-0.135-1.269-0.406
		c-0.292-0.27-0.436-0.646-0.436-1.131c0-0.242,0.022-0.441,0.069-0.594c0.047-0.154,0.105-0.276,0.177-0.367
		c0.071-0.09,0.143-0.166,0.213-0.225c0.088-0.07,0.209-0.129,0.364-0.172s0.29-0.065,0.406-0.065c0.263,0,0.49,0.028,0.686,0.083
		c0.195,0.057,0.376,0.123,0.543,0.203c0.166,0.081,0.335,0.158,0.507,0.23h0.217l0.034-0.715c-0.08-0.028-0.188-0.064-0.322-0.111
		s-0.297-0.087-0.487-0.123c-0.189-0.035-0.413-0.053-0.668-0.053c-0.358,0-0.703,0.051-1.034,0.15
		c-0.331,0.101-0.629,0.242-0.891,0.427c-0.26,0.185-0.468,0.401-0.621,0.651s-0.229,0.525-0.229,0.825
		c0,0.374,0.098,0.705,0.293,0.995c0.195,0.291,0.472,0.52,0.83,0.686c0.359,0.166,0.785,0.25,1.279,0.25
		c0.442,0,0.832-0.068,1.167-0.204c0.337-0.136,0.622-0.275,0.858-0.42v-0.403h-0.146C172.537,58.216,172.403,58.285,172.249,58.361
		z M176.417,58.594c-0.152,0.027-0.285,0.043-0.398,0.043c-0.105,0-0.236-0.016-0.39-0.047s-0.289-0.08-0.404-0.146
		c-0.116-0.068-0.174-0.157-0.174-0.268v-2.475h1.807l0.034-0.404h-1.841V54.17l-0.819,0.113l-0.05,0.521
		c-0.012,0.162-0.058,0.281-0.141,0.354c-0.08,0.073-0.188,0.123-0.323,0.148c-0.136,0.023-0.296,0.047-0.479,0.068v0.326h0.843
		v2.708c0,0.158,0.064,0.294,0.194,0.405c0.129,0.112,0.3,0.199,0.513,0.258c0.213,0.061,0.445,0.091,0.693,0.091
		c0.196,0,0.393-0.024,0.589-0.072c0.195-0.048,0.368-0.101,0.521-0.157s0.257-0.1,0.314-0.127v-0.291h-0.164
		C176.676,58.539,176.568,58.564,176.417,58.594z M178.759,54.543c0.139,0,0.264-0.02,0.373-0.059s0.196-0.096,0.26-0.168
		c0.063-0.074,0.094-0.16,0.094-0.263c0-0.144-0.067-0.254-0.201-0.329c-0.134-0.076-0.309-0.113-0.525-0.113
		c-0.188,0-0.351,0.041-0.489,0.122c-0.14,0.081-0.208,0.198-0.208,0.349c0,0.094,0.031,0.176,0.096,0.246s0.151,0.123,0.258,0.159
		S178.636,54.543,178.759,54.543z M179.386,58.643c-0.037-0.028-0.056-0.066-0.056-0.117v-3.271l-1.891,0.191v0.256l0.709,0.172
		c0.064,0.018,0.116,0.039,0.155,0.066s0.058,0.066,0.058,0.119v2.467c0,0.051-0.019,0.088-0.056,0.115
		c-0.038,0.027-0.084,0.047-0.143,0.059l-0.731,0.143V59.1h2.813v-0.258l-0.726-0.143C179.467,58.689,179.423,58.672,179.386,58.643
		z M184.299,55.545l0.673,0.279l-1.313,2.43h-0.077l-0.219-0.539l-1.172-1.997l0.722-0.173v-0.256h-2.311v0.256l0.392,0.127
		c0.052,0.017,0.1,0.039,0.144,0.065c0.042,0.028,0.078,0.063,0.103,0.108l1.905,3.289h0.538l0.528-0.789l1.36-2.408
		c0.022-0.04,0.059-0.074,0.106-0.103c0.049-0.028,0.099-0.054,0.15-0.077l0.412-0.213v-0.256h-1.942V55.545z M190.433,55.398
		c-0.325-0.139-0.718-0.208-1.177-0.208c-0.496,0-0.933,0.09-1.31,0.269c-0.376,0.18-0.67,0.422-0.881,0.729
		c-0.212,0.305-0.317,0.648-0.317,1.027c0,0.426,0.109,0.785,0.328,1.078c0.22,0.292,0.52,0.514,0.897,0.663s0.8,0.226,1.27,0.226
		c0.441,0,0.855-0.064,1.239-0.191c0.385-0.128,0.698-0.264,0.94-0.408v-0.406h-0.136c-0.11,0.061-0.251,0.129-0.421,0.201
		c-0.172,0.074-0.365,0.137-0.582,0.189c-0.216,0.053-0.449,0.08-0.698,0.08c-0.452,0-0.813-0.07-1.079-0.211
		c-0.269-0.141-0.462-0.33-0.58-0.572c-0.114-0.232-0.169-0.494-0.173-0.782h3.64c0.014-0.032,0.022-0.073,0.026-0.12
		s0.008-0.096,0.012-0.143c0.004-0.049,0.006-0.088,0.006-0.119c0-0.27-0.087-0.519-0.259-0.748
		C191.006,55.723,190.756,55.539,190.433,55.398z M187.796,56.713c0.01-0.058,0.007-0.113,0.022-0.172
		c0.045-0.174,0.122-0.334,0.229-0.479c0.109-0.147,0.257-0.266,0.444-0.354c0.187-0.088,0.422-0.133,0.707-0.133
		c0.294,0,0.527,0.047,0.705,0.141c0.176,0.093,0.304,0.225,0.383,0.395s0.118,0.371,0.118,0.602H187.796z M201.662,58.562
		c-0.04-0.036-0.072-0.075-0.095-0.116l-2.374-4.502h-1.133l-0.588,0.848l-1.971,3.64c-0.055,0.092-0.139,0.157-0.251,0.194
		l-0.501,0.17V59.1h2.434v-0.305l-0.823-0.233l0.569-1.083h2.459l0.594,1.104l-0.813,0.213V59.1h3.148v-0.305l-0.519-0.158
		C201.748,58.621,201.702,58.598,201.662,58.562z M197.23,56.904l0.902-1.717h0.083l0.193,0.477l0.669,1.24H197.23z M205.543,55.219
		c-0.185-0.02-0.391-0.028-0.62-0.028c-0.423,0-0.791,0.057-1.102,0.17c-0.313,0.113-0.553,0.269-0.723,0.468
		c-0.17,0.197-0.254,0.425-0.254,0.68c0,0.184,0.045,0.342,0.134,0.475c0.092,0.132,0.204,0.24,0.336,0.328
		c0.131,0.086,0.259,0.154,0.378,0.207v0.038c-0.136,0.021-0.273,0.063-0.412,0.124s-0.255,0.145-0.349,0.246
		c-0.094,0.103-0.141,0.229-0.141,0.377c0,0.128,0.042,0.236,0.123,0.326c0.083,0.09,0.184,0.162,0.304,0.219
		c0.119,0.057,0.235,0.099,0.349,0.125v0.045c-0.284,0.053-0.535,0.15-0.749,0.293c-0.215,0.143-0.321,0.334-0.321,0.575
		c0,0.206,0.101,0.38,0.302,0.524c0.203,0.143,0.479,0.254,0.829,0.327c0.35,0.074,0.745,0.112,1.185,0.112
		c0.514,0,0.979-0.063,1.395-0.186c0.417-0.121,0.748-0.292,0.994-0.51c0.245-0.217,0.368-0.465,0.368-0.746
		c0-0.154-0.057-0.305-0.167-0.452c-0.112-0.147-0.298-0.271-0.558-0.368s-0.612-0.146-1.059-0.146h-1.812
		c-0.101-0.021-0.19-0.07-0.27-0.146s-0.119-0.157-0.119-0.248c0-0.103,0.038-0.19,0.112-0.259s0.15-0.111,0.232-0.131
		c0.084,0.026,0.214,0.053,0.393,0.078c0.178,0.025,0.363,0.039,0.558,0.039c0.661,0,1.175-0.119,1.54-0.359
		c0.363-0.24,0.548-0.539,0.548-0.898c0-0.188-0.041-0.34-0.121-0.455c-0.083-0.117-0.188-0.232-0.32-0.352V55.68l1.24,0.057
		l0.029-0.447h-1.716C205.906,55.262,205.728,55.238,205.543,55.219z M203.646,59.234c0.129-0.106,0.261-0.172,0.39-0.198h1.676
		c0.365,0,0.628,0.063,0.788,0.192c0.159,0.129,0.239,0.26,0.239,0.392c0,0.2-0.085,0.362-0.254,0.483
		c-0.17,0.121-0.386,0.209-0.645,0.262c-0.26,0.053-0.529,0.08-0.807,0.08c-0.143,0-0.304-0.012-0.484-0.035
		c-0.182-0.023-0.356-0.063-0.523-0.119c-0.168-0.055-0.306-0.133-0.414-0.232c-0.108-0.098-0.163-0.223-0.163-0.371
		C203.449,59.492,203.516,59.34,203.646,59.234z M205.851,57.012c-0.086,0.146-0.209,0.255-0.37,0.328
		c-0.162,0.074-0.359,0.109-0.592,0.109c-0.304,0-0.551-0.08-0.738-0.242c-0.188-0.162-0.284-0.408-0.284-0.738
		c0-0.227,0.048-0.409,0.144-0.547c0.095-0.139,0.22-0.239,0.375-0.303c0.154-0.064,0.325-0.096,0.508-0.096
		c0.326,0,0.59,0.078,0.788,0.234c0.198,0.154,0.298,0.391,0.298,0.707C205.979,56.684,205.937,56.867,205.851,57.012z
		 M212.141,55.398c-0.323-0.139-0.716-0.208-1.174-0.208c-0.497,0-0.935,0.09-1.311,0.269c-0.376,0.18-0.671,0.422-0.882,0.729
		c-0.211,0.305-0.317,0.648-0.317,1.027c0,0.426,0.11,0.785,0.329,1.078c0.22,0.292,0.519,0.514,0.896,0.663s0.801,0.226,1.27,0.226
		c0.442,0,0.854-0.064,1.24-0.191c0.385-0.128,0.696-0.264,0.939-0.408v-0.406h-0.135c-0.11,0.061-0.251,0.129-0.422,0.201
		c-0.173,0.074-0.366,0.137-0.583,0.189c-0.215,0.053-0.448,0.08-0.696,0.08c-0.452,0-0.813-0.07-1.08-0.211
		s-0.461-0.33-0.579-0.572c-0.114-0.232-0.17-0.494-0.174-0.782h3.639c0.015-0.032,0.023-0.073,0.028-0.12s0.009-0.096,0.012-0.143
		c0.004-0.049,0.005-0.088,0.005-0.119c0-0.27-0.087-0.519-0.259-0.748C212.715,55.723,212.466,55.539,212.141,55.398z
		 M209.506,56.713c0.01-0.058,0.008-0.113,0.022-0.172c0.045-0.174,0.121-0.334,0.229-0.479c0.108-0.147,0.257-0.266,0.443-0.354
		c0.188-0.088,0.423-0.133,0.708-0.133c0.293,0,0.528,0.047,0.704,0.141c0.177,0.093,0.304,0.225,0.383,0.395
		s0.118,0.371,0.118,0.602H209.506z M219.149,58.639c-0.037-0.027-0.057-0.07-0.057-0.127v-2.037c0-0.301-0.074-0.547-0.225-0.735
		c-0.151-0.188-0.353-0.327-0.604-0.417c-0.252-0.088-0.531-0.132-0.839-0.132c-0.183,0-0.368,0.015-0.556,0.044
		c-0.188,0.029-0.378,0.09-0.567,0.18c-0.19,0.089-0.383,0.227-0.576,0.41h-0.063v-0.605l-1.656,0.195v0.25l0.566,0.174
		c0.064,0.02,0.116,0.043,0.155,0.069c0.039,0.027,0.058,0.067,0.058,0.118v2.5c0,0.051-0.018,0.088-0.053,0.115
		s-0.083,0.047-0.141,0.059l-0.592,0.143V59.1h2.398v-0.258l-0.45-0.143c-0.052-0.012-0.098-0.031-0.138-0.059
		c-0.041-0.027-0.061-0.064-0.061-0.115v-2.432c0.154-0.143,0.35-0.238,0.584-0.289c0.233-0.051,0.455-0.076,0.666-0.076
		c0.319,0,0.56,0.041,0.721,0.125c0.162,0.082,0.27,0.201,0.325,0.358c0.055,0.157,0.082,0.347,0.082,0.568v1.731
		c0,0.057-0.02,0.098-0.058,0.125c-0.039,0.025-0.088,0.047-0.146,0.063l-0.494,0.143V59.1h2.379v-0.258l-0.523-0.143
		C219.232,58.688,219.187,58.668,219.149,58.639z M224.42,58.361c-0.155,0.076-0.33,0.143-0.521,0.198
		c-0.192,0.056-0.398,0.083-0.618,0.083c-0.555,0-0.979-0.135-1.269-0.406c-0.292-0.27-0.437-0.646-0.437-1.131
		c0-0.242,0.023-0.441,0.07-0.594c0.047-0.154,0.105-0.276,0.177-0.367c0.071-0.09,0.143-0.166,0.213-0.225
		c0.087-0.07,0.208-0.129,0.363-0.172c0.156-0.043,0.291-0.065,0.407-0.065c0.262,0,0.49,0.028,0.686,0.083
		c0.195,0.057,0.376,0.123,0.543,0.203c0.166,0.081,0.335,0.158,0.507,0.23h0.216l0.035-0.715c-0.081-0.028-0.188-0.064-0.322-0.111
		s-0.297-0.087-0.487-0.123c-0.189-0.035-0.413-0.053-0.668-0.053c-0.358,0-0.703,0.051-1.034,0.15
		c-0.331,0.101-0.629,0.242-0.891,0.427c-0.26,0.185-0.468,0.401-0.621,0.651c-0.154,0.25-0.229,0.525-0.229,0.825
		c0,0.374,0.098,0.705,0.292,0.995c0.196,0.291,0.473,0.52,0.831,0.686c0.359,0.166,0.785,0.25,1.279,0.25
		c0.442,0,0.832-0.068,1.167-0.204c0.337-0.136,0.622-0.275,0.857-0.42v-0.403h-0.145C224.709,58.216,224.575,58.285,224.42,58.361z
		 M228.98,55.545l0.659,0.279l-1.202,2.322h-0.082l-0.232-0.441l-1.206-1.987l0.716-0.173v-0.256h-2.306v0.256l0.379,0.127
		c0.059,0.02,0.108,0.039,0.152,0.063c0.043,0.021,0.077,0.056,0.104,0.101l1.651,2.747L227.954,59
		c-0.11,0.218-0.205,0.396-0.283,0.535c-0.08,0.139-0.154,0.25-0.224,0.333s-0.146,0.147-0.229,0.194
		c-0.081,0.045-0.171,0.076-0.27,0.092c-0.098,0.018-0.224,0.025-0.371,0.025c-0.035,0-0.085-0.005-0.149-0.014
		c-0.064-0.01-0.136-0.023-0.211-0.039c-0.076-0.018-0.148-0.035-0.217-0.054c-0.066-0.019-0.122-0.036-0.163-0.054h-0.229
		l-0.034,0.73c0.059,0.016,0.141,0.032,0.247,0.047c0.106,0.016,0.214,0.028,0.319,0.037c0.107,0.01,0.191,0.016,0.253,0.016
		c0.248,0,0.483-0.031,0.707-0.093s0.433-0.173,0.628-0.337c0.195-0.162,0.371-0.396,0.53-0.701l1.981-3.792
		c0.02-0.04,0.055-0.072,0.106-0.097c0.052-0.025,0.1-0.049,0.146-0.072l0.432-0.213v-0.256h-1.943V55.545z M73.097,24.15
		c0-5.895,0.112-18.761,0.449-20.472c-5.953,1.268-11.794,2.535-15.838,3.296l0.112,0.126c3.932,0.316,5.28,0.443,6.403,1.141
		c1.572,0.887,1.685,2.345,1.685,15.908c0,10.521-0.123,16.493-0.823,20c-2.458-3.189-6.066-8.494-12.195-17.637
		C39.566,6.659,38.651,5.033,38.244,3.678H25.632v0.136c2.339,0.813,4.373,1.762,6.204,3.184
		c-1.424,2.304-4.679,7.251-12.918,19.516C4.984,47.451,3.865,48.535,0,49.619v0.137h17.291v-0.137
		c-1.83-0.541-3.153-1.15-3.153-3.049c0-2.507,2.238-7.25,8.544-17.007c3.763-0.068,8.035-0.068,13.019-0.068
		c4.374,0,8.239,0,11.799,0.068c6.612,10.164,9.052,14.839,9.052,17.279c0,1.693-1.22,2.168-3.152,2.777v0.137h26.1v-0.127
		C73.659,48.361,73.097,46.713,73.097,24.15z M35.701,26.378c-4.068,0-7.73,0-10.985-0.068c0.102-0.068,0.203-0.203,0.305-0.339
		c4.882-7.25,7.934-11.925,10.069-15.585c2.95,4.336,5.391,8.741,10.07,15.585c0,0.136,0.102,0.271,0.204,0.407H35.701z
		 M89.496,7.648c3.482,0,6.065-1.298,6.065-3.677c0-2.307-2.471-3.821-5.728-3.821c-3.482,0-5.954,1.369-5.954,3.821
		C83.879,6.35,86.126,7.648,89.496,7.648z M93.989,30.649v-2.596c0-5.84,0.112-14.42,0.449-16.799
		c-4.269,1.297-11.793,2.74-15.5,3.532v0.145c3.931,0.432,5.279,0.649,6.29,1.514c1.46,1.082,1.573,2.668,1.573,13.483
		c0,16.295-0.562,18.314-6.178,19.684v0.145h19.544v-0.145C94.663,48.313,93.989,46.871,93.989,30.649z M115.753,46.83
		c-6.909,0-9.575-4.361-9.575-11.771c0-9.262,3.768-12.729,10.275-12.729c3.304,0,4.706,0.538,7.208,1.614h0.201l-1.903-4.899
		c-1.401-0.24-2.903-0.359-4.905-0.359c-10.512,0-19.021,6.036-19.021,17.33c0,9.202,5.906,14.462,16.018,14.462
		c4.305,0,7.909-0.836,9.611-1.494l0.4-5.557h-0.199C121.358,45.936,118.956,46.83,115.753,46.83z M264.945,47.385h-124.95
		c-5.705-1.627-8.225-3.27-8.225-11.564c0-1.594,0.099-3.049,0.295-4.434l23.1,0.139c0.097-1.247,0.195-2.633,0.195-3.672
		c0-5.889-4.502-9.492-11.942-9.492c-11.158,0-18.304,6.998-18.304,18.708c0,10.987,4.521,14.041,14.312,14.869l0.001-0.022
		c0.084,0.007,0.165,0.022,0.249,0.022h94.788v5.121h2.275v-5.121h8.536v3.414h2.277v-3.414h9.675v2.846h-2.277v2.275h4.553v-5.121
		h5.44c1.395,0,2.527-1.02,2.527-2.277C267.473,48.404,266.34,47.385,264.945,47.385z M142.441,21.617
		c4.601,0,7.047,2.287,7.341,6.582l-16.934,0.138C134.512,23.973,137.742,21.617,142.441,21.617z"/>
</g>
</svg>
