<?xml version="1.0" encoding="utf-8"?>
<!-- Generator: Adobe Illustrator 16.0.3, SVG Export Plug-In . SVG Version: 6.00 Build 0)  -->
<!DOCTYPE svg PUBLIC "-//W3C//DTD SVG 1.1//EN" "http://www.w3.org/Graphics/SVG/1.1/DTD/svg11.dtd">
<svg version="1.1" id="レイヤー_1" xmlns="http://www.w3.org/2000/svg" xmlns:xlink="http://www.w3.org/1999/xlink" x="0px"
	 y="0px" width="887px" height="283px" viewBox="0 0 887 283" enable-background="new 0 0 887 283" xml:space="preserve">
<g>
	<path fill="#E7E4E1" d="M67.471,0.188c21.126,0,38.091,6.938,50.892,20.815c11.101,12.064,16.652,27.103,16.652,45.114
		c0,20.675-7.166,37.383-21.495,50.127c-12.404,11.045-27.754,16.567-46.049,16.567c-20.957,0-37.864-7.107-50.722-21.325
		C5.705,99.252,0.182,84.244,0.182,66.458c0-20.561,7.137-37.155,21.41-49.787C33.997,5.683,49.29,0.188,67.471,0.188z
		 M67.471,6.135c-13.708,0-24.554,6.231-32.54,18.691C27.908,35.646,24.396,49.41,24.396,66.118
		c0,19.599,4.474,34.976,13.424,46.134c7.702,9.63,17.587,14.443,29.651,14.443c13.934,0,24.894-6.202,32.88-18.606
		c6.967-10.817,10.45-24.609,10.45-41.376c0-19.597-4.532-35.004-13.594-46.219C89.391,10.922,79.479,6.135,67.471,6.135z"/>
	<path fill="#E7E4E1" d="M168.86,21.768h-2.464l0.85,76.21c0.226,11.499,1.444,18.861,3.653,22.09
		c1.925,2.719,6.287,4.532,13.084,5.438c1.02,0.114,1.529,0.85,1.529,2.209c0,1.416-0.595,2.124-1.784,2.124
		c-6.627-0.34-13.396-0.51-20.306-0.51c-7.591,0-14.558,0.17-20.9,0.51c-1.02,0-1.529-0.65-1.529-1.954
		c0-1.359,0.453-2.095,1.359-2.209c6.287-0.905,10.309-2.774,12.064-5.607c2.719-3.738,4.163-11.101,4.333-22.09l0.85-63.296
		c0-1.415,0-2.464,0-3.144c0-9.346-0.935-15.378-2.804-18.097c-1.926-2.774-6.797-4.588-14.613-5.438
		c-1.02-0.112-1.529-0.962-1.529-2.549c0-1.642,0.51-2.464,1.529-2.464c1.415,0.057,3.539,0.114,6.372,0.17
		c5.663,0.227,9.629,0.34,11.895,0.34c8.496,0,15.576-0.056,21.24-0.17c2.152,4.022,6.627,11.159,13.424,21.41l39.847,59.303
		c6.91,10.479,11.668,17.984,14.273,22.515V86.678l-0.34-51.996c0-9.911-1.389-17.048-4.163-21.41
		c-1.586-2.774-5.692-4.53-12.319-5.268c-1.416-0.112-2.124-0.905-2.124-2.379c0-1.755,0.51-2.634,1.529-2.634
		c7.307,0.454,14.047,0.68,20.221,0.68c7.192,0,13.877-0.226,20.051-0.68c1.02,0,1.529,0.822,1.529,2.464
		c0,1.474-0.51,2.267-1.529,2.379c-6.004,0.85-9.8,2.663-11.385,5.438c-2.605,3.796-3.993,10.933-4.163,21.41l-1.02,63.126
		c0,4.078,0,6.996,0,8.751c0,5.268,0.113,11.979,0.34,20.136c-7.646,4.078-11.895,6.117-12.744,6.117
		c-0.624,0-1.134-0.283-1.529-0.85c-6.174-9.855-12.744-20.021-19.711-30.501L168.86,21.768z"/>
	<path fill="#E7E4E1" d="M381.112,129.838c-15.293-0.396-30.53-0.595-45.709-0.595c-16.199,0-32.06,0.199-47.578,0.595
		c-1.02,0-1.529-0.708-1.529-2.124c0-1.359,0.51-2.095,1.529-2.209c4.134-0.453,6.768-0.877,7.901-1.274
		c1.585-0.622,2.774-1.728,3.568-3.313c1.529-2.719,2.294-10.421,2.294-23.109V34.682c0-8.836-0.142-14.443-0.425-16.822
		c-0.227-2.209-0.794-4.219-1.699-6.032c-0.794-1.529-2.351-2.576-4.673-3.144c-1.134-0.282-3.823-0.622-8.071-1.02
		c-1.02-0.112-1.529-0.85-1.529-2.209c0-1.642,0.51-2.464,1.529-2.464c13.707,0.454,29.112,0.68,46.219,0.68
		c16.256,0,31.151-0.226,44.689-0.68c0.85,10.932,1.954,20.787,3.313,29.566c0,0.17,0,0.313,0,0.425c0,0.85-0.651,1.389-1.954,1.614
		c-0.284,0.057-0.566,0.085-0.85,0.085c-1.134,0-1.841-0.425-2.124-1.274c-3.003-7.986-6.938-13.934-11.81-17.842
		c-4.645-4.191-13.339-6.287-26.083-6.287c-7.591,0-12.206,1.444-13.849,4.333c-1.189,2.039-1.784,6.797-1.784,14.273v6.797v25.403
		c1.869,0.114,5.126,0.17,9.771,0.17c11.328,0,18.635-1.274,21.92-3.823c3.284-2.435,5.551-6.399,6.797-11.895
		c0.17-1.02,1.02-1.529,2.549-1.529c1.415,0,2.124,0.567,2.124,1.699c-0.227,8.101-0.34,14.218-0.34,18.352
		c0,5.382,0.113,12.094,0.34,20.136c0,1.304-0.709,1.954-2.124,1.954c-1.359,0-2.209-0.565-2.549-1.699
		c-1.529-6.399-3.853-10.761-6.967-13.084c-4.418-2.774-11.669-4.163-21.75-4.163c-4.645,0-7.901,0.029-9.771,0.085v31.521
		c0,11.555,0.82,18.578,2.464,21.07c1.303,2.209,3.653,3.683,7.052,4.418c2.095,0.396,5.323,0.595,9.686,0.595
		c13.31,0,23.279-2.774,29.906-8.326c4.531-3.738,9.176-9.628,13.934-17.672c0.453-0.962,1.02-1.444,1.699-1.444
		c0.283,0,0.65,0.057,1.104,0.17c1.359,0.454,2.039,1.02,2.039,1.699c0,0.114-0.029,0.369-0.085,0.765
		C387.964,110.072,384.906,120.323,381.112,129.838z"/>
	<path fill="#E7E4E1" d="M525.801,0.188c21.125,0,38.09,6.938,50.891,20.815c11.102,12.064,16.652,27.103,16.652,45.114
		c0,20.675-7.166,37.383-21.494,50.127c-12.404,11.045-27.754,16.567-46.049,16.567c-20.957,0-37.865-7.107-50.723-21.325
		c-11.045-12.234-16.566-27.243-16.566-45.029c0-20.561,7.137-37.155,21.41-49.787C492.326,5.683,507.619,0.188,525.801,0.188z
		 M525.801,6.135c-13.709,0-24.555,6.231-32.541,18.691c-7.023,10.819-10.535,24.583-10.535,41.291
		c0,19.599,4.475,34.976,13.424,46.134c7.703,9.63,17.588,14.443,29.652,14.443c13.934,0,24.893-6.202,32.879-18.606
		c6.967-10.817,10.451-24.609,10.451-41.376c0-19.597-4.533-35.004-13.594-46.219C547.721,10.922,537.809,6.135,525.801,6.135z"/>
	<path fill="#E7E4E1" d="M638.732,67.052v30.756c0,9.516,0.113,15.35,0.34,17.502c0.225,2.323,0.82,4.333,1.783,6.032
		c0.906,1.644,2.605,2.748,5.098,3.313c1.133,0.227,3.852,0.566,8.156,1.02c1.02,0.114,1.529,0.794,1.529,2.039
		c0,1.416-0.594,2.124-1.783,2.124c-8.271-0.34-16.965-0.51-26.084-0.51c-8.213,0-16.283,0.17-24.213,0.51
		c-1.02,0-1.529-0.65-1.529-1.954c0-1.303,0.453-2.039,1.359-2.209c4.531-0.453,7.334-0.85,8.41-1.189
		c1.699-0.565,2.945-1.614,3.738-3.144c1.416-2.719,2.125-10.563,2.125-23.534V34.682c0-9.176-0.115-14.783-0.34-16.822
		c-0.227-2.265-0.822-4.276-1.785-6.032c-0.793-1.529-2.463-2.576-5.012-3.144c-1.135-0.226-3.881-0.565-8.242-1.02
		c-1.02-0.112-1.529-0.85-1.529-2.209c0-1.642,0.51-2.464,1.529-2.464c20.107,0.454,35.684,0.68,46.729,0.68
		c16.596,0,31.719-0.226,45.369-0.68c0.736,9.516,1.756,19.428,3.059,29.736c0.057,0.227,0.086,0.396,0.086,0.51
		c0,0.68-0.596,1.134-1.785,1.359c-0.283,0.057-0.566,0.085-0.85,0.085c-1.02,0-1.67-0.425-1.953-1.274
		c-3.965-9.516-7.902-15.718-11.811-18.606c-5.041-3.681-14.018-5.522-26.932-5.522c-7.646,0-12.234,1.444-13.764,4.333
		c-1.135,2.209-1.699,9.233-1.699,21.07v25.913c1.869,0.114,5.125,0.17,9.77,0.17c11.611,0,19.145-1.274,22.6-3.823
		c2.719-2.151,4.871-5.976,6.457-11.47c0.283-1.303,1.076-1.954,2.379-1.954c1.529,0,2.295,0.709,2.295,2.124
		c-0.227,7.816-0.34,13.849-0.34,18.097c0,5.382,0.113,12.094,0.34,20.136c0,1.304-0.709,1.954-2.125,1.954
		c-1.359,0-2.209-0.622-2.549-1.869c-1.869-6.627-4.078-10.931-6.627-12.914c-4.645-2.774-12.121-4.163-22.43-4.163
		C643.857,66.882,640.602,66.939,638.732,67.052z"/>
	<path fill="#E7E4E1" d="M836.945,82.005c-7.816-0.453-14.443-0.68-19.881-0.68c-4.475,0-11.668,0.227-21.58,0.68l-6.627,18.267
		c-1.926,5.382-2.889,9.855-2.889,13.424c0,2.153,0.369,4.163,1.105,6.032c1.189,2.833,5.691,4.702,13.508,5.607
		c1.02,0,1.529,0.736,1.529,2.209c0,1.529-0.65,2.294-1.953,2.294c-4.248-0.226-11.471-0.34-21.666-0.34
		c-8.383,0-14.473,0.114-18.266,0.34c-1.303,0-1.955-0.765-1.955-2.294c0-1.473,0.652-2.209,1.955-2.209
		c3.512-0.565,6.91-2.379,10.195-5.438c3.342-3.284,6.881-10.053,10.619-20.306l20.9-56.414
		c5.211-14.046,9.402-26.224,12.574-36.533l13.68-6.287c1.244,0,2.01,0.539,2.293,1.614c0.85,2.605,5.664,16.682,14.443,42.226
		l19.627,56.754c3.512,10.365,6.428,16.964,8.75,19.796c1.473,1.869,3.002,3.059,4.588,3.568c1.189,0.396,3.398,0.736,6.627,1.02
		c1.529,0,2.295,0.736,2.295,2.209c0,1.529-0.766,2.294-2.295,2.294c-10.309-0.226-18.521-0.34-24.639-0.34
		c-6.004,0-14.188,0.114-24.553,0.34c-0.906,0-1.359-0.765-1.359-2.294c0-1.473,0.453-2.209,1.359-2.209
		c7.25-0.396,11.27-1.925,12.064-4.588c0.34-1.02,0.51-2.124,0.51-3.313c0-2.944-1.219-7.929-3.654-14.953L836.945,82.005z
		 M816.725,21.768l-7.816,22.43l-11.129,30.841c3.793,0.227,10.223,0.34,19.285,0.34c8.27,0,14.074-0.113,17.418-0.34
		l-10.451-30.501C822.162,39.214,819.727,31.624,816.725,21.768z"/>
	<path fill="#E7E4E1" d="M36.545,213.568v34.24c0,9.176,0.141,14.982,0.425,17.416c0.226,2.209,0.793,4.107,1.699,5.693
		c1.075,1.756,2.747,2.945,5.013,3.568c1.133,0.283,3.709,0.623,7.731,1.02c1.133,0.113,1.699,0.85,1.699,2.209
		c0,1.416-0.566,2.123-1.699,2.123c-8.326-0.34-16.652-0.51-24.979-0.51c-8.666,0-16.597,0.17-23.789,0.51
		c-1.304,0-1.954-0.707-1.954-2.123c0-1.359,0.51-2.096,1.529-2.209c4.418-0.51,7.107-0.906,8.071-1.189
		c1.813-0.623,3.114-1.756,3.908-3.398c1.415-2.549,2.124-10.252,2.124-23.109v-63.127c0-9.119-0.085-14.697-0.255-16.736
		c-0.227-2.209-0.765-4.191-1.614-5.947c-0.85-1.643-2.521-2.748-5.013-3.314c-1.134-0.225-3.823-0.564-8.071-1.02
		c-0.794-0.113-1.189-0.85-1.189-2.209c0-1.643,0.51-2.463,1.529-2.463c10.025,0.453,18.267,0.68,24.724,0.68
		c6.061,0,14.019-0.227,23.874-0.68c1.245,0,1.869,0.764,1.869,2.293c0,1.02-0.142,1.672-0.425,1.955
		c-0.284,0.227-0.821,0.369-1.614,0.424c-3.965,0.455-6.486,0.879-7.562,1.275c-1.359,0.51-2.493,1.529-3.398,3.059
		c-1.756,3.512-2.634,11.074-2.634,22.684v26.934c4.983-4.361,9.346-8.525,13.084-12.49l19.456-20.391
		c7.42-7.701,11.13-13.055,11.13-16.057c0-0.623-0.085-1.246-0.255-1.869c-0.454-1.473-3.059-2.465-7.816-2.975
		c-1.02-0.113-1.529-0.904-1.529-2.379c0-1.414,0.51-2.123,1.529-2.123c4.304,0.227,11.045,0.34,20.221,0.34
		c5.381,0,12.433-0.227,21.155-0.68c0.905,0,1.359,0.764,1.359,2.293c0,1.475-0.454,2.266-1.359,2.379
		c-4.984,0.625-10.055,2.605-15.208,5.947c-8.383,5.494-15.577,11.244-21.58,17.248L60.25,197.342
		c-2.549,2.549-4.872,4.814-6.967,6.797l41.546,51.656c6.91,8.723,12.263,14.244,16.058,16.566c2.265,1.529,6.032,2.578,11.3,3.145
		c0.793,0.113,1.189,0.85,1.189,2.209c0,1.416-0.454,2.123-1.359,2.123c-6.684-0.34-12.319-0.51-16.907-0.51
		c-8.95,0-15.152,0.057-18.606,0.17c-4.305-6.4-8.893-12.715-13.764-18.945c-3.003-3.908-7.251-9.432-12.744-16.568
		C49.005,229.598,41.189,219.461,36.545,213.568z"/>
	<path fill="#E7E4E1" d="M132.585,275.506c4.588-0.51,7.362-0.906,8.326-1.189c1.925-0.566,3.313-1.615,4.163-3.145
		c1.02-1.924,1.614-5.098,1.784-9.516c0.113-1.924,0.17-6.541,0.17-13.848v-63.127c0-9.119-0.085-14.697-0.255-16.736
		c-0.17-2.209-0.68-4.191-1.529-5.947c-0.85-1.643-2.578-2.748-5.183-3.314c-1.189-0.225-3.993-0.564-8.411-1.02
		c-0.794,0-1.189-0.793-1.189-2.379c0-1.529,0.453-2.293,1.359-2.293c1.529,0.057,6.117,0.199,13.764,0.424
		c4.871,0.17,8.694,0.256,11.47,0.256c3.284,0,7.787-0.113,13.509-0.34c5.891-0.17,9.714-0.283,11.47-0.34
		c1.02,0,1.529,0.82,1.529,2.463c0,1.305-0.51,2.039-1.529,2.209c-4.475,0.455-7.278,0.879-8.411,1.275
		c-1.926,0.566-3.313,1.586-4.163,3.059c-1.246,2.492-1.869,10.055-1.869,22.684v63.127c0,9.969,0.056,15.803,0.17,17.502
		c0.17,2.322,0.708,4.277,1.614,5.861c0.793,1.586,2.52,2.691,5.183,3.314c1.133,0.227,3.937,0.566,8.411,1.02
		c1.02,0.113,1.529,0.85,1.529,2.209c0,1.416-0.595,2.123-1.784,2.123c-1.926-0.055-4.787-0.113-8.581-0.17
		c-7.816-0.225-13.48-0.34-16.992-0.34c-0.17,0-8.298,0.17-24.384,0.51c-0.906,0-1.359-0.707-1.359-2.123
		C131.396,276.355,131.792,275.619,132.585,275.506z"/>
	<path fill="#E7E4E1" d="M223.724,171.768h-2.464l0.85,76.211c0.226,11.498,1.444,18.861,3.653,22.09
		c1.925,2.719,6.287,4.531,13.084,5.438c1.02,0.113,1.529,0.85,1.529,2.209c0,1.416-0.595,2.123-1.784,2.123
		c-6.627-0.34-13.396-0.51-20.306-0.51c-7.591,0-14.558,0.17-20.9,0.51c-1.02,0-1.529-0.65-1.529-1.953
		c0-1.359,0.453-2.096,1.359-2.209c6.287-0.906,10.309-2.775,12.064-5.607c2.719-3.738,4.163-11.102,4.333-22.09l0.85-63.297
		c0-1.414,0-2.463,0-3.143c0-9.346-0.935-15.379-2.804-18.098c-1.926-2.773-6.797-4.588-14.613-5.438
		c-1.02-0.113-1.529-0.963-1.529-2.549c0-1.643,0.51-2.463,1.529-2.463c1.415,0.057,3.539,0.113,6.372,0.17
		c5.663,0.227,9.629,0.34,11.895,0.34c8.496,0,15.576-0.057,21.24-0.17c2.152,4.021,6.627,11.158,13.424,21.41l39.847,59.303
		c6.91,10.479,11.668,17.982,14.273,22.514v-19.881l-0.34-51.996c0-9.91-1.389-17.047-4.163-21.41
		c-1.586-2.773-5.692-4.531-12.319-5.268c-1.416-0.113-2.124-0.904-2.124-2.379c0-1.754,0.51-2.633,1.529-2.633
		c7.307,0.453,14.047,0.68,20.221,0.68c7.192,0,13.877-0.227,20.051-0.68c1.02,0,1.529,0.82,1.529,2.463
		c0,1.475-0.51,2.266-1.529,2.379c-6.004,0.85-9.8,2.664-11.385,5.438c-2.605,3.795-3.993,10.932-4.163,21.41l-1.02,63.127
		c0,4.078,0,6.996,0,8.75c0,5.268,0.113,11.98,0.34,20.137c-7.646,4.078-11.895,6.117-12.744,6.117c-0.624,0-1.134-0.283-1.529-0.85
		c-6.174-9.855-12.744-20.021-19.711-30.502L223.724,171.768z"/>
	<path fill="#E7E4E1" d="M399.377,152.652c25.714,0,44.972,6.201,57.773,18.605c11.045,10.705,16.568,25.318,16.568,43.84
		c0,21.92-7.477,38.629-22.43,50.127c-13.141,10.082-30.898,15.123-53.271,15.123c-4.872,0-10.025-0.17-15.463-0.51
		c-1.359-0.055-3.285-0.113-5.777-0.17c-5.212-0.225-8.978-0.34-11.3-0.34c-7.931,0-15.604,0.17-23.024,0.51
		c-1.02,0-1.529-0.707-1.529-2.123c0-1.359,0.51-2.096,1.529-2.209c7.022-0.566,11.271-2.096,12.744-4.588
		c1.133-2.096,1.699-9.799,1.699-23.109v-63.127c0-9.176-0.114-14.783-0.34-16.822c-0.227-2.264-0.821-4.275-1.784-6.031
		c-0.794-1.529-2.464-2.578-5.013-3.145c-1.134-0.225-3.938-0.564-8.411-1.02c-0.906,0-1.359-0.734-1.359-2.209
		c0-1.643,0.453-2.463,1.359-2.463c7.872,0.34,15.831,0.51,23.874,0.51c5.041,0,10.62-0.17,16.737-0.51
		C390.172,152.766,395.979,152.652,399.377,152.652z M377.458,184.682v63.127c0,7.646,0.198,12.715,0.595,15.207
		c0.34,2.379,1.075,4.391,2.209,6.033c2.604,3.568,8.411,5.352,17.417,5.352c18.295,0,32.03-5.805,41.206-17.416
		c7.93-10.025,11.895-23.76,11.895-41.207c0-19.426-5.07-34.098-15.208-44.01c-8.893-8.666-21.127-12.998-36.703-12.998
		c-10.705,0-17.077,1.559-19.116,4.672c-1.189,1.645-1.898,4.305-2.124,7.986C377.513,173.184,377.458,177.602,377.458,184.682z"/>
</g>
</svg>
