<?xml version="1.0" encoding="utf-8"?>
<!-- Generator: Adobe Illustrator 16.0.3, SVG Export Plug-In . SVG Version: 6.00 Build 0)  -->
<!DOCTYPE svg PUBLIC "-//W3C//DTD SVG 1.1//EN" "http://www.w3.org/Graphics/SVG/1.1/DTD/svg11.dtd">
<svg version="1.1" id="レイヤー_1" xmlns="http://www.w3.org/2000/svg" xmlns:xlink="http://www.w3.org/1999/xlink" x="0px"
	 y="0px" width="38px" height="50px" viewBox="0 0 38 50" enable-background="new 0 0 38 50" xml:space="preserve">
<path fill="#DDD6CF" d="M35.514,24.905c-1.328,0.157-1.99,0.382-2.986,1.378c-0.994,0.994-2.67,2.214-3.063,2.451
	c-0.383,0.229-0.994,0.612-1.301,0.305c-0.109-0.107-0.74-0.7-1.529-1.443c-0.182-0.876-0.375-1.629-0.566-2.27
	c0.41-0.221,0.707-0.479,0.893-0.778c0.221-0.352,0.275-0.755,0.166-1.197c0.547-0.083,0.885,0.253,0.885,0.253l-0.691-0.689
	c0,0,0,0,0.154-0.231c0.152-0.229,1.301-0.458,0.842-0.382c-0.27,0.045-0.59-0.12-0.813-0.266c0.779-0.271,1.664-0.691,2.191-1.111
	c0.697-0.56,1.148-1.917,1.148-1.917s-0.307,0.155-0.689-0.153c-0.383-0.307-0.303-0.466-0.459-1.684
	c-0.307-2.375-1.684-3.369-2.604-3.906c-0.77-0.45-1.848-1.141-3.092-1.009c-0.209-1.972-0.74-6.078-1.656-7.567
	c-1.227-1.991-4.363-4.289-4.748-4.67c-0.328-0.33,0.59,3.591,1.389,6.009c-2.473-1.458-7.289-3.715-7.82-3.942
	c-0.535-0.231,3.676,7.503,5.666,8.577c1.18,0.635,2.922,1.753,4.26,2.575c-1.486,1.001-1.662,2.5-1.504,3.78
	c0.098,0.77,0.672,1.723,1.324,2.556c-0.162,0.064-0.369,0.077-0.633-0.029c-0.766-0.305-1.455-0.765-1.455-0.765
	s0.229,0.92-0.078,1.072c-0.305,0.153-0.611,0.765-0.611,0.765s0.383-0.151,0.689,0.308c0.176,0.261-0.23,0.458-0.307,0.764
	c-0.076,0.306,0.766,0.46,0.766,0.46s-0.689,0.153-0.383,0.23c0.225,0.055,0.818,0.03,1.24,0.102
	c-0.721,0.294-1.42,0.619-1.986,0.946c-1.164,0.671-3.336,1.185-4.922,1.558c-0.785,0.188-1.27,0.305-1.561,0.402
	c-0.266-0.175-0.76-0.174-1.262,0.027c-0.406,0.165-0.719,0.422-0.859,0.679c-0.119-0.073-0.26-0.116-0.414-0.116
	c-0.211,0-0.4,0.08-0.531,0.211c-0.918-0.477-2.699-0.41-4.574,0.252c-2.473,0.871-4.17,2.451-3.791,3.525
	c0.381,1.074,2.693,1.237,5.166,0.363c2.133-0.752,3.688-2.031,3.828-3.059c0.291-0.035,0.525-0.223,0.6-0.469
	c0.279,0.088,0.686,0.056,1.092-0.107c0.477-0.191,0.82-0.511,0.916-0.809c0.355,0.042,0.947,0.082,1.932,0.12
	c0.428,0.015,0.898,0.029,1.389,0.041c-3.26,1.692-6.369,2.841-6.369,2.841c0.324,0.83,0.744,1.6,1.227,2.307
	c-1.158,0.102-2.07,1.12-2.07,2.363c0,1.313,1.012,2.375,2.26,2.375c0.5,0,0.959-0.172,1.332-0.461
	c0.004,0.375,0.094,0.74,0.314,1.072c1.09,1.648,2.016,2.699,1.602,3.529c-0.412,0.828-1.123,1.416-1.801,1.084
	c-0.676-0.332-1.121-0.806-1.512-0.59s-1.055,1.648-0.305,2.135c0.748,0.486,1.725,1.058,2.076,1.912
	c0.354,0.854,0.361,2.771,0.34,3.384s0.48,1.55,1.395,1.735c0.912,0.186,2.514,0.396,2.598,0.169
	c0.086-0.228,1.102-0.804,0.604-1.894c-0.496-1.092-1.893-0.604-2.391-1.695c-0.498-1.09-0.863-1.563-0.578-3.16
	c0.289-1.601,0.777-2.426,2.234-2.45c1.25-0.021,3.512-0.008,4.604-1.099c0.682,0.024,1.473-0.093,2.166,0.283
	c1.152,0.623,1.836,1.26,2.059,2.449c0.221,1.19,0.148,1.721,0.615,2.25c0.469,0.527,1.906,0.188,2.209-0.313
	c0.176-0.293,0.131-2.068,1.664-3.093c0.865-0.579,2.973-1.366,3.813-2.41c0.578-0.718,0.807-1.356,0.422-2.492
	c-0.383-1.136-1.355-1.206-2.115-0.911c-0.736,0.285-0.777,1.146-0.953,2.418c-0.189,1.365-2.014,1.607-2.873,1.767
	c-0.953,0.179-2.5,0.195-3.043-0.344c-0.432-0.428,0.621-1.04,0.875-2.345c1-0.094,1.688-0.168,1.688-0.168s0.119-4.631-0.297-7.371
	c0.459,0.385,0.779,0.656,0.832,0.711c0.232,0.229,0.613,0.613,1.15,0.152c0.535-0.46,2.68-1.607,3.674-1.99
	c0.996-0.383,2.527-0.996,3.6-0.842c0.646,0.092,1.531-0.307,1.607-1.072C37.887,25.517,36.816,24.752,35.514,24.905z M5.035,29.482
	c-2.049,0.732-3.918,0.742-4.176,0.02c-0.258-0.722,1.195-1.9,3.242-2.633c2.049-0.73,3.92-0.74,4.176-0.02
	C8.537,27.574,7.084,28.75,5.035,29.482z M18.668,23.987c-0.963,0.654-2.027,1.274-3.09,1.839c-1.732-0.037-3.08-0.1-3.719-0.168
	c-0.004-0.026-0.01-0.052-0.021-0.078c0-0.001-0.002-0.002-0.004-0.006c0.348-0.104,0.904-0.234,1.449-0.365
	c1.6-0.378,3.791-0.895,4.982-1.583c0.518-0.299,1.143-0.595,1.791-0.867C19.584,23.235,19.068,23.713,18.668,23.987z
	 M22.729,12.513c-0.049-0.156-0.105-0.325-0.166-0.505c0.121,0.159,0.236,0.313,0.348,0.457
	C22.848,12.48,22.787,12.498,22.729,12.513z M25.568,23.858c-0.018-0.076-0.031-0.151-0.047-0.226
	c0.068,0.071,0.115,0.123,0.115,0.123s-0.23-0.458,0.229-0.305c0.461,0.153,0.844,0.994,0.844,0.994s-0.268-0.801,0.197-1.03
	c0.09,0.375,0.043,0.716-0.141,1.013c-0.156,0.25-0.416,0.475-0.768,0.669C25.848,24.617,25.703,24.206,25.568,23.858z
	 M6.254,27.164l-2.115,0.801l2.162-0.518l0.658,0.047l0.516-0.705l-0.891,0.047L6.254,27.164z M2.525,29.062l-0.219,0.595
	l0.641-0.295l0.109-0.299l1.082-1.098L2.947,28.9L2.525,29.062z"/>
</svg>
