<?xml version="1.0" encoding="utf-8"?>
<!-- Generator: Adobe Illustrator 16.0.3, SVG Export Plug-In . SVG Version: 6.00 Build 0)  -->
<!DOCTYPE svg PUBLIC "-//W3C//DTD SVG 1.1//EN" "http://www.w3.org/Graphics/SVG/1.1/DTD/svg11.dtd">
<svg version="1.1" id="レイヤー_1" xmlns="http://www.w3.org/2000/svg" xmlns:xlink="http://www.w3.org/1999/xlink" x="0px"
	 y="0px" width="286px" height="380px" viewBox="0 0 286 380" enable-background="new 0 0 286 380" xml:space="preserve">
<path fill="#E7E4E1" d="M268.501,189.275c-10.094,1.196-15.128,2.912-22.694,10.482c-7.567,7.553-20.286,16.823-23.28,18.62
	c-2.91,1.738-7.566,4.66-9.892,2.317c-0.819-0.81-5.62-5.319-11.615-10.97c-1.376-6.652-2.857-12.377-4.313-17.25
	c3.112-1.676,5.381-3.637,6.796-5.914c1.665-2.679,2.086-5.738,1.257-9.094c4.151-0.636,6.712,1.92,6.712,1.92l-5.24-5.235
	c0,0,0,0,1.168-1.756c1.162-1.741,9.887-3.481,6.398-2.904c-2.045,0.338-4.486-0.915-6.164-2.02
	c5.908-2.063,12.642-5.254,16.641-8.445c5.299-4.255,8.729-14.563,8.729-14.563s-2.325,1.17-5.241-1.162
	c-2.906-2.336-2.292-3.549-3.488-12.801c-2.329-18.044-12.803-25.605-19.787-29.681c-5.855-3.421-14.044-8.674-23.49-7.669
	c-1.592-14.983-5.623-46.189-12.592-57.51c-9.311-15.133-33.168-32.591-36.079-35.494c-2.507-2.506,4.471,27.295,10.543,45.67
	c-18.781-11.075-55.392-28.236-59.429-29.96c-4.073-1.757,27.936,57.024,43.063,65.181c8.96,4.824,22.212,13.325,32.373,19.569
	c-11.303,7.61-12.634,19.008-11.423,28.73c0.735,5.854,5.101,13.098,10.05,19.422c-1.222,0.486-2.805,0.585-4.813-0.223
	c-5.813-2.316-11.054-5.814-11.054-5.814s1.744,6.993-0.586,8.149c-2.324,1.162-4.651,5.813-4.651,5.813s2.907-1.155,5.237,2.341
	c1.332,1.979-1.744,3.48-2.33,5.806c-0.58,2.325,5.823,3.496,5.823,3.496s-5.237,1.163-2.912,1.749
	c1.707,0.42,6.217,0.23,9.429,0.774c-5.476,2.236-10.786,4.701-15.099,7.191c-8.836,5.104-25.35,9.005-37.406,11.843
	c-5.966,1.418-9.648,2.309-11.854,3.051c-2.016-1.329-5.78-1.321-9.59,0.215c-3.092,1.244-5.464,3.206-6.536,5.153
	c-0.895-0.552-1.975-0.883-3.142-0.883c-1.599,0-3.035,0.61-4.041,1.601c-6.973-3.622-20.513-3.117-34.763,1.913
	c-18.786,6.629-31.683,18.638-28.801,26.802c2.882,8.155,20.456,9.401,39.241,2.761c16.221-5.722,28.038-15.444,29.114-23.254
	c2.202-0.266,3.975-1.684,4.553-3.563c2.127,0.677,5.203,0.43,8.299-0.816c3.608-1.453,6.234-3.875,6.952-6.137
	c2.709,0.314,7.199,0.619,14.683,0.908c3.253,0.116,6.82,0.223,10.552,0.314c-24.765,12.864-48.407,21.588-48.407,21.588
	c2.466,6.309,5.653,12.154,9.322,17.532c-8.807,0.774-15.726,8.511-15.726,17.961c0,9.971,7.689,18.043,17.168,18.043
	c3.794,0,7.29-1.304,10.127-3.496c0.02,2.846,0.708,5.624,2.387,8.147c8.288,12.525,15.314,20.517,12.176,26.817
	c-3.133,6.301-8.535,10.762-13.685,8.238c-5.15-2.516-8.519-6.118-11.491-4.478c-2.969,1.643-8.012,12.525-2.321,16.221
	c5.689,3.694,13.107,8.041,15.783,14.538c2.684,6.491,2.746,21.063,2.585,25.714c-0.169,4.65,3.649,11.775,10.593,13.186
	c6.935,1.41,19.107,3.011,19.75,1.286c0.644-1.724,8.371-6.11,4.589-14.39c-3.781-8.296-14.394-4.585-18.175-12.882
	c-3.785-8.288-6.565-11.883-4.388-24.022c2.181-12.162,5.9-18.431,16.971-18.619c9.492-0.158,26.686-0.057,34.99-8.354
	c5.176,0.19,11.183-0.7,16.465,2.152c8.745,4.742,13.948,9.574,15.635,18.621c1.683,9.047,1.126,13.07,4.68,17.103
	c3.559,4.008,14.489,1.418,16.782-2.375c1.344-2.234,1.002-15.727,12.654-23.51c6.581-4.396,22.587-10.383,28.974-18.314
	c4.395-5.46,6.127-10.31,3.216-18.943c-2.919-8.627-10.313-9.161-16.08-6.927c-5.591,2.167-5.913,8.716-7.249,18.381
	c-1.438,10.374-15.31,12.212-21.836,13.427c-7.236,1.351-19.005,1.484-23.132-2.615c-3.282-3.248,4.721-7.909,6.659-17.822
	c7.586-0.708,12.823-1.27,12.823-1.27s0.907-35.203-2.269-56.027c3.51,2.929,5.934,4.99,6.342,5.403
	c1.748,1.749,4.655,4.659,8.729,1.162c4.073-3.495,20.368-12.214,27.935-15.123c7.566-2.912,19.201-7.57,27.35-6.4
	c4.923,0.7,11.64-2.335,12.221-8.146C286.54,193.927,278.396,188.113,268.501,189.275z M36.861,224.067
	c-15.569,5.566-29.778,5.641-31.737,0.148c-1.955-5.482,9.08-14.438,24.645-20.005c15.574-5.559,29.782-5.626,31.741-0.148
	C63.472,209.563,52.434,218.501,36.861,224.067z M140.474,182.299c-7.328,4.973-15.417,9.688-23.487,13.979
	c-13.169-0.282-23.412-0.759-28.261-1.278c-0.037-0.199-0.086-0.396-0.165-0.594c-0.008-0.009-0.016-0.016-0.024-0.043
	c2.639-0.789,6.861-1.781,11.009-2.769c12.16-2.88,28.813-6.806,37.873-12.032c3.925-2.267,8.679-4.519,13.611-6.589
	C147.442,176.584,143.521,180.221,140.474,182.299z M171.319,95.1c-0.366-1.181-0.783-2.467-1.24-3.835
	c0.916,1.204,1.793,2.375,2.635,3.471C172.235,94.852,171.774,94.982,171.319,95.1z M192.909,181.327
	c-0.119-0.578-0.239-1.148-0.358-1.717c0.527,0.536,0.878,0.933,0.878,0.933s-1.744-3.48,1.744-2.317
	c3.496,1.162,6.403,7.555,6.403,7.555s-2.028-6.086,1.501-7.835c0.693,2.853,0.338,5.442-1.063,7.702
	c-1.183,1.904-3.171,3.611-5.839,5.088C195.042,187.089,193.937,183.964,192.909,181.327z M46.125,206.452l-16.076,6.079
	l16.431-3.934l5.001,0.363l3.925-5.361l-6.782,0.354L46.125,206.452z M17.787,220.868l-1.67,4.518l4.874-2.241l0.829-2.269
	l8.23-8.345l-9.059,7.117L17.787,220.868z"/>
</svg>
