<?xml version="1.0" encoding="utf-8"?>
<!-- Generator: Adobe Illustrator 16.0.3, SVG Export Plug-In . SVG Version: 6.00 Build 0)  -->
<!DOCTYPE svg PUBLIC "-//W3C//DTD SVG 1.1//EN" "http://www.w3.org/Graphics/SVG/1.1/DTD/svg11.dtd">
<svg version="1.1" id="レイヤー_1" xmlns="http://www.w3.org/2000/svg" xmlns:xlink="http://www.w3.org/1999/xlink" x="0px"
	 y="0px" width="474px" height="300px" viewBox="0 0 474 300" enable-background="new 0 0 474 300" xml:space="preserve">
<g>
	<path fill="#E7E4E1" d="M397.694,253.568c0.153,1.528,1.921,2.327,3.216,2.144c2.146-0.308,5.207,0.918,7.197,1.685
		c1.992,0.765,6.279,3.06,7.353,3.979c1.07,0.92,1.837,0.154,2.296-0.306c0.107-0.109,0.746-0.651,1.67-1.423
		c-0.836,5.48-0.598,14.744-0.598,14.744s1.379,0.148,3.375,0.334c0.509,2.609,2.615,3.836,1.753,4.69
		c-1.089,1.079-4.184,1.044-6.089,0.688c-1.718-0.32-5.365-0.804-5.746-3.533c-0.352-2.544-0.436-4.268-1.908-4.837
		c-1.516-0.588-3.463-0.448-4.23,1.822c-0.766,2.272-0.31,3.549,0.846,4.985c1.682,2.087,5.893,3.662,7.626,4.819
		c3.066,2.048,2.975,5.6,3.329,6.187c0.602,0.998,3.48,1.68,4.416,0.625c0.937-1.061,0.79-2.12,1.232-4.5
		c0.443-2.381,1.813-3.652,4.113-4.9c1.392-0.751,2.972-0.517,4.334-0.566c2.186,2.184,6.709,2.156,9.207,2.198
		c2.914,0.049,3.892,1.699,4.467,4.899c0.572,3.195-0.158,4.141-1.154,6.321c-0.996,2.185-3.789,1.208-4.783,3.391
		c-0.996,2.18,1.038,3.333,1.207,3.787c0.17,0.453,3.373,0.033,5.197-0.338c1.828-0.371,2.832-2.246,2.788-3.471
		c-0.042-1.224-0.026-5.059,0.681-6.768c0.703-1.709,2.656-2.853,4.153-3.824c1.497-0.974,0.171-3.837-0.61-4.27
		c-0.783-0.432-1.67,0.516-3.025,1.179c-1.355,0.664-2.775-0.51-3.601-2.168c-0.825-1.659,1.023-3.762,3.205-7.058
		c0.44-0.664,0.62-1.395,0.628-2.144c0.744,0.576,1.667,0.92,2.664,0.92c2.495,0,4.518-2.124,4.518-4.748
		c0-2.487-1.82-4.523-4.137-4.727c0.967-1.416,1.804-2.954,2.453-4.614c0,0-6.223-2.295-12.74-5.681
		c0.982-0.024,1.922-0.052,2.777-0.083c1.97-0.076,3.151-0.156,3.863-0.239c0.189,0.596,0.881,1.232,1.83,1.615
		c0.815,0.328,1.625,0.394,2.184,0.215c0.152,0.494,0.619,0.867,1.199,0.938c0.283,2.056,3.394,4.614,7.66,6.119
		c4.945,1.748,9.569,1.42,10.328-0.726c0.758-2.148-2.636-5.31-7.58-7.054c-3.75-1.323-7.313-1.457-9.147-0.503
		c-0.265-0.261-0.643-0.422-1.065-0.422c-0.305,0-0.59,0.088-0.824,0.232c-0.283-0.513-0.906-1.028-1.719-1.355
		c-1.004-0.405-1.995-0.407-2.525-0.057c-0.58-0.195-1.549-0.43-3.119-0.803c-3.174-0.747-7.52-1.774-9.844-3.117
		c-1.137-0.655-2.535-1.304-3.975-1.893c0.845-0.144,2.033-0.093,2.482-0.203c0.611-0.155-0.767-0.461-0.767-0.461
		s1.685-0.308,1.531-0.92c-0.153-0.611-0.962-1.007-0.611-1.528c0.611-0.919,1.378-0.615,1.378-0.615s-0.613-1.224-1.226-1.529
		c-0.611-0.305-0.152-2.146-0.152-2.146s-1.382,0.921-2.909,1.53c-0.528,0.213-0.945,0.187-1.268,0.059
		c1.302-1.664,2.451-3.569,2.645-5.111c0.318-2.559-0.031-5.558-3.006-7.56c2.674-1.645,6.162-3.881,8.518-5.15
		c3.982-2.146,12.407-17.615,11.334-17.153c-1.063,0.454-10.695,4.97-15.64,7.884c1.599-4.835,3.435-12.677,2.776-12.018
		c-0.768,0.764-7.045,5.357-9.496,9.341c-1.833,2.979-2.895,11.191-3.313,15.134c-2.488-0.264-4.641,1.118-6.182,2.018
		c-1.838,1.073-4.595,3.063-5.207,7.812c-0.316,2.435-0.154,2.754-0.918,3.369c-0.768,0.613-1.381,0.306-1.381,0.306
		s0.904,2.712,2.299,3.831c1.051,0.84,2.824,1.68,4.379,2.224c-0.441,0.29-1.084,0.62-1.623,0.53
		c-0.918-0.151,1.379,0.307,1.684,0.766c0.309,0.462,0.309,0.462,0.309,0.462l-1.379,1.377c0,0,0.674-0.672,1.766-0.505
		c-0.218,0.883-0.106,1.688,0.331,2.393c0.372,0.6,0.97,1.115,1.788,1.557c-0.385,1.282-0.772,2.789-1.137,4.539
		c-1.576,1.487-2.839,2.674-3.056,2.888c-0.61,0.616-1.836-0.153-2.603-0.61c-0.787-0.473-4.135-2.912-6.126-4.899
		c-1.991-1.992-3.315-2.444-5.972-2.759C399.685,250.504,397.541,252.033,397.694,253.568z M456.76,254.701
		c0.518-1.442,4.254-1.424,8.354,0.039c4.097,1.465,7,3.821,6.484,5.264c-0.514,1.445-4.253,1.426-8.352-0.039
		C459.146,258.5,456.244,256.148,456.76,254.701z M433.202,246.52c1.298,0.545,2.55,1.138,3.581,1.733
		c2.385,1.375,6.768,2.408,9.967,3.167c1.094,0.259,2.201,0.521,2.896,0.728c-0.001,0.008-0.004,0.01-0.006,0.012
		c-0.02,0.052-0.034,0.104-0.044,0.156c-1.274,0.137-3.97,0.262-7.437,0.337c-2.125-1.13-4.253-2.37-6.18-3.679
		C435.178,248.427,434.146,247.47,433.202,246.52z M427.496,225.93c0.221-0.288,0.451-0.596,0.693-0.913
		c-0.121,0.36-0.229,0.698-0.326,1.01C427.743,225.995,427.621,225.961,427.496,225.93z M421.322,251.193
		c-0.703-0.389-1.226-0.838-1.536-1.339c-0.37-0.595-0.463-1.276-0.28-2.026c0.928,0.46,0.393,2.062,0.393,2.062
		s0.768-1.683,1.688-1.988c0.918-0.307,0.459,0.61,0.459,0.61s0.091-0.104,0.232-0.246c-0.034,0.149-0.064,0.3-0.096,0.452
		C421.911,249.411,421.619,250.233,421.322,251.193z M460.15,254.672l-1.784-0.093l1.032,1.411l1.316-0.096l4.325,1.035
		l-4.232-1.601L460.15,254.672z M467.423,258.803l-2.383-1.873l2.163,2.195l0.22,0.598l1.282,0.589l-0.439-1.188L467.423,258.803z"
		/>
	<path fill="#E7E4E1" d="M236.102,206.137c0.307,3.057,3.842,4.654,6.432,4.287c4.291-0.615,10.414,1.836,14.395,3.369
		c3.984,1.529,12.559,6.119,14.705,7.959c2.141,1.84,3.674,0.309,4.592-0.611c0.215-0.219,1.492-1.303,3.34-2.846
		c-1.672,10.961-1.193,29.488-1.193,29.488s2.756,0.297,6.748,0.668c1.018,5.219,5.23,7.672,3.506,9.381
		c-2.176,2.158-8.367,2.088-12.176,1.377c-3.438-0.641-10.734-1.607-11.494-7.066c-0.703-5.088-0.871-8.535-3.814-9.674
		c-3.033-1.176-6.928-0.896-8.463,3.645c-1.531,4.545-0.619,7.098,1.691,9.971c3.363,4.174,11.787,7.324,15.252,9.639
		c6.133,4.096,5.949,11.199,6.66,12.373c1.203,1.996,6.959,3.359,8.83,1.25c1.873-2.121,1.58-4.24,2.465-9
		c0.885-4.762,3.627-7.305,8.229-9.801c2.781-1.502,5.941-1.033,8.666-1.133c4.371,4.367,13.418,4.313,18.414,4.396
		c5.828,0.098,7.783,3.398,8.934,9.799c1.145,6.391-0.316,8.281-2.309,12.643c-1.992,4.369-7.578,2.416-9.566,6.781
		c-1.99,4.359,2.076,6.666,2.414,7.574c0.34,0.906,6.746,0.066,10.395-0.676c3.656-0.742,5.664-4.492,5.576-6.941
		c-0.084-2.447-0.053-10.117,1.361-13.535c1.408-3.418,5.313-5.705,8.307-7.648c2.994-1.947,0.342-7.674-1.221-8.539
		c-1.566-0.863-3.34,1.031-6.049,2.357c-2.711,1.328-5.553-1.02-7.203-4.336c-1.65-3.318,2.047-7.523,6.41-14.115
		c0.881-1.328,1.242-2.789,1.256-4.287c1.49,1.152,3.334,1.84,5.328,1.84c4.99,0,9.037-4.248,9.037-9.496
		c0-4.975-3.643-9.047-8.275-9.453c1.932-2.832,3.607-5.908,4.906-9.229c0,0-12.445-4.59-25.479-11.361
		c1.963-0.049,3.842-0.104,5.553-0.166c3.939-0.152,6.303-0.313,7.729-0.479c0.377,1.191,1.762,2.465,3.658,3.23
		c1.631,0.656,3.25,0.787,4.369,0.43c0.303,0.988,1.236,1.734,2.396,1.875c0.566,4.111,6.787,9.229,15.322,12.238
		c9.889,3.496,19.137,2.84,20.654-1.451c1.516-4.297-5.271-10.619-15.16-14.107c-7.5-2.646-14.625-2.914-18.295-1.006
		c-0.529-0.521-1.285-0.844-2.129-0.844c-0.611,0-1.182,0.176-1.65,0.465c-0.566-1.025-1.813-2.057-3.439-2.711
		c-2.006-0.811-3.988-0.814-5.049-0.113c-1.16-0.391-3.1-0.859-6.238-1.605c-6.348-1.494-15.039-3.549-19.688-6.234
		c-2.271-1.311-5.068-2.607-7.949-3.785c1.689-0.287,4.066-0.186,4.965-0.406c1.225-0.311-1.533-0.922-1.533-0.922
		s3.369-0.615,3.063-1.84c-0.305-1.223-1.924-2.014-1.223-3.057c1.223-1.838,2.756-1.23,2.756-1.23s-1.227-2.447-2.451-3.059
		c-1.223-0.609-0.305-4.291-0.305-4.291s-2.762,1.842-5.818,3.061c-1.057,0.426-1.891,0.373-2.535,0.117
		c2.604-3.328,4.902-7.139,5.289-10.223c0.639-5.117-0.061-11.115-6.012-15.119c5.348-3.289,12.324-7.762,17.037-10.301
		c7.963-4.293,24.813-35.23,22.666-34.307c-2.125,0.908-21.393,9.939-31.279,15.768c3.197-9.67,6.869-25.354,5.551-24.035
		c-1.533,1.527-14.088,10.715-18.988,18.682c-3.668,5.957-5.791,22.383-6.627,30.268c-4.975-0.527-9.281,2.236-12.363,4.035
		c-3.676,2.146-9.189,6.127-10.414,15.623c-0.631,4.869-0.309,5.508-1.836,6.738c-1.535,1.227-2.76,0.611-2.76,0.611
		s1.807,5.424,4.596,7.662c2.104,1.68,5.648,3.359,8.758,4.447c-0.883,0.58-2.168,1.24-3.246,1.061
		c-1.836-0.303,2.758,0.613,3.369,1.531c0.615,0.924,0.615,0.924,0.615,0.924l-2.758,2.754c0,0,1.348-1.344,3.533-1.01
		c-0.438,1.766-0.215,3.377,0.66,4.785c0.746,1.199,1.939,2.23,3.578,3.113c-0.77,2.564-1.547,5.578-2.273,9.078
		c-3.154,2.975-5.68,5.348-6.113,5.775c-1.221,1.232-3.672-0.307-5.205-1.221c-1.574-0.945-8.268-5.824-12.252-9.799
		c-3.98-3.984-6.631-4.889-11.943-5.518C240.082,200.008,235.795,203.066,236.102,206.137z M354.232,208.402
		c1.033-2.885,8.51-2.848,16.707,0.078c8.193,2.93,14,7.643,12.971,10.527c-1.031,2.891-8.508,2.852-16.705-0.078
		S353.201,211.297,354.232,208.402z M307.117,192.039c2.594,1.09,5.098,2.275,7.164,3.467c4.766,2.75,13.533,4.816,19.932,6.334
		c2.186,0.518,4.404,1.041,5.795,1.455c-0.004,0.016-0.01,0.02-0.014,0.023c-0.039,0.104-0.068,0.207-0.088,0.313
		c-2.549,0.273-7.939,0.523-14.873,0.674c-4.248-2.26-8.506-4.74-12.359-7.357C311.068,195.854,309.006,193.939,307.117,192.039z
		 M295.705,150.859c0.441-0.576,0.904-1.191,1.387-1.826c-0.242,0.721-0.459,1.396-0.652,2.02
		C296.199,150.99,295.955,150.922,295.705,150.859z M283.357,201.387c-1.406-0.777-2.451-1.676-3.072-2.678
		c-0.74-1.189-0.926-2.553-0.561-4.053c1.855,0.92,0.787,4.123,0.787,4.123s1.533-3.365,3.373-3.977
		c1.836-0.613,0.918,1.221,0.918,1.221s0.182-0.209,0.463-0.492c-0.066,0.299-0.127,0.6-0.189,0.904
		C284.535,197.822,283.953,199.467,283.357,201.387z M361.014,208.344l-3.568-0.186l2.064,2.822l2.633-0.191l8.65,2.07l-8.465-3.201
		L361.014,208.344z M375.559,216.605l-4.766-3.746l4.328,4.391l0.438,1.195l2.564,1.178l-0.879-2.377L375.559,216.605z"/>
	<path fill="#E7E4E1" d="M-0.748,158.705c0.459,4.585,5.762,6.981,9.646,6.431c6.438-0.923,15.621,2.754,21.593,5.054
		c5.977,2.294,18.838,9.179,22.057,11.938c3.211,2.76,5.512,0.463,6.888-0.917c0.323-0.328,2.239-1.954,5.011-4.269
		c-2.509,16.441-1.791,44.232-1.791,44.232s4.135,0.445,10.123,1.002c1.524,7.828,7.847,11.508,5.257,14.071
		c-3.263,3.237-12.55,3.132-18.263,2.065c-5.157-0.961-16.103-2.411-17.241-10.6c-1.054-7.632-1.306-12.803-5.722-14.511
		c-4.549-1.764-10.392-1.345-12.694,5.467c-2.297,6.817-0.93,10.646,2.537,14.956c5.046,6.261,17.682,10.986,22.878,14.458
		c9.199,6.144,8.923,16.799,9.989,18.56c1.806,2.994,10.44,5.039,13.246,1.875c2.81-3.182,2.369-6.36,3.698-13.5
		c1.326-7.143,5.438-10.957,12.342-14.701c4.172-2.253,8.911-1.55,13-1.699c6.557,6.551,20.127,6.469,27.622,6.595
		c8.74,0.146,11.674,5.098,13.399,14.698c1.717,9.586-0.475,12.422-3.464,18.964c-2.986,6.554-11.367,3.624-14.35,10.172
		c-2.984,6.539,3.115,9.999,3.622,11.361c0.51,1.359,10.119,0.1,15.591-1.014c5.485-1.113,8.496-6.738,8.365-10.412
		c-0.127-3.671-0.079-15.176,2.041-20.303c2.113-5.127,7.969-8.558,12.461-11.473c4.492-2.921,0.513-11.511-1.832-12.809
		c-2.35-1.295-5.01,1.547-9.072,3.536c-4.066,1.992-8.328-1.529-10.805-6.504c-2.477-4.978,3.07-11.285,9.615-21.173
		c1.321-1.992,1.863-4.184,1.884-6.431c2.235,1.729,5.001,2.76,7.993,2.76c7.484,0,13.555-6.372,13.555-14.244
		c0-7.462-5.464-13.57-12.414-14.18c2.898-4.248,5.412-8.862,7.359-13.843c0,0-18.667-6.885-38.217-17.042
		c2.944-0.073,5.763-0.155,8.329-0.249c5.909-0.229,9.454-0.469,11.593-0.718c0.564,1.787,2.643,3.697,5.487,4.846
		c2.446,0.984,4.874,1.181,6.554,0.645c0.453,1.482,1.854,2.602,3.594,2.813c0.85,6.167,10.182,13.843,22.984,18.357
		c14.833,5.244,28.705,4.26,30.98-2.177c2.274-6.445-7.906-15.929-22.739-21.161c-11.249-3.97-21.938-4.371-27.442-1.509
		c-0.794-0.782-1.928-1.266-3.193-1.266c-0.917,0-1.772,0.264-2.476,0.697c-0.85-1.538-2.72-3.085-5.159-4.066
		c-3.009-1.216-5.982-1.222-7.574-0.17c-1.739-0.586-4.648-1.289-9.357-2.408c-9.521-2.241-22.559-5.323-29.53-9.352
		c-3.407-1.966-7.604-3.911-11.924-5.678c2.532-0.431,6.099-0.278,7.447-0.609c1.837-0.466-2.301-1.383-2.301-1.383
		s5.054-0.923,4.595-2.76c-0.457-1.834-2.886-3.021-1.834-4.585c1.834-2.757,4.134-1.846,4.134-1.846s-1.841-3.671-3.677-4.588
		c-1.836-0.914-0.457-6.437-0.457-6.437s-4.145,2.763-8.729,4.591c-1.585,0.639-2.836,0.56-3.802,0.176
		c3.903-4.992,7.354-10.708,7.934-15.334c0.956-7.676-0.093-16.673-9.018-22.679c8.021-4.934,18.486-11.643,25.556-15.451
		c11.944-6.439,37.219-52.846,33.998-51.46c-3.187,1.362-32.088,14.909-46.92,23.651c4.797-14.505,10.305-38.03,8.328-36.053
		c-2.3,2.291-21.131,16.072-28.483,28.022c-5.502,8.936-8.686,33.574-9.939,45.401c-7.463-0.791-13.922,3.354-18.545,6.053
		c-5.514,3.22-13.786,9.19-15.622,23.435c-0.947,7.304-0.462,8.262-2.753,10.107c-2.303,1.84-4.141,0.917-4.141,0.917
		s2.711,8.136,6.894,11.493c3.155,2.52,8.474,5.039,13.138,6.671c-1.324,0.87-3.253,1.86-4.87,1.591
		c-2.754-0.454,4.138,0.92,5.054,2.297c0.924,1.386,0.924,1.386,0.924,1.386l-4.137,4.131c0,0,2.021-2.016,5.299-1.515
		c-0.657,2.648-0.323,5.065,0.99,7.178c1.119,1.799,2.91,3.346,5.367,4.67c-1.154,3.847-2.32,8.367-3.41,13.617
		c-4.73,4.462-8.521,8.021-9.171,8.663c-1.829,1.849-5.507-0.46-7.806-1.831c-2.361-1.418-12.402-8.736-18.379-14.698
		c-5.971-5.977-9.946-7.333-17.915-8.276C5.221,149.512-1.209,154.1-0.748,158.705z M176.447,162.104
		c1.551-4.327,12.766-4.271,25.062,0.117c12.29,4.395,21,11.464,19.456,15.791c-1.547,4.336-12.762,4.277-25.058-0.117
		S174.901,166.445,176.447,162.104z M105.774,137.559c3.892,1.635,7.647,3.413,10.747,5.2c7.148,4.125,20.3,7.225,29.897,9.501
		c3.278,0.776,6.606,1.562,8.692,2.183c-0.006,0.023-0.015,0.029-0.021,0.035c-0.06,0.155-0.103,0.311-0.132,0.469
		c-3.823,0.41-11.91,0.785-22.31,1.011c-6.372-3.39-12.759-7.11-18.539-11.036C111.702,143.28,108.607,140.409,105.774,137.559z
		 M88.657,75.789c0.661-0.864,1.355-1.787,2.079-2.739c-0.361,1.081-0.688,2.095-0.978,3.029
		C89.397,75.985,89.031,75.883,88.657,75.789z M70.135,151.58c-2.108-1.166-3.676-2.514-4.608-4.017
		c-1.108-1.784-1.39-3.829-0.841-6.079c2.783,1.38,1.181,6.185,1.181,6.185s2.302-5.048,5.061-5.965
		c2.754-0.92,1.376,1.831,1.376,1.831s0.272-0.313,0.694-0.738c-0.1,0.448-0.189,0.899-0.283,1.356
		C71.901,146.233,71.028,148.7,70.135,151.58z M186.619,162.016l-5.352-0.278l3.096,4.233l3.95-0.287l12.976,3.105l-12.697-4.802
		L186.619,162.016z M208.438,174.408l-7.148-5.619l6.492,6.586l0.656,1.793l3.846,1.767l-1.318-3.565L208.438,174.408z"/>
</g>
</svg>
