<?xml version="1.0" encoding="utf-8"?>
<!-- Generator: Adobe Illustrator 16.0.3, SVG Export Plug-In . SVG Version: 6.00 Build 0)  -->
<!DOCTYPE svg PUBLIC "-//W3C//DTD SVG 1.1//EN" "http://www.w3.org/Graphics/SVG/1.1/DTD/svg11.dtd">
<svg version="1.1" id="レイヤー_1" xmlns="http://www.w3.org/2000/svg" xmlns:xlink="http://www.w3.org/1999/xlink" x="0px"
	 y="0px" width="163px" height="205px" viewBox="0 0 163 205" enable-background="new 0 0 163 205" xml:space="preserve">
<g>
	<g>
		<path fill="#553010" d="M155.77,197.403c0.674,0.039,1.246,0.059,1.715,0.059c0.385,0,1.006-0.02,1.859-0.059l0.572-1.574
			c0.166-0.465,0.248-0.85,0.248-1.158c0-0.186-0.031-0.358-0.094-0.52c-0.104-0.244-0.492-0.405-1.166-0.483
			c-0.088,0-0.131-0.063-0.131-0.19c0-0.132,0.057-0.197,0.168-0.197c0.367,0.02,0.988,0.029,1.867,0.029
			c0.723,0,1.248-0.01,1.576-0.029c0.111,0,0.168,0.065,0.168,0.197c0,0.127-0.057,0.19-0.168,0.19
			c-0.303,0.049-0.596,0.205-0.879,0.469c-0.289,0.283-0.594,0.866-0.916,1.751l-1.803,4.863c-0.449,1.211-0.811,2.26-1.084,3.148
			l-1.178,0.543c-0.107,0-0.174-0.047-0.199-0.14c-0.072-0.225-0.488-1.438-1.244-3.64l-1.691-4.893
			c-0.303-0.895-0.555-1.463-0.756-1.707c-0.127-0.161-0.258-0.264-0.395-0.308c-0.104-0.034-0.293-0.063-0.572-0.088
			c-0.131,0-0.197-0.063-0.197-0.19c0-0.132,0.066-0.197,0.197-0.197c0.889,0.02,1.598,0.029,2.125,0.029
			c0.518,0,1.223-0.01,2.117-0.029c0.078,0,0.117,0.065,0.117,0.197c0,0.127-0.039,0.19-0.117,0.19
			c-0.625,0.034-0.973,0.166-1.041,0.396c-0.029,0.088-0.043,0.184-0.043,0.285c0,0.254,0.104,0.684,0.314,1.289L155.77,197.403z
			 M157.514,202.597l0.674-1.934l0.959-2.659c-0.326-0.02-0.881-0.029-1.662-0.029c-0.713,0-1.213,0.01-1.502,0.029l0.9,2.63
			C157.045,201.093,157.254,201.747,157.514,202.597z"/>
		<path fill="#553010" d="M150.336,195.528v6.753c0,0.522,0.033,0.933,0.102,1.23c0.055,0.229,0.203,0.345,0.447,0.345
			c0.025,0,0.041,0,0.051,0l0.402-0.029c0.029,0,0.053,0,0.066,0c0.068,0,0.107,0.056,0.117,0.168c0,0.029,0,0.054,0,0.073
			c0,0.078-0.051,0.13-0.154,0.153c-0.75,0.143-1.576,0.359-2.475,0.652c-0.117,0-0.176-0.034-0.176-0.103
			c0.049-1.89,0.072-3.12,0.072-3.691v-5.552c0-0.938-0.033-1.473-0.102-1.604c-0.059-0.113-0.164-0.188-0.314-0.228
			c-0.078-0.024-0.254-0.049-0.527-0.073c-0.068-0.01-0.104-0.068-0.104-0.176c0-0.112,0.039-0.168,0.117-0.168
			c0.563,0.029,1.105,0.043,1.633,0.043c0.582,0,1.15-0.014,1.707-0.043c0.113,0,0.168,0.056,0.168,0.168
			c0,0.107-0.047,0.166-0.146,0.176c-0.277,0.029-0.455,0.059-0.533,0.088c-0.104,0.039-0.182,0.109-0.234,0.213
			C150.375,194.095,150.336,194.63,150.336,195.528z"/>
		<path fill="#553010" d="M146.08,197.659c0,0.611,0.025,1.033,0.074,1.268c0.063,0.205,0.209,0.308,0.439,0.308
			c0.049,0,0.088,0,0.117,0l0.389-0.029c0.039,0,0.068,0,0.088,0c0.059,0,0.092,0.056,0.102,0.169
			c0.006,0.043,0.008,0.072,0.008,0.088c0,0.072-0.057,0.119-0.168,0.139c-0.83,0.19-1.641,0.42-2.432,0.688
			c-0.117,0-0.176-0.052-0.176-0.153c0.039-0.977,0.059-1.863,0.059-2.659v-1.963c0-0.908-0.035-1.442-0.104-1.604
			c-0.059-0.107-0.166-0.176-0.322-0.205c-0.072-0.014-0.252-0.031-0.535-0.051c-0.068-0.01-0.102-0.073-0.102-0.19
			c0-0.122,0.033-0.183,0.102-0.183c0.123,0.004,0.309,0.01,0.557,0.014c0.514,0.02,0.883,0.029,1.107,0.029
			c0.063,0,0.629-0.014,1.699-0.043c0.098,0,0.146,0.061,0.146,0.183c0,0.127-0.045,0.19-0.133,0.19
			c-0.273,0.02-0.453,0.041-0.541,0.066c-0.117,0.039-0.201,0.102-0.25,0.189c-0.082,0.137-0.125,0.455-0.125,0.953v0.651V197.659z
			 M145.43,204.464c-0.27,0-0.508-0.115-0.719-0.344c-0.186-0.201-0.277-0.423-0.277-0.667c0-0.273,0.117-0.518,0.352-0.732
			c0.199-0.186,0.414-0.278,0.645-0.278c0.277,0,0.527,0.117,0.746,0.352c0.186,0.2,0.279,0.42,0.279,0.659
			c0,0.283-0.121,0.53-0.359,0.739C145.895,204.374,145.674,204.464,145.43,204.464z"/>
		<path fill="#553010" d="M139.188,200.348c-0.703,0-1.313-0.114-1.83-0.345c-0.4-0.16-0.602-0.397-0.602-0.71
			c0-0.659,0.221-0.989,0.66-0.989c0.289,0,0.588,0.311,0.9,0.931c0.23,0.42,0.494,0.63,0.791,0.63c0.602,0,1.055-0.332,1.363-0.996
			c0.254-0.552,0.381-1.27,0.381-2.153c0-0.977-0.252-1.743-0.756-2.3c-0.385-0.43-0.828-0.645-1.332-0.645
			c-0.459,0-0.84,0.096-1.143,0.285c-0.25,0.156-0.506,0.413-0.77,0.77c-0.033,0.059-0.072,0.088-0.117,0.088
			c-0.033,0-0.082-0.024-0.146-0.073c-0.078-0.044-0.117-0.091-0.117-0.14c0-0.023,0.008-0.053,0.021-0.088
			c0.615-1.049,1.521-1.574,2.719-1.574c1.084,0,1.945,0.381,2.584,1.143c0.553,0.659,0.828,1.479,0.828,2.461
			c0,1.113-0.373,2.033-1.121,2.762C140.857,200.032,140.088,200.348,139.188,200.348z"/>
		<path fill="#553010" d="M133.98,197.257c0.045-0.186,0.066-0.366,0.066-0.542c0-0.977-0.271-1.753-0.813-2.329
			c-0.406-0.43-0.85-0.645-1.334-0.645c-0.508,0-0.93,0.098-1.266,0.293c-0.279,0.166-0.553,0.43-0.82,0.791
			c-0.035,0.049-0.084,0.073-0.146,0.073c-0.029,0-0.076-0.02-0.141-0.059c-0.078-0.063-0.117-0.114-0.117-0.153
			c0-0.025,0.025-0.078,0.074-0.162c0.365-0.561,0.791-0.957,1.273-1.186c0.416-0.201,0.916-0.301,1.502-0.301
			c1.1,0,1.975,0.386,2.629,1.157c0.557,0.659,0.836,1.475,0.836,2.446c0,1.104-0.367,2.02-1.1,2.746
			c-0.654,0.641-1.447,0.96-2.379,0.96c-0.947,0-1.707-0.371-2.279-1.113c-0.404-0.532-0.619-1.091-0.645-1.677
			c0-0.098,0.025-0.184,0.074-0.257c0.043-0.049,0.119-0.073,0.227-0.073c1.002,0.029,1.963,0.044,2.887,0.044
			C133.031,197.271,133.521,197.267,133.98,197.257z M133.908,197.799c-0.498-0.01-0.867-0.015-1.105-0.015
			c-0.537,0-1.104,0.021-1.699,0.066c-0.088,0.01-0.133,0.088-0.133,0.234c0.029,0.527,0.154,0.959,0.373,1.296
			c0.225,0.347,0.525,0.521,0.902,0.521c0.424,0,0.793-0.223,1.105-0.667C133.615,198.858,133.801,198.38,133.908,197.799z"/>
		<path fill="#553010" d="M118.168,204.244c-2.217,0-3.877-0.534-4.98-1.604c-0.951-0.922-1.428-2.182-1.428-3.779
			c0-1.889,0.645-3.33,1.934-4.32c1.133-0.869,2.664-1.305,4.592-1.305c0.42,0,0.865,0.016,1.334,0.045
			c0.117,0.004,0.283,0.01,0.498,0.014c0.449,0.02,0.773,0.029,0.973,0.029c0.684,0,1.346-0.014,1.986-0.043
			c0.088,0,0.131,0.061,0.131,0.183c0,0.117-0.043,0.181-0.131,0.19c-0.605,0.049-0.973,0.181-1.1,0.396
			c-0.098,0.181-0.146,0.845-0.146,1.992v5.442c0,0.791,0.01,1.273,0.029,1.449c0.02,0.195,0.07,0.369,0.154,0.521
			c0.068,0.132,0.213,0.222,0.432,0.271c0.098,0.02,0.34,0.049,0.725,0.088c0.078,0,0.117,0.064,0.117,0.191
			c0,0.141-0.039,0.212-0.117,0.212c-0.678-0.029-1.363-0.044-2.057-0.044c-0.436,0-0.916,0.015-1.443,0.044
			C118.961,204.234,118.461,204.244,118.168,204.244z M120.059,201.483v-5.442c0-0.659-0.018-1.097-0.053-1.312
			c-0.029-0.205-0.092-0.378-0.189-0.52c-0.225-0.308-0.725-0.461-1.502-0.461c-1.576,0-2.762,0.5-3.553,1.501
			c-0.684,0.864-1.025,2.048-1.025,3.552c0,1.676,0.438,2.939,1.313,3.795c0.766,0.746,1.82,1.12,3.164,1.12
			c0.922,0,1.471-0.134,1.646-0.403c0.104-0.141,0.164-0.371,0.184-0.688C120.053,202.474,120.059,202.093,120.059,201.483z"/>
		<path fill="#553010" d="M108.689,197.257c0.045-0.186,0.066-0.366,0.066-0.542c0-0.977-0.271-1.753-0.813-2.329
			c-0.406-0.43-0.85-0.645-1.334-0.645c-0.508,0-0.93,0.098-1.266,0.293c-0.279,0.166-0.553,0.43-0.82,0.791
			c-0.035,0.049-0.084,0.073-0.146,0.073c-0.029,0-0.076-0.02-0.141-0.059c-0.078-0.063-0.117-0.114-0.117-0.153
			c0-0.025,0.025-0.078,0.074-0.162c0.365-0.561,0.791-0.957,1.273-1.186c0.416-0.201,0.916-0.301,1.502-0.301
			c1.1,0,1.975,0.386,2.629,1.157c0.557,0.659,0.836,1.475,0.836,2.446c0,1.104-0.367,2.02-1.1,2.746
			c-0.654,0.641-1.447,0.96-2.379,0.96c-0.947,0-1.707-0.371-2.279-1.113c-0.404-0.532-0.619-1.091-0.645-1.677
			c0-0.098,0.025-0.184,0.074-0.257c0.043-0.049,0.119-0.073,0.227-0.073c1.002,0.029,1.963,0.044,2.887,0.044
			C107.74,197.271,108.23,197.267,108.689,197.257z M108.617,197.799c-0.498-0.01-0.867-0.015-1.105-0.015
			c-0.537,0-1.104,0.021-1.699,0.066c-0.088,0.01-0.133,0.088-0.133,0.234c0.029,0.527,0.154,0.959,0.373,1.296
			c0.225,0.347,0.525,0.521,0.902,0.521c0.424,0,0.793-0.223,1.105-0.667C108.324,198.858,108.51,198.38,108.617,197.799z"/>
		<path fill="#553010" d="M102.348,199.476l0.959-0.014c0.113,0,0.168,0.07,0.168,0.212c0,0.127-0.061,0.195-0.184,0.205
			c-0.492,0.063-0.932,0.278-1.318,0.645c-0.336,0.288-0.594,0.645-0.775,1.069c-0.039,0.098-0.125,0.146-0.256,0.146
			c-0.143,0-0.213-0.049-0.213-0.146c0.029-0.972,0.043-1.482,0.043-1.531c-0.785,0-1.494,0.016-2.123,0.045
			c-0.045,0-0.066-0.022-0.066-0.066c0-0.015,0-0.027,0-0.037l0.168-0.439c0.016-0.068,0.064-0.102,0.146-0.102
			c0.744,0.039,1.377,0.059,1.904,0.059l0.037-3.838c0-0.777-0.096-1.295-0.285-1.553c-0.215-0.27-0.486-0.403-0.813-0.403
			c-0.318,0-0.635,0.134-0.953,0.403c-0.029,0.023-0.059,0.036-0.088,0.036c-0.049,0-0.1-0.026-0.154-0.081
			c-0.063-0.063-0.094-0.117-0.094-0.16c0-0.039,0.021-0.081,0.064-0.125c0.52-0.518,1.125-0.776,1.816-0.776
			c0.695,0,1.219,0.171,1.576,0.513c0.336,0.371,0.504,0.93,0.504,1.678c0,0.42-0.012,1.125-0.035,2.116L102.348,199.476z"/>
		<path fill="#553010" d="M95.982,197.257c0.045-0.186,0.066-0.366,0.066-0.542c0-0.977-0.271-1.753-0.813-2.329
			c-0.406-0.43-0.85-0.645-1.334-0.645c-0.508,0-0.93,0.098-1.266,0.293c-0.279,0.166-0.553,0.43-0.82,0.791
			c-0.035,0.049-0.084,0.073-0.146,0.073c-0.029,0-0.076-0.02-0.141-0.059c-0.078-0.063-0.117-0.114-0.117-0.153
			c0-0.025,0.025-0.078,0.074-0.162c0.365-0.561,0.791-0.957,1.273-1.186c0.416-0.201,0.916-0.301,1.502-0.301
			c1.1,0,1.975,0.386,2.629,1.157c0.557,0.659,0.836,1.475,0.836,2.446c0,1.104-0.367,2.02-1.1,2.746
			c-0.654,0.641-1.447,0.96-2.379,0.96c-0.947,0-1.707-0.371-2.279-1.113c-0.404-0.532-0.619-1.091-0.645-1.677
			c0-0.098,0.025-0.184,0.074-0.257c0.043-0.049,0.119-0.073,0.227-0.073c1.002,0.029,1.963,0.044,2.887,0.044
			C95.033,197.271,95.523,197.267,95.982,197.257z M95.91,197.799c-0.498-0.01-0.867-0.015-1.105-0.015
			c-0.537,0-1.104,0.021-1.699,0.066c-0.088,0.01-0.133,0.088-0.133,0.234c0.029,0.527,0.154,0.959,0.373,1.296
			c0.225,0.347,0.525,0.521,0.902,0.521c0.424,0,0.793-0.223,1.105-0.667C95.617,198.858,95.803,198.38,95.91,197.799z"/>
		<path fill="#553010" d="M86.863,200.348c-0.703,0-1.313-0.114-1.83-0.345c-0.4-0.16-0.602-0.397-0.602-0.71
			c0-0.659,0.221-0.989,0.66-0.989c0.289,0,0.588,0.311,0.9,0.931c0.23,0.42,0.494,0.63,0.791,0.63c0.602,0,1.055-0.332,1.363-0.996
			c0.254-0.552,0.381-1.27,0.381-2.153c0-0.977-0.252-1.743-0.756-2.3c-0.385-0.43-0.828-0.645-1.332-0.645
			c-0.459,0-0.84,0.096-1.143,0.285c-0.25,0.156-0.506,0.413-0.77,0.77c-0.033,0.059-0.072,0.088-0.117,0.088
			c-0.033,0-0.082-0.024-0.146-0.073c-0.078-0.044-0.117-0.091-0.117-0.14c0-0.023,0.008-0.053,0.021-0.088
			c0.615-1.049,1.521-1.574,2.719-1.574c1.084,0,1.945,0.381,2.584,1.143c0.553,0.659,0.828,1.479,0.828,2.461
			c0,1.113-0.373,2.033-1.121,2.762C88.533,200.032,87.764,200.348,86.863,200.348z"/>
		<path fill="#553010" d="M82.74,199.476l0.961-0.014c0.111,0,0.168,0.07,0.168,0.212c0,0.127-0.061,0.195-0.184,0.205
			c-0.492,0.063-0.932,0.278-1.318,0.645c-0.336,0.288-0.595,0.645-0.776,1.069c-0.039,0.098-0.125,0.146-0.257,0.146
			c-0.142,0-0.212-0.049-0.212-0.146c0.029-0.972,0.043-1.482,0.043-1.531c-0.785,0-1.494,0.016-2.123,0.045
			c-0.045,0-0.066-0.022-0.066-0.066c0-0.015,0-0.027,0-0.037l0.168-0.439c0.016-0.068,0.064-0.102,0.146-0.102
			c0.743,0.039,1.377,0.059,1.904,0.059l0.037-3.838c0-0.777-0.096-1.295-0.285-1.553c-0.215-0.27-0.486-0.403-0.813-0.403
			c-0.317,0-0.635,0.134-0.952,0.403c-0.029,0.023-0.059,0.036-0.088,0.036c-0.049,0-0.1-0.026-0.154-0.081
			c-0.063-0.063-0.095-0.117-0.095-0.16c0-0.039,0.022-0.081,0.065-0.125c0.519-0.518,1.124-0.776,1.816-0.776
			c0.694,0,1.219,0.171,1.575,0.513c0.338,0.371,0.506,0.93,0.506,1.678c0,0.42-0.012,1.125-0.037,2.116L82.74,199.476z"/>
		<path fill="#553010" d="M77.225,197.659c0,0.611,0.024,1.033,0.073,1.268c0.063,0.205,0.21,0.308,0.439,0.308
			c0.049,0,0.088,0,0.117,0l0.389-0.029c0.039,0,0.068,0,0.088,0c0.059,0,0.093,0.056,0.102,0.169
			c0.006,0.043,0.008,0.072,0.008,0.088c0,0.072-0.056,0.119-0.168,0.139c-0.83,0.19-1.641,0.42-2.432,0.688
			c-0.117,0-0.176-0.052-0.176-0.153c0.039-0.977,0.059-1.863,0.059-2.659v-1.963c0-0.908-0.034-1.442-0.104-1.604
			c-0.059-0.107-0.165-0.176-0.322-0.205c-0.072-0.014-0.251-0.031-0.534-0.051c-0.068-0.01-0.103-0.073-0.103-0.19
			c0-0.122,0.034-0.183,0.103-0.183c0.122,0.004,0.308,0.01,0.557,0.014c0.513,0.02,0.882,0.029,1.106,0.029
			c0.063,0,0.629-0.014,1.699-0.043c0.098,0,0.146,0.061,0.146,0.183c0,0.127-0.045,0.19-0.133,0.19
			c-0.272,0.02-0.453,0.041-0.541,0.066c-0.117,0.039-0.2,0.102-0.25,0.189c-0.082,0.137-0.124,0.455-0.124,0.953v0.651V197.659z
			 M76.574,204.464c-0.269,0-0.508-0.115-0.719-0.344c-0.185-0.201-0.277-0.423-0.277-0.667c0-0.273,0.117-0.518,0.352-0.732
			c0.2-0.186,0.415-0.278,0.645-0.278c0.277,0,0.527,0.117,0.746,0.352c0.187,0.2,0.279,0.42,0.279,0.659
			c0,0.283-0.12,0.53-0.359,0.739C77.04,204.374,76.818,204.464,76.574,204.464z"/>
		<path fill="#553010" d="M70.186,194.679c-0.229,0.62-0.385,1.06-0.469,1.318l-0.629,1.963c-0.166,0.522-0.25,0.92-0.25,1.193
			c0,0.123,0.021,0.221,0.059,0.293c0.079,0.152,0.34,0.252,0.784,0.301c0.068,0.015,0.103,0.073,0.103,0.176
			c0,0.122-0.039,0.184-0.117,0.184c-0.43-0.029-0.9-0.045-1.414-0.045c-0.458,0-0.881,0.016-1.267,0.045
			c-0.098,0-0.146-0.062-0.146-0.184c0-0.107,0.049-0.166,0.146-0.176c0.308-0.039,0.563-0.158,0.769-0.359
			c0.23-0.244,0.481-0.72,0.755-1.428l1.003-2.791c0.084-0.234,0.201-0.561,0.352-0.98c0.104-0.293,0.196-0.553,0.279-0.777
			c0.557-0.229,0.861-0.344,0.915-0.344c0.059,0,0.103,0.029,0.132,0.088c0.181,0.547,0.41,1.203,0.688,1.971l1.069,2.834
			c0.361,0.908,0.596,1.424,0.703,1.545c0.132,0.133,0.398,0.213,0.799,0.242c0.077,0.015,0.117,0.073,0.117,0.176
			c0,0.122-0.04,0.184-0.117,0.184c-1.118-0.029-1.694-0.045-1.729-0.045c-0.649,0-1.255,0.016-1.816,0.045
			c-0.078,0-0.117-0.062-0.117-0.184c0-0.117,0.034-0.176,0.102-0.176c0.494-0.02,0.774-0.105,0.843-0.256
			c0.01-0.029,0.015-0.068,0.015-0.117c0-0.166-0.144-0.638-0.432-1.414l-0.74-2.036C70.482,195.66,70.353,195.245,70.186,194.679z"
			/>
		<path fill="#553010" d="M64.583,197.257c0.044-0.186,0.065-0.366,0.065-0.542c0-0.977-0.271-1.753-0.813-2.329
			c-0.405-0.43-0.85-0.645-1.333-0.645c-0.508,0-0.931,0.098-1.267,0.293c-0.279,0.166-0.552,0.43-0.82,0.791
			c-0.034,0.049-0.083,0.073-0.146,0.073c-0.029,0-0.076-0.02-0.14-0.059c-0.078-0.063-0.117-0.114-0.117-0.153
			c0-0.025,0.024-0.078,0.073-0.162c0.366-0.561,0.791-0.957,1.274-1.186c0.415-0.201,0.915-0.301,1.501-0.301
			c1.1,0,1.976,0.386,2.63,1.157c0.557,0.659,0.835,1.475,0.835,2.446c0,1.104-0.366,2.02-1.099,2.746
			c-0.654,0.641-1.447,0.96-2.38,0.96c-0.947,0-1.707-0.371-2.278-1.113c-0.405-0.532-0.62-1.091-0.645-1.677
			c0-0.098,0.024-0.184,0.073-0.257c0.044-0.049,0.12-0.073,0.227-0.073c1.002,0.029,1.963,0.044,2.887,0.044
			C63.634,197.271,64.125,197.267,64.583,197.257z M64.51,197.799c-0.498-0.01-0.866-0.015-1.105-0.015
			c-0.537,0-1.104,0.021-1.699,0.066c-0.088,0.01-0.133,0.088-0.133,0.234c0.029,0.527,0.154,0.959,0.374,1.296
			c0.225,0.347,0.525,0.521,0.901,0.521c0.424,0,0.793-0.223,1.105-0.667C64.217,198.858,64.403,198.38,64.51,197.799z"/>
		<path fill="#553010" d="M47.884,197.403c0.674,0.039,1.245,0.059,1.714,0.059c0.386,0,1.006-0.02,1.86-0.059l0.571-1.574
			c0.166-0.465,0.249-0.85,0.249-1.158c0-0.186-0.031-0.358-0.095-0.52c-0.104-0.244-0.491-0.405-1.165-0.483
			c-0.088,0-0.132-0.063-0.132-0.19c0-0.132,0.057-0.197,0.168-0.197c0.367,0.02,0.989,0.029,1.868,0.029
			c0.723,0,1.248-0.01,1.575-0.029c0.111,0,0.168,0.065,0.168,0.197c0,0.127-0.057,0.19-0.168,0.19
			c-0.303,0.049-0.596,0.205-0.879,0.469c-0.288,0.283-0.594,0.866-0.916,1.751l-1.802,4.863c-0.449,1.211-0.811,2.26-1.084,3.148
			l-1.179,0.543c-0.107,0-0.174-0.047-0.198-0.14c-0.073-0.225-0.488-1.438-1.245-3.64l-1.691-4.893
			c-0.303-0.895-0.555-1.463-0.755-1.707c-0.127-0.161-0.259-0.264-0.396-0.308c-0.103-0.034-0.293-0.063-0.571-0.088
			c-0.132,0-0.198-0.063-0.198-0.19c0-0.132,0.066-0.197,0.198-0.197c0.889,0.02,1.597,0.029,2.124,0.029
			c0.518,0,1.223-0.01,2.117-0.029c0.078,0,0.117,0.065,0.117,0.197c0,0.127-0.039,0.19-0.117,0.19
			c-0.625,0.034-0.972,0.166-1.041,0.396c-0.029,0.088-0.043,0.184-0.043,0.285c0,0.254,0.104,0.684,0.314,1.289L47.884,197.403z
			 M49.627,202.597l0.674-1.934l0.959-2.659c-0.326-0.02-0.881-0.029-1.662-0.029c-0.713,0-1.213,0.01-1.502,0.029l0.901,2.63
			C49.159,201.093,49.369,201.747,49.627,202.597z"/>
		<path fill="#553010" d="M41.607,193.265c0.787,0.221,1.18,0.596,1.18,1.129c0,0.316-0.154,0.6-0.461,0.85
			c-0.254,0.205-0.645,0.417-1.172,0.637c1.26,0.337,1.889,1.04,1.889,2.109c0,0.688-0.285,1.265-0.856,1.729
			c-0.518,0.42-1.152,0.63-1.904,0.63c-0.562,0-1.11-0.12-1.647-0.358c-0.791,0-1.598,0.039-2.418,0.117
			c-0.067,0-0.102-0.035-0.102-0.104l0.212-0.469c0.034-0.068,0.073-0.102,0.117-0.102c0.361,0.029,0.886,0.043,1.575,0.043
			c-0.459-0.381-0.689-0.856-0.689-1.428c0-0.723,0.262-1.291,0.784-1.707c0.493-0.391,1.157-0.586,1.992-0.586
			c0.142,0,0.313,0.01,0.513,0.029c0.503-0.297,0.754-0.603,0.754-0.915c0-0.317-0.297-0.476-0.893-0.476l-1.377,0.014
			c-1.943,0.02-2.916-0.648-2.916-2.006c0-0.811,0.293-1.451,0.879-1.92c0.67-0.531,1.683-0.798,3.04-0.798
			c1.03,0,1.844,0.205,2.438,0.615c0.484,0.332,0.726,0.732,0.726,1.201c0,0.435-0.151,0.796-0.454,1.084
			C42.552,192.833,42.15,193.06,41.607,193.265z M41.08,193.147c0.152-0.117,0.257-0.207,0.315-0.271
			c0.269-0.352,0.403-0.742,0.403-1.172c0-0.498-0.205-0.894-0.615-1.187c-0.367-0.259-0.833-0.389-1.399-0.389
			c-0.742,0-1.315,0.182-1.722,0.543c-0.341,0.303-0.512,0.693-0.512,1.172c0,0.415,0.122,0.715,0.365,0.9
			c0.304,0.229,0.818,0.344,1.546,0.344h0.601C40.34,193.089,40.68,193.108,41.08,193.147z M40.165,199.931
			c0.43,0,0.76-0.201,0.989-0.602c0.189-0.336,0.285-0.766,0.285-1.289c0-0.619-0.127-1.101-0.381-1.442
			c-0.229-0.303-0.527-0.454-0.894-0.454c-0.41,0-0.728,0.193-0.952,0.578c-0.195,0.338-0.293,0.777-0.293,1.318
			c0,0.605,0.127,1.082,0.381,1.429C39.525,199.776,39.813,199.931,40.165,199.931z"/>
		<path fill="#553010" d="M33.639,197.257c0.044-0.186,0.065-0.366,0.065-0.542c0-0.977-0.271-1.753-0.813-2.329
			c-0.405-0.43-0.85-0.645-1.333-0.645c-0.508,0-0.931,0.098-1.267,0.293c-0.279,0.166-0.552,0.43-0.82,0.791
			c-0.034,0.049-0.083,0.073-0.146,0.073c-0.029,0-0.076-0.02-0.14-0.059c-0.078-0.063-0.117-0.114-0.117-0.153
			c0-0.025,0.024-0.078,0.073-0.162c0.366-0.561,0.791-0.957,1.274-1.186c0.415-0.201,0.915-0.301,1.501-0.301
			c1.1,0,1.976,0.386,2.63,1.157c0.557,0.659,0.835,1.475,0.835,2.446c0,1.104-0.366,2.02-1.099,2.746
			c-0.654,0.641-1.447,0.96-2.38,0.96c-0.947,0-1.707-0.371-2.278-1.113c-0.405-0.532-0.62-1.091-0.645-1.677
			c0-0.098,0.024-0.184,0.073-0.257c0.044-0.049,0.12-0.073,0.227-0.073c1.002,0.029,1.963,0.044,2.887,0.044
			C32.69,197.271,33.18,197.267,33.639,197.257z M33.566,197.799c-0.498-0.01-0.866-0.015-1.105-0.015
			c-0.537,0-1.104,0.021-1.699,0.066c-0.088,0.01-0.133,0.088-0.133,0.234c0.029,0.527,0.154,0.959,0.374,1.296
			c0.225,0.347,0.525,0.521,0.901,0.521c0.424,0,0.793-0.223,1.105-0.667C33.273,198.858,33.458,198.38,33.566,197.799z"/>
		<path fill="#553010" d="M25.553,198.919c-0.552,0.953-1.326,1.429-2.322,1.429c-0.498,0-0.951-0.142-1.361-0.425
			c-0.552-0.376-0.828-0.949-0.828-1.721l0.015-1.67v-1.033c0-0.889-0.039-1.418-0.117-1.59c-0.054-0.107-0.151-0.18-0.293-0.219
			c-0.073-0.02-0.236-0.042-0.491-0.066c-0.077-0.015-0.117-0.073-0.117-0.176c0-0.112,0.04-0.168,0.117-0.168
			c0.006,0,0.304,0.01,0.895,0.029c0.303,0.01,0.549,0.014,0.739,0.014c0.215,0,0.516-0.004,0.901-0.014
			c0.453-0.02,0.725-0.029,0.813-0.029c0.078,0,0.117,0.056,0.117,0.168c0,0.117-0.039,0.176-0.117,0.176
			c-0.259,0.02-0.43,0.044-0.513,0.073c-0.117,0.039-0.202,0.11-0.257,0.212c-0.077,0.162-0.117,0.691-0.117,1.59v2.043
			c0,0.596,0.062,1.025,0.184,1.289c0.215,0.504,0.578,0.755,1.092,0.755c0.277,0,0.549-0.093,0.813-0.278
			c0.22-0.156,0.398-0.35,0.535-0.578c0.21-0.352,0.314-0.752,0.314-1.201v-2.029c0-0.933-0.029-1.463-0.088-1.59
			c-0.059-0.111-0.163-0.186-0.314-0.219c-0.059-0.016-0.229-0.037-0.514-0.066c-0.088-0.01-0.131-0.068-0.131-0.176
			c0-0.112,0.043-0.168,0.131-0.168c0.123,0.004,0.304,0.01,0.543,0.014c0.493,0.02,0.847,0.029,1.062,0.029
			c0.225,0,0.527-0.004,0.908-0.014c0.464-0.02,0.737-0.029,0.82-0.029c0.068,0,0.103,0.056,0.103,0.168
			c0,0.103-0.034,0.161-0.103,0.176c-0.298,0.029-0.479,0.057-0.542,0.08c-0.117,0.035-0.202,0.104-0.256,0.205
			c-0.068,0.143-0.104,0.672-0.104,1.59v2.219c0,0.66,0.035,1.08,0.104,1.26c0.078,0.211,0.215,0.315,0.41,0.315
			c0.024,0,0.043,0,0.059,0l0.402-0.029c0.034,0,0.059,0,0.073,0c0.083,0,0.13,0.056,0.14,0.169c0,0.023,0,0.046,0,0.065
			c0,0.083-0.062,0.137-0.184,0.161c-0.762,0.146-1.553,0.366-2.373,0.659c-0.117,0-0.176-0.042-0.176-0.124
			C25.543,199.915,25.553,199.491,25.553,198.919z"/>
		<path fill="#553010" d="M15.76,200.348c-0.703,0-1.313-0.114-1.83-0.345c-0.4-0.16-0.602-0.397-0.602-0.71
			c0-0.659,0.221-0.989,0.66-0.989c0.288,0,0.588,0.311,0.9,0.931c0.229,0.42,0.493,0.63,0.791,0.63
			c0.601,0,1.055-0.332,1.362-0.996c0.254-0.552,0.381-1.27,0.381-2.153c0-0.977-0.251-1.743-0.755-2.3
			c-0.385-0.43-0.829-0.645-1.332-0.645c-0.459,0-0.84,0.096-1.143,0.285c-0.25,0.156-0.506,0.413-0.77,0.77
			c-0.034,0.059-0.073,0.088-0.117,0.088c-0.034,0-0.083-0.024-0.146-0.073c-0.078-0.044-0.117-0.091-0.117-0.14
			c0-0.023,0.008-0.053,0.021-0.088c0.615-1.049,1.521-1.574,2.718-1.574c1.084,0,1.946,0.381,2.585,1.143
			c0.553,0.659,0.828,1.479,0.828,2.461c0,1.113-0.373,2.033-1.121,2.762C17.43,200.032,16.66,200.348,15.76,200.348z"/>
		<path fill="#553010" d="M9.462,193.082c0.342,0.767,0.627,1.438,0.856,2.015l1.143,2.849c0.356,0.835,0.596,1.325,0.718,1.472
			c0.146,0.186,0.413,0.291,0.799,0.315c0.077,0,0.117,0.063,0.117,0.19c0,0.122-0.04,0.184-0.117,0.184
			c-0.562-0.029-1.143-0.045-1.744-0.045c-0.639,0-1.239,0.016-1.801,0.045c-0.088,0-0.133-0.062-0.133-0.184
			c0-0.127,0.04-0.19,0.117-0.19c0.469-0.034,0.74-0.124,0.813-0.271c0.02-0.039,0.029-0.094,0.029-0.162
			c0-0.205-0.144-0.656-0.433-1.354l-0.783-2.007c-0.122-0.313-0.236-0.649-0.344-1.011c-0.049,0.107-0.11,0.261-0.184,0.462
			c-0.093,0.254-0.166,0.451-0.22,0.593l-0.739,1.978c-0.156,0.444-0.234,0.799-0.234,1.063c0,0.16,0.031,0.293,0.095,0.395
			c0.107,0.182,0.352,0.286,0.732,0.315c0.088,0.01,0.132,0.073,0.132,0.19c0,0.122-0.049,0.184-0.146,0.184
			c-0.796-0.029-1.257-0.045-1.385-0.045c-0.439,0-0.866,0.016-1.281,0.045c-0.088,0-0.132-0.062-0.132-0.184
			c0-0.117,0.044-0.181,0.132-0.19c0.278-0.034,0.501-0.134,0.666-0.3c0.26-0.215,0.538-0.706,0.836-1.473l1.098-2.82
			c0.469-1.191,0.794-1.982,0.975-2.373c0.508-1.093,0.991-1.872,1.45-2.336c0.498-0.498,1.055-0.747,1.67-0.747
			c0.43,0,0.645,0.135,0.645,0.403c0,0.277-0.104,0.534-0.315,0.769c-0.185,0.215-0.39,0.322-0.615,0.322
			c-0.117,0-0.246-0.029-0.388-0.088c-0.142-0.068-0.261-0.103-0.358-0.103c-0.229,0-0.426,0.101-0.586,0.301
			C10.208,191.688,9.848,192.286,9.462,193.082z"/>
	</g>
	<rect fill="#553010" width="5" height="200"/>
</g>
</svg>
